G04 ================== begin FILE IDENTIFICATION RECORD ==================*
G04 Layout Name:  LinkingInterfaceV1.3.brd*
G04 Film Name:    linkingInterface_v1_SMT*
G04 File Format:  Gerber RS274X*
G04 File Origin:  Cadence Allegro 16.5-P002*
G04 Origin Date:  Sun Apr 19 14:49:51 2015*
G04 *
G04 Layer:  VIA CLASS/SOLDERMASK_TOP*
G04 Layer:  PIN/SOLDERMASK_TOP*
G04 *
G04 Offset:    (0.0 0.0)*
G04 Mirror:    No*
G04 Mode:      Positive*
G04 Rotation:  0*
G04 FullContactRelief:  No*
G04 UndefLineWidth:     0.0*
G04 ================== end FILE IDENTIFICATION RECORD ====================*
%FSLAX25Y25*MOIN*%
%IR0*IPPOS*OFA0.00000B0.00000*MIA0B0*SFA1.00000B1.00000*%
%ADD13C,.1*%
%ADD26C,.13*%
%ADD19R,.1X.1*%
%ADD10C,.145*%
%ADD24R,.088X.142*%
%ADD20R,.1102X.0866*%
%ADD33R,.0874X.1307*%
%ADD14R,.1102X.1102*%
%ADD12C,.05*%
%ADD25R,.038X.032*%
%ADD29C,.09*%
%ADD18C,.081*%
%ADD28R,.0335X.061*%
%ADD15R,.05X.05*%
%ADD11C,.075*%
%ADD31R,.0874X.0402*%
%ADD17R,.081X.081*%
%ADD34R,.0276X.0453*%
%ADD32R,.0394X.0551*%
%ADD23R,.088X.048*%
%ADD30R,.0768X.0315*%
%ADD22R,.086X.086*%
%ADD27R,.0591X.0394*%
%ADD16R,.0315X.0768*%
%ADD21R,.0315X.0689*%
%LPD*%
G75*
G54D10*
X1110000Y490000D03*
Y871000D03*
X1400000Y490000D03*
Y870000D03*
G54D11*
X1115500Y561000D03*
Y600370D03*
Y580690D03*
Y654190D03*
Y634500D03*
Y673870D03*
Y709000D03*
Y748370D03*
Y728690D03*
G54D20*
X1186300Y489200D03*
X1226300D03*
X1262800D03*
X1301300D03*
X1340300Y488700D03*
G54D21*
X1198440Y660350D03*
Y676100D03*
X1213200Y660350D03*
X1208280D03*
X1203360D03*
Y676100D03*
X1208280D03*
X1213200D03*
G54D30*
X1313620Y769300D03*
X1302600D03*
G54D12*
X1135000Y572000D03*
X1130000Y642000D03*
X1125000Y717500D03*
X1193500Y649800D03*
X1226500Y547000D03*
X1207000Y667000D03*
X1249600Y771400D03*
X1255100Y789200D03*
X1263500Y551000D03*
X1278500Y602500D03*
X1291600Y622100D03*
X1270800Y640400D03*
X1287800Y639800D03*
X1276500Y711500D03*
X1284700Y835600D03*
X1285200Y842100D03*
X1315500Y556000D03*
X1298500Y602500D03*
X1300200Y613500D03*
X1319000Y617200D03*
X1294400Y641600D03*
X1302500Y679600D03*
X1300600Y688600D03*
X1318900Y673200D03*
X1299500Y713500D03*
X1320500Y702700D03*
X1313600Y695840D03*
X1302800Y751300D03*
X1339200Y617300D03*
X1338900Y653000D03*
X1325500Y652900D03*
X1330800Y679800D03*
X1331000Y723800D03*
X1335430Y802400D03*
X1331720Y838100D03*
X1354000Y762500D03*
X1371100D03*
X1392000Y743800D03*
X1395600Y776100D03*
Y759800D03*
X1391600Y818000D03*
G54D22*
X1196200Y806900D03*
X1209400D03*
G54D31*
X1302400Y782790D03*
Y791840D03*
Y800900D03*
G54D13*
X1171740Y493530D03*
Y521090D03*
X1188300Y861700D03*
X1211740Y493530D03*
Y521090D03*
X1248240Y493530D03*
Y521090D03*
X1286740Y493530D03*
Y521090D03*
X1325740Y493030D03*
Y520590D03*
X1383800Y710800D03*
X1387000Y629100D03*
Y613500D03*
X1386700Y662100D03*
Y677700D03*
G54D23*
X1196000Y837600D03*
Y828600D03*
Y819600D03*
G54D32*
X1347180Y596880D03*
X1339700D03*
X1343440Y605540D03*
X1365180Y675680D03*
X1357700D03*
X1361440Y684340D03*
G54D14*
X1168780Y542350D03*
X1186300Y526600D03*
X1208780Y542350D03*
X1226300Y526600D03*
X1245280Y542350D03*
X1262800Y526600D03*
X1283780Y542350D03*
X1301300Y526600D03*
X1322780Y541850D03*
X1340300Y526100D03*
G54D15*
X1152500Y614400D03*
Y606000D03*
X1152800Y684100D03*
Y692500D03*
X1165900Y801600D03*
Y793200D03*
X1178100Y614000D03*
Y605600D03*
X1174600Y690400D03*
X1183000D03*
X1196000Y763700D03*
Y772100D03*
X1203400Y612900D03*
Y604500D03*
X1229700Y612300D03*
Y603900D03*
Y658000D03*
Y649600D03*
X1227400Y684300D03*
Y692700D03*
X1208300Y735100D03*
Y726700D03*
X1210500Y772100D03*
Y763700D03*
X1286800Y664400D03*
Y672800D03*
X1290500Y792700D03*
Y801100D03*
X1310600Y652800D03*
Y661200D03*
X1314600Y640100D03*
X1306200D03*
X1332000Y582500D03*
Y590900D03*
X1350100Y684400D03*
X1341700D03*
X1353900Y608900D03*
Y617300D03*
X1378400Y755400D03*
X1370000D03*
G54D33*
X1325230Y791840D03*
G54D24*
X1220400Y828600D03*
G54D16*
X1152400Y627980D03*
Y639000D03*
X1152800Y660800D03*
Y671820D03*
X1178100Y627780D03*
Y638800D03*
X1178000Y649280D03*
Y660300D03*
X1178200Y680720D03*
Y669700D03*
X1203400Y627580D03*
X1229800Y627480D03*
X1203400Y638600D03*
X1229800Y638500D03*
X1223800Y718320D03*
Y707300D03*
X1223300Y735280D03*
Y746300D03*
G54D34*
X1395700Y795720D03*
Y784700D03*
X1402300Y795720D03*
Y784700D03*
G54D25*
X1239200Y655100D03*
Y649500D03*
G54D17*
X1149500Y801700D03*
G54D26*
X1260850Y854640D03*
X1359280D03*
G54D27*
X1286500Y602470D03*
Y607390D03*
Y612310D03*
Y617240D03*
Y622160D03*
Y627080D03*
Y632000D03*
X1286810Y686000D03*
Y690920D03*
Y695840D03*
Y700760D03*
Y705690D03*
Y710610D03*
Y715530D03*
X1306190Y627080D03*
Y622160D03*
Y617240D03*
Y612310D03*
Y607390D03*
Y602470D03*
Y632000D03*
X1306500Y690920D03*
Y686000D03*
Y715530D03*
Y710610D03*
Y705690D03*
Y700760D03*
Y695840D03*
X1362810Y762500D03*
Y767420D03*
Y772340D03*
Y777260D03*
X1382500D03*
Y772340D03*
Y767420D03*
Y762500D03*
X1362810Y782190D03*
Y787110D03*
Y792030D03*
Y796950D03*
X1382500D03*
Y792030D03*
Y787110D03*
Y782190D03*
G54D18*
X1149500Y861700D03*
G54D28*
X1288000Y857000D03*
X1320810D03*
X1315360D03*
X1309870D03*
X1304420D03*
X1298960D03*
X1293510D03*
X1331720D03*
X1326270D03*
G54D19*
X1172700Y861700D03*
X1383800Y726400D03*
X1387000Y644700D03*
X1386700Y693300D03*
G54D29*
X1278570Y854640D03*
X1341560D03*
M02*
