G04 ================== begin FILE IDENTIFICATION RECORD ==================*
G04 Layout Name:  LinkingInterfaceV2_10.brd*
G04 Film Name:    LinkingInterface_v2_10_TOP*
G04 File Format:  Gerber RS274X*
G04 File Origin:  Cadence Allegro 16.5-P002*
G04 Origin Date:  Mon Jun 08 17:14:21 2015*
G04 *
G04 Layer:  ETCH/TOP*
G04 Layer:  PIN/TOP*
G04 Layer:  VIA CLASS/TOP*
G04 *
G04 Offset:    (0.0 0.0)*
G04 Mirror:    No*
G04 Mode:      Positive*
G04 Rotation:  0*
G04 FullContactRelief:  No*
G04 UndefLineWidth:     0.0*
G04 ================== end FILE IDENTIFICATION RECORD ====================*
%FSLAX25Y25*MOIN*%
%IR0*IPPOS*OFA0.00000B0.00000*MIA0B0*SFA1.00000B1.00000*%
%ADD13C,.1*%
%ADD12R,.1X.1*%
%ADD32R,.0866X.1102*%
%ADD17R,.0984X.1299*%
%ADD31R,.1102X.1102*%
%ADD14C,.03*%
%ADD26C,.05*%
%ADD10C,.025*%
%ADD30R,.038X.032*%
%ADD11C,.062*%
%ADD16C,.081*%
%ADD18R,.0217X.0413*%
%ADD29C,.056*%
%ADD19R,.05X.05*%
%ADD21C,.058*%
%ADD15R,.062X.062*%
%ADD23R,.081X.081*%
%ADD28R,.056X.056*%
%ADD24R,.058X.058*%
%ADD20R,.086X.086*%
%ADD22R,.0728X.0276*%
%ADD27R,.0276X.0728*%
%ADD25R,.0394X.0197*%
%ADD33C,.005*%
%ADD34C,.012*%
%ADD35C,.035*%
G75*
%LPD*%
G75*
G54D10*
X10000Y10000D03*
Y250000D03*
Y440000D03*
X340000Y10000D03*
Y250000D03*
Y440000D03*
G54D20*
X66800Y377400D03*
X80000D03*
G54D11*
X10400Y292700D03*
Y302700D03*
Y312700D03*
Y332700D03*
Y322700D03*
X20400Y302700D03*
Y312700D03*
Y322700D03*
Y332700D03*
X99900Y271800D03*
X89900Y281800D03*
X99900D03*
X129900D03*
X109900Y271800D03*
X119900D03*
X129900D03*
X109900Y281800D03*
X119900D03*
X312400Y77200D03*
Y67200D03*
Y57200D03*
Y107200D03*
Y97200D03*
Y87200D03*
Y137200D03*
Y127200D03*
Y167200D03*
Y157200D03*
Y147200D03*
Y197200D03*
Y187200D03*
Y177200D03*
G54D21*
X100800Y45000D03*
X90800D03*
X80800D03*
X100800Y55000D03*
X90800D03*
X80800D03*
X120800Y45000D03*
X110800D03*
X130800Y55000D03*
X120800D03*
X110800D03*
X160800Y45000D03*
X150800D03*
X140800D03*
X160800Y55000D03*
X150800D03*
X140800D03*
X190800Y45000D03*
X170800D03*
X190800Y55000D03*
X180800D03*
X170800D03*
X179100Y373300D03*
Y363300D03*
Y393300D03*
Y383300D03*
X220800Y45000D03*
X210800D03*
X200800D03*
X220800Y55000D03*
X210800D03*
X200800D03*
X209100Y373300D03*
Y383300D03*
Y393300D03*
X250800Y45000D03*
X240800D03*
X250800Y55000D03*
X240800D03*
X230800D03*
X270800Y45000D03*
X260800D03*
Y55000D03*
G54D30*
X232100Y363100D03*
Y368700D03*
G54D12*
X11700Y401800D03*
X98800Y432500D03*
X156700Y432400D03*
X203700Y287900D03*
X230100Y436000D03*
X273100D03*
G54D22*
X81590Y314300D03*
X94580D03*
X123820Y313700D03*
X136810D03*
X163590Y313600D03*
X187520Y313700D03*
X176580Y313600D03*
X200510Y313700D03*
X195990Y338000D03*
X208980D03*
X242820Y366300D03*
X242920Y404000D03*
X255810Y366300D03*
X255910Y404000D03*
G54D31*
X285550Y281280D03*
X301300Y298800D03*
X285850Y323580D03*
X301600Y341100D03*
X287250Y366280D03*
X303000Y383800D03*
X287250Y404080D03*
X303000Y421600D03*
G54D13*
X11700Y386200D03*
X114400Y432500D03*
X130000D03*
X188100Y287900D03*
X172300Y432400D03*
X187900D03*
X214500Y436000D03*
X257500D03*
X306810Y284240D03*
X307110Y326540D03*
X308510Y369240D03*
Y407040D03*
X334370Y284240D03*
X334670Y326540D03*
X336070Y369240D03*
Y407040D03*
G54D23*
X102600Y401800D03*
G54D14*
G01X69800Y357600D02*
X76100D01*
X76200Y357700D01*
X80100D01*
G01X179100Y393300D02*
X172500D01*
X172400Y393200D01*
X138300D01*
X129900Y384800D01*
Y368800D01*
X118800Y357700D01*
X80100D01*
G01X117210Y148500D02*
Y141590D01*
X128400Y130400D01*
X172700D01*
X174800Y128300D01*
G01X145300Y230500D02*
X127200D01*
X105800Y209100D01*
Y148500D01*
G01D02*
X117210D01*
G01X145300Y230500D02*
X151800D01*
X162120Y220180D01*
X171640D01*
X171660Y220200D01*
G01X174900Y106400D02*
Y115700D01*
X174800Y115800D01*
Y119700D01*
G01Y128300D02*
Y119700D01*
G01X186100Y119600D02*
X178800D01*
X178700Y119700D01*
X174800D01*
G01X189800Y220200D02*
X171660D01*
G01X189800D02*
X203800D01*
X203920Y220080D01*
X206700D01*
G01X171660Y220200D02*
X171580Y220280D01*
X168800D01*
G01X209100Y383300D02*
X194800D01*
X184800Y393300D01*
X179100D01*
G01X221400Y220000D02*
X227600D01*
X231490Y216110D01*
Y207300D01*
G01X206700Y220080D02*
X217420D01*
X217500Y220000D01*
X221400D01*
G01X229100Y383320D02*
X226320D01*
X226300Y383300D01*
X209100D01*
G01X231490Y177700D02*
X244700D01*
G01X231490Y207300D02*
Y177700D01*
G01X269100Y207200D02*
X268300D01*
X268200Y207100D01*
X231690D01*
X231490Y207300D01*
X41100Y264040D03*
X36500Y312100D03*
X31100Y297300D03*
X43700Y186000D03*
X54700Y330700D03*
X67600D03*
X53700Y323300D03*
X68300D03*
X99000Y197400D03*
X90000Y291200D03*
X93100Y369400D03*
Y393000D03*
X130100Y124100D03*
X105800Y133200D03*
X124500Y153000D03*
X130300Y161000D03*
X104300Y264040D03*
X128200Y321900D03*
X142200Y33500D03*
X156740Y163260D03*
X143200Y197400D03*
X145230Y178030D03*
X152700Y241300D03*
X145700Y352100D03*
X139700Y401800D03*
X180000Y152700D03*
X189800Y220200D03*
X181600Y207300D03*
X169100Y232900D03*
X187500Y331800D03*
X170700Y342100D03*
X167500Y363100D03*
X187600Y373300D03*
X215400Y111300D03*
X214400Y121300D03*
X205470Y148170D03*
X220800Y182200D03*
X198800Y171500D03*
X193590Y207090D03*
X222500Y271400D03*
X217300Y393000D03*
X223000Y197400D03*
X244700Y192800D03*
X228600Y313600D03*
X277500Y182200D03*
X338700Y308600D03*
X338800Y350600D03*
X340000Y392500D03*
X331700Y425000D03*
G54D32*
X338700Y298800D03*
X339000Y341100D03*
X340400Y383800D03*
Y421600D03*
G54D33*
G01X-56200Y86200D02*
Y78700D01*
G01X-58350Y86200D02*
X-54050D01*
G01X-48700Y78700D02*
X-49450Y78820D01*
X-50100Y79320D01*
X-50660Y80070D01*
X-51030Y80950D01*
X-51220Y81950D01*
Y82950D01*
X-51030Y83950D01*
X-50660Y84830D01*
X-50100Y85570D01*
X-49450Y86080D01*
X-48700Y86200D01*
X-47950Y86080D01*
X-47300Y85570D01*
X-46740Y84830D01*
X-46370Y83950D01*
X-46180Y82950D01*
Y81950D01*
X-46370Y80950D01*
X-46740Y80070D01*
X-47300Y79320D01*
X-47950Y78820D01*
X-48700Y78700D01*
G01X-43070D02*
Y86200D01*
X-40830D01*
X-40080Y85820D01*
X-39520Y84950D01*
X-39330Y83950D01*
X-39520Y82950D01*
X-39990Y82200D01*
X-40830Y81820D01*
X-43070D01*
G54D24*
X130800Y45000D03*
X180800D03*
X209100Y363300D03*
X230800Y45000D03*
X270800Y55000D03*
G54D15*
X20400Y292700D03*
X89900Y271800D03*
X312400Y117200D03*
Y207200D03*
G54D34*
G01X31100Y297300D02*
Y171000D01*
X112100Y90000D01*
X144500D01*
X144900Y90400D01*
X148800D01*
G01X36500Y312100D02*
Y219090D01*
X43700Y211890D01*
Y208420D01*
G01X54700Y330700D02*
X51800D01*
X51700Y330600D01*
X38300D01*
X20400Y312700D01*
G01X53700Y323300D02*
X41000D01*
X20400Y302700D01*
G01X43700Y197400D02*
Y186000D01*
G01X49100Y208420D02*
X43700D01*
G01X49100Y197400D02*
X99000D01*
G01X41100Y264040D02*
X104300D01*
G01X66800Y281900D02*
X85300D01*
X85400Y281800D01*
X89900D01*
G01X66800Y281900D02*
X61400Y287300D01*
Y357600D01*
G01X66800Y290300D02*
X67700Y291200D01*
X90000D01*
G01X67600Y330700D02*
X114160D01*
X135550Y352090D01*
X135560D01*
X142600Y359130D01*
Y361390D01*
G01X68300Y323300D02*
X113100D01*
X127800Y338000D01*
X195990D01*
G01X61400Y357600D02*
Y372000D01*
X66800Y377400D01*
G01X81600Y299900D02*
Y311510D01*
X81590Y311520D01*
Y314300D01*
G01X90000Y299900D02*
Y291200D01*
G01X94580Y314300D02*
X99620D01*
X99820Y314500D01*
X112700D01*
X129960Y331760D01*
X184460D01*
X184500Y331800D01*
X187500D01*
G01X93100Y385700D02*
Y393000D01*
G01X142200Y33500D02*
X138700Y37000D01*
Y37100D01*
X130800Y45000D01*
G01X130100Y124100D02*
Y119800D01*
X130200Y119700D01*
X166400D01*
G01X105800Y140100D02*
Y133200D01*
G01X124500Y153000D02*
Y164080D01*
X133530Y173110D01*
X136900D01*
G01X130300Y161000D02*
Y162570D01*
X135920Y168190D01*
X136900D01*
G01X109900Y271800D02*
Y267100D01*
X115300Y261700D01*
X140500D01*
X145200Y266400D01*
Y300100D01*
G01X128200Y321900D02*
X123820Y317520D01*
Y313700D01*
G01X158800Y90400D02*
X204600D01*
X227100Y112900D01*
Y156300D01*
X215540Y167860D01*
X211800D01*
G01X153800Y97900D02*
X170900D01*
X171000Y98000D01*
X174900D01*
G01X208430Y162940D02*
X208290Y162800D01*
X176400D01*
X171940Y158340D01*
X136900D01*
G01Y148500D02*
X175800D01*
X180000Y152700D01*
G01X211800Y158010D02*
X179110D01*
X174520Y153420D01*
X136900D01*
G01Y163260D02*
X156740D01*
G01X136900Y208100D02*
Y178030D01*
G01D02*
X145230D01*
G01X143200Y197400D02*
X223000D01*
G01X145300Y208100D02*
Y222100D01*
G01X161300Y241300D02*
X152700D01*
G01X136810Y313700D02*
Y304010D01*
X136800Y304000D01*
Y300100D01*
G01X145700Y352100D02*
X161900Y368300D01*
X202100D01*
X207100Y373300D01*
X209100D01*
G01X142600Y383400D02*
Y374380D01*
G01X151000Y383400D02*
X166000D01*
G01X132700Y401800D02*
X139700D01*
G01X215400Y111300D02*
X212500D01*
X212400Y111200D01*
X186100D01*
G01X175000Y128100D02*
X174800Y128300D01*
G01X168800Y207290D02*
X178690D01*
X178700Y207300D01*
X181600D01*
G01X163600Y279800D02*
Y310810D01*
X163590Y310820D01*
Y313600D01*
G01X163600Y271400D02*
X222500D01*
G01X187520Y313700D02*
Y328520D01*
X187500Y328540D01*
Y331800D01*
G01X187520Y313700D02*
X181720D01*
X181620Y313600D01*
X176580D01*
G01X170700Y349600D02*
Y342100D01*
G01X166000Y375000D02*
X171500D01*
X173200Y373300D01*
X179100D01*
G01D02*
X187600D01*
G01X179100Y383300D02*
X170000D01*
X169900Y383400D01*
X166000D01*
G01X215400Y111300D02*
X221800Y117700D01*
Y156310D01*
X215170Y162940D01*
X211800D01*
G01X214400Y121300D02*
X216460Y123360D01*
Y123460D01*
X217400Y124400D01*
Y151300D01*
X215610Y153090D01*
X211800D01*
G01Y172780D02*
X208430D01*
X206800Y171150D01*
Y164570D01*
X208430Y162940D01*
G01D02*
X211800D01*
G01Y148170D02*
X205470D01*
G01X198800Y171500D02*
X205000Y177700D01*
X211800D01*
G01D02*
X216300D01*
X220800Y182200D01*
G01X206700Y207090D02*
X216890D01*
X221400Y211600D01*
G01X206700Y207090D02*
X193590D01*
G01X219600Y313600D02*
X228600D01*
G01X211200D02*
X205650D01*
X205550Y313700D01*
X200510D01*
G01X209100Y363300D02*
Y340900D01*
X208980Y340780D01*
Y338000D01*
G01X221800Y363200D02*
X217900D01*
X217800Y363300D01*
X209100D01*
G01X221800Y371600D02*
X217900D01*
X216200Y373300D01*
X209100D01*
G01Y393300D02*
X217000D01*
X217300Y393000D01*
G01X229100Y396310D02*
X220610D01*
X217300Y393000D01*
G01X244700Y186100D02*
Y192800D01*
G01X221800Y363200D02*
X228700D01*
X228800Y363100D01*
X232100D01*
G01X221800Y371600D02*
X225900D01*
X228800Y368700D01*
X232100D01*
G01D02*
X237800D01*
X240200Y366300D01*
X242820D01*
G01D02*
Y401120D01*
X242920Y401220D01*
Y404000D01*
G01X277500Y207200D02*
Y182200D01*
G01Y207200D02*
X312400D01*
G01X262300Y281300D02*
X278620D01*
X278640Y281280D01*
X285550D01*
G01X285850Y323580D02*
X266120D01*
X266000Y323700D01*
X261800D01*
G01X255810Y366300D02*
X261600D01*
X261700Y366200D01*
X265600D01*
G01X287250Y366280D02*
X277980D01*
X277900Y366200D01*
X274000D01*
G01X274500Y404000D02*
X280260D01*
X280340Y404080D01*
X287250D01*
G01X266100Y404000D02*
X255910D01*
G01X285550Y281280D02*
Y293850D01*
X290500Y298800D01*
X301300D01*
G01X301600Y341100D02*
X292500D01*
X285900Y334500D01*
Y330540D01*
X285850Y330490D01*
Y323580D01*
G01X287250Y366280D02*
Y378050D01*
X293100Y383900D01*
X295990D01*
X296090Y383800D01*
X303000D01*
G01X287250Y404080D02*
Y415250D01*
X293600Y421600D01*
X303000D01*
G01X338700Y298800D02*
Y308600D01*
G01X339000Y341100D02*
X338800Y341300D01*
Y350600D01*
G01X340000Y392500D02*
Y384200D01*
X340400Y383800D01*
G01Y421600D02*
X335100D01*
X331700Y425000D01*
G54D25*
X117210Y148500D03*
Y153420D03*
Y158340D03*
Y163260D03*
Y168190D03*
Y173110D03*
Y178030D03*
X136900Y163260D03*
Y158340D03*
Y153420D03*
Y148500D03*
Y178030D03*
Y173110D03*
Y168190D03*
X211800Y148170D03*
Y153090D03*
Y158010D03*
Y162940D03*
Y167860D03*
Y172780D03*
Y177700D03*
X231490Y162940D03*
Y158010D03*
Y153090D03*
Y148170D03*
Y177700D03*
Y172780D03*
Y167860D03*
G54D16*
X42600Y401800D03*
G54D35*
G01X11700D02*
X42600D01*
G01X42640Y432190D02*
Y407300D01*
X42600Y407260D01*
Y401800D01*
G01X98800Y432500D02*
X69570D01*
G01X93100Y377300D02*
X85800D01*
X85700Y377400D01*
X80000D01*
G01X80100Y366100D02*
Y371600D01*
X80000Y371700D01*
Y377400D01*
G01X93100Y377300D02*
Y369400D01*
G01X156700Y432400D02*
X146500Y442600D01*
X108900D01*
X98800Y432500D01*
G01X102600Y401800D02*
X124300D01*
G01X130000Y432500D02*
X142400Y420100D01*
X241600D01*
X257500Y436000D01*
G01X161300Y232900D02*
X169100D01*
G01X179100Y363300D02*
Y349600D01*
G01X167500Y363100D02*
X171560D01*
X171760Y363300D01*
X179100D01*
G01X214500Y436000D02*
X202200D01*
X198600Y432400D01*
X187900D01*
G54D26*
X153800Y97900D03*
X148800Y90400D03*
G54D17*
X42640Y432190D03*
X69570Y432500D03*
G54D27*
X142600Y361390D03*
Y374380D03*
X168800Y207290D03*
Y220280D03*
X206700Y207090D03*
Y220080D03*
X229100Y396310D03*
Y383320D03*
G54D18*
X49100Y208420D03*
Y197400D03*
X43700Y208420D03*
Y197400D03*
G54D28*
X242300Y271300D03*
X241800Y313700D03*
G54D19*
X66800Y281900D03*
Y290300D03*
X61400Y357600D03*
X69800D03*
X81600Y299900D03*
X90000D03*
X93100Y377300D03*
X80100Y357700D03*
Y366100D03*
X93100Y385700D03*
X105800Y148500D03*
Y140100D03*
X124300Y401800D03*
X158800Y90400D03*
X145300Y208100D03*
X136900D03*
X145300Y222100D03*
X161300Y241300D03*
Y232900D03*
X145300Y230500D03*
X136800Y300100D03*
X145200D03*
X132700Y401800D03*
X142600Y383400D03*
X151000D03*
X174900Y106400D03*
Y98000D03*
X166400Y119700D03*
X174800D03*
X186100Y111200D03*
Y119600D03*
X163600Y279800D03*
Y271400D03*
X170700Y349600D03*
X179100D03*
X166000Y375000D03*
Y383400D03*
X221400Y211600D03*
Y220000D03*
X211200Y313600D03*
X219600D03*
X221800Y363200D03*
Y371600D03*
X244700Y186100D03*
Y177700D03*
X277500Y207200D03*
X269100D03*
X265600Y366200D03*
X274000D03*
X266100Y404000D03*
X274500D03*
G54D29*
X242300Y291300D03*
X241800Y333700D03*
X262300Y281300D03*
X261800Y323700D03*
M02*
