G04 ================== begin FILE IDENTIFICATION RECORD ==================*
G04 Layout Name:  LinkingInterfaceV2_12.brd*
G04 Film Name:    LinkingInterface_v2_12_SST*
G04 File Format:  Gerber RS274X*
G04 File Origin:  Cadence Allegro 16.5-P002*
G04 Origin Date:  Tue Jun 09 13:58:17 2015*
G04 *
G04 Layer:  REF DES/SILKSCREEN_TOP*
G04 Layer:  PACKAGE GEOMETRY/SILKSCREEN_TOP*
G04 Layer:  BOARD GEOMETRY/SILKSCREEN_TOP*
G04 *
G04 Offset:    (0.0 0.0)*
G04 Mirror:    No*
G04 Mode:      Positive*
G04 Rotation:  0*
G04 FullContactRelief:  No*
G04 UndefLineWidth:     0.0*
G04 ================== end FILE IDENTIFICATION RECORD ====================*
%FSLAX25Y25*MOIN*%
%IR0*IPPOS*OFA0.00000B0.00000*MIA0B0*SFA1.00000B1.00000*%
%ADD10C,.005*%
%ADD11C,.006*%
%ADD12C,.008*%
%ADD13C,.025*%
G75*
%LPD*%
G75*
G36*
G01X42010Y444700D02*
Y420300D01*
X70360D01*
Y444700D01*
X42010D01*
G37*
G36*
G01X80010Y305840D02*
X96940D01*
Y322760D01*
X80010D01*
Y305840D01*
G37*
G36*
G01X138390Y322160D02*
X121460D01*
Y305240D01*
X138390D01*
Y322160D01*
G37*
G36*
G01X151060Y359810D02*
Y376740D01*
X134140D01*
Y359810D01*
X151060D01*
G37*
G36*
G01X177260Y205710D02*
Y222640D01*
X160340D01*
Y205710D01*
X177260D01*
G37*
G36*
G01X202090Y322160D02*
X185160D01*
Y305240D01*
X202090D01*
Y322160D01*
G37*
G36*
G01X162010Y305140D02*
X178940D01*
Y322060D01*
X162010D01*
Y305140D01*
G37*
G36*
G01X215160Y205510D02*
Y222440D01*
X198240D01*
Y205510D01*
X215160D01*
G37*
G36*
G01X194410Y329540D02*
X211340D01*
Y346460D01*
X194410D01*
Y329540D01*
G37*
G36*
G01X257390Y374760D02*
X240460D01*
Y357840D01*
X257390D01*
Y374760D01*
G37*
G36*
G01X257490Y412460D02*
X240560D01*
Y395540D01*
X257490D01*
Y412460D01*
G37*
G36*
G01X220640Y397890D02*
Y380960D01*
X237560D01*
Y397890D01*
X220640D01*
G37*
G54D10*
G01X-57660Y24200D02*
X-56910Y23570D01*
X-56070Y23200D01*
X-55330D01*
X-54580Y23570D01*
X-54020Y24200D01*
X-53740Y25080D01*
X-53930Y25950D01*
X-54390Y26700D01*
X-55230Y27200D01*
X-56350Y27450D01*
X-57010Y27950D01*
X-57290Y28820D01*
X-57100Y29700D01*
X-56630Y30320D01*
X-55980Y30700D01*
X-55330D01*
X-54670Y30450D01*
X-54110Y29820D01*
G01X-50160Y24200D02*
X-49410Y23570D01*
X-48570Y23200D01*
X-47830D01*
X-47080Y23570D01*
X-46520Y24200D01*
X-46240Y25080D01*
X-46430Y25950D01*
X-46890Y26700D01*
X-47730Y27200D01*
X-48850Y27450D01*
X-49510Y27950D01*
X-49790Y28820D01*
X-49600Y29700D01*
X-49130Y30320D01*
X-48480Y30700D01*
X-47830D01*
X-47170Y30450D01*
X-46610Y29820D01*
G01X-40700Y30700D02*
Y23200D01*
G01X-42850Y30700D02*
X-38550D01*
G01X10610Y285120D02*
X10250Y285390D01*
X10040Y285620D01*
X9940Y285930D01*
X10040Y286200D01*
X10250Y286390D01*
X10560Y286540D01*
X10920Y286580D01*
X11230Y286540D01*
X11540Y286390D01*
X11800Y286160D01*
X11900Y285890D01*
X11800Y285580D01*
X11490Y285310D01*
X11020Y285160D01*
X10510Y285120D01*
X9830Y285200D01*
X9470Y285310D01*
X9110Y285500D01*
X8850Y285770D01*
X8800Y286040D01*
X8900Y286310D01*
X9160Y286500D01*
G01X11900Y339850D02*
X8800D01*
X9420Y339390D01*
G01X11900D02*
Y340310D01*
G01X8800Y342950D02*
X8900Y342640D01*
X9160Y342410D01*
X9470Y342260D01*
X9890Y342140D01*
X10350Y342110D01*
X10820Y342140D01*
X11230Y342260D01*
X11540Y342410D01*
X11800Y342640D01*
X11900Y342950D01*
X11800Y343260D01*
X11540Y343490D01*
X11230Y343640D01*
X10820Y343760D01*
X10350Y343790D01*
X9890Y343760D01*
X9470Y343640D01*
X9160Y343490D01*
X8900Y343260D01*
X8800Y342950D01*
G01X8880Y351060D02*
X9280Y350430D01*
X9740Y350010D01*
X10290Y349800D01*
X10920Y350010D01*
X11390Y350430D01*
X11860Y351060D01*
X12020Y351900D01*
Y356100D01*
G01X16750Y349800D02*
Y356100D01*
X15810Y354840D01*
G01Y349800D02*
X17690D01*
G01X22890D02*
X23050Y351160D01*
X23290Y352320D01*
X23600Y353370D01*
X23990Y354520D01*
X24620Y356100D01*
X21480D01*
G01X8640Y412990D02*
X13640D01*
X12640Y413750D01*
G01X8640D02*
Y412230D01*
G01X37400Y205690D02*
X40500D01*
Y204930D01*
X40340Y204620D01*
X40140Y204390D01*
X39830Y204200D01*
X39470Y204040D01*
X38950Y204010D01*
X38430Y204040D01*
X38070Y204200D01*
X37760Y204390D01*
X37550Y204620D01*
X37400Y204930D01*
Y205690D01*
G01X39980Y202480D02*
X40290Y202250D01*
X40450Y201980D01*
X40500Y201670D01*
X40400Y201290D01*
X40140Y201020D01*
X39830Y200940D01*
X39520Y200980D01*
X39260Y201140D01*
X38740Y201900D01*
X38380Y202250D01*
X37860Y202480D01*
X37400Y202560D01*
Y200940D01*
G01X20900Y285850D02*
X17800D01*
X18420Y285390D01*
G01X20900D02*
Y286310D01*
G01X21440Y340010D02*
X21690Y340240D01*
X21850Y340500D01*
X21900Y340850D01*
X21800Y341200D01*
X21590Y341460D01*
X21230Y341660D01*
X20820Y341690D01*
X20400Y341620D01*
X20140Y341420D01*
X19940Y341160D01*
X19890Y340890D01*
X19940Y340620D01*
X20140Y340280D01*
X18800Y340390D01*
Y341420D01*
G01X44450Y380470D02*
X43890Y380850D01*
X43240Y381100D01*
X42490D01*
X41650Y380720D01*
X41000Y380100D01*
X40530Y379350D01*
X40160Y378100D01*
X40070Y376970D01*
X40250Y375850D01*
X40530Y375100D01*
X41090Y374350D01*
X41750Y373850D01*
X42400Y373600D01*
X43050D01*
X43710Y373850D01*
X44270Y374220D01*
X44730Y374720D01*
G01X49900Y373600D02*
Y381100D01*
X48780Y379600D01*
G01Y373600D02*
X51020D01*
G01X55350Y375100D02*
X55910Y374220D01*
X56650Y373720D01*
X57490Y373600D01*
X58240Y373720D01*
X58990Y374350D01*
X59450Y375100D01*
X59550Y375850D01*
X59360Y376720D01*
X58710Y377350D01*
X58050Y377600D01*
X57210D01*
G01X58050D02*
X58610Y377970D01*
X59080Y378600D01*
X59270Y379350D01*
X59080Y380100D01*
X58610Y380720D01*
X57770Y381100D01*
X56930Y380980D01*
X56090Y380470D01*
G01X29930Y386500D02*
X30400Y385750D01*
X30960Y385250D01*
X31610Y385000D01*
X32360Y385250D01*
X32920Y385750D01*
X33480Y386500D01*
X33670Y387500D01*
Y392500D01*
G01X39110Y385000D02*
X39300Y386620D01*
X39580Y388000D01*
X39950Y389250D01*
X40420Y390620D01*
X41170Y392500D01*
X37430D01*
G01X67150Y7000D02*
Y10100D01*
X66690Y9480D01*
G01Y7000D02*
X67610D01*
G01X66420Y19580D02*
X66650Y19890D01*
X66920Y20050D01*
X67230Y20100D01*
X67610Y20000D01*
X67880Y19740D01*
X67960Y19430D01*
X67920Y19120D01*
X67760Y18860D01*
X67000Y18340D01*
X66650Y17980D01*
X66420Y17460D01*
X66340Y17000D01*
X67960D01*
G01X52500Y205290D02*
X55600D01*
Y204530D01*
X55440Y204220D01*
X55240Y203990D01*
X54930Y203800D01*
X54570Y203640D01*
X54050Y203610D01*
X53530Y203640D01*
X53170Y203800D01*
X52860Y203990D01*
X52650Y204220D01*
X52500Y204530D01*
Y205290D01*
G01Y200890D02*
X55600D01*
X53380Y202310D01*
Y200390D01*
G01X61400Y279430D02*
X56400D01*
Y281020D01*
X56650Y281520D01*
X56980Y281840D01*
X57650Y281970D01*
X58320Y281840D01*
X58730Y281460D01*
X58980Y281020D01*
Y279430D01*
G01Y281020D02*
X61400Y281970D01*
G01Y285800D02*
X56400D01*
X57400Y285040D01*
G01X61400D02*
Y286560D01*
G01Y290900D02*
X56400D01*
X57400Y290140D01*
G01X61400D02*
Y291660D01*
G01X63330Y304400D02*
Y309400D01*
X64920D01*
X65420Y309150D01*
X65740Y308820D01*
X65870Y308150D01*
X65740Y307480D01*
X65360Y307070D01*
X64920Y306820D01*
X63330D01*
G01X64920D02*
X65870Y304400D01*
G01X69700D02*
Y309400D01*
X68940Y308400D01*
G01Y304400D02*
X70460D01*
G01X74800Y309400D02*
X74290Y309230D01*
X73910Y308820D01*
X73660Y308320D01*
X73470Y307650D01*
X73410Y306900D01*
X73470Y306150D01*
X73660Y305480D01*
X73910Y304980D01*
X74290Y304570D01*
X74800Y304400D01*
X75310Y304570D01*
X75690Y304980D01*
X75940Y305480D01*
X76130Y306150D01*
X76190Y306900D01*
X76130Y307650D01*
X75940Y308320D01*
X75690Y308820D01*
X75310Y309230D01*
X74800Y309400D01*
G01X43530Y355000D02*
Y360000D01*
X45120D01*
X45620Y359750D01*
X45940Y359420D01*
X46070Y358750D01*
X45940Y358080D01*
X45560Y357670D01*
X45120Y357420D01*
X43530D01*
G01X45120D02*
X46070Y355000D01*
G01X49900D02*
Y360000D01*
X49140Y359000D01*
G01Y355000D02*
X50660D01*
G01X53800Y357080D02*
X54240Y357670D01*
X54620Y358000D01*
X55130Y358170D01*
X55570Y358000D01*
X55890Y357670D01*
X56140Y357170D01*
X56200Y356580D01*
X56140Y356080D01*
X55890Y355580D01*
X55510Y355170D01*
X55060Y355000D01*
X54560Y355170D01*
X54110Y355670D01*
X53860Y356420D01*
X53800Y357250D01*
X53920Y358330D01*
X54110Y358920D01*
X54430Y359500D01*
X54870Y359920D01*
X55320Y360000D01*
X55760Y359830D01*
X56080Y359420D01*
G01X65330Y399200D02*
Y405500D01*
X66890D01*
X67520Y405180D01*
X67990Y404760D01*
X68380Y404140D01*
X68700Y403400D01*
X68770Y402350D01*
X68700Y401300D01*
X68380Y400560D01*
X67990Y399930D01*
X67520Y399510D01*
X66890Y399200D01*
X65330D01*
G01X73350D02*
Y405500D01*
X72410Y404240D01*
G01Y399200D02*
X74290D01*
G01X56890Y401500D02*
X58770D01*
G01X57750Y402870D02*
Y400130D01*
G01X51630Y434000D02*
Y440300D01*
X53190D01*
X53820Y439980D01*
X54290Y439560D01*
X54680Y438940D01*
X55000Y438200D01*
X55070Y437150D01*
X55000Y436100D01*
X54680Y435360D01*
X54290Y434730D01*
X53820Y434310D01*
X53190Y434000D01*
X51630D01*
G01X57930Y434940D02*
X58400Y434420D01*
X58940Y434100D01*
X59650Y434000D01*
X60360Y434210D01*
X60900Y434630D01*
X61300Y435360D01*
X61370Y436200D01*
X61220Y437040D01*
X60820Y437570D01*
X60280Y437990D01*
X59730Y438090D01*
X59180Y437990D01*
X58480Y437570D01*
X58710Y440300D01*
X60820D01*
G01X100080Y147610D02*
X100330Y147990D01*
X100500Y148430D01*
Y148940D01*
X100250Y149510D01*
X99830Y149950D01*
X99330Y150270D01*
X98500Y150520D01*
X97750Y150580D01*
X97000Y150460D01*
X96500Y150270D01*
X96000Y149890D01*
X95670Y149440D01*
X95500Y149000D01*
Y148560D01*
X95670Y148110D01*
X95920Y147730D01*
X96250Y147420D01*
G01X95500Y143900D02*
X100500D01*
X99500Y144660D01*
G01X95500D02*
Y143140D01*
G01X96080Y139880D02*
X95670Y139430D01*
X95500Y138930D01*
X95670Y138420D01*
X96170Y137980D01*
X96920Y137660D01*
X97670Y137530D01*
X98580D01*
X99330Y137660D01*
X100000Y137980D01*
X100330Y138360D01*
X100500Y138800D01*
X100330Y139310D01*
X100000Y139690D01*
X99500Y139940D01*
X98830Y140070D01*
X98250Y139940D01*
X97670Y139620D01*
X97330Y139240D01*
X97250Y138800D01*
X97420Y138290D01*
X97830Y137910D01*
X98580Y137530D01*
G01X91500Y269400D02*
Y274400D01*
X90740Y273400D01*
G01Y269400D02*
X92260D01*
G01X79660Y268740D02*
Y271840D01*
X79200Y271220D01*
G01Y268740D02*
X80120D01*
G01X78920Y279990D02*
X79190Y280350D01*
X79420Y280560D01*
X79730Y280660D01*
X80000Y280560D01*
X80190Y280350D01*
X80340Y280040D01*
X80380Y279680D01*
X80340Y279370D01*
X80190Y279060D01*
X79960Y278800D01*
X79690Y278700D01*
X79380Y278800D01*
X79110Y279110D01*
X78960Y279580D01*
X78920Y280090D01*
X79000Y280770D01*
X79110Y281130D01*
X79300Y281490D01*
X79570Y281750D01*
X79840Y281800D01*
X80110Y281700D01*
X80300Y281440D01*
G01X90390Y316780D02*
X90010Y317030D01*
X89570Y317200D01*
X89060D01*
X88490Y316950D01*
X88050Y316530D01*
X87730Y316030D01*
X87480Y315200D01*
X87420Y314450D01*
X87540Y313700D01*
X87730Y313200D01*
X88110Y312700D01*
X88560Y312370D01*
X89000Y312200D01*
X89440D01*
X89890Y312370D01*
X90270Y312620D01*
X90580Y312950D01*
G01X94100Y312200D02*
Y317200D01*
X93340Y316200D01*
G01Y312200D02*
X94860D01*
G01X99200Y317200D02*
X98690Y317030D01*
X98310Y316620D01*
X98060Y316120D01*
X97870Y315450D01*
X97810Y314700D01*
X97870Y313950D01*
X98060Y313280D01*
X98310Y312780D01*
X98690Y312370D01*
X99200Y312200D01*
X99710Y312370D01*
X100090Y312780D01*
X100340Y313280D01*
X100530Y313950D01*
X100590Y314700D01*
X100530Y315450D01*
X100340Y316120D01*
X100090Y316620D01*
X99710Y317030D01*
X99200Y317200D01*
G01X93490Y308500D02*
X95370D01*
G01X94350Y309870D02*
Y307130D01*
G01X88820Y378460D02*
X87300D01*
G01X88120Y377380D02*
Y379550D01*
G01X75130Y348000D02*
Y353000D01*
X76720D01*
X77220Y352750D01*
X77540Y352420D01*
X77670Y351750D01*
X77540Y351080D01*
X77160Y350670D01*
X76720Y350420D01*
X75130D01*
G01X76720D02*
X77670Y348000D01*
G01X81500D02*
Y353000D01*
X80740Y352000D01*
G01Y348000D02*
X82260D01*
G01X85210Y349000D02*
X85590Y348420D01*
X86090Y348080D01*
X86660Y348000D01*
X87170Y348080D01*
X87680Y348500D01*
X87990Y349000D01*
X88060Y349500D01*
X87930Y350080D01*
X87490Y350500D01*
X87040Y350670D01*
X86470D01*
G01X87040D02*
X87420Y350920D01*
X87740Y351330D01*
X87870Y351830D01*
X87740Y352330D01*
X87420Y352750D01*
X86850Y353000D01*
X86280Y352920D01*
X85710Y352580D01*
G01X77590Y388780D02*
X77210Y389030D01*
X76770Y389200D01*
X76260D01*
X75690Y388950D01*
X75250Y388530D01*
X74930Y388030D01*
X74680Y387200D01*
X74620Y386450D01*
X74740Y385700D01*
X74930Y385200D01*
X75310Y384700D01*
X75760Y384370D01*
X76200Y384200D01*
X76640D01*
X77090Y384370D01*
X77470Y384620D01*
X77780Y384950D01*
G01X80100Y388370D02*
X80480Y388870D01*
X80920Y389120D01*
X81430Y389200D01*
X82060Y389030D01*
X82500Y388620D01*
X82630Y388120D01*
X82570Y387620D01*
X82310Y387200D01*
X81050Y386370D01*
X80480Y385780D01*
X80100Y384950D01*
X79970Y384200D01*
X82630D01*
G01X86400Y389200D02*
X85890Y389030D01*
X85510Y388620D01*
X85260Y388120D01*
X85070Y387450D01*
X85010Y386700D01*
X85070Y385950D01*
X85260Y385280D01*
X85510Y384780D01*
X85890Y384370D01*
X86400Y384200D01*
X86910Y384370D01*
X87290Y384780D01*
X87540Y385280D01*
X87730Y385950D01*
X87790Y386700D01*
X87730Y387450D01*
X87540Y388120D01*
X87290Y388620D01*
X86910Y389030D01*
X86400Y389200D01*
G01X97530Y439930D02*
Y444930D01*
X96770Y443930D01*
G01Y439930D02*
X98290D01*
G01X122310Y178600D02*
Y175020D01*
X122560Y174270D01*
X123070Y173770D01*
X123700Y173600D01*
X124330Y173770D01*
X124840Y174270D01*
X125090Y175020D01*
Y178600D01*
G01X127600Y175680D02*
X128040Y176270D01*
X128420Y176600D01*
X128930Y176770D01*
X129370Y176600D01*
X129690Y176270D01*
X129940Y175770D01*
X130000Y175180D01*
X129940Y174680D01*
X129690Y174180D01*
X129310Y173770D01*
X128860Y173600D01*
X128360Y173770D01*
X127910Y174270D01*
X127660Y175020D01*
X127600Y175850D01*
X127720Y176930D01*
X127910Y177520D01*
X128230Y178100D01*
X128670Y178520D01*
X129120Y178600D01*
X129560Y178430D01*
X129880Y178020D01*
G01X103880Y289160D02*
X104280Y288530D01*
X104740Y288110D01*
X105290Y287900D01*
X105920Y288110D01*
X106390Y288530D01*
X106860Y289160D01*
X107020Y290000D01*
Y294200D01*
G01X110260Y290520D02*
X110810Y291260D01*
X111280Y291680D01*
X111910Y291890D01*
X112460Y291680D01*
X112850Y291260D01*
X113160Y290630D01*
X113240Y289890D01*
X113160Y289260D01*
X112850Y288630D01*
X112380Y288110D01*
X111830Y287900D01*
X111200Y288110D01*
X110650Y288740D01*
X110340Y289690D01*
X110260Y290730D01*
X110420Y292100D01*
X110650Y292840D01*
X111040Y293570D01*
X111590Y294100D01*
X112140Y294200D01*
X112690Y293990D01*
X113080Y293460D01*
G01X123290Y309900D02*
X125170D01*
G01X124150Y311270D02*
Y308530D01*
G01X131370Y302000D02*
Y297000D01*
X129780D01*
X129280Y297250D01*
X128960Y297580D01*
X128830Y298250D01*
X128960Y298920D01*
X129340Y299330D01*
X129780Y299580D01*
X131370D01*
G01X129780D02*
X128830Y302000D01*
G01X125000D02*
Y297000D01*
X125760Y298000D01*
G01Y302000D02*
X124240D01*
G01X121100Y297830D02*
X120720Y297330D01*
X120280Y297080D01*
X119770Y297000D01*
X119140Y297170D01*
X118700Y297580D01*
X118570Y298080D01*
X118630Y298580D01*
X118890Y299000D01*
X120150Y299830D01*
X120720Y300420D01*
X121100Y301250D01*
X121230Y302000D01*
X118570D01*
G01X132890Y382380D02*
X132510Y382630D01*
X132070Y382800D01*
X131560D01*
X130990Y382550D01*
X130550Y382130D01*
X130230Y381630D01*
X129980Y380800D01*
X129920Y380050D01*
X130040Y379300D01*
X130230Y378800D01*
X130610Y378300D01*
X131060Y377970D01*
X131500Y377800D01*
X131940D01*
X132390Y377970D01*
X132770Y378220D01*
X133080Y378550D01*
G01X136470Y377800D02*
X136600Y378880D01*
X136790Y379800D01*
X137040Y380630D01*
X137360Y381550D01*
X137870Y382800D01*
X135330D01*
G01X105780Y420260D02*
X106180Y419630D01*
X106640Y419210D01*
X107190Y419000D01*
X107820Y419210D01*
X108290Y419630D01*
X108760Y420260D01*
X108920Y421100D01*
Y425300D01*
G01X113650Y419000D02*
Y425300D01*
X112710Y424040D01*
G01Y419000D02*
X114590D01*
G01X118460Y424250D02*
X118930Y424880D01*
X119480Y425200D01*
X120110Y425300D01*
X120890Y425090D01*
X121440Y424560D01*
X121600Y423940D01*
X121520Y423300D01*
X121200Y422780D01*
X119640Y421730D01*
X118930Y420990D01*
X118460Y419940D01*
X118300Y419000D01*
X121600D01*
G01X125190Y412480D02*
X124810Y412730D01*
X124370Y412900D01*
X123860D01*
X123290Y412650D01*
X122850Y412230D01*
X122530Y411730D01*
X122280Y410900D01*
X122220Y410150D01*
X122340Y409400D01*
X122530Y408900D01*
X122910Y408400D01*
X123360Y408070D01*
X123800Y407900D01*
X124240D01*
X124690Y408070D01*
X125070Y408320D01*
X125380Y408650D01*
G01X128900Y407900D02*
Y412900D01*
X128140Y411900D01*
G01Y407900D02*
X129660D01*
G01X132800Y412070D02*
X133180Y412570D01*
X133620Y412820D01*
X134130Y412900D01*
X134760Y412730D01*
X135200Y412320D01*
X135330Y411820D01*
X135270Y411320D01*
X135010Y410900D01*
X133750Y410070D01*
X133180Y409480D01*
X132800Y408650D01*
X132670Y407900D01*
X135330D01*
G01X136250Y99950D02*
X135500Y100070D01*
X134850Y100570D01*
X134290Y101320D01*
X133920Y102200D01*
X133730Y103200D01*
Y104200D01*
X133920Y105200D01*
X134290Y106080D01*
X134850Y106820D01*
X135500Y107330D01*
X136250Y107450D01*
X137000Y107330D01*
X137650Y106820D01*
X138210Y106080D01*
X138580Y105200D01*
X138770Y104200D01*
Y103200D01*
X138580Y102200D01*
X138210Y101320D01*
X137650Y100570D01*
X137000Y100070D01*
X136250Y99950D01*
G01X137000Y101950D02*
X138120Y99950D01*
G01X143750D02*
Y107450D01*
X142630Y105950D01*
G01Y99950D02*
X144870D01*
G01X137750Y142600D02*
Y145700D01*
X137290Y145080D01*
G01Y142600D02*
X138210D01*
G01X132410Y213700D02*
Y218700D01*
X133670D01*
X134180Y218450D01*
X134560Y218120D01*
X134880Y217620D01*
X135130Y217030D01*
X135190Y216200D01*
X135130Y215370D01*
X134880Y214780D01*
X134560Y214280D01*
X134180Y213950D01*
X133670Y213700D01*
X132410D01*
G01X137510Y214700D02*
X137890Y214120D01*
X138390Y213780D01*
X138960Y213700D01*
X139470Y213780D01*
X139980Y214200D01*
X140290Y214700D01*
X140360Y215200D01*
X140230Y215780D01*
X139790Y216200D01*
X139340Y216370D01*
X138770D01*
G01X139340D02*
X139720Y216620D01*
X140040Y217030D01*
X140170Y217530D01*
X140040Y218030D01*
X139720Y218450D01*
X139150Y218700D01*
X138580Y218620D01*
X138010Y218280D01*
G01X146890Y250180D02*
X146510Y250430D01*
X146070Y250600D01*
X145560D01*
X144990Y250350D01*
X144550Y249930D01*
X144230Y249430D01*
X143980Y248600D01*
X143920Y247850D01*
X144040Y247100D01*
X144230Y246600D01*
X144610Y246100D01*
X145060Y245770D01*
X145500Y245600D01*
X145940D01*
X146390Y245770D01*
X146770Y246020D01*
X147080Y246350D01*
G01X150600Y245600D02*
Y250600D01*
X149840Y249600D01*
G01Y245600D02*
X151360D01*
G01X156460D02*
Y250600D01*
X154120Y247020D01*
X157280D01*
G01X138730Y236000D02*
Y241000D01*
X140320D01*
X140820Y240750D01*
X141140Y240420D01*
X141270Y239750D01*
X141140Y239080D01*
X140760Y238670D01*
X140320Y238420D01*
X138730D01*
G01X140320D02*
X141270Y236000D01*
G01X145100D02*
Y241000D01*
X144340Y240000D01*
G01Y236000D02*
X145860D01*
G01X150070D02*
X150200Y237080D01*
X150390Y238000D01*
X150640Y238830D01*
X150960Y239750D01*
X151470Y241000D01*
X148930D01*
G01X140770Y278740D02*
Y281840D01*
X140310Y281220D01*
G01Y278740D02*
X141230D01*
G01X143870Y281840D02*
X143560Y281740D01*
X143330Y281480D01*
X143180Y281170D01*
X143060Y280750D01*
X143030Y280290D01*
X143060Y279820D01*
X143180Y279410D01*
X143330Y279100D01*
X143560Y278840D01*
X143870Y278740D01*
X144180Y278840D01*
X144410Y279100D01*
X144560Y279410D01*
X144680Y279820D01*
X144710Y280290D01*
X144680Y280750D01*
X144560Y281170D01*
X144410Y281480D01*
X144180Y281740D01*
X143870Y281840D01*
G01X140210Y269760D02*
X140440Y269510D01*
X140700Y269350D01*
X141050Y269300D01*
X141400Y269400D01*
X141660Y269610D01*
X141860Y269970D01*
X141890Y270380D01*
X141820Y270800D01*
X141620Y271060D01*
X141360Y271260D01*
X141090Y271310D01*
X140820Y271260D01*
X140480Y271060D01*
X140590Y272400D01*
X141620D01*
G01X145690Y375100D02*
X147570D01*
G01X146550Y376470D02*
Y373730D01*
G01X141030Y388400D02*
Y393400D01*
X142620D01*
X143120Y393150D01*
X143440Y392820D01*
X143570Y392150D01*
X143440Y391480D01*
X143060Y391070D01*
X142620Y390820D01*
X141030D01*
G01X142620D02*
X143570Y388400D01*
G01X147400D02*
X147840Y388480D01*
X148350Y388730D01*
X148670Y389150D01*
X148790Y389730D01*
X148670Y390320D01*
X148290Y390820D01*
X147720Y391070D01*
X147080D01*
X146700Y391230D01*
X146390Y391650D01*
X146260Y392230D01*
X146450Y392820D01*
X146890Y393230D01*
X147400Y393400D01*
X147910Y393230D01*
X148350Y392820D01*
X148540Y392230D01*
X148410Y391650D01*
X148100Y391230D01*
X147720Y391070D01*
X147080D01*
X146510Y390820D01*
X146130Y390320D01*
X146010Y389730D01*
X146130Y389150D01*
X146450Y388730D01*
X146960Y388480D01*
X147400Y388400D01*
G01X156900Y439000D02*
Y444000D01*
X156140Y443000D01*
G01Y439000D02*
X157660D01*
G01X161630Y29000D02*
X161950Y28500D01*
X162330Y28170D01*
X162770Y28000D01*
X163280Y28170D01*
X163660Y28500D01*
X164040Y29000D01*
X164170Y29670D01*
Y33000D01*
G01X168000Y28000D02*
Y33000D01*
X167240Y32000D01*
G01Y28000D02*
X168760D01*
G01X171710Y28750D02*
X172090Y28330D01*
X172530Y28080D01*
X173100Y28000D01*
X173670Y28170D01*
X174110Y28500D01*
X174430Y29080D01*
X174490Y29750D01*
X174370Y30420D01*
X174050Y30830D01*
X173610Y31170D01*
X173160Y31250D01*
X172720Y31170D01*
X172150Y30830D01*
X172340Y33000D01*
X174050D01*
G01X180530Y101100D02*
Y106100D01*
X182120D01*
X182620Y105850D01*
X182940Y105520D01*
X183070Y104850D01*
X182940Y104180D01*
X182560Y103770D01*
X182120Y103520D01*
X180530D01*
G01X182120D02*
X183070Y101100D01*
G01X186900D02*
Y106100D01*
X186140Y105100D01*
G01Y101100D02*
X187660D01*
G01X190610Y101850D02*
X190990Y101430D01*
X191430Y101180D01*
X192000Y101100D01*
X192570Y101270D01*
X193010Y101600D01*
X193330Y102180D01*
X193390Y102850D01*
X193270Y103520D01*
X192950Y103930D01*
X192510Y104270D01*
X192060Y104350D01*
X191620Y104270D01*
X191050Y103930D01*
X191240Y106100D01*
X192950D01*
G01X176800Y145670D02*
X181800D01*
Y144080D01*
X181550Y143580D01*
X181220Y143260D01*
X180550Y143130D01*
X179880Y143260D01*
X179470Y143640D01*
X179220Y144080D01*
Y145670D01*
G01Y144080D02*
X176800Y143130D01*
G01Y139300D02*
X181800D01*
X180800Y140060D01*
G01X176800D02*
Y138540D01*
G01Y133440D02*
X181800D01*
X178220Y135780D01*
Y132620D01*
G01X181130Y125400D02*
Y130400D01*
X182720D01*
X183220Y130150D01*
X183540Y129820D01*
X183670Y129150D01*
X183540Y128480D01*
X183160Y128070D01*
X182720Y127820D01*
X181130D01*
G01X182720D02*
X183670Y125400D01*
G01X187500D02*
Y130400D01*
X186740Y129400D01*
G01Y125400D02*
X188260D01*
G01X192600D02*
X193040Y125480D01*
X193550Y125730D01*
X193870Y126150D01*
X193990Y126730D01*
X193870Y127320D01*
X193490Y127820D01*
X192920Y128070D01*
X192280D01*
X191900Y128230D01*
X191590Y128650D01*
X191460Y129230D01*
X191650Y129820D01*
X192090Y130230D01*
X192600Y130400D01*
X193110Y130230D01*
X193550Y129820D01*
X193740Y129230D01*
X193610Y128650D01*
X193300Y128230D01*
X192920Y128070D01*
X192280D01*
X191710Y127820D01*
X191330Y127320D01*
X191210Y126730D01*
X191330Y126150D01*
X191650Y125730D01*
X192160Y125480D01*
X192600Y125400D01*
G01X164970Y204570D02*
X164500Y204890D01*
X163960Y205100D01*
X163330D01*
X162620Y204780D01*
X162080Y204260D01*
X161680Y203630D01*
X161370Y202580D01*
X161290Y201630D01*
X161450Y200690D01*
X161680Y200060D01*
X162150Y199430D01*
X162700Y199010D01*
X163250Y198800D01*
X163800D01*
X164350Y199010D01*
X164820Y199320D01*
X165210Y199740D01*
G01X169550Y198800D02*
Y205100D01*
X168610Y203840D01*
G01Y198800D02*
X170490D01*
G01X174130Y199740D02*
X174600Y199220D01*
X175140Y198900D01*
X175850Y198800D01*
X176560Y199010D01*
X177100Y199430D01*
X177500Y200160D01*
X177570Y201000D01*
X177420Y201840D01*
X177020Y202370D01*
X176480Y202790D01*
X175930Y202890D01*
X175380Y202790D01*
X174680Y202370D01*
X174910Y205100D01*
X177020D01*
G01X172290Y217200D02*
X174170D01*
G01X173150Y218570D02*
Y215830D01*
G01X177110Y244100D02*
Y240520D01*
X177360Y239770D01*
X177870Y239270D01*
X178500Y239100D01*
X179130Y239270D01*
X179640Y239770D01*
X179890Y240520D01*
Y244100D01*
G01X183470Y239100D02*
X183600Y240180D01*
X183790Y241100D01*
X184040Y241930D01*
X184360Y242850D01*
X184870Y244100D01*
X182330D01*
G01X189630Y272000D02*
X189950Y271500D01*
X190330Y271170D01*
X190770Y271000D01*
X191280Y271170D01*
X191660Y271500D01*
X192040Y272000D01*
X192170Y272670D01*
Y276000D01*
G01X196000Y271000D02*
Y276000D01*
X195240Y275000D01*
G01Y271000D02*
X196760D01*
G01X201100D02*
X201540Y271080D01*
X202050Y271330D01*
X202370Y271750D01*
X202490Y272330D01*
X202370Y272920D01*
X201990Y273420D01*
X201420Y273670D01*
X200780D01*
X200400Y273830D01*
X200090Y274250D01*
X199960Y274830D01*
X200150Y275420D01*
X200590Y275830D01*
X201100Y276000D01*
X201610Y275830D01*
X202050Y275420D01*
X202240Y274830D01*
X202110Y274250D01*
X201800Y273830D01*
X201420Y273670D01*
X200780D01*
X200210Y273420D01*
X199830Y272920D01*
X199710Y272330D01*
X199830Y271750D01*
X200150Y271330D01*
X200660Y271080D01*
X201100Y271000D01*
G01X169000Y279370D02*
X174000D01*
Y277780D01*
X173750Y277280D01*
X173420Y276960D01*
X172750Y276830D01*
X172080Y276960D01*
X171670Y277340D01*
X171420Y277780D01*
Y279370D01*
G01Y277780D02*
X169000Y276830D01*
G01Y273130D02*
X170080Y273000D01*
X171000Y272810D01*
X171830Y272560D01*
X172750Y272240D01*
X174000Y271730D01*
Y274270D01*
G01X187090Y309100D02*
X188970D01*
G01X187950Y310470D02*
Y307730D01*
G01X175490Y308800D02*
X177370D01*
G01X176350Y310170D02*
Y307430D01*
G01X170570Y328670D02*
X170100Y328990D01*
X169560Y329200D01*
X168930D01*
X168220Y328880D01*
X167680Y328360D01*
X167280Y327730D01*
X166970Y326680D01*
X166890Y325730D01*
X167050Y324790D01*
X167280Y324160D01*
X167750Y323530D01*
X168300Y323110D01*
X168850Y322900D01*
X169400D01*
X169950Y323110D01*
X170420Y323420D01*
X170810Y323840D01*
G01X175150Y322900D02*
X175700Y323000D01*
X176320Y323320D01*
X176720Y323840D01*
X176870Y324580D01*
X176720Y325310D01*
X176250Y325940D01*
X175540Y326260D01*
X174760D01*
X174290Y326470D01*
X173900Y326990D01*
X173740Y327730D01*
X173980Y328460D01*
X174520Y328990D01*
X175150Y329200D01*
X175780Y328990D01*
X176320Y328460D01*
X176560Y327730D01*
X176400Y326990D01*
X176010Y326470D01*
X175540Y326260D01*
X174760D01*
X174050Y325940D01*
X173580Y325310D01*
X173430Y324580D01*
X173580Y323840D01*
X173980Y323320D01*
X174600Y323000D01*
X175150Y322900D01*
G01X178190Y343680D02*
X177810Y343930D01*
X177370Y344100D01*
X176860D01*
X176290Y343850D01*
X175850Y343430D01*
X175530Y342930D01*
X175280Y342100D01*
X175220Y341350D01*
X175340Y340600D01*
X175530Y340100D01*
X175910Y339600D01*
X176360Y339270D01*
X176800Y339100D01*
X177240D01*
X177690Y339270D01*
X178070Y339520D01*
X178380Y339850D01*
G01X180700Y341180D02*
X181140Y341770D01*
X181520Y342100D01*
X182030Y342270D01*
X182470Y342100D01*
X182790Y341770D01*
X183040Y341270D01*
X183100Y340680D01*
X183040Y340180D01*
X182790Y339680D01*
X182410Y339270D01*
X181960Y339100D01*
X181460Y339270D01*
X181010Y339770D01*
X180760Y340520D01*
X180700Y341350D01*
X180820Y342430D01*
X181010Y343020D01*
X181330Y343600D01*
X181770Y344020D01*
X182220Y344100D01*
X182660Y343930D01*
X182980Y343520D01*
G01X162530Y364800D02*
Y369800D01*
X164120D01*
X164620Y369550D01*
X164940Y369220D01*
X165070Y368550D01*
X164940Y367880D01*
X164560Y367470D01*
X164120Y367220D01*
X162530D01*
G01X164120D02*
X165070Y364800D01*
G01X169660D02*
Y369800D01*
X167320Y366220D01*
X170480D01*
G01X165780Y440260D02*
X166180Y439630D01*
X166640Y439210D01*
X167190Y439000D01*
X167820Y439210D01*
X168290Y439630D01*
X168760Y440260D01*
X168920Y441100D01*
Y445300D01*
G01X173650Y439000D02*
Y445300D01*
X172710Y444040D01*
G01Y439000D02*
X174590D01*
G01X179950D02*
Y445300D01*
X179010Y444040D01*
G01Y439000D02*
X180890D01*
G01X219810Y178400D02*
Y174820D01*
X220060Y174070D01*
X220570Y173570D01*
X221200Y173400D01*
X221830Y173570D01*
X222340Y174070D01*
X222590Y174820D01*
Y178400D01*
G01X224910Y174150D02*
X225290Y173730D01*
X225730Y173480D01*
X226300Y173400D01*
X226870Y173570D01*
X227310Y173900D01*
X227630Y174480D01*
X227690Y175150D01*
X227570Y175820D01*
X227250Y176230D01*
X226810Y176570D01*
X226360Y176650D01*
X225920Y176570D01*
X225350Y176230D01*
X225540Y178400D01*
X227250D01*
G01X212150Y181100D02*
Y184200D01*
X211690Y183580D01*
G01Y181100D02*
X212610D01*
G01X198270Y204570D02*
X197800Y204890D01*
X197260Y205100D01*
X196630D01*
X195920Y204780D01*
X195380Y204260D01*
X194980Y203630D01*
X194670Y202580D01*
X194590Y201630D01*
X194750Y200690D01*
X194980Y200060D01*
X195450Y199430D01*
X196000Y199010D01*
X196550Y198800D01*
X197100D01*
X197650Y199010D01*
X198120Y199320D01*
X198510Y199740D01*
G01X202850Y198800D02*
Y205100D01*
X201910Y203840D01*
G01Y198800D02*
X203790D01*
G01X207660Y201420D02*
X208210Y202160D01*
X208680Y202580D01*
X209310Y202790D01*
X209860Y202580D01*
X210250Y202160D01*
X210560Y201530D01*
X210640Y200790D01*
X210560Y200160D01*
X210250Y199530D01*
X209780Y199010D01*
X209230Y198800D01*
X208600Y199010D01*
X208050Y199640D01*
X207740Y200590D01*
X207660Y201630D01*
X207820Y203000D01*
X208050Y203740D01*
X208440Y204470D01*
X208990Y205000D01*
X209540Y205100D01*
X210090Y204890D01*
X210480Y204360D01*
G01X202290Y216700D02*
X204170D01*
G01X203150Y218070D02*
Y215330D01*
G01X219390Y205280D02*
X219010Y205530D01*
X218570Y205700D01*
X218060D01*
X217490Y205450D01*
X217050Y205030D01*
X216730Y204530D01*
X216480Y203700D01*
X216420Y202950D01*
X216540Y202200D01*
X216730Y201700D01*
X217110Y201200D01*
X217560Y200870D01*
X218000Y200700D01*
X218440D01*
X218890Y200870D01*
X219270Y201120D01*
X219580Y201450D01*
G01X223100Y200700D02*
Y205700D01*
X222340Y204700D01*
G01Y200700D02*
X223860D01*
G01X228070D02*
X228200Y201780D01*
X228390Y202700D01*
X228640Y203530D01*
X228960Y204450D01*
X229470Y205700D01*
X226930D01*
G01X213900Y285000D02*
Y290000D01*
X213140Y289000D01*
G01Y285000D02*
X214660D01*
G01X203070Y328470D02*
X202600Y328790D01*
X202060Y329000D01*
X201430D01*
X200720Y328680D01*
X200180Y328160D01*
X199780Y327530D01*
X199470Y326480D01*
X199390Y325530D01*
X199550Y324590D01*
X199780Y323960D01*
X200250Y323330D01*
X200800Y322910D01*
X201350Y322700D01*
X201900D01*
X202450Y322910D01*
X202920Y323220D01*
X203310Y323640D01*
G01X205930D02*
X206400Y323120D01*
X206940Y322800D01*
X207650Y322700D01*
X208360Y322910D01*
X208900Y323330D01*
X209300Y324060D01*
X209370Y324900D01*
X209220Y325740D01*
X208820Y326270D01*
X208280Y326690D01*
X207730Y326790D01*
X207180Y326690D01*
X206480Y326270D01*
X206710Y329000D01*
X208820D01*
G01X207890Y333900D02*
X209770D01*
G01X208750Y335270D02*
Y332530D01*
G01X218630Y319100D02*
Y324100D01*
X220220D01*
X220720Y323850D01*
X221040Y323520D01*
X221170Y322850D01*
X221040Y322180D01*
X220660Y321770D01*
X220220Y321520D01*
X218630D01*
G01X220220D02*
X221170Y319100D01*
G01X223610Y319850D02*
X223990Y319430D01*
X224430Y319180D01*
X225000Y319100D01*
X225570Y319270D01*
X226010Y319600D01*
X226330Y320180D01*
X226390Y320850D01*
X226270Y321520D01*
X225950Y321930D01*
X225510Y322270D01*
X225060Y322350D01*
X224620Y322270D01*
X224050Y321930D01*
X224240Y324100D01*
X225950D01*
G01X191930Y378200D02*
Y373690D01*
X192240Y372740D01*
X192870Y372110D01*
X193650Y371900D01*
X194430Y372110D01*
X195060Y372740D01*
X195370Y373690D01*
Y378200D01*
G01X199950Y371900D02*
Y378200D01*
X199010Y376940D01*
G01Y371900D02*
X200890D01*
G01X201090Y352680D02*
X200710Y352930D01*
X200270Y353100D01*
X199760D01*
X199190Y352850D01*
X198750Y352430D01*
X198430Y351930D01*
X198180Y351100D01*
X198120Y350350D01*
X198240Y349600D01*
X198430Y349100D01*
X198810Y348600D01*
X199260Y348270D01*
X199700Y348100D01*
X200140D01*
X200590Y348270D01*
X200970Y348520D01*
X201280Y348850D01*
G01X205560Y348100D02*
Y353100D01*
X203220Y349520D01*
X206380D01*
G01X202350Y362100D02*
Y365200D01*
X201890Y364580D01*
G01Y362100D02*
X202810D01*
G01X218530Y352300D02*
Y357300D01*
X220120D01*
X220620Y357050D01*
X220940Y356720D01*
X221070Y356050D01*
X220940Y355380D01*
X220560Y354970D01*
X220120Y354720D01*
X218530D01*
G01X220120D02*
X221070Y352300D01*
G01X223700Y356470D02*
X224080Y356970D01*
X224520Y357220D01*
X225030Y357300D01*
X225660Y357130D01*
X226100Y356720D01*
X226230Y356220D01*
X226170Y355720D01*
X225910Y355300D01*
X224650Y354470D01*
X224080Y353880D01*
X223700Y353050D01*
X223570Y352300D01*
X226230D01*
G01X219970Y405070D02*
X219500Y405390D01*
X218960Y405600D01*
X218330D01*
X217620Y405280D01*
X217080Y404760D01*
X216680Y404130D01*
X216370Y403080D01*
X216290Y402130D01*
X216450Y401190D01*
X216680Y400560D01*
X217150Y399930D01*
X217700Y399510D01*
X218250Y399300D01*
X218800D01*
X219350Y399510D01*
X219820Y399820D01*
X220210Y400240D01*
G01X223220Y400030D02*
X223770Y399510D01*
X224390Y399300D01*
X225020Y399510D01*
X225570Y400140D01*
X225960Y401090D01*
X226120Y402030D01*
Y403180D01*
X225960Y404130D01*
X225570Y404970D01*
X225100Y405390D01*
X224550Y405600D01*
X223920Y405390D01*
X223450Y404970D01*
X223140Y404340D01*
X222980Y403500D01*
X223140Y402770D01*
X223530Y402030D01*
X224000Y401610D01*
X224550Y401500D01*
X225180Y401710D01*
X225650Y402240D01*
X226120Y403180D01*
G01X242290Y170380D02*
X241910Y170630D01*
X241470Y170800D01*
X240960D01*
X240390Y170550D01*
X239950Y170130D01*
X239630Y169630D01*
X239380Y168800D01*
X239320Y168050D01*
X239440Y167300D01*
X239630Y166800D01*
X240010Y166300D01*
X240460Y165970D01*
X240900Y165800D01*
X241340D01*
X241790Y165970D01*
X242170Y166220D01*
X242480Y166550D01*
G01X246000Y165800D02*
Y170800D01*
X245240Y169800D01*
G01Y165800D02*
X246760D01*
G01X251100D02*
X251540Y165880D01*
X252050Y166130D01*
X252370Y166550D01*
X252490Y167130D01*
X252370Y167720D01*
X251990Y168220D01*
X251420Y168470D01*
X250780D01*
X250400Y168630D01*
X250090Y169050D01*
X249960Y169630D01*
X250150Y170220D01*
X250590Y170630D01*
X251100Y170800D01*
X251610Y170630D01*
X252050Y170220D01*
X252240Y169630D01*
X252110Y169050D01*
X251800Y168630D01*
X251420Y168470D01*
X250780D01*
X250210Y168220D01*
X249830Y167720D01*
X249710Y167130D01*
X249830Y166550D01*
X250150Y166130D01*
X250660Y165880D01*
X251100Y165800D01*
G01X245130Y276500D02*
Y284000D01*
X247470D01*
X248210Y283620D01*
X248680Y283120D01*
X248870Y282120D01*
X248680Y281120D01*
X248120Y280500D01*
X247470Y280120D01*
X245130D01*
G01X247470D02*
X248870Y276500D01*
G01X252910Y277370D02*
X253570Y276750D01*
X254310Y276500D01*
X255060Y276750D01*
X255710Y277500D01*
X256180Y278630D01*
X256370Y279750D01*
Y281120D01*
X256180Y282250D01*
X255710Y283250D01*
X255150Y283750D01*
X254500Y284000D01*
X253750Y283750D01*
X253190Y283250D01*
X252820Y282500D01*
X252630Y281500D01*
X252820Y280630D01*
X253290Y279750D01*
X253850Y279250D01*
X254500Y279120D01*
X255250Y279370D01*
X255810Y280000D01*
X256370Y281120D01*
G01X246430Y318900D02*
Y326400D01*
X248770D01*
X249510Y326020D01*
X249980Y325520D01*
X250170Y324520D01*
X249980Y323520D01*
X249420Y322900D01*
X248770Y322520D01*
X246430D01*
G01X248770D02*
X250170Y318900D01*
G01X254030Y322020D02*
X254680Y322900D01*
X255240Y323400D01*
X255990Y323650D01*
X256640Y323400D01*
X257110Y322900D01*
X257480Y322150D01*
X257570Y321270D01*
X257480Y320520D01*
X257110Y319770D01*
X256550Y319150D01*
X255890Y318900D01*
X255150Y319150D01*
X254490Y319900D01*
X254120Y321030D01*
X254030Y322270D01*
X254210Y323900D01*
X254490Y324780D01*
X254960Y325650D01*
X255610Y326280D01*
X256270Y326400D01*
X256920Y326150D01*
X257390Y325520D01*
G01X249270Y357070D02*
X248800Y357390D01*
X248260Y357600D01*
X247630D01*
X246920Y357280D01*
X246380Y356760D01*
X245980Y356130D01*
X245670Y355080D01*
X245590Y354130D01*
X245750Y353190D01*
X245980Y352560D01*
X246450Y351930D01*
X247000Y351510D01*
X247550Y351300D01*
X248100D01*
X248650Y351510D01*
X249120Y351820D01*
X249510Y352240D01*
G01X253850Y351300D02*
Y357600D01*
X252910Y356340D01*
G01Y351300D02*
X254790D01*
G01X233390Y357380D02*
X233010Y357630D01*
X232570Y357800D01*
X232060D01*
X231490Y357550D01*
X231050Y357130D01*
X230730Y356630D01*
X230480Y355800D01*
X230420Y355050D01*
X230540Y354300D01*
X230730Y353800D01*
X231110Y353300D01*
X231560Y352970D01*
X232000Y352800D01*
X232440D01*
X232890Y352970D01*
X233270Y353220D01*
X233580Y353550D01*
G01X235900Y356970D02*
X236280Y357470D01*
X236720Y357720D01*
X237230Y357800D01*
X237860Y357630D01*
X238300Y357220D01*
X238430Y356720D01*
X238370Y356220D01*
X238110Y355800D01*
X236850Y354970D01*
X236280Y354380D01*
X235900Y353550D01*
X235770Y352800D01*
X238430D01*
G01X242290Y361600D02*
X244170D01*
G01X243150Y362970D02*
Y360230D01*
G01X250570Y394370D02*
X250100Y394690D01*
X249560Y394900D01*
X248930D01*
X248220Y394580D01*
X247680Y394060D01*
X247280Y393430D01*
X246970Y392380D01*
X246890Y391430D01*
X247050Y390490D01*
X247280Y389860D01*
X247750Y389230D01*
X248300Y388810D01*
X248850Y388600D01*
X249400D01*
X249950Y388810D01*
X250420Y389120D01*
X250810Y389540D01*
G01X253430Y389860D02*
X253900Y389120D01*
X254520Y388700D01*
X255230Y388600D01*
X255860Y388700D01*
X256480Y389230D01*
X256870Y389860D01*
X256950Y390490D01*
X256800Y391220D01*
X256250Y391750D01*
X255700Y391960D01*
X254990D01*
G01X255700D02*
X256170Y392270D01*
X256560Y392800D01*
X256720Y393430D01*
X256560Y394060D01*
X256170Y394580D01*
X255460Y394900D01*
X254760Y394800D01*
X254050Y394370D01*
G01X231590Y383100D02*
X233470D01*
G01X232450Y384470D02*
Y381730D01*
G01X241790Y409800D02*
X243670D01*
G01X242650Y411170D02*
Y408430D01*
G01X241090Y434060D02*
Y439060D01*
X240330Y438060D01*
G01Y434060D02*
X241850D01*
G01X274310Y6620D02*
X274540Y6260D01*
X274840Y6050D01*
X275190Y6000D01*
X275500Y6050D01*
X275800Y6310D01*
X275990Y6620D01*
X276030Y6930D01*
X275960Y7290D01*
X275690Y7550D01*
X275420Y7650D01*
X275070D01*
G01X275420D02*
X275650Y7810D01*
X275840Y8070D01*
X275920Y8380D01*
X275840Y8690D01*
X275650Y8940D01*
X275300Y9100D01*
X274960Y9050D01*
X274610Y8840D01*
G01X277600Y6360D02*
X277870Y6100D01*
X278170Y6000D01*
X278480Y6100D01*
X278750Y6410D01*
X278940Y6880D01*
X279020Y7340D01*
Y7910D01*
X278940Y8380D01*
X278750Y8790D01*
X278520Y9000D01*
X278250Y9100D01*
X277940Y9000D01*
X277710Y8790D01*
X277560Y8480D01*
X277480Y8070D01*
X277560Y7710D01*
X277750Y7340D01*
X277980Y7140D01*
X278250Y7080D01*
X278560Y7190D01*
X278790Y7450D01*
X279020Y7910D01*
G01X275610Y16000D02*
Y19100D01*
X274190Y16880D01*
X276110D01*
G01X278250Y19100D02*
X277940Y19000D01*
X277710Y18740D01*
X277560Y18430D01*
X277440Y18010D01*
X277410Y17550D01*
X277440Y17080D01*
X277560Y16670D01*
X277710Y16360D01*
X277940Y16100D01*
X278250Y16000D01*
X278560Y16100D01*
X278790Y16360D01*
X278940Y16670D01*
X279060Y17080D01*
X279090Y17550D01*
X279060Y18010D01*
X278940Y18430D01*
X278790Y18740D01*
X278560Y19000D01*
X278250Y19100D01*
G01X278300Y163710D02*
X272000Y161750D01*
X278300Y159790D01*
G01X277250Y156940D02*
X277880Y156470D01*
X278200Y155920D01*
X278300Y155290D01*
X278090Y154510D01*
X277560Y153960D01*
X276940Y153800D01*
X276300Y153880D01*
X275780Y154200D01*
X274730Y155760D01*
X273990Y156470D01*
X272940Y156940D01*
X272000Y157100D01*
Y153800D01*
G01X271790Y149150D02*
X271900Y149310D01*
X272100D01*
X272210Y149150D01*
X272100Y148990D01*
X271900D01*
X271790Y149150D01*
G01X272000Y142850D02*
X278300D01*
X277040Y143790D01*
G01X272000D02*
Y141910D01*
G01X278300Y136550D02*
X278090Y137180D01*
X277560Y137650D01*
X276940Y137960D01*
X276090Y138200D01*
X275150Y138270D01*
X274200Y138200D01*
X273360Y137960D01*
X272730Y137650D01*
X272210Y137180D01*
X272000Y136550D01*
X272210Y135920D01*
X272730Y135450D01*
X273360Y135140D01*
X274200Y134900D01*
X275150Y134830D01*
X276090Y134900D01*
X276940Y135140D01*
X277560Y135450D01*
X278090Y135920D01*
X278300Y136550D01*
G01X270850Y130410D02*
X272210Y130090D01*
G01X273260Y119220D02*
X272630Y118820D01*
X272210Y118360D01*
X272000Y117810D01*
X272210Y117180D01*
X272630Y116710D01*
X273260Y116240D01*
X274100Y116080D01*
X278300D01*
G01X276200Y112680D02*
X273260D01*
X272520Y112370D01*
X272100Y111900D01*
X272000Y111350D01*
X272100Y110800D01*
X272520Y110330D01*
X273260Y110020D01*
G01X272000D02*
X276200D01*
G01X272000Y106380D02*
X276200D01*
G01X275150D02*
X275670Y106070D01*
X276090Y105600D01*
X276200Y104970D01*
X276090Y104420D01*
X275670Y103950D01*
X274940Y103720D01*
X272000D01*
G01X274830Y99920D02*
Y97420D01*
X275570Y97650D01*
X275990Y98040D01*
X276200Y98590D01*
X276090Y99140D01*
X275780Y99610D01*
X275040Y99920D01*
X274410Y100080D01*
X273790D01*
X273150Y99920D01*
X272520Y99530D01*
X272100Y99060D01*
X272000Y98510D01*
X272210Y97970D01*
X272840Y97420D01*
G01X277250Y87640D02*
X277880Y87170D01*
X278200Y86620D01*
X278300Y85990D01*
X278090Y85210D01*
X277560Y84660D01*
X276940Y84500D01*
X276300Y84580D01*
X275780Y84900D01*
X274730Y86460D01*
X273990Y87170D01*
X272940Y87640D01*
X272000Y87800D01*
Y84500D01*
G01X278300Y79850D02*
X278090Y80480D01*
X277560Y80950D01*
X276940Y81260D01*
X276090Y81500D01*
X275150Y81570D01*
X274200Y81500D01*
X273360Y81260D01*
X272730Y80950D01*
X272210Y80480D01*
X272000Y79850D01*
X272210Y79220D01*
X272730Y78750D01*
X273360Y78440D01*
X274200Y78200D01*
X275150Y78130D01*
X276090Y78200D01*
X276940Y78440D01*
X277560Y78750D01*
X278090Y79220D01*
X278300Y79850D01*
G01X272000Y73550D02*
X278300D01*
X277040Y74490D01*
G01X272000D02*
Y72610D01*
G01X272940Y68970D02*
X272420Y68500D01*
X272100Y67960D01*
X272000Y67250D01*
X272210Y66540D01*
X272630Y66000D01*
X273360Y65600D01*
X274200Y65530D01*
X275040Y65680D01*
X275570Y66080D01*
X275990Y66620D01*
X276090Y67170D01*
X275990Y67720D01*
X275570Y68420D01*
X278300Y68190D01*
Y66080D01*
G01X266930Y211700D02*
Y216700D01*
X268520D01*
X269020Y216450D01*
X269340Y216120D01*
X269470Y215450D01*
X269340Y214780D01*
X268960Y214370D01*
X268520Y214120D01*
X266930D01*
G01X268520D02*
X269470Y211700D01*
G01X273300D02*
Y216700D01*
X272540Y215700D01*
G01Y211700D02*
X274060D01*
G01X277320Y212280D02*
X277770Y211870D01*
X278270Y211700D01*
X278780Y211870D01*
X279220Y212370D01*
X279540Y213120D01*
X279670Y213870D01*
Y214780D01*
X279540Y215530D01*
X279220Y216200D01*
X278840Y216530D01*
X278400Y216700D01*
X277890Y216530D01*
X277510Y216200D01*
X277260Y215700D01*
X277130Y215030D01*
X277260Y214450D01*
X277580Y213870D01*
X277960Y213530D01*
X278400Y213450D01*
X278910Y213620D01*
X279290Y214030D01*
X279670Y214780D01*
G01X265230Y371800D02*
Y376800D01*
X266820D01*
X267320Y376550D01*
X267640Y376220D01*
X267770Y375550D01*
X267640Y374880D01*
X267260Y374470D01*
X266820Y374220D01*
X265230D01*
G01X266820D02*
X267770Y371800D01*
G01X271600D02*
Y376800D01*
X270840Y375800D01*
G01Y371800D02*
X272360D01*
G01X265130Y409700D02*
Y414700D01*
X266720D01*
X267220Y414450D01*
X267540Y414120D01*
X267670Y413450D01*
X267540Y412780D01*
X267160Y412370D01*
X266720Y412120D01*
X265130D01*
G01X266720D02*
X267670Y409700D01*
G01X270110Y410700D02*
X270490Y410120D01*
X270990Y409780D01*
X271560Y409700D01*
X272070Y409780D01*
X272580Y410200D01*
X272890Y410700D01*
X272960Y411200D01*
X272830Y411780D01*
X272390Y412200D01*
X271940Y412370D01*
X271370D01*
G01X271940D02*
X272320Y412620D01*
X272640Y413030D01*
X272770Y413530D01*
X272640Y414030D01*
X272320Y414450D01*
X271750Y414700D01*
X271180Y414620D01*
X270610Y414280D01*
G01X300000Y162470D02*
X295490D01*
X294540Y162160D01*
X293910Y161530D01*
X293700Y160750D01*
X293910Y159970D01*
X294540Y159340D01*
X295490Y159030D01*
X300000D01*
G01X299470Y152730D02*
X299790Y153200D01*
X300000Y153740D01*
Y154370D01*
X299680Y155080D01*
X299160Y155620D01*
X298530Y156020D01*
X297480Y156330D01*
X296530Y156410D01*
X295590Y156250D01*
X294960Y156020D01*
X294330Y155550D01*
X293910Y155000D01*
X293700Y154450D01*
Y153900D01*
X293910Y153350D01*
X294220Y152880D01*
X294640Y152490D01*
G01X294540Y149800D02*
X294010Y149170D01*
X293700Y148460D01*
Y147840D01*
X294010Y147210D01*
X294540Y146740D01*
X295280Y146500D01*
X296010Y146660D01*
X296640Y147050D01*
X297060Y147760D01*
X297270Y148700D01*
X297690Y149250D01*
X298420Y149480D01*
X299160Y149320D01*
X299680Y148930D01*
X300000Y148390D01*
Y147840D01*
X299790Y147290D01*
X299260Y146820D01*
G01X299470Y140130D02*
X299790Y140600D01*
X300000Y141140D01*
Y141770D01*
X299680Y142480D01*
X299160Y143020D01*
X298530Y143420D01*
X297480Y143730D01*
X296530Y143810D01*
X295590Y143650D01*
X294960Y143420D01*
X294330Y142950D01*
X293910Y142400D01*
X293700Y141850D01*
Y141300D01*
X293910Y140750D01*
X294220Y140280D01*
X294640Y139890D01*
G01X299470Y127530D02*
X299790Y128000D01*
X300000Y128540D01*
Y129170D01*
X299680Y129880D01*
X299160Y130420D01*
X298530Y130820D01*
X297480Y131130D01*
X296530Y131210D01*
X295590Y131050D01*
X294960Y130820D01*
X294330Y130350D01*
X293910Y129800D01*
X293700Y129250D01*
Y128700D01*
X293910Y128150D01*
X294220Y127680D01*
X294640Y127290D01*
G01X293700Y124520D02*
X300000D01*
Y122640D01*
X299680Y122010D01*
X298950Y121540D01*
X298110Y121380D01*
X297270Y121540D01*
X296640Y121930D01*
X296320Y122640D01*
Y124520D01*
G01X293700Y116650D02*
X293800Y117280D01*
X294220Y117820D01*
X294850Y118300D01*
X295590Y118610D01*
X296430Y118770D01*
X297270D01*
X298110Y118610D01*
X298850Y118300D01*
X299470Y117820D01*
X299900Y117280D01*
X300000Y116650D01*
X299900Y116020D01*
X299470Y115480D01*
X298850Y115000D01*
X298110Y114690D01*
X297270Y114530D01*
X296430D01*
X295590Y114690D01*
X294850Y115000D01*
X294220Y115480D01*
X293800Y116020D01*
X293700Y116650D01*
G01X300000Y111920D02*
X293700D01*
Y108780D01*
G01X296850Y97280D02*
Y95710D01*
X294960D01*
X294330Y96180D01*
X293910Y96730D01*
X293700Y97510D01*
X293910Y98300D01*
X294330Y98850D01*
X294960Y99320D01*
X295690Y99630D01*
X296530Y99790D01*
X297270D01*
X297900Y99630D01*
X298640Y99320D01*
X299260Y98850D01*
X299680Y98380D01*
X300000Y97750D01*
Y97200D01*
X299790Y96580D01*
X299370Y96100D01*
G01X293700Y92550D02*
X297900D01*
G01X297060D02*
X297480Y92160D01*
X297790Y91760D01*
X297900Y91210D01*
X297790Y90820D01*
X297480Y90350D01*
G01X293700Y85150D02*
X293800Y85620D01*
X294220Y86090D01*
X294960Y86400D01*
X295800Y86560D01*
X296640Y86400D01*
X297370Y86090D01*
X297790Y85620D01*
X297900Y85150D01*
X297790Y84680D01*
X297370Y84210D01*
X296640Y83900D01*
X295800Y83820D01*
X294960Y83900D01*
X294220Y84210D01*
X293800Y84680D01*
X293700Y85150D01*
G01X297900Y80180D02*
X294960D01*
X294220Y79870D01*
X293800Y79400D01*
X293700Y78850D01*
X293800Y78300D01*
X294220Y77830D01*
X294960Y77520D01*
G01X293700D02*
X297900D01*
G01X291600Y73960D02*
X297900D01*
G01X296960D02*
X297480Y73570D01*
X297790Y73180D01*
X297900Y72550D01*
X297790Y72000D01*
X297270Y71450D01*
X296530Y71220D01*
X295800Y71140D01*
X295060Y71220D01*
X294330Y71450D01*
X293910Y71920D01*
X293700Y72550D01*
X293800Y73100D01*
X294120Y73650D01*
X294540Y73960D01*
G01X289400Y168620D02*
X283100D01*
Y165480D01*
G01X287300Y160750D02*
X283100D01*
G01X288980D02*
X289080Y160910D01*
X289300D01*
X289400Y160750D01*
X289300Y160590D01*
X289080D01*
X288980Y160750D01*
G01X283100Y155780D02*
X287300D01*
G01X286250D02*
X286770Y155470D01*
X287190Y155000D01*
X287300Y154370D01*
X287190Y153820D01*
X286770Y153350D01*
X286040Y153120D01*
X283100D01*
G01Y149480D02*
X289400D01*
G01X287300Y146980D02*
X284890Y149480D01*
G01X285830Y148460D02*
X283100Y146820D01*
G01X287300Y141850D02*
X283100D01*
G01X288980D02*
X289080Y142010D01*
X289300D01*
X289400Y141850D01*
X289300Y141690D01*
X289080D01*
X288980Y141850D01*
G01X283100Y136880D02*
X287300D01*
G01X286250D02*
X286770Y136570D01*
X287190Y136100D01*
X287300Y135470D01*
X287190Y134920D01*
X286770Y134450D01*
X286040Y134220D01*
X283100D01*
G01X281520Y130350D02*
X281110Y129800D01*
X281000Y129170D01*
X281110Y128620D01*
X281630Y128150D01*
X282360Y127840D01*
X287300D01*
G01X286460D02*
X286880Y128150D01*
X287190Y128620D01*
X287300Y129170D01*
X287090Y129800D01*
X286670Y130190D01*
X285930Y130500D01*
X285200Y130660D01*
X284570Y130580D01*
X283830Y130270D01*
X283310Y129800D01*
X283100Y129170D01*
X283200Y128700D01*
X283620Y128150D01*
X284040Y127840D01*
G01X289400Y117590D02*
Y115710D01*
G01Y116650D02*
X283100D01*
G01Y117590D02*
Y115710D01*
G01Y111680D02*
X287300D01*
G01X286250D02*
X286770Y111370D01*
X287190Y110900D01*
X287300Y110270D01*
X287190Y109720D01*
X286770Y109250D01*
X286040Y109020D01*
X283100D01*
G01X289400Y104050D02*
X283100D01*
G01X287300Y105150D02*
Y102950D01*
G01X285930Y98920D02*
Y96420D01*
X286670Y96650D01*
X287090Y97040D01*
X287300Y97590D01*
X287190Y98140D01*
X286880Y98610D01*
X286140Y98920D01*
X285510Y99080D01*
X284890D01*
X284250Y98920D01*
X283620Y98530D01*
X283200Y98060D01*
X283100Y97510D01*
X283310Y96970D01*
X283940Y96420D01*
G01X283100Y92550D02*
X287300D01*
G01X286460D02*
X286880Y92160D01*
X287190Y91760D01*
X287300Y91210D01*
X287190Y90820D01*
X286880Y90350D01*
G01X283100Y85620D02*
X288460D01*
X288980Y85460D01*
X289300Y85150D01*
X289400Y84680D01*
X289190Y84210D01*
X288660Y83980D01*
G01X286880Y84910D02*
Y86480D01*
G01X283100Y77440D02*
X287300D01*
G01X286570D02*
X286980Y77750D01*
X287190Y78220D01*
X287300Y78770D01*
X287090Y79320D01*
X286670Y79790D01*
X286040Y80100D01*
X285200Y80260D01*
X284360Y80100D01*
X283730Y79790D01*
X283310Y79320D01*
X283100Y78770D01*
X283200Y78220D01*
X283520Y77750D01*
X283940Y77440D01*
G01X286770Y71300D02*
X287190Y71840D01*
X287300Y72310D01*
X287090Y72940D01*
X286670Y73410D01*
X285930Y73720D01*
X285200Y73800D01*
X284460Y73720D01*
X283830Y73410D01*
X283310Y72940D01*
X283100Y72310D01*
X283310Y71770D01*
X283730Y71300D01*
G01X285930Y67420D02*
Y64920D01*
X286670Y65150D01*
X287090Y65540D01*
X287300Y66090D01*
X287190Y66640D01*
X286880Y67110D01*
X286140Y67420D01*
X285510Y67580D01*
X284890D01*
X284250Y67420D01*
X283620Y67030D01*
X283200Y66560D01*
X283100Y66010D01*
X283310Y65470D01*
X283940Y64920D01*
G01X284930Y432200D02*
X285400Y431450D01*
X285960Y430950D01*
X286610Y430700D01*
X287360Y430950D01*
X287920Y431450D01*
X288480Y432200D01*
X288670Y433200D01*
Y438200D01*
G01X294300Y430700D02*
Y438200D01*
X293180Y436700D01*
G01Y430700D02*
X295420D01*
G01X299750Y432200D02*
X300310Y431320D01*
X301050Y430820D01*
X301890Y430700D01*
X302640Y430820D01*
X303390Y431450D01*
X303850Y432200D01*
X303950Y432950D01*
X303760Y433820D01*
X303110Y434450D01*
X302450Y434700D01*
X301610D01*
G01X302450D02*
X303010Y435070D01*
X303480Y435700D01*
X303670Y436450D01*
X303480Y437200D01*
X303010Y437820D01*
X302170Y438200D01*
X301330Y438080D01*
X300490Y437570D01*
G01X284090Y434060D02*
Y439060D01*
X283330Y438060D01*
G01Y434060D02*
X284850D01*
G01X342000Y47150D02*
X338900D01*
X339520Y46690D01*
G01X342000D02*
Y47610D01*
G01X316630Y128000D02*
X316950Y127500D01*
X317330Y127170D01*
X317770Y127000D01*
X318280Y127170D01*
X318660Y127500D01*
X319040Y128000D01*
X319170Y128670D01*
Y132000D01*
G01X323000Y127000D02*
Y132000D01*
X322240Y131000D01*
G01Y127000D02*
X323760D01*
G01X326900Y129080D02*
X327340Y129670D01*
X327720Y130000D01*
X328230Y130170D01*
X328670Y130000D01*
X328990Y129670D01*
X329240Y129170D01*
X329300Y128580D01*
X329240Y128080D01*
X328990Y127580D01*
X328610Y127170D01*
X328160Y127000D01*
X327660Y127170D01*
X327210Y127670D01*
X326960Y128420D01*
X326900Y129250D01*
X327020Y130330D01*
X327210Y130920D01*
X327530Y131500D01*
X327970Y131920D01*
X328420Y132000D01*
X328860Y131830D01*
X329180Y131420D01*
G01X318030Y282000D02*
X318350Y281500D01*
X318730Y281170D01*
X319170Y281000D01*
X319680Y281170D01*
X320060Y281500D01*
X320440Y282000D01*
X320570Y282670D01*
Y286000D01*
G01X324400Y281000D02*
Y286000D01*
X323640Y285000D01*
G01Y281000D02*
X325160D01*
G01X318330Y324100D02*
X318650Y323600D01*
X319030Y323270D01*
X319470Y323100D01*
X319980Y323270D01*
X320360Y323600D01*
X320740Y324100D01*
X320870Y324770D01*
Y328100D01*
G01X323500Y327270D02*
X323880Y327770D01*
X324320Y328020D01*
X324830Y328100D01*
X325460Y327930D01*
X325900Y327520D01*
X326030Y327020D01*
X325970Y326520D01*
X325710Y326100D01*
X324450Y325270D01*
X323880Y324680D01*
X323500Y323850D01*
X323370Y323100D01*
X326030D01*
G01X316230Y368000D02*
X316550Y367500D01*
X316930Y367170D01*
X317370Y367000D01*
X317880Y367170D01*
X318260Y367500D01*
X318640Y368000D01*
X318770Y368670D01*
Y372000D01*
G01X321210Y367750D02*
X321590Y367330D01*
X322030Y367080D01*
X322600Y367000D01*
X323170Y367170D01*
X323610Y367500D01*
X323930Y368080D01*
X323990Y368750D01*
X323870Y369420D01*
X323550Y369830D01*
X323110Y370170D01*
X322660Y370250D01*
X322220Y370170D01*
X321650Y369830D01*
X321840Y372000D01*
X323550D01*
G01X316230Y410300D02*
X316550Y409800D01*
X316930Y409470D01*
X317370Y409300D01*
X317880Y409470D01*
X318260Y409800D01*
X318640Y410300D01*
X318770Y410970D01*
Y414300D01*
G01X323360Y409300D02*
Y414300D01*
X321020Y410720D01*
X324180D01*
G54D11*
G01X70550Y278100D02*
X63050D01*
G01D02*
Y294100D01*
G01D02*
X70550D01*
G01X85900Y371400D02*
X60900D01*
G01D02*
Y383400D01*
G01X73600Y353850D02*
X57600D01*
G01D02*
Y361350D01*
G01D02*
X73600D01*
G01X60900Y383400D02*
X85900D01*
G01X70550Y294100D02*
Y278100D01*
G01X93800Y296150D02*
X77800D01*
G01D02*
Y303650D01*
G01D02*
X93800D01*
G01D02*
Y296150D01*
G01X89350Y373500D02*
Y389500D01*
G01X96850D02*
Y373500D01*
G01D02*
X89350D01*
G01X85900Y376150D02*
Y371400D01*
G01X83850Y369900D02*
Y353900D01*
G01D02*
X76350D01*
G01D02*
Y369900D01*
G01D02*
X83850D01*
G01X73600Y361350D02*
Y353850D01*
G01X89350Y389500D02*
X96850D01*
G01X85900Y378650D02*
X87150Y377400D01*
G01D02*
X85900Y376150D01*
G01Y383400D02*
Y378650D01*
G01X102050Y136300D02*
Y152300D01*
G01D02*
X109550D01*
G01D02*
Y136300D01*
G01D02*
X102050D01*
G01X136500Y398050D02*
X120500D01*
G01D02*
Y405550D01*
G01D02*
X136500D01*
G01X133100Y211850D02*
X149100D01*
G01D02*
Y204350D01*
G01D02*
X133100D01*
G01D02*
Y211850D01*
G01X149050Y234300D02*
Y218300D01*
G01D02*
X141550D01*
G01D02*
Y234300D01*
G01X157550Y229100D02*
Y245100D01*
G01D02*
X165050D01*
G01Y229100D02*
X157550D01*
G01X141550Y234300D02*
X149050D01*
G01X159850Y267600D02*
Y283600D01*
G01D02*
X167350D01*
G01Y267600D02*
X159850D01*
G01X149000Y296350D02*
X133000D01*
G01D02*
Y303850D01*
G01D02*
X149000D01*
G01D02*
Y296350D01*
G01X136500Y405550D02*
Y398050D01*
G01X154800Y379650D02*
X138800D01*
G01D02*
Y387150D01*
G01D02*
X154800D01*
G01D02*
Y379650D01*
G01X171150Y94200D02*
Y110200D01*
G01X178650D02*
Y94200D01*
G01D02*
X171150D01*
G01Y115900D02*
Y131900D01*
G01D02*
X178650D01*
G01D02*
Y115900D01*
G01D02*
X171150D01*
G01Y110200D02*
X178650D01*
G01X189850Y123400D02*
Y107400D01*
G01D02*
X182350D01*
G01D02*
Y123400D01*
G01D02*
X189850D01*
G01X165050Y245100D02*
Y229100D01*
G01X167350Y283600D02*
Y267600D01*
G01X182900Y345850D02*
X166900D01*
G01D02*
Y353350D01*
G01D02*
X182900D01*
G01D02*
Y345850D01*
G01X162250Y371200D02*
Y387200D01*
G01X169750D02*
Y371200D01*
G01D02*
X162250D01*
G01Y387200D02*
X169750D01*
G01X225150Y207800D02*
X217650D01*
G01D02*
Y223800D01*
G01D02*
X225150D01*
G01X223400Y309850D02*
X207400D01*
G01D02*
Y317350D01*
G01D02*
X223400D01*
G01X225550Y359400D02*
X218050D01*
G01D02*
Y375400D01*
G01D02*
X225550D01*
G01X240950Y173900D02*
Y189900D01*
G01D02*
X248450D01*
G01D02*
Y173900D01*
G01D02*
X240950D01*
G01X225150Y223800D02*
Y207800D01*
G01X223400Y317350D02*
Y309850D01*
G01X225550Y375400D02*
Y359400D01*
G01X235350Y360150D02*
X228900D01*
G01D02*
Y371650D01*
G01D02*
X235350D01*
G01D02*
Y360150D01*
G01X265300Y210950D02*
X281300D01*
G01Y203450D02*
X265300D01*
G01D02*
Y210950D01*
G01X277800Y362450D02*
X261800D01*
G01D02*
Y369950D01*
G01D02*
X277800D01*
G01D02*
Y362450D01*
G01X278300Y400250D02*
X262300D01*
G01D02*
Y407750D01*
G01X278300D02*
Y400250D01*
G01X262300Y407750D02*
X278300D01*
G01X281300Y210950D02*
Y203450D01*
G54D12*
G01X5400Y287700D02*
X25400D01*
G01X5400Y337700D02*
Y287700D01*
G01X25400Y337700D02*
X5400D01*
G01X-300Y377800D02*
X29700D01*
Y409800D01*
X-300D01*
Y377800D01*
G01X25400Y287700D02*
Y337700D01*
G01X22700Y409800D02*
Y377800D01*
G01X55100Y411800D02*
X90100D01*
Y391800D01*
X55100D01*
Y411800D01*
G01X54600Y401800D02*
X48100D01*
G01X80800Y2500D02*
Y27500D01*
G01X75300Y38000D02*
X276300D01*
G01X110800Y28000D02*
X90800D01*
G01D02*
X75300D01*
G01D02*
Y38000D01*
G01X84900Y286800D02*
Y266800D01*
G01D02*
X134900D01*
G01Y286800D02*
X84900D01*
G01X85100Y411800D02*
Y391800D01*
G01X90100Y401800D02*
X96600D01*
G01X137800Y416900D02*
X91000D01*
G01D02*
Y448100D01*
G01D02*
X137800D01*
G01X120800Y2500D02*
Y27500D01*
G01X100800D02*
Y2500D01*
G01X130800Y28000D02*
X110800D01*
G01X140800Y27500D02*
Y2500D01*
G01X170800Y28000D02*
X150800D01*
G01D02*
X130800D01*
G01X161140Y97900D02*
X157550D01*
G01X150050D02*
X146300D01*
G01X144110Y86390D02*
X146380Y82980D01*
G01D02*
X149790Y80710D01*
G01D02*
X153800Y79910D01*
G01D02*
X157810Y80710D01*
G01D02*
X161220Y82980D01*
G01X146380Y97820D02*
X144110Y94410D01*
G01X134900Y266800D02*
Y286800D01*
G01X195700Y416800D02*
X148900D01*
G01D02*
Y448000D01*
G01X137800Y448100D02*
Y416900D01*
G01X148900Y448000D02*
X195700D01*
G01X160800Y2500D02*
Y27500D01*
G01X191300Y28000D02*
X170800D01*
G01X163490Y94410D02*
X161220Y97820D01*
G01D02*
X161140Y97900D01*
G01X161220Y82980D02*
X163490Y86390D01*
G01X211700Y276900D02*
X179700D01*
G01Y299900D02*
Y269900D01*
X211700D01*
Y299900D01*
X179700D01*
G01X184100Y358300D02*
X204100D01*
G01X184100Y398300D02*
Y358300D01*
G01X199100Y360800D02*
X189100D01*
G01D02*
Y358300D01*
G01X204100Y398300D02*
X184100D01*
G01X210800Y2500D02*
Y27500D01*
G01X190800D02*
Y2500D01*
G01X230800Y28000D02*
X210800D01*
G01D02*
X191300D01*
G01X204100Y358300D02*
Y398300D01*
G01X199100Y358300D02*
Y360800D01*
G01X238100Y425000D02*
X206100D01*
G01Y448000D02*
Y418000D01*
X238100D01*
Y448000D01*
X206100D01*
G01X195700D02*
Y416800D01*
G01X230800Y27500D02*
Y2500D01*
G01X250800Y28000D02*
X230800D01*
G01X272300Y261300D02*
X232300D01*
G01D02*
Y301300D01*
G01D02*
X272300D01*
G01X271800Y303700D02*
X231800D01*
G01D02*
Y343700D01*
G01D02*
X271800D01*
G01X281100Y425000D02*
X249100D01*
G01Y448000D02*
Y418000D01*
X281100D01*
Y448000D01*
X249100D01*
G01X270800Y27500D02*
Y2500D01*
G01X250800D02*
Y27500D01*
G01X276300Y38000D02*
Y28000D01*
G01D02*
X270800D01*
G01D02*
X250800D01*
G01X272300Y263800D02*
Y261300D01*
G01X271050Y298800D02*
Y263800D01*
G01D02*
X272300D01*
G01Y301300D02*
Y298800D01*
G01D02*
X271050D01*
G01X271800Y306200D02*
Y303700D01*
G01X270550Y341200D02*
Y306200D01*
G01D02*
X271800D01*
G01Y343700D02*
Y341200D01*
G01D02*
X270550D01*
G01X307400Y212700D02*
Y51700D01*
G01D02*
X317400D01*
G01Y212700D02*
X307400D01*
G01X317400Y51700D02*
Y67200D01*
G01D02*
Y87200D01*
G01X347400Y57200D02*
X317400D01*
G01Y87200D02*
Y107200D01*
G01Y77200D02*
X347400D01*
G01Y97200D02*
X317400D01*
G01Y107200D02*
Y127200D01*
G01D02*
Y147200D01*
G01Y117200D02*
X347400D01*
G01X317400Y147200D02*
Y167200D01*
G01Y147200D02*
X347400D01*
G01X317400Y167200D02*
Y177200D01*
G01D02*
Y187200D01*
G01X347400D02*
X317400D01*
G01D02*
Y197200D01*
G01X347400Y167200D02*
X317400D01*
G01X347400Y207200D02*
X317400D01*
G01D02*
Y212700D01*
G01Y197200D02*
Y207200D01*
G54D13*
G01X0Y260000D02*
X350000D01*
Y0D01*
X0D01*
Y260000D01*
M02*
