G04 ================== begin FILE IDENTIFICATION RECORD ==================*
G04 Layout Name:  LinkingInterfaceV2_7.brd*
G04 Film Name:    LinkingInterface_v2_7_SST*
G04 File Format:  Gerber RS274X*
G04 File Origin:  Cadence Allegro 16.5-P002*
G04 Origin Date:  Sun Jun 07 14:33:43 2015*
G04 *
G04 Layer:  REF DES/SILKSCREEN_TOP*
G04 Layer:  PACKAGE GEOMETRY/SILKSCREEN_TOP*
G04 Layer:  BOARD GEOMETRY/SILKSCREEN_TOP*
G04 *
G04 Offset:    (0.0 0.0)*
G04 Mirror:    No*
G04 Mode:      Positive*
G04 Rotation:  0*
G04 FullContactRelief:  No*
G04 UndefLineWidth:     0.0*
G04 ================== end FILE IDENTIFICATION RECORD ====================*
%FSLAX25Y25*MOIN*%
%IR0*IPPOS*OFA0.00000B0.00000*MIA0B0*SFA1.00000B1.00000*%
%ADD10C,.005*%
%ADD11C,.006*%
%ADD12C,.008*%
%ADD13C,.025*%
G75*
%LPD*%
G75*
G36*
G01X42010Y444700D02*
Y420300D01*
X70360D01*
Y444700D01*
X42010D01*
G37*
G36*
G01X89210Y293640D02*
X106140D01*
Y310560D01*
X89210D01*
Y293640D01*
G37*
G36*
G01X128790Y310560D02*
X111860D01*
Y293640D01*
X128790D01*
Y310560D01*
G37*
G36*
G01X151060Y359810D02*
Y376740D01*
X134140D01*
Y359810D01*
X151060D01*
G37*
G36*
G01X177260Y205710D02*
Y222640D01*
X160340D01*
Y205710D01*
X177260D01*
G37*
G36*
G01X198660Y205610D02*
Y222540D01*
X181740D01*
Y205610D01*
X198660D01*
G37*
G36*
G01X202090Y322160D02*
X185160D01*
Y305240D01*
X202090D01*
Y322160D01*
G37*
G36*
G01X162010Y305140D02*
X178940D01*
Y322060D01*
X162010D01*
Y305140D01*
G37*
G36*
G01X194410Y329540D02*
X211340D01*
Y346460D01*
X194410D01*
Y329540D01*
G37*
G36*
G01X257390Y374760D02*
X240460D01*
Y357840D01*
X257390D01*
Y374760D01*
G37*
G36*
G01X257490Y412460D02*
X240560D01*
Y395540D01*
X257490D01*
Y412460D01*
G37*
G36*
G01X220640Y397890D02*
Y380960D01*
X237560D01*
Y397890D01*
X220640D01*
G37*
G54D10*
G01X-57660Y24200D02*
X-56910Y23570D01*
X-56070Y23200D01*
X-55330D01*
X-54580Y23570D01*
X-54020Y24200D01*
X-53740Y25080D01*
X-53930Y25950D01*
X-54390Y26700D01*
X-55230Y27200D01*
X-56350Y27450D01*
X-57010Y27950D01*
X-57290Y28820D01*
X-57100Y29700D01*
X-56630Y30320D01*
X-55980Y30700D01*
X-55330D01*
X-54670Y30450D01*
X-54110Y29820D01*
G01X-50160Y24200D02*
X-49410Y23570D01*
X-48570Y23200D01*
X-47830D01*
X-47080Y23570D01*
X-46520Y24200D01*
X-46240Y25080D01*
X-46430Y25950D01*
X-46890Y26700D01*
X-47730Y27200D01*
X-48850Y27450D01*
X-49510Y27950D01*
X-49790Y28820D01*
X-49600Y29700D01*
X-49130Y30320D01*
X-48480Y30700D01*
X-47830D01*
X-47170Y30450D01*
X-46610Y29820D01*
G01X-40700Y30700D02*
Y23200D01*
G01X-42850Y30700D02*
X-38550D01*
G01X10610Y285120D02*
X10250Y285390D01*
X10040Y285620D01*
X9940Y285930D01*
X10040Y286200D01*
X10250Y286390D01*
X10560Y286540D01*
X10920Y286580D01*
X11230Y286540D01*
X11540Y286390D01*
X11800Y286160D01*
X11900Y285890D01*
X11800Y285580D01*
X11490Y285310D01*
X11020Y285160D01*
X10510Y285120D01*
X9830Y285200D01*
X9470Y285310D01*
X9110Y285500D01*
X8850Y285770D01*
X8800Y286040D01*
X8900Y286310D01*
X9160Y286500D01*
G01X11900Y339850D02*
X8800D01*
X9420Y339390D01*
G01X11900D02*
Y340310D01*
G01X8800Y342950D02*
X8900Y342640D01*
X9160Y342410D01*
X9470Y342260D01*
X9890Y342140D01*
X10350Y342110D01*
X10820Y342140D01*
X11230Y342260D01*
X11540Y342410D01*
X11800Y342640D01*
X11900Y342950D01*
X11800Y343260D01*
X11540Y343490D01*
X11230Y343640D01*
X10820Y343760D01*
X10350Y343790D01*
X9890Y343760D01*
X9470Y343640D01*
X9160Y343490D01*
X8900Y343260D01*
X8800Y342950D01*
G01X8880Y351060D02*
X9280Y350430D01*
X9740Y350010D01*
X10290Y349800D01*
X10920Y350010D01*
X11390Y350430D01*
X11860Y351060D01*
X12020Y351900D01*
Y356100D01*
G01X16750Y349800D02*
Y356100D01*
X15810Y354840D01*
G01Y349800D02*
X17690D01*
G01X22890D02*
X23050Y351160D01*
X23290Y352320D01*
X23600Y353370D01*
X23990Y354520D01*
X24620Y356100D01*
X21480D01*
G01X8640Y412990D02*
X13640D01*
X12640Y413750D01*
G01X8640D02*
Y412230D01*
G01X36500Y126890D02*
X39600D01*
Y126130D01*
X39440Y125820D01*
X39240Y125590D01*
X38930Y125400D01*
X38570Y125240D01*
X38050Y125210D01*
X37530Y125240D01*
X37170Y125400D01*
X36860Y125590D01*
X36650Y125820D01*
X36500Y126130D01*
Y126890D01*
G01X39080Y123680D02*
X39390Y123450D01*
X39550Y123180D01*
X39600Y122870D01*
X39500Y122490D01*
X39240Y122220D01*
X38930Y122140D01*
X38620Y122180D01*
X38360Y122340D01*
X37840Y123100D01*
X37480Y123450D01*
X36960Y123680D01*
X36500Y123760D01*
Y122140D01*
G01X20900Y285850D02*
X17800D01*
X18420Y285390D01*
G01X20900D02*
Y286310D01*
G01X21440Y340010D02*
X21690Y340240D01*
X21850Y340500D01*
X21900Y340850D01*
X21800Y341200D01*
X21590Y341460D01*
X21230Y341660D01*
X20820Y341690D01*
X20400Y341620D01*
X20140Y341420D01*
X19940Y341160D01*
X19890Y340890D01*
X19940Y340620D01*
X20140Y340280D01*
X18800Y340390D01*
Y341420D01*
G01X44750Y382870D02*
X44190Y383250D01*
X43540Y383500D01*
X42790D01*
X41950Y383120D01*
X41300Y382500D01*
X40830Y381750D01*
X40460Y380500D01*
X40370Y379370D01*
X40550Y378250D01*
X40830Y377500D01*
X41390Y376750D01*
X42050Y376250D01*
X42700Y376000D01*
X43350D01*
X44010Y376250D01*
X44570Y376620D01*
X45030Y377120D01*
G01X50200Y376000D02*
Y383500D01*
X49080Y382000D01*
G01Y376000D02*
X51320D01*
G01X55650Y377500D02*
X56210Y376620D01*
X56950Y376120D01*
X57790Y376000D01*
X58540Y376120D01*
X59290Y376750D01*
X59750Y377500D01*
X59850Y378250D01*
X59660Y379120D01*
X59010Y379750D01*
X58350Y380000D01*
X57510D01*
G01X58350D02*
X58910Y380370D01*
X59380Y381000D01*
X59570Y381750D01*
X59380Y382500D01*
X58910Y383120D01*
X58070Y383500D01*
X57230Y383380D01*
X56390Y382870D01*
G01X29930Y386500D02*
X30400Y385750D01*
X30960Y385250D01*
X31610Y385000D01*
X32360Y385250D01*
X32920Y385750D01*
X33480Y386500D01*
X33670Y387500D01*
Y392500D01*
G01X39110Y385000D02*
X39300Y386620D01*
X39580Y388000D01*
X39950Y389250D01*
X40420Y390620D01*
X41170Y392500D01*
X37430D01*
G01X67150Y7000D02*
Y10100D01*
X66690Y9480D01*
G01Y7000D02*
X67610D01*
G01X66420Y19580D02*
X66650Y19890D01*
X66920Y20050D01*
X67230Y20100D01*
X67610Y20000D01*
X67880Y19740D01*
X67960Y19430D01*
X67920Y19120D01*
X67760Y18860D01*
X67000Y18340D01*
X66650Y17980D01*
X66420Y17460D01*
X66340Y17000D01*
X67960D01*
G01X54500Y126890D02*
X57600D01*
Y126130D01*
X57440Y125820D01*
X57240Y125590D01*
X56930Y125400D01*
X56570Y125240D01*
X56050Y125210D01*
X55530Y125240D01*
X55170Y125400D01*
X54860Y125590D01*
X54650Y125820D01*
X54500Y126130D01*
Y126890D01*
G01Y122490D02*
X57600D01*
X55380Y123910D01*
Y121990D01*
G01X70830Y282400D02*
Y287400D01*
X72420D01*
X72920Y287150D01*
X73240Y286820D01*
X73370Y286150D01*
X73240Y285480D01*
X72860Y285070D01*
X72420Y284820D01*
X70830D01*
G01X72420D02*
X73370Y282400D01*
G01X77200D02*
Y287400D01*
X76440Y286400D01*
G01Y282400D02*
X77960D01*
G01X82300D02*
Y287400D01*
X81540Y286400D01*
G01Y282400D02*
X83060D01*
G01X43530Y355000D02*
Y360000D01*
X45120D01*
X45620Y359750D01*
X45940Y359420D01*
X46070Y358750D01*
X45940Y358080D01*
X45560Y357670D01*
X45120Y357420D01*
X43530D01*
G01X45120D02*
X46070Y355000D01*
G01X49900D02*
Y360000D01*
X49140Y359000D01*
G01Y355000D02*
X50660D01*
G01X53800Y357080D02*
X54240Y357670D01*
X54620Y358000D01*
X55130Y358170D01*
X55570Y358000D01*
X55890Y357670D01*
X56140Y357170D01*
X56200Y356580D01*
X56140Y356080D01*
X55890Y355580D01*
X55510Y355170D01*
X55060Y355000D01*
X54560Y355170D01*
X54110Y355670D01*
X53860Y356420D01*
X53800Y357250D01*
X53920Y358330D01*
X54110Y358920D01*
X54430Y359500D01*
X54870Y359920D01*
X55320Y360000D01*
X55760Y359830D01*
X56080Y359420D01*
G01X65330Y399200D02*
Y405500D01*
X66890D01*
X67520Y405180D01*
X67990Y404760D01*
X68380Y404140D01*
X68700Y403400D01*
X68770Y402350D01*
X68700Y401300D01*
X68380Y400560D01*
X67990Y399930D01*
X67520Y399510D01*
X66890Y399200D01*
X65330D01*
G01X73350D02*
Y405500D01*
X72410Y404240D01*
G01Y399200D02*
X74290D01*
G01X51630Y434000D02*
Y440300D01*
X53190D01*
X53820Y439980D01*
X54290Y439560D01*
X54680Y438940D01*
X55000Y438200D01*
X55070Y437150D01*
X55000Y436100D01*
X54680Y435360D01*
X54290Y434730D01*
X53820Y434310D01*
X53190Y434000D01*
X51630D01*
G01X57930Y434940D02*
X58400Y434420D01*
X58940Y434100D01*
X59650Y434000D01*
X60360Y434210D01*
X60900Y434630D01*
X61300Y435360D01*
X61370Y436200D01*
X61220Y437040D01*
X60820Y437570D01*
X60280Y437990D01*
X59730Y438090D01*
X59180Y437990D01*
X58480Y437570D01*
X58710Y440300D01*
X60820D01*
G01X100080Y147610D02*
X100330Y147990D01*
X100500Y148430D01*
Y148940D01*
X100250Y149510D01*
X99830Y149950D01*
X99330Y150270D01*
X98500Y150520D01*
X97750Y150580D01*
X97000Y150460D01*
X96500Y150270D01*
X96000Y149890D01*
X95670Y149440D01*
X95500Y149000D01*
Y148560D01*
X95670Y148110D01*
X95920Y147730D01*
X96250Y147420D01*
G01X95500Y143900D02*
X100500D01*
X99500Y144660D01*
G01X95500D02*
Y143140D01*
G01X96080Y139880D02*
X95670Y139430D01*
X95500Y138930D01*
X95670Y138420D01*
X96170Y137980D01*
X96920Y137660D01*
X97670Y137530D01*
X98580D01*
X99330Y137660D01*
X100000Y137980D01*
X100330Y138360D01*
X100500Y138800D01*
X100330Y139310D01*
X100000Y139690D01*
X99500Y139940D01*
X98830Y140070D01*
X98250Y139940D01*
X97670Y139620D01*
X97330Y139240D01*
X97250Y138800D01*
X97420Y138290D01*
X97830Y137910D01*
X98580Y137530D01*
G01X91500Y269400D02*
Y274400D01*
X90740Y273400D01*
G01Y269400D02*
X92260D01*
G01X90390Y316780D02*
X90010Y317030D01*
X89570Y317200D01*
X89060D01*
X88490Y316950D01*
X88050Y316530D01*
X87730Y316030D01*
X87480Y315200D01*
X87420Y314450D01*
X87540Y313700D01*
X87730Y313200D01*
X88110Y312700D01*
X88560Y312370D01*
X89000Y312200D01*
X89440D01*
X89890Y312370D01*
X90270Y312620D01*
X90580Y312950D01*
G01X94100Y312200D02*
Y317200D01*
X93340Y316200D01*
G01Y312200D02*
X94860D01*
G01X99200Y317200D02*
X98690Y317030D01*
X98310Y316620D01*
X98060Y316120D01*
X97870Y315450D01*
X97810Y314700D01*
X97870Y313950D01*
X98060Y313280D01*
X98310Y312780D01*
X98690Y312370D01*
X99200Y312200D01*
X99710Y312370D01*
X100090Y312780D01*
X100340Y313280D01*
X100530Y313950D01*
X100590Y314700D01*
X100530Y315450D01*
X100340Y316120D01*
X100090Y316620D01*
X99710Y317030D01*
X99200Y317200D01*
G01X72430Y292200D02*
Y297200D01*
X74020D01*
X74520Y296950D01*
X74840Y296620D01*
X74970Y295950D01*
X74840Y295280D01*
X74460Y294870D01*
X74020Y294620D01*
X72430D01*
G01X74020D02*
X74970Y292200D01*
G01X78800D02*
Y297200D01*
X78040Y296200D01*
G01Y292200D02*
X79560D01*
G01X83900Y297200D02*
X83390Y297030D01*
X83010Y296620D01*
X82760Y296120D01*
X82570Y295450D01*
X82510Y294700D01*
X82570Y293950D01*
X82760Y293280D01*
X83010Y292780D01*
X83390Y292370D01*
X83900Y292200D01*
X84410Y292370D01*
X84790Y292780D01*
X85040Y293280D01*
X85230Y293950D01*
X85290Y294700D01*
X85230Y295450D01*
X85040Y296120D01*
X84790Y296620D01*
X84410Y297030D01*
X83900Y297200D01*
G01X75130Y348000D02*
Y353000D01*
X76720D01*
X77220Y352750D01*
X77540Y352420D01*
X77670Y351750D01*
X77540Y351080D01*
X77160Y350670D01*
X76720Y350420D01*
X75130D01*
G01X76720D02*
X77670Y348000D01*
G01X81500D02*
Y353000D01*
X80740Y352000D01*
G01Y348000D02*
X82260D01*
G01X85210Y349000D02*
X85590Y348420D01*
X86090Y348080D01*
X86660Y348000D01*
X87170Y348080D01*
X87680Y348500D01*
X87990Y349000D01*
X88060Y349500D01*
X87930Y350080D01*
X87490Y350500D01*
X87040Y350670D01*
X86470D01*
G01X87040D02*
X87420Y350920D01*
X87740Y351330D01*
X87870Y351830D01*
X87740Y352330D01*
X87420Y352750D01*
X86850Y353000D01*
X86280Y352920D01*
X85710Y352580D01*
G01X88920Y379960D02*
X87400D01*
G01X88220Y378880D02*
Y381050D01*
G01X97530Y439930D02*
Y444930D01*
X96770Y443930D01*
G01Y439930D02*
X98290D01*
G01X122310Y178600D02*
Y175020D01*
X122560Y174270D01*
X123070Y173770D01*
X123700Y173600D01*
X124330Y173770D01*
X124840Y174270D01*
X125090Y175020D01*
Y178600D01*
G01X127600Y175680D02*
X128040Y176270D01*
X128420Y176600D01*
X128930Y176770D01*
X129370Y176600D01*
X129690Y176270D01*
X129940Y175770D01*
X130000Y175180D01*
X129940Y174680D01*
X129690Y174180D01*
X129310Y173770D01*
X128860Y173600D01*
X128360Y173770D01*
X127910Y174270D01*
X127660Y175020D01*
X127600Y175850D01*
X127720Y176930D01*
X127910Y177520D01*
X128230Y178100D01*
X128670Y178520D01*
X129120Y178600D01*
X129560Y178430D01*
X129880Y178020D01*
G01X103880Y285060D02*
X104280Y284430D01*
X104740Y284010D01*
X105290Y283800D01*
X105920Y284010D01*
X106390Y284430D01*
X106860Y285060D01*
X107020Y285900D01*
Y290100D01*
G01X110260Y286420D02*
X110810Y287160D01*
X111280Y287580D01*
X111910Y287790D01*
X112460Y287580D01*
X112850Y287160D01*
X113160Y286530D01*
X113240Y285790D01*
X113160Y285160D01*
X112850Y284530D01*
X112380Y284010D01*
X111830Y283800D01*
X111200Y284010D01*
X110650Y284640D01*
X110340Y285590D01*
X110260Y286630D01*
X110420Y288000D01*
X110650Y288740D01*
X111040Y289470D01*
X111590Y290000D01*
X112140Y290100D01*
X112690Y289890D01*
X113080Y289360D01*
G01X132890Y382380D02*
X132510Y382630D01*
X132070Y382800D01*
X131560D01*
X130990Y382550D01*
X130550Y382130D01*
X130230Y381630D01*
X129980Y380800D01*
X129920Y380050D01*
X130040Y379300D01*
X130230Y378800D01*
X130610Y378300D01*
X131060Y377970D01*
X131500Y377800D01*
X131940D01*
X132390Y377970D01*
X132770Y378220D01*
X133080Y378550D01*
G01X136470Y377800D02*
X136600Y378880D01*
X136790Y379800D01*
X137040Y380630D01*
X137360Y381550D01*
X137870Y382800D01*
X135330D01*
G01X108750Y393500D02*
Y388130D01*
X109120Y387000D01*
X109870Y386250D01*
X110800Y386000D01*
X111730Y386250D01*
X112480Y387000D01*
X112850Y388130D01*
Y393500D01*
G01X116250Y387500D02*
X116810Y386620D01*
X117550Y386120D01*
X118390Y386000D01*
X119140Y386120D01*
X119890Y386750D01*
X120350Y387500D01*
X120450Y388250D01*
X120260Y389120D01*
X119610Y389750D01*
X118950Y390000D01*
X118110D01*
G01X118950D02*
X119510Y390370D01*
X119980Y391000D01*
X120170Y391750D01*
X119980Y392500D01*
X119510Y393120D01*
X118670Y393500D01*
X117830Y393380D01*
X116990Y392870D01*
G01X105780Y420260D02*
X106180Y419630D01*
X106640Y419210D01*
X107190Y419000D01*
X107820Y419210D01*
X108290Y419630D01*
X108760Y420260D01*
X108920Y421100D01*
Y425300D01*
G01X113650Y419000D02*
Y425300D01*
X112710Y424040D01*
G01Y419000D02*
X114590D01*
G01X118460Y424250D02*
X118930Y424880D01*
X119480Y425200D01*
X120110Y425300D01*
X120890Y425090D01*
X121440Y424560D01*
X121600Y423940D01*
X121520Y423300D01*
X121200Y422780D01*
X119640Y421730D01*
X118930Y420990D01*
X118460Y419940D01*
X118300Y419000D01*
X121600D01*
G01X125190Y412480D02*
X124810Y412730D01*
X124370Y412900D01*
X123860D01*
X123290Y412650D01*
X122850Y412230D01*
X122530Y411730D01*
X122280Y410900D01*
X122220Y410150D01*
X122340Y409400D01*
X122530Y408900D01*
X122910Y408400D01*
X123360Y408070D01*
X123800Y407900D01*
X124240D01*
X124690Y408070D01*
X125070Y408320D01*
X125380Y408650D01*
G01X128900Y407900D02*
Y412900D01*
X128140Y411900D01*
G01Y407900D02*
X129660D01*
G01X132800Y412070D02*
X133180Y412570D01*
X133620Y412820D01*
X134130Y412900D01*
X134760Y412730D01*
X135200Y412320D01*
X135330Y411820D01*
X135270Y411320D01*
X135010Y410900D01*
X133750Y410070D01*
X133180Y409480D01*
X132800Y408650D01*
X132670Y407900D01*
X135330D01*
G01X136250Y99950D02*
X135500Y100070D01*
X134850Y100570D01*
X134290Y101320D01*
X133920Y102200D01*
X133730Y103200D01*
Y104200D01*
X133920Y105200D01*
X134290Y106080D01*
X134850Y106820D01*
X135500Y107330D01*
X136250Y107450D01*
X137000Y107330D01*
X137650Y106820D01*
X138210Y106080D01*
X138580Y105200D01*
X138770Y104200D01*
Y103200D01*
X138580Y102200D01*
X138210Y101320D01*
X137650Y100570D01*
X137000Y100070D01*
X136250Y99950D01*
G01X137000Y101950D02*
X138120Y99950D01*
G01X143750D02*
Y107450D01*
X142630Y105950D01*
G01Y99950D02*
X144870D01*
G01X137750Y142600D02*
Y145700D01*
X137290Y145080D01*
G01Y142600D02*
X138210D01*
G01X131910Y214300D02*
Y219300D01*
X133170D01*
X133680Y219050D01*
X134060Y218720D01*
X134380Y218220D01*
X134630Y217630D01*
X134690Y216800D01*
X134630Y215970D01*
X134380Y215380D01*
X134060Y214880D01*
X133680Y214550D01*
X133170Y214300D01*
X131910D01*
G01X137010Y215300D02*
X137390Y214720D01*
X137890Y214380D01*
X138460Y214300D01*
X138970Y214380D01*
X139480Y214800D01*
X139790Y215300D01*
X139860Y215800D01*
X139730Y216380D01*
X139290Y216800D01*
X138840Y216970D01*
X138270D01*
G01X138840D02*
X139220Y217220D01*
X139540Y217630D01*
X139670Y218130D01*
X139540Y218630D01*
X139220Y219050D01*
X138650Y219300D01*
X138080Y219220D01*
X137510Y218880D01*
G01X149930Y224000D02*
Y229000D01*
X151520D01*
X152020Y228750D01*
X152340Y228420D01*
X152470Y227750D01*
X152340Y227080D01*
X151960Y226670D01*
X151520Y226420D01*
X149930D01*
G01X151520D02*
X152470Y224000D01*
G01X156300D02*
Y229000D01*
X155540Y228000D01*
G01Y224000D02*
X157060D01*
G01X161270D02*
X161400Y225080D01*
X161590Y226000D01*
X161840Y226830D01*
X162160Y227750D01*
X162670Y229000D01*
X160130D01*
G01X141390Y247180D02*
X141010Y247430D01*
X140570Y247600D01*
X140060D01*
X139490Y247350D01*
X139050Y246930D01*
X138730Y246430D01*
X138480Y245600D01*
X138420Y244850D01*
X138540Y244100D01*
X138730Y243600D01*
X139110Y243100D01*
X139560Y242770D01*
X140000Y242600D01*
X140440D01*
X140890Y242770D01*
X141270Y243020D01*
X141580Y243350D01*
G01X145100Y242600D02*
Y247600D01*
X144340Y246600D01*
G01Y242600D02*
X145860D01*
G01X150960D02*
Y247600D01*
X148620Y244020D01*
X151780D01*
G01X132630Y286400D02*
Y291400D01*
X134220D01*
X134720Y291150D01*
X135040Y290820D01*
X135170Y290150D01*
X135040Y289480D01*
X134660Y289070D01*
X134220Y288820D01*
X132630D01*
G01X134220D02*
X135170Y286400D01*
G01X139000D02*
Y291400D01*
X138240Y290400D01*
G01Y286400D02*
X139760D01*
G01X142900Y290570D02*
X143280Y291070D01*
X143720Y291320D01*
X144230Y291400D01*
X144860Y291230D01*
X145300Y290820D01*
X145430Y290320D01*
X145370Y289820D01*
X145110Y289400D01*
X143850Y288570D01*
X143280Y287980D01*
X142900Y287150D01*
X142770Y286400D01*
X145430D01*
G01X153730Y373800D02*
Y378800D01*
X155320D01*
X155820Y378550D01*
X156140Y378220D01*
X156270Y377550D01*
X156140Y376880D01*
X155760Y376470D01*
X155320Y376220D01*
X153730D01*
G01X155320D02*
X156270Y373800D01*
G01X160860D02*
Y378800D01*
X158520Y375220D01*
X161680D01*
G01X141030Y388400D02*
Y393400D01*
X142620D01*
X143120Y393150D01*
X143440Y392820D01*
X143570Y392150D01*
X143440Y391480D01*
X143060Y391070D01*
X142620Y390820D01*
X141030D01*
G01X142620D02*
X143570Y388400D01*
G01X147400D02*
X147840Y388480D01*
X148350Y388730D01*
X148670Y389150D01*
X148790Y389730D01*
X148670Y390320D01*
X148290Y390820D01*
X147720Y391070D01*
X147080D01*
X146700Y391230D01*
X146390Y391650D01*
X146260Y392230D01*
X146450Y392820D01*
X146890Y393230D01*
X147400Y393400D01*
X147910Y393230D01*
X148350Y392820D01*
X148540Y392230D01*
X148410Y391650D01*
X148100Y391230D01*
X147720Y391070D01*
X147080D01*
X146510Y390820D01*
X146130Y390320D01*
X146010Y389730D01*
X146130Y389150D01*
X146450Y388730D01*
X146960Y388480D01*
X147400Y388400D01*
G01X156900Y439000D02*
Y444000D01*
X156140Y443000D01*
G01Y439000D02*
X157660D01*
G01X161630Y29000D02*
X161950Y28500D01*
X162330Y28170D01*
X162770Y28000D01*
X163280Y28170D01*
X163660Y28500D01*
X164040Y29000D01*
X164170Y29670D01*
Y33000D01*
G01X168000Y28000D02*
Y33000D01*
X167240Y32000D01*
G01Y28000D02*
X168760D01*
G01X171710Y28750D02*
X172090Y28330D01*
X172530Y28080D01*
X173100Y28000D01*
X173670Y28170D01*
X174110Y28500D01*
X174430Y29080D01*
X174490Y29750D01*
X174370Y30420D01*
X174050Y30830D01*
X173610Y31170D01*
X173160Y31250D01*
X172720Y31170D01*
X172150Y30830D01*
X172340Y33000D01*
X174050D01*
G01X180530Y101100D02*
Y106100D01*
X182120D01*
X182620Y105850D01*
X182940Y105520D01*
X183070Y104850D01*
X182940Y104180D01*
X182560Y103770D01*
X182120Y103520D01*
X180530D01*
G01X182120D02*
X183070Y101100D01*
G01X186900D02*
Y106100D01*
X186140Y105100D01*
G01Y101100D02*
X187660D01*
G01X190610Y101850D02*
X190990Y101430D01*
X191430Y101180D01*
X192000Y101100D01*
X192570Y101270D01*
X193010Y101600D01*
X193330Y102180D01*
X193390Y102850D01*
X193270Y103520D01*
X192950Y103930D01*
X192510Y104270D01*
X192060Y104350D01*
X191620Y104270D01*
X191050Y103930D01*
X191240Y106100D01*
X192950D01*
G01X180430Y117600D02*
Y122600D01*
X182020D01*
X182520Y122350D01*
X182840Y122020D01*
X182970Y121350D01*
X182840Y120680D01*
X182460Y120270D01*
X182020Y120020D01*
X180430D01*
G01X182020D02*
X182970Y117600D01*
G01X186800D02*
Y122600D01*
X186040Y121600D01*
G01Y117600D02*
X187560D01*
G01X192660D02*
Y122600D01*
X190320Y119020D01*
X193480D01*
G01X187270Y200170D02*
X186800Y200490D01*
X186260Y200700D01*
X185630D01*
X184920Y200380D01*
X184380Y199860D01*
X183980Y199230D01*
X183670Y198180D01*
X183590Y197230D01*
X183750Y196290D01*
X183980Y195660D01*
X184450Y195030D01*
X185000Y194610D01*
X185550Y194400D01*
X186100D01*
X186650Y194610D01*
X187120Y194920D01*
X187510Y195340D01*
G01X191850Y194400D02*
Y200700D01*
X190910Y199440D01*
G01Y194400D02*
X192790D01*
G01X196660Y197020D02*
X197210Y197760D01*
X197680Y198180D01*
X198310Y198390D01*
X198860Y198180D01*
X199250Y197760D01*
X199560Y197130D01*
X199640Y196390D01*
X199560Y195760D01*
X199250Y195130D01*
X198780Y194610D01*
X198230Y194400D01*
X197600Y194610D01*
X197050Y195240D01*
X196740Y196190D01*
X196660Y197230D01*
X196820Y198600D01*
X197050Y199340D01*
X197440Y200070D01*
X197990Y200600D01*
X198540Y200700D01*
X199090Y200490D01*
X199480Y199960D01*
G01X165770Y200570D02*
X165300Y200890D01*
X164760Y201100D01*
X164130D01*
X163420Y200780D01*
X162880Y200260D01*
X162480Y199630D01*
X162170Y198580D01*
X162090Y197630D01*
X162250Y196690D01*
X162480Y196060D01*
X162950Y195430D01*
X163500Y195010D01*
X164050Y194800D01*
X164600D01*
X165150Y195010D01*
X165620Y195320D01*
X166010Y195740D01*
G01X170350Y194800D02*
Y201100D01*
X169410Y199840D01*
G01Y194800D02*
X171290D01*
G01X174930Y195740D02*
X175400Y195220D01*
X175940Y194900D01*
X176650Y194800D01*
X177360Y195010D01*
X177900Y195430D01*
X178300Y196160D01*
X178370Y197000D01*
X178220Y197840D01*
X177820Y198370D01*
X177280Y198790D01*
X176730Y198890D01*
X176180Y198790D01*
X175480Y198370D01*
X175710Y201100D01*
X177820D01*
G01X177110Y244100D02*
Y240520D01*
X177360Y239770D01*
X177870Y239270D01*
X178500Y239100D01*
X179130Y239270D01*
X179640Y239770D01*
X179890Y240520D01*
Y244100D01*
G01X183470Y239100D02*
X183600Y240180D01*
X183790Y241100D01*
X184040Y241930D01*
X184360Y242850D01*
X184870Y244100D01*
X182330D01*
G01X189630Y272000D02*
X189950Y271500D01*
X190330Y271170D01*
X190770Y271000D01*
X191280Y271170D01*
X191660Y271500D01*
X192040Y272000D01*
X192170Y272670D01*
Y276000D01*
G01X196000Y271000D02*
Y276000D01*
X195240Y275000D01*
G01Y271000D02*
X196760D01*
G01X201100D02*
X201540Y271080D01*
X202050Y271330D01*
X202370Y271750D01*
X202490Y272330D01*
X202370Y272920D01*
X201990Y273420D01*
X201420Y273670D01*
X200780D01*
X200400Y273830D01*
X200090Y274250D01*
X199960Y274830D01*
X200150Y275420D01*
X200590Y275830D01*
X201100Y276000D01*
X201610Y275830D01*
X202050Y275420D01*
X202240Y274830D01*
X202110Y274250D01*
X201800Y273830D01*
X201420Y273670D01*
X200780D01*
X200210Y273420D01*
X199830Y272920D01*
X199710Y272330D01*
X199830Y271750D01*
X200150Y271330D01*
X200660Y271080D01*
X201100Y271000D01*
G01X169000Y279370D02*
X174000D01*
Y277780D01*
X173750Y277280D01*
X173420Y276960D01*
X172750Y276830D01*
X172080Y276960D01*
X171670Y277340D01*
X171420Y277780D01*
Y279370D01*
G01Y277780D02*
X169000Y276830D01*
G01Y273130D02*
X170080Y273000D01*
X171000Y272810D01*
X171830Y272560D01*
X172750Y272240D01*
X174000Y271730D01*
Y274270D01*
G01X170570Y328670D02*
X170100Y328990D01*
X169560Y329200D01*
X168930D01*
X168220Y328880D01*
X167680Y328360D01*
X167280Y327730D01*
X166970Y326680D01*
X166890Y325730D01*
X167050Y324790D01*
X167280Y324160D01*
X167750Y323530D01*
X168300Y323110D01*
X168850Y322900D01*
X169400D01*
X169950Y323110D01*
X170420Y323420D01*
X170810Y323840D01*
G01X175150Y322900D02*
X175700Y323000D01*
X176320Y323320D01*
X176720Y323840D01*
X176870Y324580D01*
X176720Y325310D01*
X176250Y325940D01*
X175540Y326260D01*
X174760D01*
X174290Y326470D01*
X173900Y326990D01*
X173740Y327730D01*
X173980Y328460D01*
X174520Y328990D01*
X175150Y329200D01*
X175780Y328990D01*
X176320Y328460D01*
X176560Y327730D01*
X176400Y326990D01*
X176010Y326470D01*
X175540Y326260D01*
X174760D01*
X174050Y325940D01*
X173580Y325310D01*
X173430Y324580D01*
X173580Y323840D01*
X173980Y323320D01*
X174600Y323000D01*
X175150Y322900D01*
G01X173890Y344680D02*
X173510Y344930D01*
X173070Y345100D01*
X172560D01*
X171990Y344850D01*
X171550Y344430D01*
X171230Y343930D01*
X170980Y343100D01*
X170920Y342350D01*
X171040Y341600D01*
X171230Y341100D01*
X171610Y340600D01*
X172060Y340270D01*
X172500Y340100D01*
X172940D01*
X173390Y340270D01*
X173770Y340520D01*
X174080Y340850D01*
G01X176400Y342180D02*
X176840Y342770D01*
X177220Y343100D01*
X177730Y343270D01*
X178170Y343100D01*
X178490Y342770D01*
X178740Y342270D01*
X178800Y341680D01*
X178740Y341180D01*
X178490Y340680D01*
X178110Y340270D01*
X177660Y340100D01*
X177160Y340270D01*
X176710Y340770D01*
X176460Y341520D01*
X176400Y342350D01*
X176520Y343430D01*
X176710Y344020D01*
X177030Y344600D01*
X177470Y345020D01*
X177920Y345100D01*
X178360Y344930D01*
X178680Y344520D01*
G01X165780Y440260D02*
X166180Y439630D01*
X166640Y439210D01*
X167190Y439000D01*
X167820Y439210D01*
X168290Y439630D01*
X168760Y440260D01*
X168920Y441100D01*
Y445300D01*
G01X173650Y439000D02*
Y445300D01*
X172710Y444040D01*
G01Y439000D02*
X174590D01*
G01X179950D02*
Y445300D01*
X179010Y444040D01*
G01Y439000D02*
X180890D01*
G01X219810Y178400D02*
Y174820D01*
X220060Y174070D01*
X220570Y173570D01*
X221200Y173400D01*
X221830Y173570D01*
X222340Y174070D01*
X222590Y174820D01*
Y178400D01*
G01X224910Y174150D02*
X225290Y173730D01*
X225730Y173480D01*
X226300Y173400D01*
X226870Y173570D01*
X227310Y173900D01*
X227630Y174480D01*
X227690Y175150D01*
X227570Y175820D01*
X227250Y176230D01*
X226810Y176570D01*
X226360Y176650D01*
X225920Y176570D01*
X225350Y176230D01*
X225540Y178400D01*
X227250D01*
G01X212150Y181100D02*
Y184200D01*
X211690Y183580D01*
G01Y181100D02*
X212610D01*
G01X210020Y195790D02*
X209770Y195410D01*
X209600Y194970D01*
Y194460D01*
X209850Y193890D01*
X210270Y193450D01*
X210770Y193130D01*
X211600Y192880D01*
X212350Y192820D01*
X213100Y192940D01*
X213600Y193130D01*
X214100Y193510D01*
X214430Y193960D01*
X214600Y194400D01*
Y194840D01*
X214430Y195290D01*
X214180Y195670D01*
X213850Y195980D01*
G01X214600Y199500D02*
X209600D01*
X210600Y198740D01*
G01X214600D02*
Y200260D01*
G01Y204470D02*
X213520Y204600D01*
X212600Y204790D01*
X211770Y205040D01*
X210850Y205360D01*
X209600Y205870D01*
Y203330D01*
G01X212130Y252700D02*
Y248190D01*
X212440Y247240D01*
X213070Y246610D01*
X213850Y246400D01*
X214630Y246610D01*
X215260Y247240D01*
X215570Y248190D01*
Y252700D01*
G01X221870Y252170D02*
X221400Y252490D01*
X220860Y252700D01*
X220230D01*
X219520Y252380D01*
X218980Y251860D01*
X218580Y251230D01*
X218270Y250180D01*
X218190Y249230D01*
X218350Y248290D01*
X218580Y247660D01*
X219050Y247030D01*
X219600Y246610D01*
X220150Y246400D01*
X220700D01*
X221250Y246610D01*
X221720Y246920D01*
X222110Y247340D01*
G01X224800Y247240D02*
X225430Y246710D01*
X226140Y246400D01*
X226760D01*
X227390Y246710D01*
X227860Y247240D01*
X228100Y247980D01*
X227940Y248710D01*
X227550Y249340D01*
X226840Y249760D01*
X225900Y249970D01*
X225350Y250390D01*
X225120Y251120D01*
X225280Y251860D01*
X225670Y252380D01*
X226210Y252700D01*
X226760D01*
X227310Y252490D01*
X227780Y251960D01*
G01X234470Y252170D02*
X234000Y252490D01*
X233460Y252700D01*
X232830D01*
X232120Y252380D01*
X231580Y251860D01*
X231180Y251230D01*
X230870Y250180D01*
X230790Y249230D01*
X230950Y248290D01*
X231180Y247660D01*
X231650Y247030D01*
X232200Y246610D01*
X232750Y246400D01*
X233300D01*
X233850Y246610D01*
X234320Y246920D01*
X234710Y247340D01*
G01X247070Y252170D02*
X246600Y252490D01*
X246060Y252700D01*
X245430D01*
X244720Y252380D01*
X244180Y251860D01*
X243780Y251230D01*
X243470Y250180D01*
X243390Y249230D01*
X243550Y248290D01*
X243780Y247660D01*
X244250Y247030D01*
X244800Y246610D01*
X245350Y246400D01*
X245900D01*
X246450Y246610D01*
X246920Y246920D01*
X247310Y247340D01*
G01X250080Y246400D02*
Y252700D01*
X251960D01*
X252590Y252380D01*
X253060Y251650D01*
X253220Y250810D01*
X253060Y249970D01*
X252670Y249340D01*
X251960Y249020D01*
X250080D01*
G01X257950Y246400D02*
X257320Y246500D01*
X256780Y246920D01*
X256300Y247550D01*
X255990Y248290D01*
X255830Y249130D01*
Y249970D01*
X255990Y250810D01*
X256300Y251550D01*
X256780Y252170D01*
X257320Y252600D01*
X257950Y252700D01*
X258580Y252600D01*
X259120Y252170D01*
X259600Y251550D01*
X259910Y250810D01*
X260070Y249970D01*
Y249130D01*
X259910Y248290D01*
X259600Y247550D01*
X259120Y246920D01*
X258580Y246500D01*
X257950Y246400D01*
G01X262680Y252700D02*
Y246400D01*
X265820D01*
G01X277320Y249550D02*
X278890D01*
Y247660D01*
X278420Y247030D01*
X277870Y246610D01*
X277090Y246400D01*
X276300Y246610D01*
X275750Y247030D01*
X275280Y247660D01*
X274970Y248390D01*
X274810Y249230D01*
Y249970D01*
X274970Y250600D01*
X275280Y251340D01*
X275750Y251960D01*
X276220Y252380D01*
X276850Y252700D01*
X277400D01*
X278020Y252490D01*
X278500Y252070D01*
G01X282050Y246400D02*
Y250600D01*
G01Y249760D02*
X282440Y250180D01*
X282840Y250490D01*
X283390Y250600D01*
X283780Y250490D01*
X284250Y250180D01*
G01X289450Y246400D02*
X288980Y246500D01*
X288510Y246920D01*
X288200Y247660D01*
X288040Y248500D01*
X288200Y249340D01*
X288510Y250070D01*
X288980Y250490D01*
X289450Y250600D01*
X289920Y250490D01*
X290390Y250070D01*
X290700Y249340D01*
X290780Y248500D01*
X290700Y247660D01*
X290390Y246920D01*
X289920Y246500D01*
X289450Y246400D01*
G01X294420Y250600D02*
Y247660D01*
X294730Y246920D01*
X295200Y246500D01*
X295750Y246400D01*
X296300Y246500D01*
X296770Y246920D01*
X297080Y247660D01*
G01Y246400D02*
Y250600D01*
G01X300640Y244300D02*
Y250600D01*
G01Y249660D02*
X301030Y250180D01*
X301420Y250490D01*
X302050Y250600D01*
X302600Y250490D01*
X303150Y249970D01*
X303380Y249230D01*
X303460Y248500D01*
X303380Y247760D01*
X303150Y247030D01*
X302680Y246610D01*
X302050Y246400D01*
X301500Y246500D01*
X300950Y246820D01*
X300640Y247240D01*
G01X211680Y239500D02*
Y233200D01*
X214820D01*
G01X219550Y237400D02*
Y233200D01*
G01Y239080D02*
X219390Y239180D01*
Y239400D01*
X219550Y239500D01*
X219710Y239400D01*
Y239180D01*
X219550Y239080D01*
G01X224520Y233200D02*
Y237400D01*
G01Y236350D02*
X224830Y236870D01*
X225300Y237290D01*
X225930Y237400D01*
X226480Y237290D01*
X226950Y236870D01*
X227180Y236140D01*
Y233200D01*
G01X230820D02*
Y239500D01*
G01X233320Y237400D02*
X230820Y234990D01*
G01X231840Y235930D02*
X233480Y233200D01*
G01X238450Y237400D02*
Y233200D01*
G01Y239080D02*
X238290Y239180D01*
Y239400D01*
X238450Y239500D01*
X238610Y239400D01*
Y239180D01*
X238450Y239080D01*
G01X243420Y233200D02*
Y237400D01*
G01Y236350D02*
X243730Y236870D01*
X244200Y237290D01*
X244830Y237400D01*
X245380Y237290D01*
X245850Y236870D01*
X246080Y236140D01*
Y233200D01*
G01X249950Y231620D02*
X250500Y231210D01*
X251130Y231100D01*
X251680Y231210D01*
X252150Y231730D01*
X252460Y232460D01*
Y237400D01*
G01Y236560D02*
X252150Y236980D01*
X251680Y237290D01*
X251130Y237400D01*
X250500Y237190D01*
X250110Y236770D01*
X249800Y236030D01*
X249640Y235300D01*
X249720Y234670D01*
X250030Y233930D01*
X250500Y233410D01*
X251130Y233200D01*
X251600Y233300D01*
X252150Y233720D01*
X252460Y234140D01*
G01X262710Y239500D02*
X264590D01*
G01X263650D02*
Y233200D01*
G01X262710D02*
X264590D01*
G01X268620D02*
Y237400D01*
G01Y236350D02*
X268930Y236870D01*
X269400Y237290D01*
X270030Y237400D01*
X270580Y237290D01*
X271050Y236870D01*
X271280Y236140D01*
Y233200D01*
G01X276250Y239500D02*
Y233200D01*
G01X275150Y237400D02*
X277350D01*
G01X281380Y236030D02*
X283880D01*
X283650Y236770D01*
X283260Y237190D01*
X282710Y237400D01*
X282160Y237290D01*
X281690Y236980D01*
X281380Y236240D01*
X281220Y235610D01*
Y234990D01*
X281380Y234350D01*
X281770Y233720D01*
X282240Y233300D01*
X282790Y233200D01*
X283330Y233410D01*
X283880Y234040D01*
G01X287750Y233200D02*
Y237400D01*
G01Y236560D02*
X288140Y236980D01*
X288540Y237290D01*
X289090Y237400D01*
X289480Y237290D01*
X289950Y236980D01*
G01X294680Y233200D02*
Y238560D01*
X294840Y239080D01*
X295150Y239400D01*
X295620Y239500D01*
X296090Y239290D01*
X296320Y238760D01*
G01X295390Y236980D02*
X293820D01*
G01X302860Y233200D02*
Y237400D01*
G01Y236670D02*
X302550Y237080D01*
X302080Y237290D01*
X301530Y237400D01*
X300980Y237190D01*
X300510Y236770D01*
X300200Y236140D01*
X300040Y235300D01*
X300200Y234460D01*
X300510Y233830D01*
X300980Y233410D01*
X301530Y233200D01*
X302080Y233300D01*
X302550Y233620D01*
X302860Y234040D01*
G01X309000Y236870D02*
X308460Y237290D01*
X307990Y237400D01*
X307360Y237190D01*
X306890Y236770D01*
X306580Y236030D01*
X306500Y235300D01*
X306580Y234560D01*
X306890Y233930D01*
X307360Y233410D01*
X307990Y233200D01*
X308530Y233410D01*
X309000Y233830D01*
G01X312880Y236030D02*
X315380D01*
X315150Y236770D01*
X314760Y237190D01*
X314210Y237400D01*
X313660Y237290D01*
X313190Y236980D01*
X312880Y236240D01*
X312720Y235610D01*
Y234990D01*
X312880Y234350D01*
X313270Y233720D01*
X313740Y233300D01*
X314290Y233200D01*
X314830Y233410D01*
X315380Y234040D01*
G01X213900Y285000D02*
Y290000D01*
X213140Y289000D01*
G01Y285000D02*
X214660D01*
G01X196270Y328370D02*
X195800Y328690D01*
X195260Y328900D01*
X194630D01*
X193920Y328580D01*
X193380Y328060D01*
X192980Y327430D01*
X192670Y326380D01*
X192590Y325430D01*
X192750Y324490D01*
X192980Y323860D01*
X193450Y323230D01*
X194000Y322810D01*
X194550Y322600D01*
X195100D01*
X195650Y322810D01*
X196120Y323120D01*
X196510Y323540D01*
G01X199130D02*
X199600Y323020D01*
X200140Y322700D01*
X200850Y322600D01*
X201560Y322810D01*
X202100Y323230D01*
X202500Y323960D01*
X202570Y324800D01*
X202420Y325640D01*
X202020Y326170D01*
X201480Y326590D01*
X200930Y326690D01*
X200380Y326590D01*
X199680Y326170D01*
X199910Y328900D01*
X202020D01*
G01X218630Y319100D02*
Y324100D01*
X220220D01*
X220720Y323850D01*
X221040Y323520D01*
X221170Y322850D01*
X221040Y322180D01*
X220660Y321770D01*
X220220Y321520D01*
X218630D01*
G01X220220D02*
X221170Y319100D01*
G01X223610Y319850D02*
X223990Y319430D01*
X224430Y319180D01*
X225000Y319100D01*
X225570Y319270D01*
X226010Y319600D01*
X226330Y320180D01*
X226390Y320850D01*
X226270Y321520D01*
X225950Y321930D01*
X225510Y322270D01*
X225060Y322350D01*
X224620Y322270D01*
X224050Y321930D01*
X224240Y324100D01*
X225950D01*
G01X191930Y378200D02*
Y373690D01*
X192240Y372740D01*
X192870Y372110D01*
X193650Y371900D01*
X194430Y372110D01*
X195060Y372740D01*
X195370Y373690D01*
Y378200D01*
G01X199950Y371900D02*
Y378200D01*
X199010Y376940D01*
G01Y371900D02*
X200890D01*
G01X201090Y352680D02*
X200710Y352930D01*
X200270Y353100D01*
X199760D01*
X199190Y352850D01*
X198750Y352430D01*
X198430Y351930D01*
X198180Y351100D01*
X198120Y350350D01*
X198240Y349600D01*
X198430Y349100D01*
X198810Y348600D01*
X199260Y348270D01*
X199700Y348100D01*
X200140D01*
X200590Y348270D01*
X200970Y348520D01*
X201280Y348850D01*
G01X205560Y348100D02*
Y353100D01*
X203220Y349520D01*
X206380D01*
G01X202350Y362100D02*
Y365200D01*
X201890Y364580D01*
G01Y362100D02*
X202810D01*
G01X218530Y352300D02*
Y357300D01*
X220120D01*
X220620Y357050D01*
X220940Y356720D01*
X221070Y356050D01*
X220940Y355380D01*
X220560Y354970D01*
X220120Y354720D01*
X218530D01*
G01X220120D02*
X221070Y352300D01*
G01X223700Y356470D02*
X224080Y356970D01*
X224520Y357220D01*
X225030Y357300D01*
X225660Y357130D01*
X226100Y356720D01*
X226230Y356220D01*
X226170Y355720D01*
X225910Y355300D01*
X224650Y354470D01*
X224080Y353880D01*
X223700Y353050D01*
X223570Y352300D01*
X226230D01*
G01X219970Y405070D02*
X219500Y405390D01*
X218960Y405600D01*
X218330D01*
X217620Y405280D01*
X217080Y404760D01*
X216680Y404130D01*
X216370Y403080D01*
X216290Y402130D01*
X216450Y401190D01*
X216680Y400560D01*
X217150Y399930D01*
X217700Y399510D01*
X218250Y399300D01*
X218800D01*
X219350Y399510D01*
X219820Y399820D01*
X220210Y400240D01*
G01X223220Y400030D02*
X223770Y399510D01*
X224390Y399300D01*
X225020Y399510D01*
X225570Y400140D01*
X225960Y401090D01*
X226120Y402030D01*
Y403180D01*
X225960Y404130D01*
X225570Y404970D01*
X225100Y405390D01*
X224550Y405600D01*
X223920Y405390D01*
X223450Y404970D01*
X223140Y404340D01*
X222980Y403500D01*
X223140Y402770D01*
X223530Y402030D01*
X224000Y401610D01*
X224550Y401500D01*
X225180Y401710D01*
X225650Y402240D01*
X226120Y403180D01*
G01X244290Y196580D02*
X243910Y196830D01*
X243470Y197000D01*
X242960D01*
X242390Y196750D01*
X241950Y196330D01*
X241630Y195830D01*
X241380Y195000D01*
X241320Y194250D01*
X241440Y193500D01*
X241630Y193000D01*
X242010Y192500D01*
X242460Y192170D01*
X242900Y192000D01*
X243340D01*
X243790Y192170D01*
X244170Y192420D01*
X244480Y192750D01*
G01X248000Y192000D02*
Y197000D01*
X247240Y196000D01*
G01Y192000D02*
X248760D01*
G01X253100D02*
X253540Y192080D01*
X254050Y192330D01*
X254370Y192750D01*
X254490Y193330D01*
X254370Y193920D01*
X253990Y194420D01*
X253420Y194670D01*
X252780D01*
X252400Y194830D01*
X252090Y195250D01*
X251960Y195830D01*
X252150Y196420D01*
X252590Y196830D01*
X253100Y197000D01*
X253610Y196830D01*
X254050Y196420D01*
X254240Y195830D01*
X254110Y195250D01*
X253800Y194830D01*
X253420Y194670D01*
X252780D01*
X252210Y194420D01*
X251830Y193920D01*
X251710Y193330D01*
X251830Y192750D01*
X252150Y192330D01*
X252660Y192080D01*
X253100Y192000D01*
G01X229790Y227300D02*
X231750Y221000D01*
X233710Y227300D01*
G01X236560Y226250D02*
X237030Y226880D01*
X237580Y227200D01*
X238210Y227300D01*
X238990Y227090D01*
X239540Y226560D01*
X239700Y225940D01*
X239620Y225300D01*
X239300Y224780D01*
X237740Y223730D01*
X237030Y222990D01*
X236560Y221940D01*
X236400Y221000D01*
X239700D01*
G01X244350Y220790D02*
X244190Y220900D01*
Y221100D01*
X244350Y221210D01*
X244510Y221100D01*
Y220900D01*
X244350Y220790D01*
G01X250490Y221000D02*
X250650Y222360D01*
X250890Y223520D01*
X251200Y224570D01*
X251590Y225720D01*
X252220Y227300D01*
X249080D01*
G01X256790Y219850D02*
X257110Y221210D01*
G01X267980Y222260D02*
X268380Y221630D01*
X268840Y221210D01*
X269390Y221000D01*
X270020Y221210D01*
X270490Y221630D01*
X270960Y222260D01*
X271120Y223100D01*
Y227300D01*
G01X274520Y225200D02*
Y222260D01*
X274830Y221520D01*
X275300Y221100D01*
X275850Y221000D01*
X276400Y221100D01*
X276870Y221520D01*
X277180Y222260D01*
G01Y221000D02*
Y225200D01*
G01X280820Y221000D02*
Y225200D01*
G01Y224150D02*
X281130Y224670D01*
X281600Y225090D01*
X282230Y225200D01*
X282780Y225090D01*
X283250Y224670D01*
X283480Y223940D01*
Y221000D01*
G01X287280Y223830D02*
X289780D01*
X289550Y224570D01*
X289160Y224990D01*
X288610Y225200D01*
X288060Y225090D01*
X287590Y224780D01*
X287280Y224040D01*
X287120Y223410D01*
Y222790D01*
X287280Y222150D01*
X287670Y221520D01*
X288140Y221100D01*
X288690Y221000D01*
X289230Y221210D01*
X289780Y221840D01*
G01X299560Y226250D02*
X300030Y226880D01*
X300580Y227200D01*
X301210Y227300D01*
X301990Y227090D01*
X302540Y226560D01*
X302700Y225940D01*
X302620Y225300D01*
X302300Y224780D01*
X300740Y223730D01*
X300030Y222990D01*
X299560Y221940D01*
X299400Y221000D01*
X302700D01*
G01X307350Y227300D02*
X306720Y227090D01*
X306250Y226560D01*
X305940Y225940D01*
X305700Y225090D01*
X305630Y224150D01*
X305700Y223200D01*
X305940Y222360D01*
X306250Y221730D01*
X306720Y221210D01*
X307350Y221000D01*
X307980Y221210D01*
X308450Y221730D01*
X308760Y222360D01*
X309000Y223200D01*
X309070Y224150D01*
X309000Y225090D01*
X308760Y225940D01*
X308450Y226560D01*
X307980Y227090D01*
X307350Y227300D01*
G01X313650Y221000D02*
Y227300D01*
X312710Y226040D01*
G01Y221000D02*
X314590D01*
G01X318230Y221940D02*
X318700Y221420D01*
X319240Y221100D01*
X319950Y221000D01*
X320660Y221210D01*
X321200Y221630D01*
X321600Y222360D01*
X321670Y223200D01*
X321520Y224040D01*
X321120Y224570D01*
X320580Y224990D01*
X320030Y225090D01*
X319480Y224990D01*
X318780Y224570D01*
X319010Y227300D01*
X321120D01*
G01X245130Y276500D02*
Y284000D01*
X247470D01*
X248210Y283620D01*
X248680Y283120D01*
X248870Y282120D01*
X248680Y281120D01*
X248120Y280500D01*
X247470Y280120D01*
X245130D01*
G01X247470D02*
X248870Y276500D01*
G01X252910Y277370D02*
X253570Y276750D01*
X254310Y276500D01*
X255060Y276750D01*
X255710Y277500D01*
X256180Y278630D01*
X256370Y279750D01*
Y281120D01*
X256180Y282250D01*
X255710Y283250D01*
X255150Y283750D01*
X254500Y284000D01*
X253750Y283750D01*
X253190Y283250D01*
X252820Y282500D01*
X252630Y281500D01*
X252820Y280630D01*
X253290Y279750D01*
X253850Y279250D01*
X254500Y279120D01*
X255250Y279370D01*
X255810Y280000D01*
X256370Y281120D01*
G01X246430Y318900D02*
Y326400D01*
X248770D01*
X249510Y326020D01*
X249980Y325520D01*
X250170Y324520D01*
X249980Y323520D01*
X249420Y322900D01*
X248770Y322520D01*
X246430D01*
G01X248770D02*
X250170Y318900D01*
G01X254030Y322020D02*
X254680Y322900D01*
X255240Y323400D01*
X255990Y323650D01*
X256640Y323400D01*
X257110Y322900D01*
X257480Y322150D01*
X257570Y321270D01*
X257480Y320520D01*
X257110Y319770D01*
X256550Y319150D01*
X255890Y318900D01*
X255150Y319150D01*
X254490Y319900D01*
X254120Y321030D01*
X254030Y322270D01*
X254210Y323900D01*
X254490Y324780D01*
X254960Y325650D01*
X255610Y326280D01*
X256270Y326400D01*
X256920Y326150D01*
X257390Y325520D01*
G01X249270Y357070D02*
X248800Y357390D01*
X248260Y357600D01*
X247630D01*
X246920Y357280D01*
X246380Y356760D01*
X245980Y356130D01*
X245670Y355080D01*
X245590Y354130D01*
X245750Y353190D01*
X245980Y352560D01*
X246450Y351930D01*
X247000Y351510D01*
X247550Y351300D01*
X248100D01*
X248650Y351510D01*
X249120Y351820D01*
X249510Y352240D01*
G01X253850Y351300D02*
Y357600D01*
X252910Y356340D01*
G01Y351300D02*
X254790D01*
G01X233390Y357380D02*
X233010Y357630D01*
X232570Y357800D01*
X232060D01*
X231490Y357550D01*
X231050Y357130D01*
X230730Y356630D01*
X230480Y355800D01*
X230420Y355050D01*
X230540Y354300D01*
X230730Y353800D01*
X231110Y353300D01*
X231560Y352970D01*
X232000Y352800D01*
X232440D01*
X232890Y352970D01*
X233270Y353220D01*
X233580Y353550D01*
G01X235900Y356970D02*
X236280Y357470D01*
X236720Y357720D01*
X237230Y357800D01*
X237860Y357630D01*
X238300Y357220D01*
X238430Y356720D01*
X238370Y356220D01*
X238110Y355800D01*
X236850Y354970D01*
X236280Y354380D01*
X235900Y353550D01*
X235770Y352800D01*
X238430D01*
G01X250570Y394370D02*
X250100Y394690D01*
X249560Y394900D01*
X248930D01*
X248220Y394580D01*
X247680Y394060D01*
X247280Y393430D01*
X246970Y392380D01*
X246890Y391430D01*
X247050Y390490D01*
X247280Y389860D01*
X247750Y389230D01*
X248300Y388810D01*
X248850Y388600D01*
X249400D01*
X249950Y388810D01*
X250420Y389120D01*
X250810Y389540D01*
G01X253430Y389860D02*
X253900Y389120D01*
X254520Y388700D01*
X255230Y388600D01*
X255860Y388700D01*
X256480Y389230D01*
X256870Y389860D01*
X256950Y390490D01*
X256800Y391220D01*
X256250Y391750D01*
X255700Y391960D01*
X254990D01*
G01X255700D02*
X256170Y392270D01*
X256560Y392800D01*
X256720Y393430D01*
X256560Y394060D01*
X256170Y394580D01*
X255460Y394900D01*
X254760Y394800D01*
X254050Y394370D01*
G01X241090Y434060D02*
Y439060D01*
X240330Y438060D01*
G01Y434060D02*
X241850D01*
G01X274310Y6620D02*
X274540Y6260D01*
X274840Y6050D01*
X275190Y6000D01*
X275500Y6050D01*
X275800Y6310D01*
X275990Y6620D01*
X276030Y6930D01*
X275960Y7290D01*
X275690Y7550D01*
X275420Y7650D01*
X275070D01*
G01X275420D02*
X275650Y7810D01*
X275840Y8070D01*
X275920Y8380D01*
X275840Y8690D01*
X275650Y8940D01*
X275300Y9100D01*
X274960Y9050D01*
X274610Y8840D01*
G01X277600Y6360D02*
X277870Y6100D01*
X278170Y6000D01*
X278480Y6100D01*
X278750Y6410D01*
X278940Y6880D01*
X279020Y7340D01*
Y7910D01*
X278940Y8380D01*
X278750Y8790D01*
X278520Y9000D01*
X278250Y9100D01*
X277940Y9000D01*
X277710Y8790D01*
X277560Y8480D01*
X277480Y8070D01*
X277560Y7710D01*
X277750Y7340D01*
X277980Y7140D01*
X278250Y7080D01*
X278560Y7190D01*
X278790Y7450D01*
X279020Y7910D01*
G01X275610Y16000D02*
Y19100D01*
X274190Y16880D01*
X276110D01*
G01X278250Y19100D02*
X277940Y19000D01*
X277710Y18740D01*
X277560Y18430D01*
X277440Y18010D01*
X277410Y17550D01*
X277440Y17080D01*
X277560Y16670D01*
X277710Y16360D01*
X277940Y16100D01*
X278250Y16000D01*
X278560Y16100D01*
X278790Y16360D01*
X278940Y16670D01*
X279060Y17080D01*
X279090Y17550D01*
X279060Y18010D01*
X278940Y18430D01*
X278790Y18740D01*
X278560Y19000D01*
X278250Y19100D01*
G01X265230Y371800D02*
Y376800D01*
X266820D01*
X267320Y376550D01*
X267640Y376220D01*
X267770Y375550D01*
X267640Y374880D01*
X267260Y374470D01*
X266820Y374220D01*
X265230D01*
G01X266820D02*
X267770Y371800D01*
G01X271600D02*
Y376800D01*
X270840Y375800D01*
G01Y371800D02*
X272360D01*
G01X265130Y409700D02*
Y414700D01*
X266720D01*
X267220Y414450D01*
X267540Y414120D01*
X267670Y413450D01*
X267540Y412780D01*
X267160Y412370D01*
X266720Y412120D01*
X265130D01*
G01X266720D02*
X267670Y409700D01*
G01X270110Y410700D02*
X270490Y410120D01*
X270990Y409780D01*
X271560Y409700D01*
X272070Y409780D01*
X272580Y410200D01*
X272890Y410700D01*
X272960Y411200D01*
X272830Y411780D01*
X272390Y412200D01*
X271940Y412370D01*
X271370D01*
G01X271940D02*
X272320Y412620D01*
X272640Y413030D01*
X272770Y413530D01*
X272640Y414030D01*
X272320Y414450D01*
X271750Y414700D01*
X271180Y414620D01*
X270610Y414280D01*
G01X284930Y432200D02*
X285400Y431450D01*
X285960Y430950D01*
X286610Y430700D01*
X287360Y430950D01*
X287920Y431450D01*
X288480Y432200D01*
X288670Y433200D01*
Y438200D01*
G01X294300Y430700D02*
Y438200D01*
X293180Y436700D01*
G01Y430700D02*
X295420D01*
G01X299750Y432200D02*
X300310Y431320D01*
X301050Y430820D01*
X301890Y430700D01*
X302640Y430820D01*
X303390Y431450D01*
X303850Y432200D01*
X303950Y432950D01*
X303760Y433820D01*
X303110Y434450D01*
X302450Y434700D01*
X301610D01*
G01X302450D02*
X303010Y435070D01*
X303480Y435700D01*
X303670Y436450D01*
X303480Y437200D01*
X303010Y437820D01*
X302170Y438200D01*
X301330Y438080D01*
X300490Y437570D01*
G01X284090Y434060D02*
Y439060D01*
X283330Y438060D01*
G01Y434060D02*
X284850D01*
G01X342000Y47150D02*
X338900D01*
X339520Y46690D01*
G01X342000D02*
Y47610D01*
G01X316630Y128000D02*
X316950Y127500D01*
X317330Y127170D01*
X317770Y127000D01*
X318280Y127170D01*
X318660Y127500D01*
X319040Y128000D01*
X319170Y128670D01*
Y132000D01*
G01X323000Y127000D02*
Y132000D01*
X322240Y131000D01*
G01Y127000D02*
X323760D01*
G01X326900Y129080D02*
X327340Y129670D01*
X327720Y130000D01*
X328230Y130170D01*
X328670Y130000D01*
X328990Y129670D01*
X329240Y129170D01*
X329300Y128580D01*
X329240Y128080D01*
X328990Y127580D01*
X328610Y127170D01*
X328160Y127000D01*
X327660Y127170D01*
X327210Y127670D01*
X326960Y128420D01*
X326900Y129250D01*
X327020Y130330D01*
X327210Y130920D01*
X327530Y131500D01*
X327970Y131920D01*
X328420Y132000D01*
X328860Y131830D01*
X329180Y131420D01*
G01X318030Y282000D02*
X318350Y281500D01*
X318730Y281170D01*
X319170Y281000D01*
X319680Y281170D01*
X320060Y281500D01*
X320440Y282000D01*
X320570Y282670D01*
Y286000D01*
G01X324400Y281000D02*
Y286000D01*
X323640Y285000D01*
G01Y281000D02*
X325160D01*
G01X318330Y324100D02*
X318650Y323600D01*
X319030Y323270D01*
X319470Y323100D01*
X319980Y323270D01*
X320360Y323600D01*
X320740Y324100D01*
X320870Y324770D01*
Y328100D01*
G01X323500Y327270D02*
X323880Y327770D01*
X324320Y328020D01*
X324830Y328100D01*
X325460Y327930D01*
X325900Y327520D01*
X326030Y327020D01*
X325970Y326520D01*
X325710Y326100D01*
X324450Y325270D01*
X323880Y324680D01*
X323500Y323850D01*
X323370Y323100D01*
X326030D01*
G01X316230Y368000D02*
X316550Y367500D01*
X316930Y367170D01*
X317370Y367000D01*
X317880Y367170D01*
X318260Y367500D01*
X318640Y368000D01*
X318770Y368670D01*
Y372000D01*
G01X321210Y367750D02*
X321590Y367330D01*
X322030Y367080D01*
X322600Y367000D01*
X323170Y367170D01*
X323610Y367500D01*
X323930Y368080D01*
X323990Y368750D01*
X323870Y369420D01*
X323550Y369830D01*
X323110Y370170D01*
X322660Y370250D01*
X322220Y370170D01*
X321650Y369830D01*
X321840Y372000D01*
X323550D01*
G01X316230Y410300D02*
X316550Y409800D01*
X316930Y409470D01*
X317370Y409300D01*
X317880Y409470D01*
X318260Y409800D01*
X318640Y410300D01*
X318770Y410970D01*
Y414300D01*
G01X323360Y409300D02*
Y414300D01*
X321020Y410720D01*
X324180D01*
G54D11*
G01X85500Y273250D02*
X69500D01*
G01D02*
Y280750D01*
G01D02*
X85500D01*
G01X86000Y372900D02*
X61000D01*
G01D02*
Y384900D01*
G01X73600Y353850D02*
X57600D01*
G01D02*
Y361350D01*
G01D02*
X73600D01*
G01X61000Y384900D02*
X86000D01*
G01X85500Y280750D02*
Y273250D01*
G01X102900Y283950D02*
X86900D01*
G01D02*
Y291450D01*
G01D02*
X102900D01*
G01X86000Y377650D02*
Y372900D01*
G01X83850Y369900D02*
Y353900D01*
G01D02*
X76350D01*
G01D02*
Y369900D01*
G01D02*
X83850D01*
G01X73600Y361350D02*
Y353850D01*
G01X86000Y380150D02*
X87250Y378900D01*
G01D02*
X86000Y377650D01*
G01Y384900D02*
Y380150D01*
G01X102050Y136300D02*
Y152300D01*
G01D02*
X109550D01*
G01D02*
Y136300D01*
G01D02*
X102050D01*
G01X102900Y291450D02*
Y283950D01*
G01X131000Y284550D02*
X115000D01*
G01D02*
Y292050D01*
G01D02*
X131000D01*
G01X128600Y374000D02*
Y359400D01*
G01D02*
X124000D01*
G01X106800D02*
X102200D01*
G01D02*
Y374000D01*
G01X136500Y398050D02*
X120500D01*
G01D02*
Y405550D01*
G01D02*
X136500D01*
G01X132600Y212450D02*
X148600D01*
G01D02*
Y204950D01*
G01D02*
X132600D01*
G01D02*
Y212450D01*
G01X148550Y236100D02*
Y220100D01*
G01D02*
X141050D01*
G01D02*
Y236100D01*
G01X160650Y238000D02*
X153150D01*
G01D02*
Y254000D01*
G01D02*
X160650D01*
G01X141050Y236100D02*
X148550D01*
G01X159850Y267600D02*
Y283600D01*
G01D02*
X167350D01*
G01Y267600D02*
X159850D01*
G01X131000Y292050D02*
Y284550D01*
G01X136500Y405550D02*
Y398050D01*
G01X154800Y379650D02*
X138800D01*
G01D02*
Y387150D01*
G01D02*
X154800D01*
G01D02*
Y379650D01*
G01X171150Y94200D02*
Y110200D01*
G01X178650D02*
Y94200D01*
G01D02*
X171150D01*
G01X178600Y115950D02*
X162600D01*
G01D02*
Y123450D01*
G01D02*
X178600D01*
G01D02*
Y115950D01*
G01X171150Y110200D02*
X178650D01*
G01X160650Y254000D02*
Y238000D01*
G01X167350Y283600D02*
Y267600D01*
G01X182900Y345850D02*
X166900D01*
G01D02*
Y353350D01*
G01D02*
X182900D01*
G01D02*
Y345850D01*
G01X162250Y371200D02*
Y387200D01*
G01X169750D02*
Y371200D01*
G01D02*
X162250D01*
G01Y387200D02*
X169750D01*
G01X215950Y223800D02*
Y207800D01*
G01D02*
X208450D01*
G01D02*
Y223800D01*
G01D02*
X215950D01*
G01X223400Y309850D02*
X207400D01*
G01D02*
Y317350D01*
G01D02*
X223400D01*
G01X225550Y359400D02*
X218050D01*
G01D02*
Y375400D01*
G01D02*
X225550D01*
G01X240950Y173900D02*
Y189900D01*
G01D02*
X248450D01*
G01D02*
Y173900D01*
G01D02*
X240950D01*
G01X223400Y317350D02*
Y309850D01*
G01X225550Y375400D02*
Y359400D01*
G01X235350Y360150D02*
X228900D01*
G01D02*
Y371650D01*
G01D02*
X235350D01*
G01D02*
Y360150D01*
G01X277800Y362450D02*
X261800D01*
G01D02*
Y369950D01*
G01D02*
X277800D01*
G01D02*
Y362450D01*
G01X278300Y400250D02*
X262300D01*
G01D02*
Y407750D01*
G01X278300D02*
Y400250D01*
G01X262300Y407750D02*
X278300D01*
G54D12*
G01X5400Y287700D02*
X25400D01*
G01X5400Y337700D02*
Y287700D01*
G01X25400Y337700D02*
X5400D01*
G01X-300Y377800D02*
X29700D01*
Y409800D01*
X-300D01*
Y377800D01*
G01X25400Y287700D02*
Y337700D01*
G01X22700Y409800D02*
Y377800D01*
G01X55100Y411800D02*
X90100D01*
Y391800D01*
X55100D01*
Y411800D01*
G01X54600Y401800D02*
X48100D01*
G01X80800Y2500D02*
Y27500D01*
G01X75300Y38000D02*
X276300D01*
G01X110800Y28000D02*
X90800D01*
G01D02*
X75300D01*
G01D02*
Y38000D01*
G01X109000Y272100D02*
X99000D01*
G01D02*
X93500D01*
G01D02*
Y282100D01*
G01D02*
X154500D01*
G01X85100Y411800D02*
Y391800D01*
G01X90100Y401800D02*
X96600D01*
G01X137800Y416900D02*
X91000D01*
G01D02*
Y448100D01*
G01D02*
X137800D01*
G01X120800Y2500D02*
Y27500D01*
G01X100800D02*
Y2500D01*
G01X130800Y28000D02*
X110800D01*
G01X139000Y272100D02*
X129000D01*
G01D02*
X119000D01*
G01D02*
X109000D01*
G01X140800Y27500D02*
Y2500D01*
G01X170800Y28000D02*
X150800D01*
G01D02*
X130800D01*
G01X161140Y97900D02*
X157550D01*
G01X150050D02*
X146300D01*
G01X144110Y86390D02*
X146380Y82980D01*
G01D02*
X149790Y80710D01*
G01D02*
X153800Y79910D01*
G01D02*
X157810Y80710D01*
G01D02*
X161220Y82980D01*
G01X146380Y97820D02*
X144110Y94410D01*
G01X154500Y272100D02*
X139000D01*
G01X154500Y282100D02*
Y272100D01*
G01X195700Y416800D02*
X148900D01*
G01D02*
Y448000D01*
G01X137800Y448100D02*
Y416900D01*
G01X148900Y448000D02*
X195700D01*
G01X160800Y2500D02*
Y27500D01*
G01X191300Y28000D02*
X170800D01*
G01X163490Y94410D02*
X161220Y97820D01*
G01D02*
X161140Y97900D01*
G01X161220Y82980D02*
X163490Y86390D01*
G01X211700Y276900D02*
X179700D01*
G01Y299900D02*
Y269900D01*
X211700D01*
Y299900D01*
X179700D01*
G01X199100Y358500D02*
X189100D01*
G01X179100Y358300D02*
Y355800D01*
G01D02*
X189100D01*
G01D02*
Y358300D01*
G01X209100Y400800D02*
X179100D01*
G01D02*
Y398300D01*
G01X210800Y2500D02*
Y27500D01*
G01X190800D02*
Y2500D01*
G01X230800Y28000D02*
X210800D01*
G01D02*
X191300D01*
G01X209100Y358300D02*
Y355800D01*
G01D02*
X199100D01*
G01D02*
Y358500D01*
G01X209100Y398300D02*
Y400800D01*
G01X238100Y425000D02*
X206100D01*
G01Y448000D02*
Y418000D01*
X238100D01*
Y448000D01*
X206100D01*
G01X195700D02*
Y416800D01*
G01X230800Y27500D02*
Y2500D01*
G01X250800Y28000D02*
X230800D01*
G01X272300Y261300D02*
X232300D01*
G01D02*
Y301300D01*
G01D02*
X272300D01*
G01X271800Y303700D02*
X231800D01*
G01D02*
Y343700D01*
G01D02*
X271800D01*
G01X281100Y425000D02*
X249100D01*
G01Y448000D02*
Y418000D01*
X281100D01*
Y448000D01*
X249100D01*
G01X270800Y27500D02*
Y2500D01*
G01X250800D02*
Y27500D01*
G01X276300Y38000D02*
Y28000D01*
G01D02*
X270800D01*
G01D02*
X250800D01*
G01X272300Y263800D02*
Y261300D01*
G01X271050Y298800D02*
Y263800D01*
G01D02*
X272300D01*
G01Y301300D02*
Y298800D01*
G01D02*
X271050D01*
G01X271800Y306200D02*
Y303700D01*
G01X270550Y341200D02*
Y306200D01*
G01D02*
X271800D01*
G01Y343700D02*
Y341200D01*
G01D02*
X270550D01*
G01X307400Y212700D02*
Y51700D01*
G01D02*
X317400D01*
G01Y212700D02*
X307400D01*
G01X317400Y51700D02*
Y67200D01*
G01D02*
Y87200D01*
G01X347400Y57200D02*
X317400D01*
G01Y87200D02*
Y107200D01*
G01Y77200D02*
X347400D01*
G01Y97200D02*
X317400D01*
G01Y107200D02*
Y127200D01*
G01D02*
Y147200D01*
G01Y117200D02*
X347400D01*
G01X317400Y147200D02*
Y167200D01*
G01Y147200D02*
X347400D01*
G01X317400Y167200D02*
Y177200D01*
G01D02*
Y187200D01*
G01X347400D02*
X317400D01*
G01D02*
Y197200D01*
G01X347400Y167200D02*
X317400D01*
G01X347400Y207200D02*
X317400D01*
G01D02*
Y212700D01*
G01Y197200D02*
Y207200D01*
G54D13*
G01X0Y260000D02*
X350000D01*
Y0D01*
X0D01*
Y260000D01*
M02*
