G04 ================== begin FILE IDENTIFICATION RECORD ==================*
G04 Layout Name:  LinkingInterfaceV2_7.brd*
G04 Film Name:    LinkingInterface_v2_7_TOP*
G04 File Format:  Gerber RS274X*
G04 File Origin:  Cadence Allegro 16.5-P002*
G04 Origin Date:  Sun Jun 07 14:33:43 2015*
G04 *
G04 Layer:  ETCH/TOP*
G04 Layer:  PIN/TOP*
G04 Layer:  VIA CLASS/TOP*
G04 *
G04 Offset:    (0.0 0.0)*
G04 Mirror:    No*
G04 Mode:      Positive*
G04 Rotation:  0*
G04 FullContactRelief:  No*
G04 UndefLineWidth:     0.0*
G04 ================== end FILE IDENTIFICATION RECORD ====================*
%FSLAX25Y25*MOIN*%
%IR0*IPPOS*OFA0.00000B0.00000*MIA0B0*SFA1.00000B1.00000*%
%ADD13C,.1*%
%ADD12R,.1X.1*%
%ADD27R,.142X.088*%
%ADD37R,.0866X.1102*%
%ADD30R,.0846X.128*%
%ADD17R,.0984X.1299*%
%ADD36R,.1102X.1102*%
%ADD14C,.03*%
%ADD28C,.05*%
%ADD10C,.025*%
%ADD35R,.038X.032*%
%ADD11C,.062*%
%ADD16C,.081*%
%ADD18R,.0217X.0413*%
%ADD34C,.056*%
%ADD20R,.05X.05*%
%ADD21C,.058*%
%ADD32R,.086X.046*%
%ADD15R,.062X.062*%
%ADD23R,.081X.081*%
%ADD33R,.056X.056*%
%ADD26R,.048X.088*%
%ADD24R,.058X.058*%
%ADD19R,.086X.086*%
%ADD31R,.0846X.0374*%
%ADD22R,.0728X.0276*%
%ADD29R,.0276X.0728*%
%ADD25R,.0394X.0197*%
%ADD38C,.005*%
%ADD39C,.012*%
%ADD40C,.035*%
%ADD49R,.1022X.0622*%
%ADD46R,.0642X.1042*%
%ADD42C,.1164*%
%ADD57R,.1008X.0536*%
%ADD44R,.1022X.1022*%
%ADD56R,.1008X.1442*%
%ADD48R,.1162X.1162*%
%ADD47R,.1582X.1042*%
%ADD52R,.1028X.1264*%
%ADD50C,.0724*%
%ADD54C,.0744*%
%ADD53R,.0556X.036*%
%ADD55R,.0742X.0742*%
%ADD41C,.0784*%
%ADD45R,.0662X.0662*%
%ADD51R,.0438X.089*%
%ADD43R,.0782X.0782*%
G75*
%LPD*%
G75*
G36*
G01X50400Y256100D02*
X45800Y260700D01*
X6800D01*
X1900Y265600D01*
Y411000D01*
X38400Y447500D01*
X316800D01*
X329990Y434310D01*
Y429990D01*
X334310D01*
X335100Y429200D01*
X347300D01*
Y281300D01*
X326800Y260800D01*
X159370D01*
Y265860D01*
G03X154250I-2560J0D01*
G01Y260800D01*
X96200D01*
X91500Y256100D01*
X50400D01*
G37*
G36*
G01X31800Y2600D02*
X29600Y4800D01*
Y62900D01*
X16900Y75600D01*
Y215600D01*
X41610Y240310D01*
G02X42290Y240050I281J-285D01*
G01Y211300D01*
X41800D01*
Y205540D01*
X45600D01*
Y207010D01*
X47200D01*
Y205540D01*
X51000D01*
Y211300D01*
X47200D01*
Y209830D01*
X45600D01*
Y211300D01*
X45110D01*
Y243810D01*
X59800Y258500D01*
X154250D01*
Y253510D01*
X153590D01*
Y246890D01*
X160210D01*
Y247640D01*
X163760D01*
Y247620D01*
X173840D01*
Y252980D01*
X163760D01*
Y252860D01*
X162110D01*
X162010Y252760D01*
X160210D01*
Y253510D01*
X159460D01*
Y255180D01*
X159370Y255270D01*
Y258500D01*
X300100D01*
X345800Y212800D01*
Y45400D01*
X303000Y2600D01*
X31800D01*
G37*
%LPC*%
G75*
G36*
G01X199660Y429840D02*
X193130D01*
G02Y434960I-5230J2560D01*
G01X197540D01*
X201140Y438560D01*
X209270D01*
G02Y433440I5230J-2560D01*
G01X203260D01*
X199660Y429840D01*
G37*
G36*
G01X162510Y426590D02*
X150890D01*
Y434590D01*
X145440Y440040D01*
X109960D01*
X104610Y434690D01*
Y426690D01*
X92990D01*
Y429940D01*
X75300D01*
Y425190D01*
X63840D01*
Y439810D01*
X75300D01*
Y435060D01*
X92990D01*
Y438310D01*
X100990D01*
X107840Y445160D01*
X147560D01*
X154510Y438210D01*
X162510D01*
Y426590D01*
G37*
G36*
G01X131770Y426960D02*
G02X135510Y430610I-1762J5547D01*
G01X143460Y422660D01*
X240540D01*
X251990Y434110D01*
G02X255730Y430460I5502J1897D01*
G01X255610Y430490D01*
X242660Y417540D01*
X141340D01*
X131890Y426990D01*
X131770Y426960D01*
G37*
G36*
G01X269410Y407310D02*
Y400690D01*
X262790D01*
Y402590D01*
X260360D01*
Y401810D01*
X251460D01*
Y406190D01*
X260360D01*
Y405410D01*
X262790D01*
Y407310D01*
X269410D01*
G37*
G36*
G01X296680Y420190D02*
X294180D01*
X288660Y414670D01*
Y410400D01*
X293570D01*
Y397760D01*
X280930D01*
Y402590D01*
X277810D01*
Y400690D01*
X271190D01*
Y407310D01*
X277810D01*
Y405410D01*
X279680D01*
X279760Y405490D01*
X280930D01*
Y410400D01*
X285840D01*
Y415830D01*
X293020Y423010D01*
X296680D01*
Y427920D01*
X309320D01*
Y415280D01*
X296680D01*
Y420190D01*
G37*
G36*
G01X17510Y399240D02*
Y395990D01*
X5890D01*
Y407610D01*
X17510D01*
Y404360D01*
X38460D01*
G02X40040Y405940I4140J-2560D01*
G01Y408320D01*
X40080Y408360D01*
Y424880D01*
X36910D01*
Y439500D01*
X48370D01*
Y424880D01*
X45200D01*
Y406240D01*
X45160Y406200D01*
Y405940D01*
X45250Y405880D01*
G02X38460Y399240I-2647J-4085D01*
G01X17510D01*
G37*
G36*
G01X154310Y381990D02*
Y380090D01*
X147690D01*
Y386710D01*
X154310D01*
Y384810D01*
X162690D01*
Y386710D01*
X169310D01*
Y384810D01*
X170480D01*
X170580Y384710D01*
X173990D01*
Y386410D01*
X184210D01*
Y380190D01*
X173990D01*
Y381890D01*
X169310D01*
Y380090D01*
X162690D01*
Y381990D01*
X154310D01*
G37*
G36*
G01X231290Y382580D02*
Y378870D01*
X226910D01*
Y380990D01*
X214210D01*
Y380190D01*
X203990D01*
Y380990D01*
X193840D01*
X184450Y390380D01*
X184210Y390280D01*
Y390190D01*
X173990D01*
Y390890D01*
X164500D01*
G02Y395510I0J2310D01*
G01X172340D01*
X172440Y395610D01*
X173990D01*
Y396410D01*
X184210D01*
Y395610D01*
X185760D01*
X195760Y385610D01*
X203990D01*
Y386410D01*
X214210D01*
Y385610D01*
X225340D01*
X225360Y385630D01*
X226910D01*
Y387770D01*
X231290D01*
Y384060D01*
X231300Y384030D01*
G02Y382610I-2200J-710D01*
G01X231290Y382580D01*
G37*
G36*
G01X127610Y384110D02*
Y373690D01*
X121190D01*
Y384110D01*
X121740D01*
Y398490D01*
X120990D01*
Y399240D01*
X107460D01*
Y396940D01*
X97740D01*
Y406660D01*
X107460D01*
Y404360D01*
X120990D01*
Y405110D01*
X127610D01*
Y398490D01*
X126860D01*
Y385860D01*
X126960Y385760D01*
Y384110D01*
X127610D01*
G37*
G36*
G01X184210Y371890D02*
Y370190D01*
X173990D01*
Y371890D01*
X172620D01*
X170920Y373590D01*
X169310D01*
Y371690D01*
X162690D01*
Y378310D01*
X169310D01*
Y376410D01*
X172080D01*
X173310Y375190D01*
G03X173990Y375470I281J282D01*
G01Y376410D01*
X184210D01*
Y374710D01*
X185510D01*
G02X186150Y371890I2090J-1008D01*
G01X184210D01*
G37*
G36*
G01X144790Y378830D02*
Y369930D01*
X140410D01*
Y378830D01*
X141190D01*
Y380090D01*
X139290D01*
Y386710D01*
X145910D01*
Y380090D01*
X144010D01*
Y378830D01*
X144790D01*
G37*
G36*
G01X268910Y369510D02*
Y362890D01*
X262290D01*
Y364790D01*
X261120D01*
X261020Y364890D01*
X260260D01*
Y364110D01*
X251360D01*
Y368490D01*
X260260D01*
Y367710D01*
X262290D01*
Y369510D01*
X268910D01*
G37*
G36*
G01X83410Y369410D02*
Y362790D01*
X76790D01*
Y369410D01*
X78690D01*
Y373790D01*
X74990D01*
Y384010D01*
X85210D01*
Y380310D01*
X103190D01*
Y384110D01*
X109610D01*
Y373690D01*
X108960D01*
Y370500D01*
G02X103840I-2560J0D01*
G01Y373690D01*
X103190D01*
Y377490D01*
X85210D01*
Y373790D01*
X81510D01*
Y369410D01*
X83410D01*
G37*
G36*
G01X295410Y382490D02*
X293680D01*
X288660Y377470D01*
Y372600D01*
X293570D01*
Y359960D01*
X280930D01*
Y364870D01*
X278560D01*
X278480Y364790D01*
X277310D01*
Y362890D01*
X270690D01*
Y369510D01*
X277310D01*
Y367690D01*
X280930D01*
Y372600D01*
X285840D01*
Y378630D01*
X292520Y385310D01*
X296680D01*
Y390120D01*
X309320D01*
Y377480D01*
X296680D01*
Y382390D01*
X295510D01*
X295410Y382490D01*
G37*
G36*
G01X73110Y355290D02*
Y354290D01*
X66490D01*
Y360910D01*
X73110D01*
Y359910D01*
X75140D01*
X75240Y360010D01*
X76790D01*
Y361010D01*
X83410D01*
Y360010D01*
X88840D01*
X93970Y365130D01*
G02X97230Y361870I1630J-1630D01*
G01X90760Y355390D01*
X83410D01*
Y354390D01*
X76790D01*
Y355290D01*
X73110D01*
G37*
G36*
G01X147710Y354410D02*
X147810Y354400D01*
X163120Y369710D01*
X201520D01*
X203990Y372180D01*
Y376410D01*
X214210D01*
Y374710D01*
X216780D01*
X217810Y373690D01*
G03X218490Y373970I281J282D01*
G01Y374910D01*
X225110D01*
Y373010D01*
X226480D01*
X228710Y370790D01*
G03X229390Y371070I281J282D01*
G01Y371110D01*
X234810D01*
Y370110D01*
X238380D01*
X240000Y368490D01*
X241410D01*
Y401810D01*
X238470D01*
Y406190D01*
X247370D01*
Y401810D01*
X244330D01*
Y400640D01*
X244230Y400540D01*
Y368490D01*
X247270D01*
Y364110D01*
X238370D01*
Y366140D01*
X237220Y367290D01*
X234810D01*
Y366290D01*
X229390D01*
Y367290D01*
X228220D01*
X225790Y369710D01*
G03X225110Y369430I-281J-282D01*
G01Y368290D01*
X218490D01*
Y370190D01*
X217320D01*
X215620Y371890D01*
X214210D01*
Y370190D01*
X205980D01*
X202680Y366890D01*
X164280D01*
X149800Y352410D01*
X149810Y352310D01*
G02X147710Y354410I-2310J-210D01*
G37*
G36*
G01X133710Y352310D02*
X133810Y352300D01*
X134150Y352640D01*
Y352670D01*
X140410Y358930D01*
Y365840D01*
X144790D01*
Y356940D01*
X142400D01*
X136970Y351510D01*
Y351480D01*
X135800Y350310D01*
X135810Y350210D01*
G02X133710Y352310I-2310J-210D01*
G37*
G36*
G01X182410Y352910D02*
Y346290D01*
X175790D01*
Y352910D01*
X176540D01*
Y360190D01*
X173990D01*
Y360740D01*
X170300D01*
X170100Y360940D01*
X167100D01*
G02Y366060I0J2560D01*
G01X172220D01*
X172420Y365860D01*
X173990D01*
Y366410D01*
X184210D01*
Y360190D01*
X181660D01*
Y352910D01*
X182410D01*
G37*
G36*
G01X213430Y340190D02*
Y335810D01*
X204530D01*
Y340190D01*
X207570D01*
Y341360D01*
X207690Y341480D01*
Y360190D01*
X203990D01*
Y366410D01*
X214210D01*
Y364710D01*
X218490D01*
Y366510D01*
X225110D01*
Y364610D01*
X229390D01*
Y365510D01*
X234810D01*
Y360690D01*
X229390D01*
Y361690D01*
X228220D01*
X228120Y361790D01*
X225110D01*
Y359890D01*
X218490D01*
Y361790D01*
X217320D01*
X217220Y361890D01*
X214210D01*
Y360190D01*
X210510D01*
Y340190D01*
X213430D01*
G37*
G36*
G01X191540Y336590D02*
X150040D01*
G02Y339410I-1840J1410D01*
G01X191540D01*
Y340190D01*
X200440D01*
Y335810D01*
X191540D01*
Y336590D01*
G37*
G36*
G01X284490Y331120D02*
Y335080D01*
X291920Y342510D01*
X295280D01*
Y347420D01*
X307920D01*
Y334780D01*
X295280D01*
Y339690D01*
X293080D01*
X287310Y333920D01*
Y329900D01*
X292170D01*
Y317260D01*
X279530D01*
Y322170D01*
X265540D01*
X265420Y322290D01*
X265140D01*
X265080Y322170D01*
G02X265130Y325110I-3281J1526D01*
G01X266580D01*
X266700Y324990D01*
X279530D01*
Y329900D01*
X284440D01*
Y331070D01*
X284490Y331120D01*
G37*
G36*
G01X214510Y316910D02*
Y310290D01*
X207890D01*
Y312190D01*
X204960D01*
Y311510D01*
X196060D01*
Y315890D01*
X204960D01*
Y315110D01*
X206130D01*
X206230Y315010D01*
X207890D01*
Y316910D01*
X214510D01*
G37*
G36*
G01X245410Y317310D02*
Y310090D01*
X238190D01*
Y312290D01*
X224180D01*
X224080Y312190D01*
X222910D01*
Y310290D01*
X216290D01*
Y316910D01*
X222910D01*
Y315110D01*
X238190D01*
Y317310D01*
X245410D01*
G37*
G36*
G01X44860Y311290D02*
X24060D01*
G02Y314110I-3660J1410D01*
G01X44860D01*
G02Y311290I1840J-1410D01*
G37*
G36*
G01X120190Y322390D02*
X120090Y322400D01*
X115630Y317940D01*
Y304290D01*
X118670D01*
Y299910D01*
X109770D01*
Y304290D01*
X112810D01*
Y319100D01*
X118100Y324390D01*
X118090Y324490D01*
G02X120190Y322390I2310J210D01*
G37*
G36*
G01X102370Y304290D02*
Y315160D01*
X120380Y333170D01*
X183880D01*
X183920Y333210D01*
X185660D01*
G02X188910Y329960I1840J-1410D01*
G01Y329120D01*
X188930Y329100D01*
Y315890D01*
X191970D01*
Y311510D01*
X183070D01*
Y312290D01*
X182300D01*
X182200Y312190D01*
X181030D01*
Y311410D01*
X172130D01*
Y315790D01*
X181030D01*
Y315110D01*
X183070D01*
Y315890D01*
X186110D01*
Y327940D01*
X186090Y327960D01*
Y329960D01*
G02X185660Y330390I1410J1840D01*
G01X185080D01*
X185040Y330350D01*
X121540D01*
X105190Y314000D01*
Y304290D01*
X108230D01*
Y299910D01*
X99330D01*
Y304290D01*
X102370D01*
G37*
G36*
G01X47060Y301290D02*
X24060D01*
G02Y304110I-3660J1410D01*
G01X47060D01*
G02Y301290I1840J-1410D01*
G37*
G36*
G01X130510Y291610D02*
Y284990D01*
X123890D01*
Y291610D01*
X125790D01*
Y292780D01*
X125800Y292790D01*
Y299910D01*
X122760D01*
Y304290D01*
X131660D01*
Y299910D01*
X128620D01*
Y291610D01*
X130510D01*
G37*
G36*
G01X94010Y291010D02*
Y284390D01*
X87390D01*
Y291010D01*
X89290D01*
Y299910D01*
X86340D01*
Y304290D01*
X95240D01*
Y299910D01*
X92200D01*
Y298740D01*
X92110Y298650D01*
Y291010D01*
X94010D01*
G37*
G36*
G01X166910Y283110D02*
Y276490D01*
X160290D01*
Y283110D01*
X162190D01*
Y310230D01*
X162180Y310240D01*
Y311410D01*
X159140D01*
Y315790D01*
X168040D01*
Y311410D01*
X165010D01*
Y283110D01*
X166910D01*
G37*
G36*
G01X291870Y287600D02*
Y274960D01*
X279230D01*
Y279870D01*
X278060D01*
X278040Y279890D01*
X265630D01*
G02Y282710I-3330J1410D01*
G01X279230D01*
Y287600D01*
X284140D01*
Y294430D01*
X289920Y300210D01*
X294980D01*
Y305120D01*
X307620D01*
Y292480D01*
X294980D01*
Y297390D01*
X291080D01*
X286960Y293270D01*
Y287600D01*
X291870D01*
G37*
G36*
G01X102910Y281010D02*
Y273190D01*
X95090D01*
Y275590D01*
X85010D01*
Y273690D01*
X78390D01*
Y280310D01*
X85010D01*
Y278410D01*
X93820D01*
X93920Y278510D01*
X95090D01*
Y281010D01*
X97590D01*
Y282180D01*
X97690Y282280D01*
Y284390D01*
X95790D01*
Y291010D01*
X102410D01*
Y284390D01*
X100510D01*
Y281010D01*
X102910D01*
G37*
G36*
G01X120410Y282180D02*
Y280760D01*
G02X117470Y280710I-1408J-3659D01*
G01X117590Y280760D01*
Y281020D01*
X117390Y281220D01*
Y284990D01*
X115490D01*
Y291610D01*
X122110D01*
Y284990D01*
X120210D01*
Y282380D01*
X120410Y282180D01*
G37*
G36*
G01X140410Y273440D02*
Y272600D01*
G02X137590I-1410J0D01*
G01Y273440D01*
G02X140410I1410J3660D01*
G37*
G36*
G01X245910Y274910D02*
Y267690D01*
X238690D01*
Y269890D01*
X188820D01*
X188720Y269990D01*
X166910D01*
Y268090D01*
X160290D01*
Y274710D01*
X166910D01*
Y272810D01*
X189880D01*
X189980Y272710D01*
X238690D01*
Y274910D01*
X245910D01*
G37*
G36*
G01X47160Y264690D02*
X32240D01*
G02Y267510I-1840J1410D01*
G01X47160D01*
G02Y264690I1840J-1410D01*
G37*
G36*
G01X287610Y184510D02*
X287710Y184500D01*
X308490Y205280D01*
Y211110D01*
X316310D01*
Y203290D01*
X310480D01*
X289700Y182510D01*
X289710Y182410D01*
G02X287610Y184510I-2310J-210D01*
G37*
G36*
G01X217310Y123120D02*
Y112140D01*
G02X214490I-1410J-1840D01*
G01Y124280D01*
X220390Y130180D01*
Y155730D01*
X214820Y161290D01*
X214580Y161190D01*
Y161140D01*
X209020D01*
Y161390D01*
X176980D01*
X172520Y156930D01*
X139680D01*
Y156540D01*
X134120D01*
Y160140D01*
X139680D01*
Y159750D01*
X171360D01*
X175820Y164210D01*
X205390D01*
Y171730D01*
X207850Y174190D01*
X209020D01*
Y174580D01*
X214580D01*
Y170980D01*
X209020D01*
Y171030D01*
X208780Y171130D01*
X208210Y170570D01*
Y165150D01*
X208780Y164590D01*
X209020Y164690D01*
Y164740D01*
X214580D01*
Y164350D01*
X215750D01*
X223210Y156890D01*
Y129020D01*
X217310Y123120D01*
G37*
G36*
G01X226910Y110720D02*
X205180Y88990D01*
X162110D01*
Y87090D01*
X155490D01*
Y93710D01*
X162110D01*
Y91810D01*
X204020D01*
X224090Y111880D01*
Y157320D01*
X214960Y166450D01*
X214580D01*
Y166060D01*
X209020D01*
Y169660D01*
X214580D01*
Y169270D01*
X216120D01*
X226910Y158480D01*
Y110720D01*
G37*
G36*
G01X45110Y194520D02*
Y187840D01*
G02X42290I-1410J-1840D01*
G01Y194520D01*
X41800D01*
Y200280D01*
X45600D01*
Y194520D01*
X45110D01*
G37*
G36*
G01X51000Y195990D02*
Y194520D01*
X47200D01*
Y200280D01*
X51000D01*
Y198810D01*
X56760D01*
G02Y195990I1840J-1410D01*
G01X51000D01*
G37*
G36*
G01X169710Y123010D02*
Y116390D01*
X163090D01*
Y118290D01*
X129620D01*
X128690Y119220D01*
Y122260D01*
G02X131510I1410J1840D01*
G01Y121110D01*
X163090D01*
Y123010D01*
X169710D01*
G37*
G36*
G01X148110Y212010D02*
Y205390D01*
X141490D01*
Y212010D01*
X143390D01*
Y220590D01*
X141490D01*
Y227210D01*
X148110D01*
Y220590D01*
X146210D01*
Y212010D01*
X148110D01*
G37*
G36*
G01X139680Y152010D02*
Y151620D01*
X134120D01*
Y155220D01*
X139680D01*
Y154830D01*
X173940D01*
X178530Y159420D01*
X209020D01*
Y159810D01*
X214580D01*
Y156210D01*
X209020D01*
Y156600D01*
X179690D01*
X175100Y152010D01*
X139680D01*
G37*
G36*
G01X179790Y150390D02*
X179690Y150400D01*
X176380Y147090D01*
X139680D01*
Y146700D01*
X134120D01*
Y150300D01*
X139680D01*
Y149910D01*
X175220D01*
X177700Y152390D01*
X177690Y152490D01*
G02X179790Y150390I2310J210D01*
G37*
G36*
G01X103490Y151810D02*
Y211160D01*
X126840Y234510D01*
X139840D01*
X139940Y234610D01*
X141490D01*
Y235610D01*
X148110D01*
Y234610D01*
X149660D01*
X149770Y234500D01*
X163760D01*
Y234870D01*
X173840D01*
Y229510D01*
X171110D01*
Y222590D01*
X172540D01*
X172640Y222490D01*
X188010D01*
Y224630D01*
X192390D01*
Y222490D01*
X208890D01*
Y223310D01*
X215510D01*
Y222310D01*
X217760D01*
X233800Y206270D01*
Y180010D01*
X241390D01*
Y181010D01*
X248010D01*
Y174390D01*
X241390D01*
Y175390D01*
X231490D01*
G02X230040Y175900I0J2316D01*
G01X228710D01*
Y179500D01*
X229180D01*
Y204350D01*
X215840Y217690D01*
X215510D01*
Y216690D01*
X208890D01*
Y217690D01*
X207340D01*
X207160Y217870D01*
X192390D01*
Y215730D01*
X188010D01*
Y217870D01*
X170990D01*
Y215830D01*
X166610D01*
Y219540D01*
X166600Y219570D01*
G02X166490Y220280I2201J704D01*
G01Y229510D01*
X163760D01*
Y229880D01*
X148110D01*
Y228990D01*
X141490D01*
Y229890D01*
X128760D01*
X108110Y209240D01*
Y151810D01*
X109110D01*
Y150810D01*
X117210D01*
G02X118660Y150300I0J-2316D01*
G01X119990D01*
Y146700D01*
X119520D01*
Y142550D01*
X129360Y132710D01*
X173660D01*
X177110Y129260D01*
Y123010D01*
X178110D01*
Y116390D01*
X177210D01*
Y109710D01*
X178210D01*
Y103090D01*
X171590D01*
Y109710D01*
X172590D01*
Y114740D01*
X172490Y114840D01*
Y116390D01*
X171490D01*
Y123010D01*
X172490D01*
Y127340D01*
X171740Y128090D01*
X127440D01*
X114900Y140630D01*
Y146190D01*
X109110D01*
Y145190D01*
X102490D01*
Y151810D01*
X103490D01*
G37*
G36*
G01X207210Y121420D02*
Y103640D01*
G02X204390I-1410J-1840D01*
G01Y122580D01*
X215990Y134180D01*
Y150720D01*
X215030Y151680D01*
X214580D01*
Y151290D01*
X209020D01*
Y154890D01*
X214580D01*
Y154500D01*
X216190D01*
X218810Y151880D01*
Y133020D01*
X207210Y121420D01*
G37*
G36*
G01X171590Y96490D02*
X156810D01*
G02Y99310I-3010J1410D01*
G01X170320D01*
X170420Y99410D01*
X171590D01*
Y101310D01*
X178210D01*
Y94690D01*
X171590D01*
Y96490D01*
G37*
G36*
G01X144320Y91810D02*
X145790D01*
G02X145850Y88880I3009J-1404D01*
G01X145790Y88990D01*
X145480D01*
X145080Y88590D01*
X119940D01*
G02Y91410I-1840J1410D01*
G01X143920D01*
X144320Y91810D01*
G37*
G36*
G01X140110Y37680D02*
Y37580D01*
X141890Y35800D01*
X141990Y35810D01*
G02X139890Y33710I210J-2310D01*
G01X139900Y33810D01*
X137290Y36420D01*
Y36520D01*
X132520Y41290D01*
X127090D01*
Y48710D01*
X134510D01*
Y43280D01*
X140110Y37680D01*
G37*
G36*
G01X134120Y163430D02*
G03X133440Y163710I-399J-2D01*
G01X132140Y162410D01*
G02X128820Y162780I-1838J-1412D01*
G01X128890Y162840D01*
Y163150D01*
X134120Y168380D01*
Y169990D01*
X139680D01*
Y166390D01*
X136120D01*
X135460Y165740D01*
G03X135750Y165060I284J-281D01*
G01X139680D01*
Y164670D01*
X154900D01*
G02Y161850I1840J-1410D01*
G01X139680D01*
Y161460D01*
X134120D01*
Y163430D01*
G37*
G36*
G01X125910Y163500D02*
Y154840D01*
G02X123090I-1410J-1840D01*
G01Y164660D01*
X132950Y174520D01*
X134120D01*
Y174910D01*
X139680D01*
Y171310D01*
X134120D01*
Y171360D01*
X133880Y171460D01*
X129690Y167280D01*
X125910Y163500D01*
G37*
G36*
G01X199010Y173810D02*
X199110Y173800D01*
X204420Y179110D01*
X209020D01*
Y179500D01*
X214580D01*
Y179110D01*
X215720D01*
X218500Y181890D01*
X218490Y181990D01*
G02X220590Y179890I2310J210D01*
G01X220490Y179900D01*
X216880Y176290D01*
X214580D01*
Y175900D01*
X209020D01*
Y176290D01*
X205580D01*
X201100Y171810D01*
X201110Y171710D01*
G02X199010Y173810I-2310J-210D01*
G37*
G54D49*
X209100Y393300D03*
G54D46*
X115400Y378900D03*
G54D42*
X11700Y386200D03*
X114400Y432500D03*
X188100Y287900D03*
X172300Y432400D03*
X306810Y284240D03*
X307110Y326540D03*
X308510Y369240D03*
Y407040D03*
X334370Y284240D03*
X334670Y326540D03*
X336070Y369240D03*
Y407040D03*
G54D57*
X168800Y241240D03*
G54D44*
X66900Y378900D03*
G54D56*
X191630Y241240D03*
G54D48*
X203700Y287900D03*
X230100Y436000D03*
X273100D03*
G54D47*
X115400Y354500D03*
G54D52*
X338700Y298800D03*
X339000Y341100D03*
X340400Y383800D03*
Y421600D03*
G54D50*
X242300Y291300D03*
X241800Y333700D03*
G54D54*
X80800Y45000D03*
X90800D03*
X100800D03*
X80800Y55000D03*
X90800D03*
X100800D03*
X110800Y45000D03*
X120800D03*
X110800Y55000D03*
X120800D03*
X130800D03*
X140800Y45000D03*
X150800D03*
X160800D03*
X140800Y55000D03*
X150800D03*
X160800D03*
X170800Y45000D03*
X190800D03*
X170800Y55000D03*
X180800D03*
X190800D03*
X200800Y45000D03*
X210800D03*
X220800D03*
X200800Y55000D03*
X210800D03*
X220800D03*
X240800Y45000D03*
X250800D03*
X230800Y55000D03*
X240800D03*
X250800D03*
X260800Y45000D03*
X270800D03*
X260800Y55000D03*
G54D53*
X231490Y162940D03*
X117210Y153420D03*
Y158340D03*
Y163260D03*
Y168190D03*
Y173110D03*
Y178030D03*
X136900D03*
X211800Y148170D03*
X231490Y172780D03*
Y167860D03*
Y158010D03*
Y153090D03*
Y148170D03*
G54D55*
X180800Y45000D03*
X230800D03*
X270800Y55000D03*
G54D41*
X10400Y312700D03*
Y302700D03*
Y292700D03*
Y322700D03*
Y332700D03*
X20400D03*
Y322700D03*
X109000Y277100D03*
X129000D03*
X149000D03*
X312400Y77200D03*
Y67200D03*
Y57200D03*
Y107200D03*
Y97200D03*
Y87200D03*
Y137200D03*
Y127200D03*
Y167200D03*
Y157200D03*
Y147200D03*
Y197200D03*
Y187200D03*
Y177200D03*
G54D45*
X61400Y357600D03*
X73300Y277000D03*
X132700Y401800D03*
X170700Y349600D03*
X105800Y140100D03*
X136400Y208700D03*
X156900Y241800D03*
X212200Y211600D03*
X244700Y186100D03*
G54D51*
X229100Y396310D03*
X168800Y207290D03*
X190200Y207190D03*
G54D43*
X20400Y292700D03*
X312400Y117200D03*
%LPD*%
G75*
G54D10*
X10000Y10000D03*
Y250000D03*
Y440000D03*
X340000Y10000D03*
Y250000D03*
Y440000D03*
G54D20*
X61400Y357600D03*
X69800D03*
X73300Y277000D03*
X81700D03*
X90700Y287700D03*
X99100D03*
X80100Y357700D03*
Y366100D03*
X105800Y148500D03*
Y140100D03*
X127200Y288300D03*
X118800D03*
X124300Y401800D03*
X158800Y90400D03*
X144800Y208700D03*
X136400D03*
X144800Y223900D03*
X156900Y241800D03*
Y250200D03*
X144800Y232300D03*
X132700Y401800D03*
X142600Y383400D03*
X151000D03*
X174900Y106400D03*
Y98000D03*
X166400Y119700D03*
X174800D03*
X163600Y279800D03*
Y271400D03*
X170700Y349600D03*
X179100D03*
X166000Y375000D03*
Y383400D03*
X212200Y211600D03*
Y220000D03*
X211200Y313600D03*
X219600D03*
X221800Y363200D03*
Y371600D03*
X244700Y186100D03*
Y177700D03*
X265600Y366200D03*
X274000D03*
X266100Y404000D03*
X274500D03*
G54D11*
X10400Y292700D03*
Y302700D03*
Y312700D03*
Y332700D03*
Y322700D03*
X20400Y302700D03*
Y312700D03*
Y322700D03*
Y332700D03*
X109000Y277100D03*
X119000D03*
X129000D03*
X139000D03*
X149000D03*
X312400Y77200D03*
Y67200D03*
Y57200D03*
Y107200D03*
Y97200D03*
Y87200D03*
Y137200D03*
Y127200D03*
Y167200D03*
Y157200D03*
Y147200D03*
Y197200D03*
Y187200D03*
Y177200D03*
G54D21*
X100800Y45000D03*
X90800D03*
X80800D03*
X100800Y55000D03*
X90800D03*
X80800D03*
X120800Y45000D03*
X110800D03*
X130800Y55000D03*
X120800D03*
X110800D03*
X160800Y45000D03*
X150800D03*
X140800D03*
X160800Y55000D03*
X150800D03*
X140800D03*
X190800Y45000D03*
X170800D03*
X190800Y55000D03*
X180800D03*
X170800D03*
X220800Y45000D03*
X210800D03*
X200800D03*
X220800Y55000D03*
X210800D03*
X200800D03*
X250800Y45000D03*
X240800D03*
X250800Y55000D03*
X240800D03*
X230800D03*
X270800Y45000D03*
X260800D03*
Y55000D03*
G54D30*
X191630Y241240D03*
G54D12*
X11700Y401800D03*
X98800Y432500D03*
X156700Y432400D03*
X203700Y287900D03*
X230100Y436000D03*
X273100D03*
G54D40*
G01X11700Y401800D02*
X42600D01*
G01X42640Y432190D02*
Y407300D01*
X42600Y407260D01*
Y401800D01*
G01X98800Y432500D02*
X69570D01*
G01X156700Y432400D02*
X146500Y442600D01*
X108900D01*
X98800Y432500D01*
G01X106400Y378900D02*
Y370500D01*
G01X124300Y401800D02*
Y384800D01*
X124400Y384700D01*
Y378900D01*
G01X102600Y401800D02*
X124300D01*
G01X130000Y432500D02*
X142400Y420100D01*
X241600D01*
X257500Y436000D01*
G01X156810Y265860D02*
Y254210D01*
X156900Y254120D01*
Y250200D01*
G01D02*
X163070D01*
X163170Y250300D01*
X168800D01*
G01X179100Y363300D02*
Y349600D01*
G01X167100Y363500D02*
X171160D01*
X171360Y363300D01*
X179100D01*
G01X214500Y436000D02*
X202200D01*
X198600Y432400D01*
X187900D01*
G54D22*
X90790Y302100D03*
X103780D03*
X127210D03*
X114220D03*
X163590Y313600D03*
X187520Y313700D03*
X176580Y313600D03*
X200510Y313700D03*
X195990Y338000D03*
X208980D03*
X242820Y366300D03*
X242920Y404000D03*
X255810Y366300D03*
X255910Y404000D03*
G54D31*
X168800Y232190D03*
Y241240D03*
Y250300D03*
G54D13*
X11700Y386200D03*
X114400Y432500D03*
X130000D03*
X188100Y287900D03*
X172300Y432400D03*
X187900D03*
X214500Y436000D03*
X257500D03*
X306810Y284240D03*
X307110Y326540D03*
X308510Y369240D03*
Y407040D03*
X334370Y284240D03*
X334670Y326540D03*
X336070Y369240D03*
Y407040D03*
G54D23*
X102600Y401800D03*
G54D32*
X179100Y373300D03*
Y363300D03*
Y393300D03*
Y383300D03*
X209100Y363300D03*
Y373300D03*
Y383300D03*
Y393300D03*
G54D14*
G01X69800Y357600D02*
X76100D01*
X76200Y357700D01*
X80100D01*
G01D02*
X89800D01*
X95600Y363500D01*
G01X117210Y148500D02*
Y141590D01*
X128400Y130400D01*
X172700D01*
X174800Y128300D01*
Y119700D01*
G01X144800Y232300D02*
X140900D01*
X140800Y232200D01*
X127800D01*
X105800Y210200D01*
Y148500D01*
G01D02*
X117210D01*
G01X168800Y232190D02*
X148810D01*
X148700Y232300D01*
X144800D01*
G01X174900Y106400D02*
Y115700D01*
X174800Y115800D01*
Y119700D01*
G01X190200Y220180D02*
X208120D01*
X208300Y220000D01*
X212200D01*
G01X168800Y232190D02*
Y220280D01*
G01X190200Y220180D02*
X171680D01*
X171580Y220280D01*
X168800D01*
G01X209100Y383300D02*
X194800D01*
X184800Y393300D01*
X179100D01*
G01X164500Y393200D02*
X173300D01*
X173400Y393300D01*
X179100D01*
G01X231490Y177700D02*
Y205310D01*
X216800Y220000D01*
X212200D01*
G01X209100Y383300D02*
X226300D01*
X226320Y383320D01*
X229100D01*
G01X231490Y177700D02*
X244700D01*
X30400Y266100D03*
X58600Y197400D03*
X43700Y186000D03*
X43600Y253600D03*
X49000Y266100D03*
X46700Y312700D03*
X48900Y302700D03*
X95600Y363500D03*
X118100Y90000D03*
X130100Y124100D03*
X124500Y153000D03*
X130300Y161000D03*
X120400Y324700D03*
X106400Y370500D03*
X142200Y33500D03*
X156740Y163260D03*
X156810Y265860D03*
X148200Y338000D03*
X133500Y350000D03*
X147500Y352100D03*
X180000Y152700D03*
X187500Y331800D03*
X167100Y363500D03*
X187600Y373700D03*
X164500Y393200D03*
X205800Y101800D03*
X215900Y110300D03*
X220800Y182200D03*
X198800Y171500D03*
X287400Y182200D03*
G54D24*
X130800Y45000D03*
X180800D03*
X230800D03*
X270800Y55000D03*
G54D33*
X242300Y271300D03*
X241800Y313700D03*
G54D15*
X20400Y292700D03*
X99000Y277100D03*
X312400Y117200D03*
Y207200D03*
G54D25*
X117210Y148500D03*
Y153420D03*
Y158340D03*
Y163260D03*
Y168190D03*
Y173110D03*
Y178030D03*
X136900Y163260D03*
Y158340D03*
Y153420D03*
Y148500D03*
Y178030D03*
Y173110D03*
Y168190D03*
X211800Y148170D03*
Y153090D03*
Y158010D03*
Y162940D03*
Y167860D03*
Y172780D03*
Y177700D03*
X231490Y162940D03*
Y158010D03*
Y153090D03*
Y148170D03*
Y177700D03*
Y172780D03*
Y167860D03*
G54D34*
X242300Y291300D03*
X241800Y333700D03*
X262300Y281300D03*
X261800Y323700D03*
G54D16*
X42600Y401800D03*
G54D26*
X124400Y378900D03*
X115400D03*
X106400D03*
G54D35*
X232100Y363100D03*
Y368700D03*
G54D17*
X42640Y432190D03*
X69570Y432500D03*
G54D18*
X49100Y208420D03*
Y197400D03*
X43700Y208420D03*
Y197400D03*
G54D36*
X285550Y281280D03*
X301300Y298800D03*
X285850Y323580D03*
X301600Y341100D03*
X287250Y366280D03*
X303000Y383800D03*
X287250Y404080D03*
X303000Y421600D03*
G54D27*
X115400Y354500D03*
G54D19*
X66900Y378900D03*
X80100D03*
G54D28*
X153800Y97900D03*
X148800Y90400D03*
G54D37*
X338700Y298800D03*
X339000Y341100D03*
X340400Y383800D03*
Y421600D03*
G54D38*
G01X-56200Y86200D02*
Y78700D01*
G01X-58350Y86200D02*
X-54050D01*
G01X-48700Y78700D02*
X-49450Y78820D01*
X-50100Y79320D01*
X-50660Y80070D01*
X-51030Y80950D01*
X-51220Y81950D01*
Y82950D01*
X-51030Y83950D01*
X-50660Y84830D01*
X-50100Y85570D01*
X-49450Y86080D01*
X-48700Y86200D01*
X-47950Y86080D01*
X-47300Y85570D01*
X-46740Y84830D01*
X-46370Y83950D01*
X-46180Y82950D01*
Y81950D01*
X-46370Y80950D01*
X-46740Y80070D01*
X-47300Y79320D01*
X-47950Y78820D01*
X-48700Y78700D01*
G01X-43070D02*
Y86200D01*
X-40830D01*
X-40080Y85820D01*
X-39520Y84950D01*
X-39330Y83950D01*
X-39520Y82950D01*
X-39990Y82200D01*
X-40830Y81820D01*
X-43070D01*
G54D29*
X142600Y361390D03*
Y374380D03*
X168800Y207290D03*
Y220280D03*
X190200Y207190D03*
Y220180D03*
X229100Y396310D03*
Y383320D03*
G54D39*
G01X10400Y288590D02*
Y292700D01*
G01D02*
Y296810D01*
G01X6290Y292700D02*
X10400D01*
G01D02*
X14510D01*
G01X10400Y298590D02*
Y302700D01*
G01D02*
Y306810D01*
G01X6290Y302700D02*
X10400D01*
G01D02*
X14510D01*
G01X5690Y386200D02*
X11700D01*
G01X30400Y266100D02*
X49000D01*
G01X20400Y312700D02*
X46700D01*
G01X20400Y302700D02*
X48900D01*
G01X20400Y288590D02*
Y292700D01*
G01D02*
Y296810D01*
G01X16290Y292700D02*
X20400D01*
G01D02*
X24510D01*
G01X20400Y318590D02*
Y322700D01*
G01D02*
Y326810D01*
G01X16290Y322700D02*
X20400D01*
G01D02*
X24510D01*
G01X11700Y380190D02*
Y386200D01*
G01D02*
Y392210D01*
G01Y386200D02*
X17710D01*
G01X43600Y119700D02*
Y83020D01*
X64020Y62600D01*
X302200D01*
G01X43700Y197400D02*
Y186000D01*
G01Y208420D02*
Y253500D01*
X43600Y253600D01*
G01X49100Y208420D02*
X43700D01*
G01X49100Y197400D02*
X58600D01*
G01X69790Y277000D02*
X73300D01*
G01X61400Y354090D02*
Y357600D01*
G01D02*
Y361110D01*
G01X57890Y357600D02*
X61400D01*
G01D02*
X64910D01*
G01X66900Y373590D02*
Y378900D01*
G01D02*
Y384210D01*
G01X61590Y378900D02*
X66900D01*
G01D02*
X72210D01*
G01X99100Y287700D02*
Y281700D01*
X99000Y281600D01*
Y277100D01*
G01X81700Y277000D02*
X94400D01*
X94500Y277100D01*
X99000D01*
G01X73300Y273490D02*
Y277000D01*
G01D02*
Y280510D01*
G01Y277000D02*
X76810D01*
G01X90700Y287700D02*
Y299230D01*
X90790Y299320D01*
Y302100D01*
G01X80100Y366100D02*
Y378900D01*
G01X106400D02*
X80100D01*
G01X142200Y33500D02*
X138700Y37000D01*
Y37100D01*
X130800Y45000D01*
G01X118100Y90000D02*
X144500D01*
X144900Y90400D01*
X148800D01*
G01X130100Y124100D02*
Y119800D01*
X130200Y119700D01*
X166400D01*
G01X124500Y153000D02*
Y164080D01*
X133530Y173110D01*
X136900D01*
G01X130300Y161000D02*
Y162570D01*
X135920Y168190D01*
X136900D01*
G01X105800Y136590D02*
Y140100D01*
G01D02*
Y143610D01*
G01X102290Y140100D02*
X105800D01*
G01D02*
X109310D01*
G01X118800Y288300D02*
Y281800D01*
X119000Y281600D01*
Y277100D01*
G01X129000Y272990D02*
Y277100D01*
G01D02*
Y281210D01*
G01X124890Y277100D02*
X129000D01*
G01D02*
X133110D01*
G01X109000Y272990D02*
Y277100D01*
G01D02*
Y281210D01*
G01X104890Y277100D02*
X109000D01*
G01D02*
X113110D01*
G01X103780Y302100D02*
Y314580D01*
X120960Y331760D01*
X184460D01*
X184500Y331800D01*
X187500D01*
G01X127210Y302100D02*
Y292210D01*
X127200Y292200D01*
Y288300D01*
G01X114220Y302100D02*
Y318520D01*
X120400Y324700D01*
G01X115400Y349090D02*
Y354500D01*
G01D02*
Y359910D01*
G01X107290Y354500D02*
X115400D01*
G01D02*
X123510D01*
G01X115400Y373490D02*
Y378900D01*
G01X129190Y401800D02*
X132700D01*
G01X115400Y378900D02*
Y384310D01*
G01X111990Y378900D02*
X115400D01*
G01D02*
X118810D01*
G01X114400Y426490D02*
Y432500D01*
G01D02*
Y438510D01*
G01X108390Y432500D02*
X114400D01*
G01D02*
X120410D01*
G01X211800Y167860D02*
X215540D01*
X225500Y157900D01*
Y111300D01*
X204600Y90400D01*
X158800D01*
G01X153800Y97900D02*
X170900D01*
X171000Y98000D01*
X174900D01*
G01X208430Y162940D02*
X208290Y162800D01*
X176400D01*
X171940Y158340D01*
X136900D01*
G01Y148500D02*
X175800D01*
X180000Y152700D01*
G01X211800Y158010D02*
X179110D01*
X174520Y153420D01*
X136900D01*
G01Y163260D02*
X156740D01*
G01X136900Y176030D02*
Y178030D01*
G01D02*
Y180030D01*
G01X133920Y178030D02*
X136900D01*
G01D02*
X139880D01*
G01X144800Y223900D02*
Y208700D01*
G01X136400Y205190D02*
Y208700D01*
G01D02*
Y212210D01*
G01X132890Y208700D02*
X136400D01*
G01D02*
X139910D01*
G01X156900Y238290D02*
Y241800D01*
G01D02*
Y245310D01*
G01X153390Y241800D02*
X156900D01*
G01D02*
X160410D01*
G01X139000Y272600D02*
Y277100D01*
G01X149000Y272990D02*
Y277100D01*
G01D02*
Y281210D01*
G01X144890Y277100D02*
X149000D01*
G01D02*
X153110D01*
G01X148200Y338000D02*
X195990D01*
G01X133500Y350000D02*
X135560Y352060D01*
Y352090D01*
X142600Y359130D01*
Y361390D01*
G01X147500Y352100D02*
X163700Y368300D01*
X202100D01*
X207100Y373300D01*
X209100D01*
G01X142600Y383400D02*
Y374380D01*
G01X151000Y383400D02*
X166000D01*
G01X132700Y398290D02*
Y401800D01*
G01D02*
Y405310D01*
G01Y401800D02*
X136210D01*
G01X190200Y202540D02*
Y207190D01*
G01D02*
Y211840D01*
G01X187810Y207190D02*
X190200D01*
G01D02*
X192590D01*
G01X168800Y202640D02*
Y207290D01*
G01D02*
Y211940D01*
G01X166410Y207290D02*
X168800D01*
G01D02*
X171190D01*
G01X168800Y238360D02*
Y241240D01*
G01D02*
Y244120D01*
G01X163560Y241240D02*
X168800D01*
G01D02*
X174040D01*
G01X186390D02*
X191630D01*
G01X163600Y279800D02*
Y310810D01*
X163590Y310820D01*
Y313600D01*
G01X242300Y271300D02*
X189400D01*
X189300Y271400D01*
X163600D01*
G01X187520Y313700D02*
Y328520D01*
X187500Y328540D01*
Y331800D01*
G01X187520Y313700D02*
X181720D01*
X181620Y313600D01*
X176580D01*
G01X179100Y373300D02*
X173200D01*
X171500Y375000D01*
X166000D01*
G01X187600Y373700D02*
X187200Y373300D01*
X179100D01*
G01X170700Y346090D02*
Y349600D01*
G01D02*
Y353110D01*
G01X167190Y349600D02*
X170700D01*
G01D02*
X174210D01*
G01X179100Y383300D02*
X170000D01*
X169900Y383400D01*
X166000D01*
G01X172300Y426390D02*
Y432400D01*
G01D02*
Y438410D01*
G01X166290Y432400D02*
X172300D01*
G01D02*
X178310D01*
G01X205800Y101800D02*
Y122000D01*
X217400Y133600D01*
Y151300D01*
X215610Y153090D01*
X211800D01*
G01Y162940D02*
X215170D01*
X221800Y156310D01*
Y129600D01*
X215900Y123700D01*
Y110300D01*
G01X211800Y172780D02*
X208430D01*
X206800Y171150D01*
Y164570D01*
X208430Y162940D01*
G01D02*
X211800D01*
G01Y146170D02*
Y148170D01*
G01D02*
Y150170D01*
G01X208820Y148170D02*
X211800D01*
G01D02*
X214780D01*
G01X211800Y177700D02*
X216300D01*
X220800Y182200D01*
G01X198800Y171500D02*
X205000Y177700D01*
X211800D01*
G01X212200Y208090D02*
Y211600D01*
G01D02*
Y215110D01*
G01X208690Y211600D02*
X212200D01*
G01D02*
X215710D01*
G01X191630Y233830D02*
Y241240D01*
G01D02*
Y248650D01*
G01Y241240D02*
X196870D01*
G01X203700Y281890D02*
Y287900D01*
G01X241800Y313700D02*
X223600D01*
X223500Y313600D01*
X219600D01*
G01X211200D02*
X205650D01*
X205550Y313700D01*
X200510D01*
G01X203700Y287900D02*
Y293910D01*
G01X197690Y287900D02*
X203700D01*
G01D02*
X209710D01*
G01X209100Y363300D02*
Y340900D01*
X208980Y340780D01*
Y338000D01*
G01X209100Y363300D02*
X217800D01*
X217900Y363200D01*
X221800D01*
G01X209100Y373300D02*
X216200D01*
X217900Y371600D01*
X221800D01*
G01X209100Y389990D02*
Y393300D01*
G01D02*
Y396610D01*
G01X203790Y393300D02*
X209100D01*
G01D02*
X214410D01*
G01X244700Y182590D02*
Y186100D01*
G01D02*
Y189610D01*
G01X241190Y186100D02*
X244700D01*
G01D02*
X248210D01*
G01X242300Y287490D02*
Y291300D01*
G01D02*
Y295110D01*
G01X238490Y291300D02*
X242300D01*
G01D02*
X246110D01*
G01X241800Y329890D02*
Y333700D01*
G01D02*
Y337510D01*
G01X237990Y333700D02*
X241800D01*
G01D02*
X245610D01*
G01X221800Y363200D02*
X228700D01*
X228800Y363100D01*
X232100D01*
G01X221800Y371600D02*
X225900D01*
X228800Y368700D01*
X232100D01*
G01D02*
X237800D01*
X240200Y366300D01*
X242820D01*
G01D02*
Y401120D01*
X242920Y401220D01*
Y404000D01*
G01X229100Y391660D02*
Y396310D01*
G01D02*
Y400960D01*
G01X226710Y396310D02*
X229100D01*
G01D02*
X231490D01*
G01X230100Y429990D02*
Y436000D01*
G01D02*
Y442010D01*
G01X224090Y436000D02*
X230100D01*
G01D02*
X236110D01*
G01X270800Y41090D02*
Y45000D01*
G01D02*
Y48910D01*
G01X266890Y45000D02*
X270800D01*
G01D02*
X274710D01*
G01X262300Y281300D02*
X278620D01*
X278640Y281280D01*
X285550D01*
G01X285850Y323580D02*
X266120D01*
X266000Y323700D01*
X261800D01*
G01X255810Y366300D02*
X261600D01*
X261700Y366200D01*
X265600D01*
G01X287250Y366280D02*
X277980D01*
X277900Y366200D01*
X274000D01*
G01X274500Y404000D02*
X280260D01*
X280340Y404080D01*
X287250D01*
G01X266100Y404000D02*
X255910D01*
G01X273100Y429990D02*
Y436000D01*
G01D02*
Y442010D01*
G01X267090Y436000D02*
X273100D01*
G01D02*
X279110D01*
G01X308290Y57200D02*
X312400D01*
G01X287400Y182200D02*
X312400Y207200D01*
G01X285550Y281280D02*
Y293850D01*
X290500Y298800D01*
X301300D01*
G01X301600Y341100D02*
X292500D01*
X285900Y334500D01*
Y330540D01*
X285850Y330490D01*
Y323580D01*
G01X287250Y366280D02*
Y378050D01*
X293100Y383900D01*
X295990D01*
X296090Y383800D01*
X303000D01*
G01X287250Y404080D02*
Y415250D01*
X293600Y421600D01*
X303000D01*
G01X312400Y53090D02*
Y57200D01*
G01D02*
Y61310D01*
G01Y57200D02*
X316510D01*
G01X338700Y292280D02*
Y298800D01*
G01D02*
Y305320D01*
G01X333360Y298800D02*
X338700D01*
G01D02*
X344040D01*
G01X339000Y334580D02*
Y341100D01*
G01D02*
Y347620D01*
G01X333660Y341100D02*
X339000D01*
G01D02*
X344340D01*
G01X340400Y377280D02*
Y383800D01*
G01D02*
Y390320D01*
G01X335060Y383800D02*
X340400D01*
G01D02*
X345740D01*
G01X340400Y415080D02*
Y421600D01*
G01D02*
Y428120D01*
G01X335060Y421600D02*
X340400D01*
G01D02*
X345740D01*
M02*
