M48
INCH,LZ
T01C.07
T02C.065
T03C.06
T04C.047
T05C.042
T06C.037
T07C.035
T08C.02
T09C.125
;LEADER: 12 
;HEADER: 
;CODE  : ASCII 
;FILE  : NCdrill-1-2.drl for board LinkingInterfaceV2_1.brd ... layers TOP and BOTTOM
;T01 Holesize 1. = 70.000000 Tolerance = +0.000000/-0.000000 PLATED MILS Quantity = 8
;T02 Holesize 2. = 65.000000 Tolerance = +0.000000/-0.000000 PLATED MILS Quantity = 14
;T03 Holesize 3. = 60.000000 Tolerance = +0.000000/-0.000000 PLATED MILS Quantity = 2
;T04 Holesize 4. = 47.000000 Tolerance = +0.000000/-0.000000 PLATED MILS Quantity = 9
;T05 Holesize 5. = 42.000000 Tolerance = +0.000000/-0.000000 PLATED MILS Quantity = 23
;T06 Holesize 6. = 37.000000 Tolerance = +0.000000/-0.000000 PLATED MILS Quantity = 40
;T07 Holesize 7. = 35.000000 Tolerance = +0.000000/-0.000000 PLATED MILS Quantity = 6
;T08 Holesize 8. = 20.000000 Tolerance = +0.000000/-0.000000 PLATED MILS Quantity = 21
;T09 Holesize 9. = 125.000000 Tolerance = +0.000000/-0.000000 NON_PLATED MILS Quantity = 6
%
G90
T01
X030681Y028424
X033437Y028424
X030851Y036924
X033607Y036924
X030711Y032654
X033467Y032654
X030851Y040704
X033607Y040704
T02
X00117Y04018
X00117Y03862
X01567Y04324
R02X00156
X02301Y0436
X02145Y0436
X02037Y02879
X01881Y02879
X00988Y04325
R02X00156
X02731Y0436
X02575Y0436
T03
X00426Y04018
X01026Y04018
T04
X00104Y03327
X00204Y03027
R03Y001
X00104Y02927
R03Y001
T05
X00204Y02927
X0099Y02771
R05X001
X0341Y0055
R15Y001
T06
X00756Y00083
X00756Y00183
X00856Y00083
X00856Y00183
X00956Y00083
X00956Y00183
X01056Y00083
X01056Y00183
X01156Y00083
X01156Y00183
X01256Y00083
X01256Y00183
X01356Y00083
X01356Y00183
X01456Y00083
X01456Y00183
X01556Y00083
X01556Y00183
X01656Y00083
X01656Y00183
X01756Y00083
X01756Y00183
X01856Y00083
X01856Y00183
X01956Y00083
X01956Y00183
X02056Y00083
X02056Y00183
X02156Y00083
X02156Y00183
X02256Y00083
X02256Y00183
X02356Y00083
X02356Y00183
X02456Y00083
X02456Y00183
X02556Y00083
X02556Y00183
X02656Y00083
X02656Y00183
T07
X02423Y02713
X02623Y02813
X02423Y02913
X02418Y03137
X02618Y03237
X02418Y03337
T08
X010851Y00885
X010851Y007451
X01038Y00479
X01038Y00936
X02978Y0075
X022021Y008031
X02073Y03835
X01905Y00939
X017658Y028218
X01629Y01625
X0099Y01781
X0099Y01643
X014414Y03643
X01569Y01528
X03022Y00626
X02102Y00477
X02102Y00948
X02027Y01072
X00392Y02843
X01421Y01903
X00882Y03381
T09
X001Y044
X001Y025
X001Y001
X034Y001
X034Y025
X034Y044
M30
