M48
INCH,LZ
T01C.086
T02C.06
T03C.042
T04C.037
T05C.035
T06C.02
T07C.125
;LEADER: 12 
;HEADER: 
;CODE  : ASCII 
;FILE  : NCdrill-1-2.drl for board LinkingInterfaceV2_0.brd ... layers TOP and BOTTOM
;T01 Holesize 1. = 86.000000 Tolerance = +0.000000/-0.000000 PLATED MILS Quantity = 20
;T02 Holesize 2. = 60.000000 Tolerance = +0.000000/-0.000000 PLATED MILS Quantity = 2
;T03 Holesize 3. = 42.000000 Tolerance = +0.000000/-0.000000 PLATED MILS Quantity = 16
;T04 Holesize 4. = 37.000000 Tolerance = +0.000000/-0.000000 PLATED MILS Quantity = 56
;T05 Holesize 5. = 35.000000 Tolerance = +0.000000/-0.000000 PLATED MILS Quantity = 6
;T06 Holesize 6. = 20.000000 Tolerance = +0.000000/-0.000000 PLATED MILS Quantity = 19
;T07 Holesize 7. = 125.000000 Tolerance = +0.000000/-0.000000 NON_PLATED MILS Quantity = 6
%
G90
T01
X11167Y0886
X11167Y08704
X12325Y09125
R02X00156
X12825Y09125
R02X00156
X13763Y09169
X13607Y09169
X14146Y09169
X1399Y09169
X140731Y086854
X143487Y086854
X140751Y082814
X143507Y082814
X140781Y074734
X143537Y074734
X140781Y078624
X143537Y078624
T02
X1148Y0886
X1208Y0886
T03
X11115Y0822
X11215Y0782
R04Y001
X11115Y0782
R03Y001
X1281Y07384
R05X001
T04
X1444Y0509
X1434Y0509
X1444Y0519
X1434Y0519
X1444Y0529
X1434Y0529
X1444Y0539
X1434Y0539
X1444Y0549
X1434Y0549
X1444Y0559
X1434Y0559
X1444Y0569
X1434Y0569
X1444Y0579
X1434Y0579
X1444Y0589
X1434Y0589
X1444Y0599
X1434Y0599
X1444Y0609
X1434Y0609
X1444Y0619
X1434Y0619
X1444Y0629
X1434Y0629
X1444Y0639
X1434Y0639
X1444Y0649
X1434Y0649
X1444Y0659
X1434Y0659
X1444Y0669
X1434Y0669
X1444Y0679
X1434Y0679
X1444Y0689
X1434Y0689
X1444Y0699
X1434Y0699
X137Y0742
R15Y001
T05
X12052Y07427
X11952Y07627
X11852Y07427
X12501Y07429
X12401Y07629
X12301Y07429
T06
X13325Y07489
X1402Y0669
X130615Y078045
X13307Y07915
X11969Y06792
X11968Y06038
X12057Y08441
X1202Y05996
X1144Y07607
X1144Y0785
X13208Y078024
X12235Y07853
X131596Y078526
X1386Y08441
X12334Y07973
X13862Y08147
X12401Y0789
X11871Y06464
X118678Y082759
T07
X111Y049
X111Y072
X111Y092
X144Y049
X144Y072
X144Y092
M30
