G04 ================== begin FILE IDENTIFICATION RECORD ==================*
G04 Layout Name:  groundBounce_v1.brd*
G04 Film Name:    GroundBounce_v1_2_MECH*
G04 File Format:  Gerber RS274X*
G04 File Origin:  Cadence Allegro 16.5-P002*
G04 Origin Date:  Wed Jun 10 14:29:42 2015*
G04 *
G04 Layer:  MANUFACTURING/NCLEGEND-1-2*
G04 Layer:  BOARD GEOMETRY/OUTLINE*
G04 Layer:  BOARD GEOMETRY/CUT_MARKS*
G04 *
G04 Offset:    (0.0 0.0)*
G04 Mirror:    No*
G04 Mode:      Positive*
G04 Rotation:  0*
G04 FullContactRelief:  No*
G04 UndefLineWidth:     0.0*
G04 ================== end FILE IDENTIFICATION RECORD ====================*
%FSLAX25Y25*MOIN*%
%IR0*IPPOS*OFA0.00000B0.00000*MIA0B0*SFA1.00000B1.00000*%
%ADD10C,.005*%
%ADD11C,.05*%
%ADD12C,.025*%
G75*
%LPD*%
G75*
G54D10*
G01X1073070Y681000D02*
Y688500D01*
X1075500Y682250D01*
X1077930Y688500D01*
Y681000D01*
G01X1084870D02*
X1081130D01*
Y688500D01*
X1084870D01*
G01X1083370Y684880D02*
X1081130D01*
G01X1092550Y687870D02*
X1091990Y688250D01*
X1091340Y688500D01*
X1090590D01*
X1089750Y688120D01*
X1089100Y687500D01*
X1088630Y686750D01*
X1088260Y685500D01*
X1088170Y684370D01*
X1088350Y683250D01*
X1088630Y682500D01*
X1089190Y681750D01*
X1089850Y681250D01*
X1090500Y681000D01*
X1091150D01*
X1091810Y681250D01*
X1092370Y681620D01*
X1092830Y682120D01*
G01X1096040Y681000D02*
Y688500D01*
G01X1099960D02*
Y681000D01*
G01Y684750D02*
X1096040D01*
G54D11*
G01X1120500Y697500D02*
Y677500D01*
G01D02*
X1140500D01*
G01X1120500Y882500D02*
Y862500D01*
G01X1140500Y882500D02*
X1120500D01*
G01X1355500Y677500D02*
X1375500D01*
G01D02*
Y697500D01*
G01Y862500D02*
Y882500D01*
G01D02*
X1355500D01*
G54D12*
G01X1123000Y680000D02*
Y880000D01*
X1373000D01*
Y680000D01*
X1123000D01*
M02*
