G04 ================== begin FILE IDENTIFICATION RECORD ==================*
G04 Layout Name:  groundBounce_v1.brd*
G04 Film Name:    GroundBounce_v1_2_TOP*
G04 File Format:  Gerber RS274X*
G04 File Origin:  Cadence Allegro 16.5-P002*
G04 Origin Date:  Wed Jun 10 14:29:41 2015*
G04 *
G04 Layer:  ETCH/TOP*
G04 Layer:  PIN/TOP*
G04 Layer:  VIA CLASS/TOP*
G04 *
G04 Offset:    (0.0 0.0)*
G04 Mirror:    No*
G04 Mode:      Positive*
G04 Rotation:  0*
G04 FullContactRelief:  No*
G04 UndefLineWidth:     0.0*
G04 ================== end FILE IDENTIFICATION RECORD ====================*
%FSLAX25Y25*MOIN*%
%IR0*IPPOS*OFA0.00000B0.00000*MIA0B0*SFA1.00000B1.00000*%
%ADD14C,.03*%
%ADD10C,.025*%
%ADD16C,.062*%
%ADD13R,.05X.05*%
%ADD12C,.058*%
%ADD15R,.062X.062*%
%ADD11R,.058X.058*%
%ADD17C,.005*%
%ADD18C,.012*%
%ADD19C,.0744*%
%ADD21R,.0742X.0742*%
%ADD22C,.0784*%
%ADD20R,.0662X.0662*%
G75*
%LPD*%
G75*
G36*
G01X1210000Y684000D02*
X1124000Y770000D01*
Y858000D01*
X1125000Y859000D01*
X1236190D01*
Y855690D01*
X1242810D01*
Y859000D01*
X1246190D01*
Y855790D01*
X1252810D01*
Y859000D01*
X1256190D01*
Y855690D01*
X1262810D01*
Y859000D01*
X1340000D01*
X1372000Y827000D01*
Y737000D01*
X1319000Y684000D01*
X1210000D01*
G37*
%LPC*%
G75*
G36*
G01X1339210Y786490D02*
Y781440D01*
G02X1336390I-1410J-3440D01*
G01Y786490D01*
X1334490D01*
Y793110D01*
X1341110D01*
Y786490D01*
X1339210D01*
G37*
G36*
G01X1341110Y801510D02*
Y794890D01*
X1334490D01*
Y801510D01*
X1336390D01*
Y805860D01*
G02X1339210I1410J3440D01*
G01Y801510D01*
X1341110D01*
G37*
G36*
G01X1279480Y819610D02*
X1286360Y812730D01*
X1286480Y812780D01*
G02X1284370Y810740I1322J-3478D01*
G01X1278320Y816790D01*
X1248920D01*
X1239420Y826290D01*
X1233590D01*
Y834110D01*
X1241410D01*
Y828280D01*
X1250080Y819610D01*
X1279480D01*
G37*
G36*
G01X1355390Y806990D02*
X1350720D01*
G02Y811610I-2920J2310D01*
G01X1355390D01*
Y812610D01*
X1362010D01*
Y805990D01*
X1355390D01*
Y806990D01*
G37*
G36*
G01X1254470Y740910D02*
X1266460Y728930D01*
X1266580Y728980D01*
G02X1264420Y726820I1320J-3480D01*
G01X1264470Y726940D01*
X1253310Y738090D01*
X1222720D01*
X1210540Y750270D01*
G02X1212530Y752260I-1440J3430D01*
G01X1223880Y740910D01*
X1254470D01*
G37*
G36*
G01X1285290Y698910D02*
X1288640D01*
X1305490Y715760D01*
Y782860D01*
G03X1304810Y783140I-399J-4D01*
G01X1281410Y759740D01*
Y756620D01*
G02X1282020Y756010I-2310J-2920D01*
G01X1286040D01*
X1286240Y756210D01*
X1287790D01*
Y757210D01*
X1294410D01*
Y750590D01*
X1287790D01*
Y751390D01*
X1282020D01*
G02X1276790Y756620I-2920J2310D01*
G01Y779990D01*
X1275390D01*
Y787410D01*
X1282810D01*
Y779990D01*
X1281410D01*
Y767240D01*
G03X1282090Y766960I399J4D01*
G01X1305490Y790360D01*
Y806380D01*
G02Y812220I2310J2920D01*
G01Y836380D01*
G02X1310720Y841610I2310J2920D01*
G01X1314880D01*
G02Y836990I2920J-2310D01*
G01X1310720D01*
G02X1310110Y836380I-2920J2310D01*
G01Y812220D01*
G02Y806380I-2310J-2920D01*
G01Y713840D01*
X1295860Y699590D01*
G03X1296140Y698910I284J-281D01*
G01X1300310D01*
Y692290D01*
X1293690D01*
Y696460D01*
G03X1293010Y696740I-399J-4D01*
G01X1291910Y695640D01*
Y692290D01*
X1285290D01*
Y693190D01*
X1280820D01*
G02X1275290Y698150I-2914J2314D01*
G03Y698440I-137J145D01*
G01X1265640Y708090D01*
X1202840D01*
X1145490Y765440D01*
Y777490D01*
X1134860D01*
X1134660Y777290D01*
X1133110D01*
Y775890D01*
X1125690D01*
Y783310D01*
X1133110D01*
Y782110D01*
X1145490D01*
Y805390D01*
X1144090D01*
Y812810D01*
X1145490D01*
Y836180D01*
G02Y842020I2310J2920D01*
G01Y845490D01*
X1144490D01*
Y852110D01*
X1151110D01*
Y845490D01*
X1150110D01*
Y842020D01*
G02Y836180I-2310J-2920D01*
G01Y812810D01*
X1151510D01*
Y805390D01*
X1150110D01*
Y767360D01*
X1204760Y712710D01*
X1267560D01*
X1280210Y700060D01*
Y698420D01*
G02X1280820Y697810I-2310J-2920D01*
G01X1283640D01*
X1283740Y697910D01*
X1285290D01*
Y698910D01*
G37*
G54D19*
X1177800Y809100D03*
X1167800D03*
X1257900Y725500D03*
X1247900D03*
X1237900D03*
X1227900D03*
X1217900D03*
Y695500D03*
X1227900D03*
X1237900D03*
X1247900D03*
X1257900D03*
X1267900D03*
X1207800Y809100D03*
X1327800Y839300D03*
X1337800D03*
X1327800Y809300D03*
X1297800Y839300D03*
X1317800Y809300D03*
X1297800D03*
X1277800Y839300D03*
X1287800D03*
X1277800Y809300D03*
X1207800Y839100D03*
X1217800D03*
Y809100D03*
X1177800Y839100D03*
X1187800D03*
X1197800D03*
Y809100D03*
X1187800D03*
X1157800Y839100D03*
X1167800D03*
X1157800Y809100D03*
X1129400Y815600D03*
Y789600D03*
X1269100Y753700D03*
X1259100D03*
X1249100D03*
X1209100Y783700D03*
X1219100D03*
X1229100D03*
X1239100D03*
X1249100D03*
X1259100D03*
X1269100D03*
X1229100Y753700D03*
X1219100D03*
X1239100D03*
G54D21*
X1347800Y839300D03*
X1337800Y768000D03*
X1277900Y725500D03*
X1129400Y825600D03*
G54D22*
X1257500Y830200D03*
X1247500D03*
G54D20*
X1358700Y817700D03*
X1239500Y850600D03*
X1249500Y850700D03*
X1259500Y850600D03*
X1139400Y848800D03*
%LPD*%
G75*
G54D10*
X1133000Y690000D03*
Y870000D03*
X1363000Y690000D03*
Y870000D03*
G54D11*
X1129400Y779600D03*
Y825600D03*
X1147800Y809100D03*
X1277900Y725500D03*
X1279100Y783700D03*
X1337800Y768000D03*
X1347800Y839300D03*
G54D12*
X1129400Y789600D03*
Y815600D03*
X1157800Y809100D03*
X1167800D03*
Y839100D03*
X1157800D03*
X1147800D03*
X1177800Y809100D03*
X1187800D03*
X1197800D03*
Y839100D03*
X1187800D03*
X1177800D03*
X1217900Y695500D03*
X1227900D03*
Y725500D03*
X1217900D03*
X1209100Y753700D03*
X1219100D03*
X1229100D03*
X1207800Y809100D03*
X1217800D03*
X1229100Y783700D03*
X1219100D03*
X1209100D03*
X1217800Y839100D03*
X1207800D03*
X1237900Y695500D03*
X1247900D03*
X1257900D03*
Y725500D03*
X1247900D03*
X1237900D03*
X1239100Y753700D03*
X1249100D03*
X1259100D03*
Y783700D03*
X1249100D03*
X1239100D03*
X1267900Y695500D03*
X1277900D03*
X1267900Y725500D03*
X1269100Y753700D03*
X1279100D03*
X1277800Y809300D03*
X1287800D03*
X1269100Y783700D03*
X1287800Y839300D03*
X1277800D03*
X1297800Y809300D03*
X1307800D03*
X1317800D03*
Y839300D03*
X1307800D03*
X1297800D03*
X1337800Y778000D03*
X1327800Y809300D03*
X1337800D03*
X1347800D03*
X1337800Y839300D03*
X1327800D03*
G54D13*
X1139400Y848800D03*
X1147800D03*
X1239500Y859000D03*
Y850600D03*
X1249500Y859100D03*
Y850700D03*
X1259500Y859000D03*
Y850600D03*
X1288600Y695600D03*
X1291100Y753900D03*
X1297000Y695600D03*
X1299500Y753900D03*
X1337800Y798200D03*
Y789800D03*
X1358700Y809300D03*
Y817700D03*
G54D14*
G01X1147800Y779800D02*
X1133900D01*
X1133700Y779600D01*
X1129400D01*
G01X1147800Y779800D02*
Y766400D01*
X1203800Y710400D01*
X1266600D01*
X1277900Y699100D01*
Y695500D01*
G01X1147800Y809100D02*
Y779800D01*
G01Y809100D02*
Y839100D01*
G01D02*
Y848800D01*
G01X1277900Y695500D02*
X1284600D01*
X1284700Y695600D01*
X1288600D01*
G01D02*
X1307800Y714800D01*
Y789400D01*
G01X1279100Y753700D02*
X1287000D01*
X1287200Y753900D01*
X1291100D01*
G01X1307800Y789400D02*
X1279100Y760700D01*
G01D02*
Y753700D01*
G01Y760700D02*
Y783700D01*
G01X1307800Y809300D02*
Y839300D01*
G01Y789400D02*
Y809300D01*
G01X1317800Y839300D02*
X1307800D01*
G01X1347800Y809300D02*
X1358700D01*
X1147800Y779800D03*
G54D15*
X1237500Y830200D03*
X1239500Y871700D03*
G54D16*
X1247500Y830200D03*
X1257500D03*
X1249500Y871700D03*
X1259500D03*
G54D17*
G01X1073700Y768200D02*
Y760700D01*
G01X1071550Y768200D02*
X1075850D01*
G01X1081200Y760700D02*
X1080450Y760820D01*
X1079800Y761320D01*
X1079240Y762070D01*
X1078870Y762950D01*
X1078680Y763950D01*
Y764950D01*
X1078870Y765950D01*
X1079240Y766830D01*
X1079800Y767570D01*
X1080450Y768080D01*
X1081200Y768200D01*
X1081950Y768080D01*
X1082600Y767570D01*
X1083160Y766830D01*
X1083530Y765950D01*
X1083720Y764950D01*
Y763950D01*
X1083530Y762950D01*
X1083160Y762070D01*
X1082600Y761320D01*
X1081950Y760820D01*
X1081200Y760700D01*
G01X1086830D02*
Y768200D01*
X1089070D01*
X1089820Y767820D01*
X1090380Y766950D01*
X1090570Y765950D01*
X1090380Y764950D01*
X1089910Y764200D01*
X1089070Y763820D01*
X1086830D01*
G54D18*
G01X1129400Y785690D02*
Y789600D01*
G01D02*
Y793510D01*
G01X1125490Y789600D02*
X1129400D01*
G01D02*
X1133310D01*
G01X1129400Y811690D02*
Y815600D01*
G01D02*
Y819510D01*
G01X1125490Y815600D02*
X1129400D01*
G01D02*
X1133310D01*
G01X1139400Y845290D02*
Y848800D01*
G01D02*
Y852310D01*
G01X1135890Y848800D02*
X1139400D01*
G01D02*
X1142910D01*
G01X1187800Y805190D02*
Y809100D01*
G01D02*
Y813010D01*
G01X1183890Y809100D02*
X1187800D01*
G01D02*
X1191710D01*
G01X1177800Y835190D02*
Y839100D01*
G01D02*
Y843010D01*
G01X1173890Y839100D02*
X1177800D01*
G01D02*
X1181710D01*
G01X1187800Y835190D02*
Y839100D01*
G01D02*
Y843010D01*
G01X1183890Y839100D02*
X1187800D01*
G01D02*
X1191710D01*
G01X1217900Y721590D02*
Y725500D01*
G01D02*
Y729410D01*
G01X1213990Y725500D02*
X1217900D01*
G01D02*
X1221810D01*
G01X1209100Y753700D02*
X1223300Y739500D01*
X1253890D01*
X1267900Y725500D01*
G01X1209100Y779790D02*
Y783700D01*
G01X1217800Y805190D02*
Y809100D01*
G01D02*
Y813010D01*
G01X1213890Y809100D02*
X1217800D01*
G01D02*
X1221710D01*
G01X1209100Y783700D02*
Y787610D01*
G01X1205190Y783700D02*
X1209100D01*
G01D02*
X1213010D01*
G01X1237500Y830200D02*
X1249500Y818200D01*
X1278900D01*
X1287800Y809300D01*
G01X1239500Y847090D02*
Y850600D01*
G01D02*
Y854110D01*
G01X1235990Y850600D02*
X1239500D01*
G01D02*
X1243010D01*
G01X1249500Y847190D02*
Y850700D01*
G01D02*
Y854210D01*
G01X1245990Y850700D02*
X1249500D01*
G01D02*
X1253010D01*
G01X1259500Y847090D02*
Y850600D01*
G01D02*
Y854110D01*
G01X1255990Y850600D02*
X1259500D01*
G01D02*
X1263010D01*
G01X1259500Y871700D02*
Y859000D01*
G01X1249500Y871700D02*
Y859100D01*
G01X1239500Y871700D02*
Y859000D01*
G01X1277800Y835390D02*
Y839300D01*
G01D02*
Y843210D01*
G01X1273890Y839300D02*
X1277800D01*
G01D02*
X1281710D01*
G01X1297000Y692090D02*
Y695600D01*
G01D02*
Y699110D01*
G01X1293490Y695600D02*
X1297000D01*
G01D02*
X1300510D01*
G01X1317800Y805390D02*
Y809300D01*
G01D02*
Y813210D01*
G01X1313890Y809300D02*
X1317800D01*
G01D02*
X1321710D01*
G01X1337800Y764090D02*
Y768000D01*
G01D02*
Y771910D01*
G01X1333890Y768000D02*
X1337800D01*
G01D02*
X1341710D01*
G01X1337800Y789800D02*
Y778000D01*
G01Y798200D02*
Y809300D01*
G01X1358700Y814190D02*
Y817700D01*
G01D02*
Y821210D01*
G01X1355190Y817700D02*
X1358700D01*
G01D02*
X1362210D01*
M02*
