G04 ================== begin FILE IDENTIFICATION RECORD ==================*
G04 Layout Name:  groundBounce_v1.brd*
G04 Film Name:    GroundBounce_v1_2_SST*
G04 File Format:  Gerber RS274X*
G04 File Origin:  Cadence Allegro 16.5-P002*
G04 Origin Date:  Wed Jun 10 14:29:42 2015*
G04 *
G04 Layer:  REF DES/SILKSCREEN_TOP*
G04 Layer:  PACKAGE GEOMETRY/SILKSCREEN_TOP*
G04 Layer:  BOARD GEOMETRY/SILKSCREEN_TOP*
G04 *
G04 Offset:    (0.0 0.0)*
G04 Mirror:    No*
G04 Mode:      Positive*
G04 Rotation:  0*
G04 FullContactRelief:  No*
G04 UndefLineWidth:     0.0*
G04 ================== end FILE IDENTIFICATION RECORD ====================*
%FSLAX25Y25*MOIN*%
%IR0*IPPOS*OFA0.00000B0.00000*MIA0B0*SFA1.00000B1.00000*%
%ADD10C,.005*%
%ADD11C,.006*%
%ADD12C,.008*%
G75*
%LPD*%
G75*
G54D10*
G01X1072240Y706200D02*
X1072990Y705570D01*
X1073830Y705200D01*
X1074570D01*
X1075320Y705570D01*
X1075880Y706200D01*
X1076160Y707080D01*
X1075970Y707950D01*
X1075510Y708700D01*
X1074670Y709200D01*
X1073550Y709450D01*
X1072890Y709950D01*
X1072610Y710820D01*
X1072800Y711700D01*
X1073270Y712320D01*
X1073920Y712700D01*
X1074570D01*
X1075230Y712450D01*
X1075790Y711820D01*
G01X1079740Y706200D02*
X1080490Y705570D01*
X1081330Y705200D01*
X1082070D01*
X1082820Y705570D01*
X1083380Y706200D01*
X1083660Y707080D01*
X1083470Y707950D01*
X1083010Y708700D01*
X1082170Y709200D01*
X1081050Y709450D01*
X1080390Y709950D01*
X1080110Y710820D01*
X1080300Y711700D01*
X1080770Y712320D01*
X1081420Y712700D01*
X1082070D01*
X1082730Y712450D01*
X1083290Y711820D01*
G01X1089200Y712700D02*
Y705200D01*
G01X1087050Y712700D02*
X1091350D01*
G01X1140190Y860880D02*
X1139810Y861130D01*
X1139370Y861300D01*
X1138860D01*
X1138290Y861050D01*
X1137850Y860630D01*
X1137530Y860130D01*
X1137280Y859300D01*
X1137220Y858550D01*
X1137340Y857800D01*
X1137530Y857300D01*
X1137910Y856800D01*
X1138360Y856470D01*
X1138800Y856300D01*
X1139240D01*
X1139690Y856470D01*
X1140070Y856720D01*
X1140380Y857050D01*
G01X1142510Y857300D02*
X1142890Y856720D01*
X1143390Y856380D01*
X1143960Y856300D01*
X1144470Y856380D01*
X1144980Y856800D01*
X1145290Y857300D01*
X1145360Y857800D01*
X1145230Y858380D01*
X1144790Y858800D01*
X1144340Y858970D01*
X1143770D01*
G01X1144340D02*
X1144720Y859220D01*
X1145040Y859630D01*
X1145170Y860130D01*
X1145040Y860630D01*
X1144720Y861050D01*
X1144150Y861300D01*
X1143580Y861220D01*
X1143010Y860880D01*
G01X1188550Y856600D02*
Y851230D01*
X1188920Y850100D01*
X1189670Y849350D01*
X1190600Y849100D01*
X1191530Y849350D01*
X1192280Y850100D01*
X1192650Y851230D01*
Y856600D01*
G01X1196050Y850600D02*
X1196610Y849720D01*
X1197350Y849220D01*
X1198190Y849100D01*
X1198940Y849220D01*
X1199690Y849850D01*
X1200150Y850600D01*
X1200250Y851350D01*
X1200060Y852220D01*
X1199410Y852850D01*
X1198750Y853100D01*
X1197910D01*
G01X1198750D02*
X1199310Y853470D01*
X1199780Y854100D01*
X1199970Y854850D01*
X1199780Y855600D01*
X1199310Y856220D01*
X1198470Y856600D01*
X1197630Y856480D01*
X1196790Y855970D01*
G01X1237390Y683000D02*
Y686580D01*
X1237140Y687330D01*
X1236630Y687830D01*
X1236000Y688000D01*
X1235370Y687830D01*
X1234860Y687330D01*
X1234610Y686580D01*
Y683000D01*
G01X1232100Y683830D02*
X1231720Y683330D01*
X1231280Y683080D01*
X1230770Y683000D01*
X1230140Y683170D01*
X1229700Y683580D01*
X1229570Y684080D01*
X1229630Y684580D01*
X1229890Y685000D01*
X1231150Y685830D01*
X1231720Y686420D01*
X1232100Y687250D01*
X1232230Y688000D01*
X1229570D01*
G01X1238350Y736200D02*
Y741570D01*
X1237980Y742700D01*
X1237230Y743450D01*
X1236300Y743700D01*
X1235370Y743450D01*
X1234620Y742700D01*
X1234250Y741570D01*
Y736200D01*
G01X1227680Y743700D02*
Y736200D01*
X1231130Y741570D01*
X1226470D01*
G01X1251580Y858210D02*
X1251830Y858590D01*
X1252000Y859030D01*
Y859540D01*
X1251750Y860110D01*
X1251330Y860550D01*
X1250830Y860870D01*
X1250000Y861120D01*
X1249250Y861180D01*
X1248500Y861060D01*
X1248000Y860870D01*
X1247500Y860490D01*
X1247170Y860040D01*
X1247000Y859600D01*
Y859160D01*
X1247170Y858710D01*
X1247420Y858330D01*
X1247750Y858020D01*
G01X1251170Y855700D02*
X1251670Y855320D01*
X1251920Y854880D01*
X1252000Y854370D01*
X1251830Y853740D01*
X1251420Y853300D01*
X1250920Y853170D01*
X1250420Y853230D01*
X1250000Y853490D01*
X1249170Y854750D01*
X1248580Y855320D01*
X1247750Y855700D01*
X1247000Y855830D01*
Y853170D01*
G01X1261580Y858310D02*
X1261830Y858690D01*
X1262000Y859130D01*
Y859640D01*
X1261750Y860210D01*
X1261330Y860650D01*
X1260830Y860970D01*
X1260000Y861220D01*
X1259250Y861280D01*
X1258500Y861160D01*
X1258000Y860970D01*
X1257500Y860590D01*
X1257170Y860140D01*
X1257000Y859700D01*
Y859260D01*
X1257170Y858810D01*
X1257420Y858430D01*
X1257750Y858120D01*
G01X1257000Y853840D02*
X1262000D01*
X1258420Y856180D01*
Y853020D01*
G01X1271580Y858210D02*
X1271830Y858590D01*
X1272000Y859030D01*
Y859540D01*
X1271750Y860110D01*
X1271330Y860550D01*
X1270830Y860870D01*
X1270000Y861120D01*
X1269250Y861180D01*
X1268500Y861060D01*
X1268000Y860870D01*
X1267500Y860490D01*
X1267170Y860040D01*
X1267000Y859600D01*
Y859160D01*
X1267170Y858710D01*
X1267420Y858330D01*
X1267750Y858020D01*
G01X1269080Y855700D02*
X1269670Y855260D01*
X1270000Y854880D01*
X1270170Y854370D01*
X1270000Y853930D01*
X1269670Y853610D01*
X1269170Y853360D01*
X1268580Y853300D01*
X1268080Y853360D01*
X1267580Y853610D01*
X1267170Y853990D01*
X1267000Y854440D01*
X1267170Y854940D01*
X1267670Y855390D01*
X1268420Y855640D01*
X1269250Y855700D01*
X1270330Y855580D01*
X1270920Y855390D01*
X1271500Y855070D01*
X1271920Y854630D01*
X1272000Y854180D01*
X1271830Y853740D01*
X1271420Y853420D01*
G01X1296210Y683520D02*
X1296590Y683270D01*
X1297030Y683100D01*
X1297540D01*
X1298110Y683350D01*
X1298550Y683770D01*
X1298870Y684270D01*
X1299120Y685100D01*
X1299180Y685850D01*
X1299060Y686600D01*
X1298870Y687100D01*
X1298490Y687600D01*
X1298040Y687930D01*
X1297600Y688100D01*
X1297160D01*
X1296710Y687930D01*
X1296330Y687680D01*
X1296020Y687350D01*
G01X1293890D02*
X1293510Y687770D01*
X1293070Y688020D01*
X1292500Y688100D01*
X1291930Y687930D01*
X1291490Y687600D01*
X1291170Y687020D01*
X1291110Y686350D01*
X1291230Y685680D01*
X1291550Y685270D01*
X1291990Y684930D01*
X1292440Y684850D01*
X1292880Y684930D01*
X1293450Y685270D01*
X1293260Y683100D01*
X1291550D01*
G01X1298710Y741820D02*
X1299090Y741570D01*
X1299530Y741400D01*
X1300040D01*
X1300610Y741650D01*
X1301050Y742070D01*
X1301370Y742570D01*
X1301620Y743400D01*
X1301680Y744150D01*
X1301560Y744900D01*
X1301370Y745400D01*
X1300990Y745900D01*
X1300540Y746230D01*
X1300100Y746400D01*
X1299660D01*
X1299210Y746230D01*
X1298830Y745980D01*
X1298520Y745650D01*
G01X1295130Y746400D02*
X1295000Y745320D01*
X1294810Y744400D01*
X1294560Y743570D01*
X1294240Y742650D01*
X1293730Y741400D01*
X1296270D01*
G01X1307050Y791800D02*
Y797170D01*
X1306680Y798300D01*
X1305930Y799050D01*
X1305000Y799300D01*
X1304070Y799050D01*
X1303320Y798300D01*
X1302950Y797170D01*
Y791800D01*
G01X1297500Y799300D02*
Y791800D01*
X1298620Y793300D01*
G01Y799300D02*
X1296380D01*
G01X1345300Y800070D02*
X1350300D01*
Y798480D01*
X1350050Y797980D01*
X1349720Y797660D01*
X1349050Y797530D01*
X1348380Y797660D01*
X1347970Y798040D01*
X1347720Y798480D01*
Y800070D01*
G01Y798480D02*
X1345300Y797530D01*
G01Y793700D02*
X1350300D01*
X1349300Y794460D01*
G01X1345300D02*
Y792940D01*
G01X1370780Y816910D02*
X1371030Y817290D01*
X1371200Y817730D01*
Y818240D01*
X1370950Y818810D01*
X1370530Y819250D01*
X1370030Y819570D01*
X1369200Y819820D01*
X1368450Y819880D01*
X1367700Y819760D01*
X1367200Y819570D01*
X1366700Y819190D01*
X1366370Y818740D01*
X1366200Y818300D01*
Y817860D01*
X1366370Y817410D01*
X1366620Y817030D01*
X1366950Y816720D01*
G01X1366200Y813200D02*
X1371200D01*
X1370200Y813960D01*
G01X1366200D02*
Y812440D01*
G54D11*
G01X1151600Y845050D02*
X1135600D01*
G01D02*
Y852550D01*
G01D02*
X1151600D01*
G01D02*
Y845050D01*
G01X1235750Y846800D02*
Y862800D01*
G01D02*
X1243250D01*
G01D02*
Y846800D01*
G01D02*
X1235750D01*
G01X1245750Y846900D02*
Y862900D01*
G01D02*
X1253250D01*
G01D02*
Y846900D01*
G01D02*
X1245750D01*
G01X1255750Y846800D02*
Y862800D01*
G01D02*
X1263250D01*
G01Y846800D02*
X1255750D01*
G01X1284800Y699350D02*
X1300800D01*
G01Y691850D02*
X1284800D01*
G01D02*
Y699350D01*
G01X1303300Y750150D02*
X1287300D01*
G01D02*
Y757650D01*
G01D02*
X1303300D01*
G01X1263250Y862800D02*
Y846800D01*
G01X1300800Y699350D02*
Y691850D01*
G01X1303300Y757650D02*
Y750150D01*
G01X1334050Y786000D02*
Y802000D01*
G01D02*
X1341550D01*
G01D02*
Y786000D01*
G01D02*
X1334050D01*
G01X1354950Y805500D02*
Y821500D01*
G01X1362450D02*
Y805500D01*
G01D02*
X1354950D01*
G01Y821500D02*
X1362450D01*
G54D12*
G01X1124400Y794600D02*
Y774600D01*
G01D02*
X1134400D01*
G01D02*
Y794600D01*
G01D02*
X1124400D01*
G01X1134400Y810600D02*
Y830600D01*
G01D02*
X1124400D01*
G01D02*
Y810600D01*
G01D02*
X1134400D01*
G01X1222800Y814100D02*
X1142800D01*
G01D02*
Y834100D01*
G01D02*
X1222800D01*
G01X1142800Y819100D02*
X1145300D01*
G01D02*
Y829100D01*
G01D02*
X1142800D01*
G01X1212900Y720500D02*
Y700500D01*
G01D02*
X1282900D01*
G01Y720500D02*
X1212900D01*
G01X1204100Y778700D02*
X1284100D01*
G01Y758700D02*
X1204100D01*
G01D02*
Y778700D01*
G01X1222800Y834100D02*
Y814100D01*
G01X1263000Y825200D02*
X1257500D01*
G01D02*
X1247500D01*
G01D02*
X1237500D01*
G01D02*
X1232000D01*
G01D02*
Y835200D01*
G01D02*
X1263000D01*
G01X1265000Y866700D02*
X1259500D01*
G01D02*
X1249500D01*
G01D02*
X1239500D01*
G01D02*
X1234000D01*
G01D02*
Y876700D01*
G01D02*
X1265000D01*
G01X1282900Y715500D02*
X1280400D01*
G01D02*
Y705500D01*
G01D02*
X1282900D01*
G01D02*
Y720500D01*
G01Y700500D02*
Y705500D01*
G01X1284100Y778700D02*
Y758700D01*
G01Y773700D02*
X1281600D01*
G01D02*
Y763700D01*
G01D02*
X1284100D01*
G01X1272800Y834300D02*
X1352800D01*
G01Y814300D02*
X1272800D01*
G01D02*
Y834300D01*
G01X1263000Y835200D02*
Y825200D01*
G01X1265000Y876700D02*
Y866700D01*
G01X1332800Y783000D02*
Y763000D01*
G01D02*
X1342800D01*
G01D02*
Y783000D01*
G01D02*
X1332800D01*
G01X1352800Y829300D02*
X1350300D01*
G01D02*
Y819300D01*
G01D02*
X1352800D01*
G01Y834300D02*
Y814300D01*
M02*
