G04 ================== begin FILE IDENTIFICATION RECORD ==================*
G04 Layout Name:  groundBounce_v1.brd*
G04 Film Name:    GroundBounce_v1_2_SSB*
G04 File Format:  Gerber RS274X*
G04 File Origin:  Cadence Allegro 16.5-P002*
G04 Origin Date:  Wed Jun 10 14:29:42 2015*
G04 *
G04 Layer:  REF DES/SILKSCREEN_BOTTOM*
G04 Layer:  PACKAGE GEOMETRY/SILKSCREEN_BOTTOM*
G04 Layer:  BOARD GEOMETRY/SILKSCREEN_BOTTOM*
G04 *
G04 Offset:    (0.0 0.0)*
G04 Mirror:    No*
G04 Mode:      Positive*
G04 Rotation:  0*
G04 FullContactRelief:  No*
G04 UndefLineWidth:     0.0*
G04 ================== end FILE IDENTIFICATION RECORD ====================*
%FSLAX25Y25*MOIN*%
%IR0*IPPOS*OFA0.00000B0.00000*MIA0B0*SFA1.00000B1.00000*%
%ADD10C,.005*%
G75*
%LPD*%
G75*
G54D10*
G01X1072240Y693200D02*
X1072990Y692570D01*
X1073830Y692200D01*
X1074570D01*
X1075320Y692570D01*
X1075880Y693200D01*
X1076160Y694080D01*
X1075970Y694950D01*
X1075510Y695700D01*
X1074670Y696200D01*
X1073550Y696450D01*
X1072890Y696950D01*
X1072610Y697820D01*
X1072800Y698700D01*
X1073270Y699320D01*
X1073920Y699700D01*
X1074570D01*
X1075230Y699450D01*
X1075790Y698820D01*
G01X1079740Y693200D02*
X1080490Y692570D01*
X1081330Y692200D01*
X1082070D01*
X1082820Y692570D01*
X1083380Y693200D01*
X1083660Y694080D01*
X1083470Y694950D01*
X1083010Y695700D01*
X1082170Y696200D01*
X1081050Y696450D01*
X1080390Y696950D01*
X1080110Y697820D01*
X1080300Y698700D01*
X1080770Y699320D01*
X1081420Y699700D01*
X1082070D01*
X1082730Y699450D01*
X1083290Y698820D01*
G01X1089950Y696200D02*
X1090320Y696570D01*
X1090600Y697200D01*
X1090790Y698080D01*
X1090600Y698820D01*
X1090230Y699320D01*
X1089570Y699700D01*
X1087050D01*
Y692200D01*
X1090130D01*
X1090790Y692700D01*
X1091160Y693450D01*
X1091350Y694330D01*
X1091160Y695200D01*
X1090600Y695950D01*
X1089950Y696200D01*
X1087050D01*
M02*
