M48
INCH,LZ
T01C.042
T02C.037
T03C.035
T04C.02
T05C.125
;LEADER: 12 
;HEADER: 
;CODE  : ASCII 
;FILE  : NCdrill-1-2.drl for board groundBounce_v1.brd ... layers TOP and BOTTOM
;T01 Holesize 1. = 42.000000 Tolerance = +0.000000/-0.000000 PLATED MILS Quantity = 6
;T02 Holesize 2. = 37.000000 Tolerance = +0.000000/-0.000000 PLATED MILS Quantity = 6
;T03 Holesize 3. = 35.000000 Tolerance = +0.000000/-0.000000 PLATED MILS Quantity = 62
;T04 Holesize 4. = 20.000000 Tolerance = +0.000000/-0.000000 PLATED MILS Quantity = 1
;T05 Holesize 5. = 125.000000 Tolerance = +0.000000/-0.000000 NON_PLATED MILS Quantity = 4
%
G90
T01
X12375Y08302
R02X001
X12395Y08717
R02X001
T02
X11294Y07796
X11294Y07896
X11294Y08256
X11294Y08156
X13378Y0768
X13378Y0778
T03
X11478Y08091
R07X001
X12178Y08391
R07X-001
X12779Y07255
R06X-001
X12179Y06955
R06X001
X12791Y07837
R07X-001
X12091Y07537
R07X001
X13478Y08393
R07X-001
X12778Y08093
R07X001
T04
X11478Y07798
T05
X1133Y069
X1133Y087
X1363Y087
X1363Y069
M30
