M48
INCH,LZ
T01C.07
T02C.065
T03C.06
T04C.047
T05C.042
T06C.037
T07C.035
T08C.028
T09C.02
T10C.125
;LEADER: 12 
;HEADER: 
;CODE  : ASCII 
;FILE  : NCdrill-1-2.drl for board LinkingInterfaceV2_7.brd ... layers TOP and BOTTOM
;T01 Holesize 1. = 70.000000 Tolerance = +0.000000/-0.000000 PLATED MILS Quantity = 8
;T02 Holesize 2. = 65.000000 Tolerance = +0.000000/-0.000000 PLATED MILS Quantity = 14
;T03 Holesize 3. = 60.000000 Tolerance = +0.000000/-0.000000 PLATED MILS Quantity = 2
;T04 Holesize 4. = 47.000000 Tolerance = +0.000000/-0.000000 PLATED MILS Quantity = 9
;T05 Holesize 5. = 42.000000 Tolerance = +0.000000/-0.000000 PLATED MILS Quantity = 23
;T06 Holesize 6. = 37.000000 Tolerance = +0.000000/-0.000000 PLATED MILS Quantity = 40
;T07 Holesize 7. = 35.000000 Tolerance = +0.000000/-0.000000 PLATED MILS Quantity = 6
;T08 Holesize 8. = 28.000000 Tolerance = +0.000000/-0.000000 PLATED MILS Quantity = 3
;T09 Holesize 9. = 20.000000 Tolerance = +0.000000/-0.000000 PLATED MILS Quantity = 30
;T10 Holesize 10. = 125.000000 Tolerance = +0.000000/-0.000000 NON_PLATED MILS Quantity = 6
%
G90
T01
X030711Y032654
X033467Y032654
X030681Y028424
X033437Y028424
X030851Y036924
X033607Y036924
X030851Y040704
X033607Y040704
T02
X00117Y04018
X00117Y03862
X00988Y04325
R02X00156
X02037Y02879
X01881Y02879
X01567Y04324
R02X00156
X02301Y0436
X02145Y0436
X02731Y0436
X02575Y0436
T03
X00426Y04018
X01026Y04018
T04
X00104Y03327
X00204Y03027
R03Y001
X00104Y02927
R03Y001
T05
X00204Y02927
X0099Y02771
R05X001
X03124Y02072
R15Y-001
T06
X02708Y0055
X02708Y0045
X02608Y0055
X02608Y0045
X02508Y0055
X02508Y0045
X02408Y0055
X02408Y0045
X02308Y0055
X02308Y0045
X02208Y0055
X02208Y0045
X02108Y0055
X02108Y0045
X02008Y0055
X02008Y0045
X01908Y0055
X01908Y0045
X01808Y0055
X01808Y0045
X01708Y0055
X01708Y0045
X01608Y0055
X01608Y0045
X01508Y0055
X01508Y0045
X01408Y0055
X01408Y0045
X01308Y0055
X01308Y0045
X01208Y0055
X01208Y0045
X01108Y0055
X01108Y0045
X01008Y0055
X01008Y0045
X00908Y0055
X00908Y0045
X00808Y0055
X00808Y0045
T07
X02418Y03137
X02618Y03237
X02418Y03337
X02423Y02713
X02623Y02813
X02423Y02913
T08
X01588Y00904
X01538Y00979
X01488Y00904
T09
X00437Y0186
X01303Y0161
X01301Y01241
X01245Y0153
X01204Y03247
X01475Y03521
X015674Y016326
X02058Y01018
X018Y01527
X01988Y01715
X02208Y01822
X02874Y01822
X01875Y03318
X01876Y03737
X01064Y03705
X01671Y03635
X015681Y026586
X00489Y03027
X01482Y0338
X00586Y01974
X00467Y03127
X01335Y035
X02159Y01103
X01422Y00335
X00304Y02661
X0049Y02661
X01181Y009
X00436Y02536
X00956Y03635
X01645Y03932
T10
X001Y001
X001Y025
X001Y044
X034Y001
X034Y025
X034Y044
M30
