G04 ================== begin FILE IDENTIFICATION RECORD ==================*
G04 Layout Name:  LinkingInterfaceV2_7.brd*
G04 Film Name:    LinkingInterface_v2_7_SMT*
G04 File Format:  Gerber RS274X*
G04 File Origin:  Cadence Allegro 16.5-P002*
G04 Origin Date:  Sun Jun 07 14:33:43 2015*
G04 *
G04 Layer:  BOARD GEOMETRY/SOLDERMASK_TOP*
G04 Layer:  VIA CLASS/SOLDERMASK_TOP*
G04 Layer:  PIN/SOLDERMASK_TOP*
G04 *
G04 Offset:    (0.0 0.0)*
G04 Mirror:    No*
G04 Mode:      Positive*
G04 Rotation:  0*
G04 FullContactRelief:  No*
G04 UndefLineWidth:     0.0*
G04 ================== end FILE IDENTIFICATION RECORD ====================*
%FSLAX25Y25*MOIN*%
%IR0*IPPOS*OFA0.00000B0.00000*MIA0B0*SFA1.00000B1.00000*%
%ADD13C,.1*%
%ADD12R,.1X.1*%
%ADD10C,.145*%
%ADD29R,.142X.088*%
%ADD38R,.0866X.1102*%
%ADD31R,.0874X.1307*%
%ADD37R,.1102X.1102*%
%ADD17R,.1102X.1417*%
%ADD14C,.05*%
%ADD36R,.038X.032*%
%ADD27C,.062*%
%ADD16C,.081*%
%ADD35C,.056*%
%ADD20R,.05X.05*%
%ADD21C,.058*%
%ADD11C,.067*%
%ADD33R,.086X.046*%
%ADD22R,.062X.062*%
%ADD32R,.0874X.0402*%
%ADD24R,.081X.081*%
%ADD34R,.056X.056*%
%ADD18R,.0276X.0453*%
%ADD28R,.048X.088*%
%ADD25R,.058X.058*%
%ADD15R,.067X.067*%
%ADD23R,.0768X.0315*%
%ADD19R,.086X.086*%
%ADD30R,.0315X.0768*%
%ADD26R,.0591X.0394*%
%ADD39C,.005*%
G75*
%LPD*%
G75*
G54D10*
X10000Y10000D03*
Y250000D03*
Y440000D03*
X340000Y10000D03*
Y250000D03*
Y440000D03*
G54D11*
X10400Y292700D03*
Y302700D03*
Y312700D03*
Y332700D03*
Y322700D03*
X20400Y302700D03*
Y312700D03*
Y322700D03*
Y332700D03*
G54D20*
X61400Y357600D03*
X69800D03*
X73300Y277000D03*
X81700D03*
X90700Y287700D03*
X99100D03*
X80100Y357700D03*
Y366100D03*
X105800Y148500D03*
Y140100D03*
X127200Y288300D03*
X118800D03*
X124300Y401800D03*
X158800Y90400D03*
X144800Y208700D03*
X136400D03*
X144800Y223900D03*
X156900Y241800D03*
Y250200D03*
X144800Y232300D03*
X132700Y401800D03*
X142600Y383400D03*
X151000D03*
X174900Y106400D03*
Y98000D03*
X166400Y119700D03*
X174800D03*
X163600Y279800D03*
Y271400D03*
X170700Y349600D03*
X179100D03*
X166000Y375000D03*
Y383400D03*
X212200Y211600D03*
Y220000D03*
X211200Y313600D03*
X219600D03*
X221800Y363200D03*
Y371600D03*
X244700Y186100D03*
Y177700D03*
X265600Y366200D03*
X274000D03*
X266100Y404000D03*
X274500D03*
G54D30*
X142600Y361390D03*
Y374380D03*
X168800Y207290D03*
Y220280D03*
X190200Y207190D03*
Y220180D03*
X229100Y396310D03*
Y383320D03*
G54D21*
X100800Y45000D03*
X90800D03*
X80800D03*
X100800Y55000D03*
X90800D03*
X80800D03*
X120800Y45000D03*
X110800D03*
X130800Y55000D03*
X120800D03*
X110800D03*
X160800Y45000D03*
X150800D03*
X140800D03*
X160800Y55000D03*
X150800D03*
X140800D03*
X190800Y45000D03*
X170800D03*
X190800Y55000D03*
X180800D03*
X170800D03*
X220800Y45000D03*
X210800D03*
X200800D03*
X220800Y55000D03*
X210800D03*
X200800D03*
X250800Y45000D03*
X240800D03*
X250800Y55000D03*
X240800D03*
X230800D03*
X270800Y45000D03*
X260800D03*
Y55000D03*
G54D12*
X11700Y401800D03*
X98800Y432500D03*
X156700Y432400D03*
X203700Y287900D03*
X230100Y436000D03*
X273100D03*
G54D22*
X99000Y277100D03*
X312400Y117200D03*
Y207200D03*
G54D31*
X191630Y241240D03*
G54D13*
X11700Y386200D03*
X114400Y432500D03*
X130000D03*
X188100Y287900D03*
X172300Y432400D03*
X187900D03*
X214500Y436000D03*
X257500D03*
X306810Y284240D03*
X307110Y326540D03*
X308510Y369240D03*
Y407040D03*
X334370Y284240D03*
X334670Y326540D03*
X336070Y369240D03*
Y407040D03*
G54D23*
X90790Y302100D03*
X103780D03*
X127210D03*
X114220D03*
X163590Y313600D03*
X187520Y313700D03*
X176580Y313600D03*
X200510Y313700D03*
X195990Y338000D03*
X208980D03*
X242820Y366300D03*
X242920Y404000D03*
X255810Y366300D03*
X255910Y404000D03*
G54D32*
X168800Y232190D03*
Y241240D03*
Y250300D03*
G54D14*
X30400Y266100D03*
X58600Y197400D03*
X43700Y186000D03*
X43600Y253600D03*
X49000Y266100D03*
X46700Y312700D03*
X48900Y302700D03*
X95600Y363500D03*
X118100Y90000D03*
X130100Y124100D03*
X124500Y153000D03*
X130300Y161000D03*
X120400Y324700D03*
X106400Y370500D03*
X142200Y33500D03*
X153800Y97900D03*
X148800Y90400D03*
X156740Y163260D03*
X156810Y265860D03*
X148200Y338000D03*
X133500Y350000D03*
X147500Y352100D03*
X180000Y152700D03*
X187500Y331800D03*
X167100Y363500D03*
X187600Y373700D03*
X164500Y393200D03*
X205800Y101800D03*
X215900Y110300D03*
X220800Y182200D03*
X198800Y171500D03*
X287400Y182200D03*
G54D15*
X20400Y292700D03*
G54D24*
X102600Y401800D03*
G54D33*
X179100Y373300D03*
Y363300D03*
Y393300D03*
Y383300D03*
X209100Y363300D03*
Y373300D03*
Y383300D03*
Y393300D03*
G54D25*
X130800Y45000D03*
X180800D03*
X230800D03*
X270800Y55000D03*
G54D34*
X242300Y271300D03*
X241800Y313700D03*
G54D16*
X42600Y401800D03*
G54D26*
X117210Y148500D03*
Y153420D03*
Y158340D03*
Y163260D03*
Y168190D03*
Y173110D03*
Y178030D03*
X136900Y163260D03*
Y158340D03*
Y153420D03*
Y148500D03*
Y178030D03*
Y173110D03*
Y168190D03*
X211800Y148170D03*
Y153090D03*
Y158010D03*
Y162940D03*
Y167860D03*
Y172780D03*
Y177700D03*
X231490Y162940D03*
Y158010D03*
Y153090D03*
Y148170D03*
Y177700D03*
Y172780D03*
Y167860D03*
G54D35*
X242300Y291300D03*
X241800Y333700D03*
X262300Y281300D03*
X261800Y323700D03*
G54D17*
X42640Y432190D03*
X69570Y432500D03*
G54D18*
X49100Y208420D03*
Y197400D03*
X43700Y208420D03*
Y197400D03*
G54D27*
X109000Y277100D03*
X119000D03*
X129000D03*
X139000D03*
X149000D03*
X312400Y77200D03*
Y67200D03*
Y57200D03*
Y107200D03*
Y97200D03*
Y87200D03*
Y137200D03*
Y127200D03*
Y167200D03*
Y157200D03*
Y147200D03*
Y197200D03*
Y187200D03*
Y177200D03*
G54D36*
X232100Y363100D03*
Y368700D03*
G54D19*
X66900Y378900D03*
X80100D03*
G54D28*
X124400D03*
X115400D03*
X106400D03*
G54D37*
X285550Y281280D03*
X301300Y298800D03*
X285850Y323580D03*
X301600Y341100D03*
X287250Y366280D03*
X303000Y383800D03*
X287250Y404080D03*
X303000Y421600D03*
G54D38*
X338700Y298800D03*
X339000Y341100D03*
X340400Y383800D03*
Y421600D03*
G54D29*
X115400Y354500D03*
G54D39*
G01X-56660Y49200D02*
X-55910Y48570D01*
X-55070Y48200D01*
X-54330D01*
X-53580Y48570D01*
X-53020Y49200D01*
X-52740Y50080D01*
X-52930Y50950D01*
X-53390Y51700D01*
X-54230Y52200D01*
X-55350Y52450D01*
X-56010Y52950D01*
X-56290Y53820D01*
X-56100Y54700D01*
X-55630Y55320D01*
X-54980Y55700D01*
X-54330D01*
X-53670Y55450D01*
X-53110Y54820D01*
G01X-49630Y48200D02*
Y55700D01*
X-47200Y49450D01*
X-44770Y55700D01*
Y48200D01*
G01X-39700Y55700D02*
Y48200D01*
G01X-41850Y55700D02*
X-37550D01*
M02*
