*
%LPD*%
%LNlinkingInterface_v1_3_MECH*%
%FSLAX25Y25*%
%MOIN*%
%AD*%
%AMMACRO13*
1,1,0.001,0.043,0*
20,1,0.001,0.043,0,0.042347,-0.007467,0*
1,1,0.001,0.042347,-0.007467*
20,1,0.001,0.042347,-0.007467,0.040407,-0.014707,0*
1,1,0.001,0.040407,-0.014707*
20,1,0.001,0.040407,-0.014707,0.037239,-0.0215,0*
1,1,0.001,0.037239,-0.0215*
20,1,0.001,0.037239,-0.0215,0.03294,-0.02764,0*
1,1,0.001,0.03294,-0.02764*
20,1,0.001,0.03294,-0.02764,0.02764,-0.03294,0*
1,1,0.001,0.02764,-0.03294*
20,1,0.001,0.02764,-0.03294,0.0215,-0.037239,0*
1,1,0.001,0.0215,-0.037239*
20,1,0.001,0.0215,-0.037239,0.014707,-0.040407,0*
1,1,0.001,0.014707,-0.040407*
20,1,0.001,0.014707,-0.040407,0.007467,-0.042347,0*
1,1,0.001,0.007467,-0.042347*
20,1,0.001,0.007467,-0.042347,0,-0.043,0*
1,1,0.001,0,-0.043*
20,1,0.001,0,-0.043,-0.007467,-0.042347,0*
1,1,0.001,-0.007467,-0.042347*
20,1,0.001,-0.007467,-0.042347,-0.014707,-0.040407,0*
1,1,0.001,-0.014707,-0.040407*
20,1,0.001,-0.014707,-0.040407,-0.0215,-0.037239,0*
1,1,0.001,-0.0215,-0.037239*
20,1,0.001,-0.0215,-0.037239,-0.02764,-0.03294,0*
1,1,0.001,-0.02764,-0.03294*
20,1,0.001,-0.02764,-0.03294,-0.03294,-0.02764,0*
1,1,0.001,-0.03294,-0.02764*
20,1,0.001,-0.03294,-0.02764,-0.037239,-0.0215,0*
1,1,0.001,-0.037239,-0.0215*
20,1,0.001,-0.037239,-0.0215,-0.040407,-0.014707,0*
1,1,0.001,-0.040407,-0.014707*
20,1,0.001,-0.040407,-0.014707,-0.042347,-0.007467,0*
1,1,0.001,-0.042347,-0.007467*
20,1,0.001,-0.042347,-0.007467,-0.043,0,0*
1,1,0.001,-0.043,0*
20,1,0.001,-0.043,0,-0.042347,0.007467,0*
1,1,0.001,-0.042347,0.007467*
20,1,0.001,-0.042347,0.007467,-0.040407,0.014707,0*
1,1,0.001,-0.040407,0.014707*
20,1,0.001,-0.040407,0.014707,-0.037239,0.0215,0*
1,1,0.001,-0.037239,0.0215*
20,1,0.001,-0.037239,0.0215,-0.03294,0.02764,0*
1,1,0.001,-0.03294,0.02764*
20,1,0.001,-0.03294,0.02764,-0.02764,0.03294,0*
1,1,0.001,-0.02764,0.03294*
20,1,0.001,-0.02764,0.03294,-0.0215,0.037239,0*
1,1,0.001,-0.0215,0.037239*
20,1,0.001,-0.0215,0.037239,-0.014707,0.040407,0*
1,1,0.001,-0.014707,0.040407*
20,1,0.001,-0.014707,0.040407,-0.007467,0.042347,0*
1,1,0.001,-0.007467,0.042347*
20,1,0.001,-0.007467,0.042347,0,0.043,0*
1,1,0.001,0,0.043*
20,1,0.001,0,0.043,0.007467,0.042347,0*
1,1,0.001,0.007467,0.042347*
20,1,0.001,0.007467,0.042347,0.014707,0.040407,0*
1,1,0.001,0.014707,0.040407*
20,1,0.001,0.014707,0.040407,0.0215,0.037239,0*
1,1,0.001,0.0215,0.037239*
20,1,0.001,0.0215,0.037239,0.02764,0.03294,0*
1,1,0.001,0.02764,0.03294*
20,1,0.001,0.02764,0.03294,0.03294,0.02764,0*
1,1,0.001,0.03294,0.02764*
20,1,0.001,0.03294,0.02764,0.037239,0.0215,0*
1,1,0.001,0.037239,0.0215*
20,1,0.001,0.037239,0.0215,0.040407,0.014707,0*
1,1,0.001,0.040407,0.014707*
20,1,0.001,0.040407,0.014707,0.042347,0.007467,0*
1,1,0.001,0.042347,0.007467*
20,1,0.001,0.042347,0.007467,0.043,0,0*
1,1,0.001,0.043,0*
1,1,0.001,0.0057,0.0014*
20,1,0.001,0.0057,0.0014,0.0086,0.0036,0*
1,1,0.001,0.0086,0.0036*
20,1,0.001,0.0086,0.0036,0.0107,0.0072,0*
1,1,0.001,0.0107,0.0072*
20,1,0.001,0.0107,0.0072,0.0122,0.0122,0*
1,1,0.001,0.0122,0.0122*
20,1,0.001,0.0122,0.0122,0.0107,0.0165,0*
1,1,0.001,0.0107,0.0165*
20,1,0.001,0.0107,0.0165,0.0079,0.0193,0*
1,1,0.001,0.0079,0.0193*
20,1,0.001,0.0079,0.0193,0.0029,0.0215,0*
1,1,0.001,0.0029,0.0215*
20,1,0.001,0.0029,0.0215,-0.0165,0.0215,0*
1,1,0.001,-0.0165,0.0215*
20,1,0.001,-0.0165,0.0215,-0.0165,-0.0215,0*
1,1,0.001,-0.0165,-0.0215*
20,1,0.001,-0.0165,-0.0215,0.0072,-0.0215,0*
1,1,0.001,0.0072,-0.0215*
20,1,0.001,0.0072,-0.0215,0.0122,-0.0186,0*
1,1,0.001,0.0122,-0.0186*
20,1,0.001,0.0122,-0.0186,0.0151,-0.0143,0*
1,1,0.001,0.0151,-0.0143*
20,1,0.001,0.0151,-0.0143,0.0165,-0.0093,0*
1,1,0.001,0.0165,-0.0093*
20,1,0.001,0.0165,-0.0093,0.0151,-0.0043,0*
1,1,0.001,0.0151,-0.0043*
20,1,0.001,0.0151,-0.0043,0.0107,0,0*
1,1,0.001,0.0107,0*
20,1,0.001,0.0107,0,0.0057,0.0014,0*
1,1,0.001,0.0057,0.0014*
20,1,0.001,0.0057,0.0014,-0.0165,0.0014,0*
1,1,0.001,-0.0165,0.0014*
%
%AMMACRO12*
1,1,0.001,0.01,0*
20,1,0.001,0.01,0,-0.01,0,0*
1,1,0.001,-0.01,0*
1,1,0.001,0,0.01*
20,1,0.001,0,0.01,0,-0.01,0*
1,1,0.001,0,-0.01*
%
%AMMACRO25*
1,1,0.001,-0.0293,-0.04*
20,1,0.001,-0.0293,-0.04,-0.0293,0.04,0*
1,1,0.001,-0.0293,0.04*
20,1,0.001,-0.0293,0.04,-0.0027,0.04,0*
1,1,0.001,-0.0027,0.04*
20,1,0.001,-0.0027,0.04,0.008,0.036,0*
1,1,0.001,0.008,0.036*
20,1,0.001,0.008,0.036,0.016,0.0307,0*
1,1,0.001,0.016,0.0307*
20,1,0.001,0.016,0.0307,0.0227,0.0227,0*
1,1,0.001,0.0227,0.0227*
20,1,0.001,0.0227,0.0227,0.028,0.0133,0*
1,1,0.001,0.028,0.0133*
20,1,0.001,0.028,0.0133,0.0293,0,0*
1,1,0.001,0.0293,0*
20,1,0.001,0.0293,0,0.028,-0.0133,0*
1,1,0.001,0.028,-0.0133*
20,1,0.001,0.028,-0.0133,0.0227,-0.0227,0*
1,1,0.001,0.0227,-0.0227*
20,1,0.001,0.0227,-0.0227,0.016,-0.0307,0*
1,1,0.001,0.016,-0.0307*
20,1,0.001,0.016,-0.0307,0.008,-0.036,0*
1,1,0.001,0.008,-0.036*
20,1,0.001,0.008,-0.036,-0.0027,-0.04,0*
1,1,0.001,-0.0027,-0.04*
20,1,0.001,-0.0027,-0.04,-0.0293,-0.04,0*
1,1,0.001,-0.0293,-0.04*
%
%AMMACRO20*
1,1,0.001,0.04,0*
20,1,0.001,0.04,0,-0.04,0,0*
1,1,0.001,-0.04,0*
1,1,0.001,0,0.04*
20,1,0.001,0,0.04,0,-0.04,0*
1,1,0.001,0,-0.04*
%
%AMMACRO21*
1,1,0.001,-0.028,-0.04*
20,1,0.001,-0.028,-0.04,0.028,0.04,0*
1,1,0.001,0.028,0.04*
1,1,0.001,-0.028,0.04*
20,1,0.001,-0.028,0.04,0.028,-0.04,0*
1,1,0.001,0.028,-0.04*
%
%AMMACRO11*
1,1,0.001,0.03,0.0246*
20,1,0.001,0.03,0.0246,0.03,-0.0246,0*
1,1,0.001,0.03,-0.0246*
20,1,0.001,0.03,-0.0246,-0.03,-0.0246,0*
1,1,0.001,-0.03,-0.0246*
20,1,0.001,-0.03,-0.0246,-0.03,0.0246,0*
1,1,0.001,-0.03,0.0246*
20,1,0.001,-0.03,0.0246,0.03,0.0246,0*
1,1,0.001,0.03,0.0246*
1,1,0.001,-0.0226,-0.0123*
20,1,0.001,-0.0226,-0.0123,-0.0123,0.0123,0*
1,1,0.001,-0.0123,0.0123*
20,1,0.001,-0.0123,0.0123,-0.002,-0.0123,0*
1,1,0.001,-0.002,-0.0123*
1,1,0.001,-0.0057,-0.0037*
20,1,0.001,-0.0057,-0.0037,-0.0189,-0.0037,0*
1,1,0.001,-0.0189,-0.0037*
1,1,0.001,0.0021,-0.0123*
20,1,0.001,0.0021,-0.0123,0.0124,0.0123,0*
1,1,0.001,0.0124,0.0123*
20,1,0.001,0.0124,0.0123,0.0227,-0.0123,0*
1,1,0.001,0.0227,-0.0123*
1,1,0.001,0.019,-0.0037*
20,1,0.001,0.019,-0.0037,0.0058,-0.0037,0*
1,1,0.001,0.0058,-0.0037*
%
%AMMACRO10*
1,1,0.001,-0.0263,-0.0375*
20,1,0.001,-0.0263,-0.0375,0.0263,0.0375,0*
1,1,0.001,0.0263,0.0375*
1,1,0.001,-0.0263,0.0375*
20,1,0.001,-0.0263,0.0375,0.0263,-0.0375,0*
1,1,0.001,0.0263,-0.0375*
%
%AMMACRO23*
1,1,0.001,0.0488,0.04*
20,1,0.001,0.0488,0.04,0.0488,-0.04,0*
1,1,0.001,0.0488,-0.04*
20,1,0.001,0.0488,-0.04,-0.0488,-0.04,0*
1,1,0.001,-0.0488,-0.04*
20,1,0.001,-0.0488,-0.04,-0.0488,0.04,0*
1,1,0.001,-0.0488,0.04*
20,1,0.001,-0.0488,0.04,0.0488,0.04,0*
1,1,0.001,0.0488,0.04*
1,1,0.001,-0.0367,-0.02*
20,1,0.001,-0.0367,-0.02,-0.02,0.02,0*
1,1,0.001,-0.02,0.02*
20,1,0.001,-0.02,0.02,-0.0033,-0.02,0*
1,1,0.001,-0.0033,-0.02*
1,1,0.001,-0.0093,-0.006*
20,1,0.001,-0.0093,-0.006,-0.0307,-0.006,0*
1,1,0.001,-0.0307,-0.006*
1,1,0.001,0.0034,-0.02*
20,1,0.001,0.0034,-0.02,0.0201,0.02,0*
1,1,0.001,0.0201,0.02*
20,1,0.001,0.0201,0.02,0.0368,-0.02,0*
1,1,0.001,0.0368,-0.02*
1,1,0.001,0.0308,-0.006*
20,1,0.001,0.0308,-0.006,0.0094,-0.006,0*
1,1,0.001,0.0094,-0.006*
%
%AMMACRO18*
1,1,0.001,0.022,0.025*
20,1,0.001,0.022,0.025,0.016,0.028,0*
1,1,0.001,0.016,0.028*
20,1,0.001,0.016,0.028,0.009,0.03,0*
1,1,0.001,0.009,0.03*
20,1,0.001,0.009,0.03,0.001,0.03,0*
1,1,0.001,0.001,0.03*
20,1,0.001,0.001,0.03,-0.008,0.027,0*
1,1,0.001,-0.008,0.027*
20,1,0.001,-0.008,0.027,-0.015,0.022,0*
1,1,0.001,-0.015,0.022*
20,1,0.001,-0.015,0.022,-0.02,0.016,0*
1,1,0.001,-0.02,0.016*
20,1,0.001,-0.02,0.016,-0.024,0.006,0*
1,1,0.001,-0.024,0.006*
20,1,0.001,-0.024,0.006,-0.025,-0.003,0*
1,1,0.001,-0.025,-0.003*
20,1,0.001,-0.025,-0.003,-0.023,-0.012,0*
1,1,0.001,-0.023,-0.012*
20,1,0.001,-0.023,-0.012,-0.02,-0.018,0*
1,1,0.001,-0.02,-0.018*
20,1,0.001,-0.02,-0.018,-0.014,-0.024,0*
1,1,0.001,-0.014,-0.024*
20,1,0.001,-0.014,-0.024,-0.007,-0.028,0*
1,1,0.001,-0.007,-0.028*
20,1,0.001,-0.007,-0.028,0,-0.03,0*
1,1,0.001,0,-0.03*
20,1,0.001,0,-0.03,0.007,-0.03,0*
1,1,0.001,0.007,-0.03*
20,1,0.001,0.007,-0.03,0.014,-0.028,0*
1,1,0.001,0.014,-0.028*
20,1,0.001,0.014,-0.028,0.02,-0.025,0*
1,1,0.001,0.02,-0.025*
20,1,0.001,0.02,-0.025,0.025,-0.021,0*
1,1,0.001,0.025,-0.021*
%
%AMMACRO14*
1,1,0.001,0.03,0.03*
20,1,0.001,0.03,0.03,0.03,-0.03,0*
1,1,0.001,0.03,-0.03*
20,1,0.001,0.03,-0.03,-0.03,-0.03,0*
1,1,0.001,-0.03,-0.03*
20,1,0.001,-0.03,-0.03,-0.03,0.03,0*
1,1,0.001,-0.03,0.03*
20,1,0.001,-0.03,0.03,0.03,0.03,0*
1,1,0.001,0.03,0.03*
1,1,0.001,-0.0125,-0.015*
20,1,0.001,-0.0125,-0.015,0,0.015,0*
1,1,0.001,0,0.015*
20,1,0.001,0,0.015,0.0125,-0.015,0*
1,1,0.001,0.0125,-0.015*
1,1,0.001,0.008,-0.0045*
20,1,0.001,0.008,-0.0045,-0.008,-0.0045,0*
1,1,0.001,-0.008,-0.0045*
%
%AMMACRO19*
1,1,0.001,0.0293,0.0333*
20,1,0.001,0.0293,0.0333,0.0213,0.0373,0*
1,1,0.001,0.0213,0.0373*
20,1,0.001,0.0213,0.0373,0.012,0.04,0*
1,1,0.001,0.012,0.04*
20,1,0.001,0.012,0.04,0.0013,0.04,0*
1,1,0.001,0.0013,0.04*
20,1,0.001,0.0013,0.04,-0.0107,0.036,0*
1,1,0.001,-0.0107,0.036*
20,1,0.001,-0.0107,0.036,-0.02,0.0293,0*
1,1,0.001,-0.02,0.0293*
20,1,0.001,-0.02,0.0293,-0.0267,0.0213,0*
1,1,0.001,-0.0267,0.0213*
20,1,0.001,-0.0267,0.0213,-0.032,0.008,0*
1,1,0.001,-0.032,0.008*
20,1,0.001,-0.032,0.008,-0.0333,-0.004,0*
1,1,0.001,-0.0333,-0.004*
20,1,0.001,-0.0333,-0.004,-0.0307,-0.016,0*
1,1,0.001,-0.0307,-0.016*
20,1,0.001,-0.0307,-0.016,-0.0267,-0.024,0*
1,1,0.001,-0.0267,-0.024*
20,1,0.001,-0.0267,-0.024,-0.0187,-0.032,0*
1,1,0.001,-0.0187,-0.032*
20,1,0.001,-0.0187,-0.032,-0.0093,-0.0373,0*
1,1,0.001,-0.0093,-0.0373*
20,1,0.001,-0.0093,-0.0373,0,-0.04,0*
1,1,0.001,0,-0.04*
20,1,0.001,0,-0.04,0.0093,-0.04,0*
1,1,0.001,0.0093,-0.04*
20,1,0.001,0.0093,-0.04,0.0187,-0.0373,0*
1,1,0.001,0.0187,-0.0373*
20,1,0.001,0.0187,-0.0373,0.0267,-0.0333,0*
1,1,0.001,0.0267,-0.0333*
20,1,0.001,0.0267,-0.0333,0.0333,-0.028,0*
1,1,0.001,0.0333,-0.028*
%
%AMMACRO16*
1,1,0.001,0.043,0*
20,1,0.001,0.043,0,0.042347,-0.007467,0*
1,1,0.001,0.042347,-0.007467*
20,1,0.001,0.042347,-0.007467,0.040407,-0.014707,0*
1,1,0.001,0.040407,-0.014707*
20,1,0.001,0.040407,-0.014707,0.037239,-0.0215,0*
1,1,0.001,0.037239,-0.0215*
20,1,0.001,0.037239,-0.0215,0.03294,-0.02764,0*
1,1,0.001,0.03294,-0.02764*
20,1,0.001,0.03294,-0.02764,0.02764,-0.03294,0*
1,1,0.001,0.02764,-0.03294*
20,1,0.001,0.02764,-0.03294,0.0215,-0.037239,0*
1,1,0.001,0.0215,-0.037239*
20,1,0.001,0.0215,-0.037239,0.014707,-0.040407,0*
1,1,0.001,0.014707,-0.040407*
20,1,0.001,0.014707,-0.040407,0.007467,-0.042347,0*
1,1,0.001,0.007467,-0.042347*
20,1,0.001,0.007467,-0.042347,0,-0.043,0*
1,1,0.001,0,-0.043*
20,1,0.001,0,-0.043,-0.007467,-0.042347,0*
1,1,0.001,-0.007467,-0.042347*
20,1,0.001,-0.007467,-0.042347,-0.014707,-0.040407,0*
1,1,0.001,-0.014707,-0.040407*
20,1,0.001,-0.014707,-0.040407,-0.0215,-0.037239,0*
1,1,0.001,-0.0215,-0.037239*
20,1,0.001,-0.0215,-0.037239,-0.02764,-0.03294,0*
1,1,0.001,-0.02764,-0.03294*
20,1,0.001,-0.02764,-0.03294,-0.03294,-0.02764,0*
1,1,0.001,-0.03294,-0.02764*
20,1,0.001,-0.03294,-0.02764,-0.037239,-0.0215,0*
1,1,0.001,-0.037239,-0.0215*
20,1,0.001,-0.037239,-0.0215,-0.040407,-0.014707,0*
1,1,0.001,-0.040407,-0.014707*
20,1,0.001,-0.040407,-0.014707,-0.042347,-0.007467,0*
1,1,0.001,-0.042347,-0.007467*
20,1,0.001,-0.042347,-0.007467,-0.043,0,0*
1,1,0.001,-0.043,0*
20,1,0.001,-0.043,0,-0.042347,0.007467,0*
1,1,0.001,-0.042347,0.007467*
20,1,0.001,-0.042347,0.007467,-0.040407,0.014707,0*
1,1,0.001,-0.040407,0.014707*
20,1,0.001,-0.040407,0.014707,-0.037239,0.0215,0*
1,1,0.001,-0.037239,0.0215*
20,1,0.001,-0.037239,0.0215,-0.03294,0.02764,0*
1,1,0.001,-0.03294,0.02764*
20,1,0.001,-0.03294,0.02764,-0.02764,0.03294,0*
1,1,0.001,-0.02764,0.03294*
20,1,0.001,-0.02764,0.03294,-0.0215,0.037239,0*
1,1,0.001,-0.0215,0.037239*
20,1,0.001,-0.0215,0.037239,-0.014707,0.040407,0*
1,1,0.001,-0.014707,0.040407*
20,1,0.001,-0.014707,0.040407,-0.007467,0.042347,0*
1,1,0.001,-0.007467,0.042347*
20,1,0.001,-0.007467,0.042347,0,0.043,0*
1,1,0.001,0,0.043*
20,1,0.001,0,0.043,0.007467,0.042347,0*
1,1,0.001,0.007467,0.042347*
20,1,0.001,0.007467,0.042347,0.014707,0.040407,0*
1,1,0.001,0.014707,0.040407*
20,1,0.001,0.014707,0.040407,0.0215,0.037239,0*
1,1,0.001,0.0215,0.037239*
20,1,0.001,0.0215,0.037239,0.02764,0.03294,0*
1,1,0.001,0.02764,0.03294*
20,1,0.001,0.02764,0.03294,0.03294,0.02764,0*
1,1,0.001,0.03294,0.02764*
20,1,0.001,0.03294,0.02764,0.037239,0.0215,0*
1,1,0.001,0.037239,0.0215*
20,1,0.001,0.037239,0.0215,0.040407,0.014707,0*
1,1,0.001,0.040407,0.014707*
20,1,0.001,0.040407,0.014707,0.042347,0.007467,0*
1,1,0.001,0.042347,0.007467*
20,1,0.001,0.042347,0.007467,0.043,0,0*
1,1,0.001,0.043,0*
1,1,0.001,-0.0321,-0.0175*
20,1,0.001,-0.0321,-0.0175,-0.0175,0.0175,0*
1,1,0.001,-0.0175,0.0175*
20,1,0.001,-0.0175,0.0175,-0.0029,-0.0175,0*
1,1,0.001,-0.0029,-0.0175*
1,1,0.001,-0.0082,-0.0053*
20,1,0.001,-0.0082,-0.0053,-0.0268,-0.0053,0*
1,1,0.001,-0.0268,-0.0053*
1,1,0.001,0.0281,-0.0175*
20,1,0.001,0.0281,-0.0175,0.0281,0.0058,0*
1,1,0.001,0.0281,0.0058*
1,1,0.001,0.0281,0.0018*
20,1,0.001,0.0281,0.0018,0.0258,0.0041,0*
1,1,0.001,0.0258,0.0041*
20,1,0.001,0.0258,0.0041,0.0223,0.0052,0*
1,1,0.001,0.0223,0.0052*
20,1,0.001,0.0223,0.0052,0.0182,0.0058,0*
1,1,0.001,0.0182,0.0058*
20,1,0.001,0.0182,0.0058,0.0141,0.0047,0*
1,1,0.001,0.0141,0.0047*
20,1,0.001,0.0141,0.0047,0.0106,0.0023,0*
1,1,0.001,0.0106,0.0023*
20,1,0.001,0.0106,0.0023,0.0083,-0.0012,0*
1,1,0.001,0.0083,-0.0012*
20,1,0.001,0.0083,-0.0012,0.0071,-0.0058,0*
1,1,0.001,0.0071,-0.0058*
20,1,0.001,0.0071,-0.0058,0.0083,-0.0105,0*
1,1,0.001,0.0083,-0.0105*
20,1,0.001,0.0083,-0.0105,0.0106,-0.014,0*
1,1,0.001,0.0106,-0.014*
20,1,0.001,0.0106,-0.014,0.0141,-0.0163,0*
1,1,0.001,0.0141,-0.0163*
20,1,0.001,0.0141,-0.0163,0.0182,-0.0175,0*
1,1,0.001,0.0182,-0.0175*
20,1,0.001,0.0182,-0.0175,0.0223,-0.0169,0*
1,1,0.001,0.0223,-0.0169*
20,1,0.001,0.0223,-0.0169,0.0258,-0.0152,0*
1,1,0.001,0.0258,-0.0152*
20,1,0.001,0.0258,-0.0152,0.0281,-0.0128,0*
1,1,0.001,0.0281,-0.0128*
%
%AMMACRO22*
1,1,0.001,0.04,0.04*
20,1,0.001,0.04,0.04,0.04,-0.04,0*
1,1,0.001,0.04,-0.04*
20,1,0.001,0.04,-0.04,-0.04,-0.04,0*
1,1,0.001,-0.04,-0.04*
20,1,0.001,-0.04,-0.04,-0.04,0.04,0*
1,1,0.001,-0.04,0.04*
20,1,0.001,-0.04,0.04,0.04,0.04,0*
1,1,0.001,0.04,0.04*
1,1,0.001,-0.0167,-0.02*
20,1,0.001,-0.0167,-0.02,0,0.02,0*
1,1,0.001,0,0.02*
20,1,0.001,0,0.02,0.0167,-0.02,0*
1,1,0.001,0.0167,-0.02*
1,1,0.001,0.0107,-0.006*
20,1,0.001,0.0107,-0.006,-0.0107,-0.006,0*
1,1,0.001,-0.0107,-0.006*
%
%AMMACRO27*
1,1,0.001,0.04915,0*
20,1,0.001,0.04915,0,0.048403,-0.008535,0*
1,1,0.001,0.048403,-0.008535*
20,1,0.001,0.048403,-0.008535,0.046186,-0.01681,0*
1,1,0.001,0.046186,-0.01681*
20,1,0.001,0.046186,-0.01681,0.042565,-0.024575,0*
1,1,0.001,0.042565,-0.024575*
20,1,0.001,0.042565,-0.024575,0.037651,-0.031593,0*
1,1,0.001,0.037651,-0.031593*
20,1,0.001,0.037651,-0.031593,0.031593,-0.037651,0*
1,1,0.001,0.031593,-0.037651*
20,1,0.001,0.031593,-0.037651,0.024575,-0.042565,0*
1,1,0.001,0.024575,-0.042565*
20,1,0.001,0.024575,-0.042565,0.01681,-0.046186,0*
1,1,0.001,0.01681,-0.046186*
20,1,0.001,0.01681,-0.046186,0.008535,-0.048403,0*
1,1,0.001,0.008535,-0.048403*
20,1,0.001,0.008535,-0.048403,0,-0.04915,0*
1,1,0.001,0,-0.04915*
20,1,0.001,0,-0.04915,-0.008535,-0.048403,0*
1,1,0.001,-0.008535,-0.048403*
20,1,0.001,-0.008535,-0.048403,-0.01681,-0.046186,0*
1,1,0.001,-0.01681,-0.046186*
20,1,0.001,-0.01681,-0.046186,-0.024575,-0.042565,0*
1,1,0.001,-0.024575,-0.042565*
20,1,0.001,-0.024575,-0.042565,-0.031593,-0.037651,0*
1,1,0.001,-0.031593,-0.037651*
20,1,0.001,-0.031593,-0.037651,-0.037651,-0.031593,0*
1,1,0.001,-0.037651,-0.031593*
20,1,0.001,-0.037651,-0.031593,-0.042565,-0.024575,0*
1,1,0.001,-0.042565,-0.024575*
20,1,0.001,-0.042565,-0.024575,-0.046186,-0.01681,0*
1,1,0.001,-0.046186,-0.01681*
20,1,0.001,-0.046186,-0.01681,-0.048403,-0.008535,0*
1,1,0.001,-0.048403,-0.008535*
20,1,0.001,-0.048403,-0.008535,-0.04915,0,0*
1,1,0.001,-0.04915,0*
20,1,0.001,-0.04915,0,-0.048403,0.008535,0*
1,1,0.001,-0.048403,0.008535*
20,1,0.001,-0.048403,0.008535,-0.046186,0.01681,0*
1,1,0.001,-0.046186,0.01681*
20,1,0.001,-0.046186,0.01681,-0.042565,0.024575,0*
1,1,0.001,-0.042565,0.024575*
20,1,0.001,-0.042565,0.024575,-0.037651,0.031593,0*
1,1,0.001,-0.037651,0.031593*
20,1,0.001,-0.037651,0.031593,-0.031593,0.037651,0*
1,1,0.001,-0.031593,0.037651*
20,1,0.001,-0.031593,0.037651,-0.024575,0.042565,0*
1,1,0.001,-0.024575,0.042565*
20,1,0.001,-0.024575,0.042565,-0.01681,0.046186,0*
1,1,0.001,-0.01681,0.046186*
20,1,0.001,-0.01681,0.046186,-0.008535,0.048403,0*
1,1,0.001,-0.008535,0.048403*
20,1,0.001,-0.008535,0.048403,0,0.04915,0*
1,1,0.001,0,0.04915*
20,1,0.001,0,0.04915,0.008535,0.048403,0*
1,1,0.001,0.008535,0.048403*
20,1,0.001,0.008535,0.048403,0.01681,0.046186,0*
1,1,0.001,0.01681,0.046186*
20,1,0.001,0.01681,0.046186,0.024575,0.042565,0*
1,1,0.001,0.024575,0.042565*
20,1,0.001,0.024575,0.042565,0.031593,0.037651,0*
1,1,0.001,0.031593,0.037651*
20,1,0.001,0.031593,0.037651,0.037651,0.031593,0*
1,1,0.001,0.037651,0.031593*
20,1,0.001,0.037651,0.031593,0.042565,0.024575,0*
1,1,0.001,0.042565,0.024575*
20,1,0.001,0.042565,0.024575,0.046186,0.01681,0*
1,1,0.001,0.046186,0.01681*
20,1,0.001,0.046186,0.01681,0.048403,0.008535,0*
1,1,0.001,0.048403,0.008535*
20,1,0.001,0.048403,0.008535,0.04915,0,0*
1,1,0.001,0.04915,0*
1,1,0.001,-0.0367,-0.02*
20,1,0.001,-0.0367,-0.02,-0.02,0.02,0*
1,1,0.001,-0.02,0.02*
20,1,0.001,-0.02,0.02,-0.0033,-0.02,0*
1,1,0.001,-0.0033,-0.02*
1,1,0.001,-0.0093,-0.006*
20,1,0.001,-0.0093,-0.006,-0.0307,-0.006,0*
1,1,0.001,-0.0307,-0.006*
1,1,0.001,0.0321,-0.02*
20,1,0.001,0.0321,-0.02,0.0321,0.0067,0*
1,1,0.001,0.0321,0.0067*
1,1,0.001,0.0321,0.002*
20,1,0.001,0.0321,0.002,0.0294,0.0047,0*
1,1,0.001,0.0294,0.0047*
20,1,0.001,0.0294,0.0047,0.0254,0.006,0*
1,1,0.001,0.0254,0.006*
20,1,0.001,0.0254,0.006,0.0208,0.0067,0*
1,1,0.001,0.0208,0.0067*
20,1,0.001,0.0208,0.0067,0.0161,0.0053,0*
1,1,0.001,0.0161,0.0053*
20,1,0.001,0.0161,0.0053,0.0121,0.0027,0*
1,1,0.001,0.0121,0.0027*
20,1,0.001,0.0121,0.0027,0.0094,-0.0013,0*
1,1,0.001,0.0094,-0.0013*
20,1,0.001,0.0094,-0.0013,0.0081,-0.0067,0*
1,1,0.001,0.0081,-0.0067*
20,1,0.001,0.0081,-0.0067,0.0094,-0.012,0*
1,1,0.001,0.0094,-0.012*
20,1,0.001,0.0094,-0.012,0.0121,-0.016,0*
1,1,0.001,0.0121,-0.016*
20,1,0.001,0.0121,-0.016,0.0161,-0.0187,0*
1,1,0.001,0.0161,-0.0187*
20,1,0.001,0.0161,-0.0187,0.0208,-0.02,0*
1,1,0.001,0.0208,-0.02*
20,1,0.001,0.0208,-0.02,0.0254,-0.0193,0*
1,1,0.001,0.0254,-0.0193*
20,1,0.001,0.0254,-0.0193,0.0294,-0.0173,0*
1,1,0.001,0.0294,-0.0173*
20,1,0.001,0.0294,-0.0173,0.0321,-0.0147,0*
1,1,0.001,0.0321,-0.0147*
%
%AMMACRO26*
1,1,0.001,0.02795,0*
20,1,0.001,0.02795,0,0.027525,-0.004853,0*
1,1,0.001,0.027525,-0.004853*
20,1,0.001,0.027525,-0.004853,0.026264,-0.009559,0*
1,1,0.001,0.026264,-0.009559*
20,1,0.001,0.026264,-0.009559,0.024205,-0.013975,0*
1,1,0.001,0.024205,-0.013975*
20,1,0.001,0.024205,-0.013975,0.021411,-0.017966,0*
1,1,0.001,0.021411,-0.017966*
20,1,0.001,0.021411,-0.017966,0.017966,-0.021411,0*
1,1,0.001,0.017966,-0.021411*
20,1,0.001,0.017966,-0.021411,0.013975,-0.024205,0*
1,1,0.001,0.013975,-0.024205*
20,1,0.001,0.013975,-0.024205,0.009559,-0.026264,0*
1,1,0.001,0.009559,-0.026264*
20,1,0.001,0.009559,-0.026264,0.004853,-0.027525,0*
1,1,0.001,0.004853,-0.027525*
20,1,0.001,0.004853,-0.027525,0,-0.02795,0*
1,1,0.001,0,-0.02795*
20,1,0.001,0,-0.02795,-0.004853,-0.027525,0*
1,1,0.001,-0.004853,-0.027525*
20,1,0.001,-0.004853,-0.027525,-0.009559,-0.026264,0*
1,1,0.001,-0.009559,-0.026264*
20,1,0.001,-0.009559,-0.026264,-0.013975,-0.024205,0*
1,1,0.001,-0.013975,-0.024205*
20,1,0.001,-0.013975,-0.024205,-0.017966,-0.021411,0*
1,1,0.001,-0.017966,-0.021411*
20,1,0.001,-0.017966,-0.021411,-0.021411,-0.017966,0*
1,1,0.001,-0.021411,-0.017966*
20,1,0.001,-0.021411,-0.017966,-0.024205,-0.013975,0*
1,1,0.001,-0.024205,-0.013975*
20,1,0.001,-0.024205,-0.013975,-0.026264,-0.009559,0*
1,1,0.001,-0.026264,-0.009559*
20,1,0.001,-0.026264,-0.009559,-0.027525,-0.004853,0*
1,1,0.001,-0.027525,-0.004853*
20,1,0.001,-0.027525,-0.004853,-0.02795,0,0*
1,1,0.001,-0.02795,0*
20,1,0.001,-0.02795,0,-0.027525,0.004853,0*
1,1,0.001,-0.027525,0.004853*
20,1,0.001,-0.027525,0.004853,-0.026264,0.009559,0*
1,1,0.001,-0.026264,0.009559*
20,1,0.001,-0.026264,0.009559,-0.024205,0.013975,0*
1,1,0.001,-0.024205,0.013975*
20,1,0.001,-0.024205,0.013975,-0.021411,0.017966,0*
1,1,0.001,-0.021411,0.017966*
20,1,0.001,-0.021411,0.017966,-0.017966,0.021411,0*
1,1,0.001,-0.017966,0.021411*
20,1,0.001,-0.017966,0.021411,-0.013975,0.024205,0*
1,1,0.001,-0.013975,0.024205*
20,1,0.001,-0.013975,0.024205,-0.009559,0.026264,0*
1,1,0.001,-0.009559,0.026264*
20,1,0.001,-0.009559,0.026264,-0.004853,0.027525,0*
1,1,0.001,-0.004853,0.027525*
20,1,0.001,-0.004853,0.027525,0,0.02795,0*
1,1,0.001,0,0.02795*
20,1,0.001,0,0.02795,0.004853,0.027525,0*
1,1,0.001,0.004853,0.027525*
20,1,0.001,0.004853,0.027525,0.009559,0.026264,0*
1,1,0.001,0.009559,0.026264*
20,1,0.001,0.009559,0.026264,0.013975,0.024205,0*
1,1,0.001,0.013975,0.024205*
20,1,0.001,0.013975,0.024205,0.017966,0.021411,0*
1,1,0.001,0.017966,0.021411*
20,1,0.001,0.017966,0.021411,0.021411,0.017966,0*
1,1,0.001,0.021411,0.017966*
20,1,0.001,0.021411,0.017966,0.024205,0.013975,0*
1,1,0.001,0.024205,0.013975*
20,1,0.001,0.024205,0.013975,0.026264,0.009559,0*
1,1,0.001,0.026264,0.009559*
20,1,0.001,0.026264,0.009559,0.027525,0.004853,0*
1,1,0.001,0.027525,0.004853*
20,1,0.001,0.027525,0.004853,0.02795,0,0*
1,1,0.001,0.02795,0*
1,1,0.001,0.0038,0.001*
20,1,0.001,0.0038,0.001,0.0056,0.0024,0*
1,1,0.001,0.0056,0.0024*
20,1,0.001,0.0056,0.0024,0.007,0.0047,0*
1,1,0.001,0.007,0.0047*
20,1,0.001,0.007,0.0047,0.008,0.008,0*
1,1,0.001,0.008,0.008*
20,1,0.001,0.008,0.008,0.007,0.0107,0*
1,1,0.001,0.007,0.0107*
20,1,0.001,0.007,0.0107,0.0052,0.0126,0*
1,1,0.001,0.0052,0.0126*
20,1,0.001,0.0052,0.0126,0.0019,0.014,0*
1,1,0.001,0.0019,0.014*
20,1,0.001,0.0019,0.014,-0.0106,0.014,0*
1,1,0.001,-0.0106,0.014*
20,1,0.001,-0.0106,0.014,-0.0106,-0.0139,0*
1,1,0.001,-0.0106,-0.0139*
20,1,0.001,-0.0106,-0.0139,0.0047,-0.0139,0*
1,1,0.001,0.0047,-0.0139*
20,1,0.001,0.0047,-0.0139,0.008,-0.012,0*
1,1,0.001,0.008,-0.012*
20,1,0.001,0.008,-0.012,0.0098,-0.0093,0*
1,1,0.001,0.0098,-0.0093*
20,1,0.001,0.0098,-0.0093,0.0107,-0.006,0*
1,1,0.001,0.0107,-0.006*
20,1,0.001,0.0107,-0.006,0.0098,-0.0027,0*
1,1,0.001,0.0098,-0.0027*
20,1,0.001,0.0098,-0.0027,0.007,0,0*
1,1,0.001,0.007,0*
20,1,0.001,0.007,0,0.0038,0.001,0*
1,1,0.001,0.0038,0.001*
20,1,0.001,0.0038,0.001,-0.0106,0.001,0*
1,1,0.001,-0.0106,0.001*
%
%AMMACRO15*
1,1,0.001,0.03,0*
20,1,0.001,0.03,0,0.029544,-0.005209,0*
1,1,0.001,0.029544,-0.005209*
20,1,0.001,0.029544,-0.005209,0.028191,-0.010261,0*
1,1,0.001,0.028191,-0.010261*
20,1,0.001,0.028191,-0.010261,0.025981,-0.015,0*
1,1,0.001,0.025981,-0.015*
20,1,0.001,0.025981,-0.015,0.022981,-0.019284,0*
1,1,0.001,0.022981,-0.019284*
20,1,0.001,0.022981,-0.019284,0.019284,-0.022981,0*
1,1,0.001,0.019284,-0.022981*
20,1,0.001,0.019284,-0.022981,0.015,-0.025981,0*
1,1,0.001,0.015,-0.025981*
20,1,0.001,0.015,-0.025981,0.010261,-0.028191,0*
1,1,0.001,0.010261,-0.028191*
20,1,0.001,0.010261,-0.028191,0.005209,-0.029544,0*
1,1,0.001,0.005209,-0.029544*
20,1,0.001,0.005209,-0.029544,0,-0.03,0*
1,1,0.001,0,-0.03*
20,1,0.001,0,-0.03,-0.005209,-0.029544,0*
1,1,0.001,-0.005209,-0.029544*
20,1,0.001,-0.005209,-0.029544,-0.010261,-0.028191,0*
1,1,0.001,-0.010261,-0.028191*
20,1,0.001,-0.010261,-0.028191,-0.015,-0.025981,0*
1,1,0.001,-0.015,-0.025981*
20,1,0.001,-0.015,-0.025981,-0.019284,-0.022981,0*
1,1,0.001,-0.019284,-0.022981*
20,1,0.001,-0.019284,-0.022981,-0.022981,-0.019284,0*
1,1,0.001,-0.022981,-0.019284*
20,1,0.001,-0.022981,-0.019284,-0.025981,-0.015,0*
1,1,0.001,-0.025981,-0.015*
20,1,0.001,-0.025981,-0.015,-0.028191,-0.010261,0*
1,1,0.001,-0.028191,-0.010261*
20,1,0.001,-0.028191,-0.010261,-0.029544,-0.005209,0*
1,1,0.001,-0.029544,-0.005209*
20,1,0.001,-0.029544,-0.005209,-0.03,0,0*
1,1,0.001,-0.03,0*
20,1,0.001,-0.03,0,-0.029544,0.005209,0*
1,1,0.001,-0.029544,0.005209*
20,1,0.001,-0.029544,0.005209,-0.028191,0.010261,0*
1,1,0.001,-0.028191,0.010261*
20,1,0.001,-0.028191,0.010261,-0.025981,0.015,0*
1,1,0.001,-0.025981,0.015*
20,1,0.001,-0.025981,0.015,-0.022981,0.019284,0*
1,1,0.001,-0.022981,0.019284*
20,1,0.001,-0.022981,0.019284,-0.019284,0.022981,0*
1,1,0.001,-0.019284,0.022981*
20,1,0.001,-0.019284,0.022981,-0.015,0.025981,0*
1,1,0.001,-0.015,0.025981*
20,1,0.001,-0.015,0.025981,-0.010261,0.028191,0*
1,1,0.001,-0.010261,0.028191*
20,1,0.001,-0.010261,0.028191,-0.005209,0.029544,0*
1,1,0.001,-0.005209,0.029544*
20,1,0.001,-0.005209,0.029544,0,0.03,0*
1,1,0.001,0,0.03*
20,1,0.001,0,0.03,0.005209,0.029544,0*
1,1,0.001,0.005209,0.029544*
20,1,0.001,0.005209,0.029544,0.010261,0.028191,0*
1,1,0.001,0.010261,0.028191*
20,1,0.001,0.010261,0.028191,0.015,0.025981,0*
1,1,0.001,0.015,0.025981*
20,1,0.001,0.015,0.025981,0.019284,0.022981,0*
1,1,0.001,0.019284,0.022981*
20,1,0.001,0.019284,0.022981,0.022981,0.019284,0*
1,1,0.001,0.022981,0.019284*
20,1,0.001,0.022981,0.019284,0.025981,0.015,0*
1,1,0.001,0.025981,0.015*
20,1,0.001,0.025981,0.015,0.028191,0.010261,0*
1,1,0.001,0.028191,0.010261*
20,1,0.001,0.028191,0.010261,0.029544,0.005209,0*
1,1,0.001,0.029544,0.005209*
20,1,0.001,0.029544,0.005209,0.03,0,0*
1,1,0.001,0.03,0*
1,1,0.001,0.009,-0.015*
20,1,0.001,0.009,-0.015,0.009,0.005,0*
1,1,0.001,0.009,0.005*
1,1,0.001,0.009,0.0015*
20,1,0.001,0.009,0.0015,0.007,0.0035,0*
1,1,0.001,0.007,0.0035*
20,1,0.001,0.007,0.0035,0.004,0.0045,0*
1,1,0.001,0.004,0.0045*
20,1,0.001,0.004,0.0045,0.0005,0.005,0*
1,1,0.001,0.0005,0.005*
20,1,0.001,0.0005,0.005,-0.003,0.004,0*
1,1,0.001,-0.003,0.004*
20,1,0.001,-0.003,0.004,-0.006,0.002,0*
1,1,0.001,-0.006,0.002*
20,1,0.001,-0.006,0.002,-0.008,-0.001,0*
1,1,0.001,-0.008,-0.001*
20,1,0.001,-0.008,-0.001,-0.009,-0.005,0*
1,1,0.001,-0.009,-0.005*
20,1,0.001,-0.009,-0.005,-0.008,-0.009,0*
1,1,0.001,-0.008,-0.009*
20,1,0.001,-0.008,-0.009,-0.006,-0.012,0*
1,1,0.001,-0.006,-0.012*
20,1,0.001,-0.006,-0.012,-0.003,-0.014,0*
1,1,0.001,-0.003,-0.014*
20,1,0.001,-0.003,-0.014,0.0005,-0.015,0*
1,1,0.001,0.0005,-0.015*
20,1,0.001,0.0005,-0.015,0.004,-0.0145,0*
1,1,0.001,0.004,-0.0145*
20,1,0.001,0.004,-0.0145,0.007,-0.013,0*
1,1,0.001,0.007,-0.013*
20,1,0.001,0.007,-0.013,0.009,-0.011,0*
1,1,0.001,0.009,-0.011*
%
%AMMACRO24*
1,1,0.001,0.04,0*
20,1,0.001,0.04,0,0.039392,-0.006946,0*
1,1,0.001,0.039392,-0.006946*
20,1,0.001,0.039392,-0.006946,0.037588,-0.013681,0*
1,1,0.001,0.037588,-0.013681*
20,1,0.001,0.037588,-0.013681,0.034641,-0.02,0*
1,1,0.001,0.034641,-0.02*
20,1,0.001,0.034641,-0.02,0.030642,-0.025712,0*
1,1,0.001,0.030642,-0.025712*
20,1,0.001,0.030642,-0.025712,0.025712,-0.030642,0*
1,1,0.001,0.025712,-0.030642*
20,1,0.001,0.025712,-0.030642,0.02,-0.034641,0*
1,1,0.001,0.02,-0.034641*
20,1,0.001,0.02,-0.034641,0.013681,-0.037588,0*
1,1,0.001,0.013681,-0.037588*
20,1,0.001,0.013681,-0.037588,0.006946,-0.039392,0*
1,1,0.001,0.006946,-0.039392*
20,1,0.001,0.006946,-0.039392,0,-0.04,0*
1,1,0.001,0,-0.04*
20,1,0.001,0,-0.04,-0.006946,-0.039392,0*
1,1,0.001,-0.006946,-0.039392*
20,1,0.001,-0.006946,-0.039392,-0.013681,-0.037588,0*
1,1,0.001,-0.013681,-0.037588*
20,1,0.001,-0.013681,-0.037588,-0.02,-0.034641,0*
1,1,0.001,-0.02,-0.034641*
20,1,0.001,-0.02,-0.034641,-0.025712,-0.030642,0*
1,1,0.001,-0.025712,-0.030642*
20,1,0.001,-0.025712,-0.030642,-0.030642,-0.025712,0*
1,1,0.001,-0.030642,-0.025712*
20,1,0.001,-0.030642,-0.025712,-0.034641,-0.02,0*
1,1,0.001,-0.034641,-0.02*
20,1,0.001,-0.034641,-0.02,-0.037588,-0.013681,0*
1,1,0.001,-0.037588,-0.013681*
20,1,0.001,-0.037588,-0.013681,-0.039392,-0.006946,0*
1,1,0.001,-0.039392,-0.006946*
20,1,0.001,-0.039392,-0.006946,-0.04,0,0*
1,1,0.001,-0.04,0*
20,1,0.001,-0.04,0,-0.039392,0.006946,0*
1,1,0.001,-0.039392,0.006946*
20,1,0.001,-0.039392,0.006946,-0.037588,0.013681,0*
1,1,0.001,-0.037588,0.013681*
20,1,0.001,-0.037588,0.013681,-0.034641,0.02,0*
1,1,0.001,-0.034641,0.02*
20,1,0.001,-0.034641,0.02,-0.030642,0.025712,0*
1,1,0.001,-0.030642,0.025712*
20,1,0.001,-0.030642,0.025712,-0.025712,0.030642,0*
1,1,0.001,-0.025712,0.030642*
20,1,0.001,-0.025712,0.030642,-0.02,0.034641,0*
1,1,0.001,-0.02,0.034641*
20,1,0.001,-0.02,0.034641,-0.013681,0.037588,0*
1,1,0.001,-0.013681,0.037588*
20,1,0.001,-0.013681,0.037588,-0.006946,0.039392,0*
1,1,0.001,-0.006946,0.039392*
20,1,0.001,-0.006946,0.039392,0,0.04,0*
1,1,0.001,0,0.04*
20,1,0.001,0,0.04,0.006946,0.039392,0*
1,1,0.001,0.006946,0.039392*
20,1,0.001,0.006946,0.039392,0.013681,0.037588,0*
1,1,0.001,0.013681,0.037588*
20,1,0.001,0.013681,0.037588,0.02,0.034641,0*
1,1,0.001,0.02,0.034641*
20,1,0.001,0.02,0.034641,0.025712,0.030642,0*
1,1,0.001,0.025712,0.030642*
20,1,0.001,0.025712,0.030642,0.030642,0.025712,0*
1,1,0.001,0.030642,0.025712*
20,1,0.001,0.030642,0.025712,0.034641,0.02,0*
1,1,0.001,0.034641,0.02*
20,1,0.001,0.034641,0.02,0.037588,0.013681,0*
1,1,0.001,0.037588,0.013681*
20,1,0.001,0.037588,0.013681,0.039392,0.006946,0*
1,1,0.001,0.039392,0.006946*
20,1,0.001,0.039392,0.006946,0.04,0,0*
1,1,0.001,0.04,0*
1,1,0.001,0.012,-0.02*
20,1,0.001,0.012,-0.02,0.012,0.0067,0*
1,1,0.001,0.012,0.0067*
1,1,0.001,0.012,0.002*
20,1,0.001,0.012,0.002,0.0093,0.0047,0*
1,1,0.001,0.0093,0.0047*
20,1,0.001,0.0093,0.0047,0.0053,0.006,0*
1,1,0.001,0.0053,0.006*
20,1,0.001,0.0053,0.006,0.0007,0.0067,0*
1,1,0.001,0.0007,0.0067*
20,1,0.001,0.0007,0.0067,-0.004,0.0053,0*
1,1,0.001,-0.004,0.0053*
20,1,0.001,-0.004,0.0053,-0.008,0.0027,0*
1,1,0.001,-0.008,0.0027*
20,1,0.001,-0.008,0.0027,-0.0107,-0.0013,0*
1,1,0.001,-0.0107,-0.0013*
20,1,0.001,-0.0107,-0.0013,-0.012,-0.0067,0*
1,1,0.001,-0.012,-0.0067*
20,1,0.001,-0.012,-0.0067,-0.0107,-0.012,0*
1,1,0.001,-0.0107,-0.012*
20,1,0.001,-0.0107,-0.012,-0.008,-0.016,0*
1,1,0.001,-0.008,-0.016*
20,1,0.001,-0.008,-0.016,-0.004,-0.0187,0*
1,1,0.001,-0.004,-0.0187*
20,1,0.001,-0.004,-0.0187,0.0007,-0.02,0*
1,1,0.001,0.0007,-0.02*
20,1,0.001,0.0007,-0.02,0.0053,-0.0193,0*
1,1,0.001,0.0053,-0.0193*
20,1,0.001,0.0053,-0.0193,0.0093,-0.0173,0*
1,1,0.001,0.0093,-0.0173*
20,1,0.001,0.0093,-0.0173,0.012,-0.0147,0*
1,1,0.001,0.012,-0.0147*
%
%AMMACRO17*
1,1,0.001,-0.022,-0.03*
20,1,0.001,-0.022,-0.03,-0.022,0.03,0*
1,1,0.001,-0.022,0.03*
20,1,0.001,-0.022,0.03,-0.002,0.03,0*
1,1,0.001,-0.002,0.03*
20,1,0.001,-0.002,0.03,0.006,0.027,0*
1,1,0.001,0.006,0.027*
20,1,0.001,0.006,0.027,0.012,0.023,0*
1,1,0.001,0.012,0.023*
20,1,0.001,0.012,0.023,0.017,0.017,0*
1,1,0.001,0.017,0.017*
20,1,0.001,0.017,0.017,0.021,0.01,0*
1,1,0.001,0.021,0.01*
20,1,0.001,0.021,0.01,0.022,0,0*
1,1,0.001,0.022,0*
20,1,0.001,0.022,0,0.021,-0.01,0*
1,1,0.001,0.021,-0.01*
20,1,0.001,0.021,-0.01,0.017,-0.017,0*
1,1,0.001,0.017,-0.017*
20,1,0.001,0.017,-0.017,0.012,-0.023,0*
1,1,0.001,0.012,-0.023*
20,1,0.001,0.012,-0.023,0.006,-0.027,0*
1,1,0.001,0.006,-0.027*
20,1,0.001,0.006,-0.027,-0.002,-0.03,0*
1,1,0.001,-0.002,-0.03*
20,1,0.001,-0.002,-0.03,-0.022,-0.03,0*
1,1,0.001,-0.022,-0.03*
%
%AD*%
%ADD20C,0.005*%
%ADD21C,0.05*%
%ADD68C,0.001*%
%ADD69MACRO13*%
%ADD70MACRO12*%
%ADD71MACRO25*%
%ADD72MACRO20*%
%ADD73MACRO21*%
%ADD74MACRO11*%
%ADD75MACRO10*%
%ADD76MACRO23*%
%ADD77MACRO18*%
%ADD78MACRO14*%
%ADD79MACRO19*%
%ADD80MACRO16*%
%ADD81MACRO22*%
%ADD82MACRO27*%
%ADD83MACRO26*%
%ADD84MACRO15*%
%ADD85MACRO24*%
%ADD86MACRO17*%
G54D75*
%SRX1Y1I0.0J0.0*%
G1X1110000Y490000D3*
G1X1110000Y871000D3*
G1X1400000Y490000D3*
G1X1400000Y870000D3*
G54D74*
G1X1115500Y561000D3*
G1X1115500Y600370D3*
G1X1115500Y580690D3*
G1X1115500Y654190D3*
G1X1115500Y634500D3*
G1X1115500Y673870D3*
G1X1115500Y709000D3*
G1X1115500Y748370D3*
G1X1115500Y728690D3*
G54D72*
G1X1439400Y505450D3*
G1X1097500Y497500D2*
G54D21*
G1X1097500Y477500D1*
G1X1117500Y477500D1*
G1X1097500Y497500D2*
G1X1097500Y477500D1*
G1X1117500Y477500D1*
G1X1097500Y882500D2*
G1X1097500Y862500D1*
G1X1097500Y882500D2*
G1X1097500Y862500D1*
G1X1117500Y882500D2*
G1X1097500Y882500D1*
G1X1117500Y882500D2*
G1X1097500Y882500D1*
G1X1392500Y477500D2*
G1X1412500Y477500D1*
G1X1392500Y477500D2*
G1X1412500Y477500D1*
G1X1412500Y882500D2*
G1X1392500Y882500D1*
G1X1412500Y882500D2*
G1X1392500Y882500D1*
G1X1412500Y477500D2*
G1X1412500Y497500D1*
G1X1412500Y477500D2*
G1X1412500Y497500D1*
G1X1412500Y862500D2*
G1X1412500Y882500D1*
G1X1412500Y862500D2*
G1X1412500Y882500D1*
G54D73*
G1X1439400Y494150D3*
G54D70*
G1X1135000Y572000D3*
G1X1130000Y642000D3*
G1X1125000Y717500D3*
G1X1193500Y649800D3*
G1X1226500Y547000D3*
G1X1207000Y667000D3*
G1X1249600Y771400D3*
G1X1255100Y789200D3*
G1X1263500Y551000D3*
G1X1278500Y602500D3*
G1X1291600Y622100D3*
G1X1270800Y640400D3*
G1X1287800Y639800D3*
G1X1276500Y711500D3*
G1X1284700Y835600D3*
G1X1285200Y842100D3*
G1X1315500Y556000D3*
G1X1298500Y602500D3*
G1X1300200Y613500D3*
G1X1319000Y617200D3*
G1X1294400Y641600D3*
G1X1302500Y679600D3*
G1X1300600Y688600D3*
G1X1318900Y673200D3*
G1X1299500Y713500D3*
G1X1320500Y702700D3*
G1X1313600Y695840D3*
G1X1302800Y751300D3*
G1X1339200Y617300D3*
G1X1338900Y653000D3*
G1X1325500Y652900D3*
G1X1330800Y679800D3*
G1X1331000Y723800D3*
G1X1335430Y802400D3*
G1X1331720Y838100D3*
G1X1354000Y762500D3*
G1X1371100Y762500D3*
G1X1392000Y743800D3*
G1X1395600Y776100D3*
G1X1395600Y759800D3*
G1X1391600Y818000D3*
G54D81*
G1X1439400Y539350D3*
G54D69*
G1X1171740Y493530D3*
G1X1171740Y521090D3*
G1X1211740Y493530D3*
G1X1211740Y521090D3*
G1X1248240Y493530D3*
G1X1248240Y521090D3*
G1X1286740Y493530D3*
G1X1286740Y521090D3*
G1X1325740Y493030D3*
G1X1325740Y520590D3*
G54D78*
G1X1149500Y801700D3*
G54D76*
G1X1439400Y528050D3*
G54D85*
G1X1439400Y516750D3*
G54D84*
G1X1149500Y861700D3*
G54D80*
G1X1172700Y861700D3*
G1X1188300Y861700D3*
G1X1383800Y710800D3*
G1X1383800Y726400D3*
G1X1387000Y629100D3*
G1X1387000Y613500D3*
G1X1386700Y662100D3*
G1X1387000Y644700D3*
G1X1386700Y693300D3*
G1X1386700Y677700D3*
G54D71*
G1X1439400Y573250D3*
G54D86*
G1X1260850Y854640D3*
G1X1359280Y854640D3*
G54D83*
G1X1439400Y561950D3*
G54D82*
G1X1439400Y550650D3*
G54D77*
G1X1278570Y854640D3*
G1X1341560Y854640D3*
G1X1045670Y470800D2*
G54D20*
G1X1045670Y478300D1*
G1X1048100Y472050D1*
G1X1050530Y478300D1*
G1X1050530Y470800D1*
G1X1057470Y470800D2*
G1X1053730Y470800D1*
G1X1053730Y478300D1*
G1X1057470Y478300D1*
G1X1055970Y474680D2*
G1X1053730Y474680D1*
G1X1065150Y477670D2*
G1X1064590Y478050D1*
G1X1063940Y478300D1*
G1X1063190Y478300D1*
G1X1062350Y477920D1*
G1X1061700Y477300D1*
G1X1061230Y476550D1*
G1X1060860Y475300D1*
G1X1060770Y474170D1*
G1X1060950Y473050D1*
G1X1061230Y472300D1*
G1X1061790Y471550D1*
G1X1062450Y471050D1*
G1X1063100Y470800D1*
G1X1063750Y470800D1*
G1X1064410Y471050D1*
G1X1064970Y471420D1*
G1X1065430Y471920D1*
G1X1068640Y470800D2*
G1X1068640Y478300D1*
G1X1072560Y478300D2*
G1X1072560Y470800D1*
G1X1072560Y474550D2*
G1X1068640Y474550D1*
G1X1425450Y582700D2*
G1X1425450Y587700D1*
G1X1427850Y587700D1*
G1X1426970Y585280D2*
G1X1425450Y585280D1*
G1X1430990Y587700D2*
G1X1432510Y587700D1*
G1X1431750Y587700D2*
G1X1431750Y582700D1*
G1X1430990Y582700D2*
G1X1432510Y582700D1*
G1X1437230Y585200D2*
G1X1438500Y585200D1*
G1X1438500Y583700D1*
G1X1438120Y583200D1*
G1X1437670Y582870D1*
G1X1437040Y582700D1*
G1X1436410Y582870D1*
G1X1435960Y583200D1*
G1X1435580Y583700D1*
G1X1435330Y584280D1*
G1X1435200Y584950D1*
G1X1435200Y585530D1*
G1X1435330Y586030D1*
G1X1435580Y586620D1*
G1X1435960Y587120D1*
G1X1436340Y587450D1*
G1X1436850Y587700D1*
G1X1437290Y587700D1*
G1X1437800Y587530D1*
G1X1438180Y587200D1*
G1X1440560Y587700D2*
G1X1440560Y584120D1*
G1X1440810Y583370D1*
G1X1441320Y582870D1*
G1X1441950Y582700D1*
G1X1442580Y582870D1*
G1X1443090Y583370D1*
G1X1443340Y584120D1*
G1X1443340Y587700D1*
G1X1445780Y582700D2*
G1X1445780Y587700D1*
G1X1447370Y587700D1*
G1X1447870Y587450D1*
G1X1448190Y587120D1*
G1X1448320Y586450D1*
G1X1448190Y585780D1*
G1X1447810Y585370D1*
G1X1447370Y585120D1*
G1X1445780Y585120D1*
G1X1447370Y585120D2*
G1X1448320Y582700D1*
G1X1453420Y582700D2*
G1X1450880Y582700D1*
G1X1450880Y587700D1*
G1X1453420Y587700D1*
G1X1452400Y585280D2*
G1X1450880Y585280D1*
G1X1467820Y594000D2*
G1X1469400Y599000D1*
G1X1470980Y594000D1*
G1X1470410Y595750D2*
G1X1468390Y595750D1*
G1X1473230Y599000D2*
G1X1473230Y594000D1*
G1X1475770Y594000D1*
G1X1478330Y599000D2*
G1X1478330Y594000D1*
G1X1480870Y594000D1*
G1X1488410Y599000D2*
G1X1488410Y595420D1*
G1X1488660Y594670D1*
G1X1489170Y594170D1*
G1X1489800Y594000D1*
G1X1490430Y594170D1*
G1X1490940Y594670D1*
G1X1491190Y595420D1*
G1X1491190Y599000D1*
G1X1493440Y594000D2*
G1X1493440Y599000D1*
G1X1496360Y594000D1*
G1X1496360Y599000D1*
G1X1499240Y599000D2*
G1X1500760Y599000D1*
G1X1500000Y599000D2*
G1X1500000Y594000D1*
G1X1499240Y594000D2*
G1X1500760Y594000D1*
G1X1505100Y599000D2*
G1X1505100Y594000D1*
G1X1503640Y599000D2*
G1X1506560Y599000D1*
G1X1508870Y594670D2*
G1X1509380Y594250D1*
G1X1509950Y594000D1*
G1X1510450Y594000D1*
G1X1510960Y594250D1*
G1X1511340Y594670D1*
G1X1511530Y595250D1*
G1X1511400Y595830D1*
G1X1511090Y596330D1*
G1X1510520Y596670D1*
G1X1509760Y596830D1*
G1X1509310Y597170D1*
G1X1509120Y597750D1*
G1X1509250Y598330D1*
G1X1509570Y598750D1*
G1X1510010Y599000D1*
G1X1510450Y599000D1*
G1X1510900Y598830D1*
G1X1511280Y598420D1*
G1X1518820Y594000D2*
G1X1520400Y599000D1*
G1X1521980Y594000D1*
G1X1521410Y595750D2*
G1X1519390Y595750D1*
G1X1524230Y594000D2*
G1X1524230Y599000D1*
G1X1525820Y599000D1*
G1X1526320Y598750D1*
G1X1526640Y598420D1*
G1X1526770Y597750D1*
G1X1526640Y597080D1*
G1X1526260Y596670D1*
G1X1525820Y596420D1*
G1X1524230Y596420D1*
G1X1525820Y596420D2*
G1X1526770Y594000D1*
G1X1531870Y594000D2*
G1X1529330Y594000D1*
G1X1529330Y599000D1*
G1X1531870Y599000D1*
G1X1530850Y596580D2*
G1X1529330Y596580D1*
G1X1540040Y599000D2*
G1X1541560Y599000D1*
G1X1540800Y599000D2*
G1X1540800Y594000D1*
G1X1540040Y594000D2*
G1X1541560Y594000D1*
G1X1544440Y594000D2*
G1X1544440Y599000D1*
G1X1547360Y594000D1*
G1X1547360Y599000D1*
G1X1554450Y594000D2*
G1X1554450Y599000D1*
G1X1556100Y594830D1*
G1X1557750Y599000D1*
G1X1557750Y594000D1*
G1X1560440Y599000D2*
G1X1561960Y599000D1*
G1X1561200Y599000D2*
G1X1561200Y594000D1*
G1X1560440Y594000D2*
G1X1561960Y594000D1*
G1X1565030Y599000D2*
G1X1565030Y594000D1*
G1X1567570Y594000D1*
G1X1570070Y594670D2*
G1X1570580Y594250D1*
G1X1571150Y594000D1*
G1X1571650Y594000D1*
G1X1572160Y594250D1*
G1X1572540Y594670D1*
G1X1572730Y595250D1*
G1X1572600Y595830D1*
G1X1572290Y596330D1*
G1X1571720Y596670D1*
G1X1570960Y596830D1*
G1X1570510Y597170D1*
G1X1570320Y597750D1*
G1X1570450Y598330D1*
G1X1570770Y598750D1*
G1X1571210Y599000D1*
G1X1571650Y599000D1*
G1X1572100Y598830D1*
G1X1572480Y598420D1*
G1X1455260Y619000D2*
G1X1455260Y624000D1*
G1X1456520Y624000D1*
G1X1457030Y623750D1*
G1X1457410Y623420D1*
G1X1457730Y622920D1*
G1X1457980Y622330D1*
G1X1458040Y621500D1*
G1X1457980Y620670D1*
G1X1457730Y620080D1*
G1X1457410Y619580D1*
G1X1457030Y619250D1*
G1X1456520Y619000D1*
G1X1455260Y619000D1*
G1X1460480Y619000D2*
G1X1460480Y624000D1*
G1X1462070Y624000D1*
G1X1462570Y623750D1*
G1X1462890Y623420D1*
G1X1463020Y622750D1*
G1X1462890Y622080D1*
G1X1462510Y621670D1*
G1X1462070Y621420D1*
G1X1460480Y621420D1*
G1X1462070Y621420D2*
G1X1463020Y619000D1*
G1X1466090Y624000D2*
G1X1467610Y624000D1*
G1X1466850Y624000D2*
G1X1466850Y619000D1*
G1X1466090Y619000D2*
G1X1467610Y619000D1*
G1X1470680Y624000D2*
G1X1470680Y619000D1*
G1X1473220Y619000D1*
G1X1475780Y624000D2*
G1X1475780Y619000D1*
G1X1478320Y619000D1*
G1X1488640Y623580D2*
G1X1488260Y623830D1*
G1X1487820Y624000D1*
G1X1487310Y624000D1*
G1X1486740Y623750D1*
G1X1486300Y623330D1*
G1X1485980Y622830D1*
G1X1485730Y622000D1*
G1X1485670Y621250D1*
G1X1485790Y620500D1*
G1X1485980Y620000D1*
G1X1486360Y619500D1*
G1X1486810Y619170D1*
G1X1487250Y619000D1*
G1X1487690Y619000D1*
G1X1488140Y619170D1*
G1X1488520Y619420D1*
G1X1488830Y619750D1*
G1X1491020Y619000D2*
G1X1491020Y624000D1*
G1X1493680Y624000D2*
G1X1493680Y619000D1*
G1X1493680Y621500D2*
G1X1491020Y621500D1*
G1X1495870Y619000D2*
G1X1497450Y624000D1*
G1X1499030Y619000D1*
G1X1498460Y620750D2*
G1X1496440Y620750D1*
G1X1501280Y619000D2*
G1X1501280Y624000D1*
G1X1502870Y624000D1*
G1X1503370Y623750D1*
G1X1503690Y623420D1*
G1X1503820Y622750D1*
G1X1503690Y622080D1*
G1X1503310Y621670D1*
G1X1502870Y621420D1*
G1X1501280Y621420D1*
G1X1502870Y621420D2*
G1X1503820Y619000D1*
G1X1507650Y624000D2*
G1X1507650Y619000D1*
G1X1506190Y624000D2*
G1X1509110Y624000D1*
G1X1512750Y618830D2*
G1X1512620Y618920D1*
G1X1512620Y619080D1*
G1X1512750Y619170D1*
G1X1512880Y619080D1*
G1X1512880Y618920D1*
G1X1512750Y618830D1*
G1X1512750Y621080D2*
G1X1512620Y621170D1*
G1X1512620Y621330D1*
G1X1512750Y621420D1*
G1X1512880Y621330D1*
G1X1512880Y621170D1*
G1X1512750Y621080D1*
G1X1522950Y624000D2*
G1X1522950Y619000D1*
G1X1521490Y624000D2*
G1X1524410Y624000D1*
G1X1528050Y619000D2*
G1X1527540Y619080D1*
G1X1527100Y619420D1*
G1X1526720Y619920D1*
G1X1526470Y620500D1*
G1X1526340Y621170D1*
G1X1526340Y621830D1*
G1X1526470Y622500D1*
G1X1526720Y623080D1*
G1X1527100Y623580D1*
G1X1527540Y623920D1*
G1X1528050Y624000D1*
G1X1528560Y623920D1*
G1X1529000Y623580D1*
G1X1529380Y623080D1*
G1X1529630Y622500D1*
G1X1529760Y621830D1*
G1X1529760Y621170D1*
G1X1529630Y620500D1*
G1X1529380Y619920D1*
G1X1529000Y619420D1*
G1X1528560Y619080D1*
G1X1528050Y619000D1*
G1X1531880Y619000D2*
G1X1531880Y624000D1*
G1X1533400Y624000D1*
G1X1533910Y623750D1*
G1X1534290Y623170D1*
G1X1534420Y622500D1*
G1X1534290Y621830D1*
G1X1533970Y621330D1*
G1X1533400Y621080D1*
G1X1531880Y621080D1*
G1X1543350Y624000D2*
G1X1543350Y619000D1*
G1X1542460Y622330D2*
G1X1544240Y622330D1*
G1X1548450Y619000D2*
G1X1548070Y619080D1*
G1X1547690Y619420D1*
G1X1547440Y620000D1*
G1X1547310Y620670D1*
G1X1547440Y621330D1*
G1X1547690Y621920D1*
G1X1548070Y622250D1*
G1X1548450Y622330D1*
G1X1548830Y622250D1*
G1X1549210Y621920D1*
G1X1549460Y621330D1*
G1X1549530Y620670D1*
G1X1549460Y620000D1*
G1X1549210Y619420D1*
G1X1548830Y619080D1*
G1X1548450Y619000D1*
G1X1559160Y621670D2*
G1X1559410Y621920D1*
G1X1559600Y622330D1*
G1X1559730Y622920D1*
G1X1559600Y623420D1*
G1X1559350Y623750D1*
G1X1558900Y624000D1*
G1X1557190Y624000D1*
G1X1557190Y619000D1*
G1X1559280Y619000D1*
G1X1559730Y619330D1*
G1X1559980Y619830D1*
G1X1560110Y620420D1*
G1X1559980Y621000D1*
G1X1559600Y621500D1*
G1X1559160Y621670D1*
G1X1557190Y621670D1*
G1X1563750Y619000D2*
G1X1563240Y619080D1*
G1X1562800Y619420D1*
G1X1562420Y619920D1*
G1X1562170Y620500D1*
G1X1562040Y621170D1*
G1X1562040Y621830D1*
G1X1562170Y622500D1*
G1X1562420Y623080D1*
G1X1562800Y623580D1*
G1X1563240Y623920D1*
G1X1563750Y624000D1*
G1X1564260Y623920D1*
G1X1564700Y623580D1*
G1X1565080Y623080D1*
G1X1565330Y622500D1*
G1X1565460Y621830D1*
G1X1565460Y621170D1*
G1X1565330Y620500D1*
G1X1565080Y619920D1*
G1X1564700Y619420D1*
G1X1564260Y619080D1*
G1X1563750Y619000D1*
G1X1568850Y624000D2*
G1X1568850Y619000D1*
G1X1567390Y624000D2*
G1X1570310Y624000D1*
G1X1573950Y624000D2*
G1X1573950Y619000D1*
G1X1572490Y624000D2*
G1X1575410Y624000D1*
G1X1579050Y619000D2*
G1X1578540Y619080D1*
G1X1578100Y619420D1*
G1X1577720Y619920D1*
G1X1577470Y620500D1*
G1X1577340Y621170D1*
G1X1577340Y621830D1*
G1X1577470Y622500D1*
G1X1577720Y623080D1*
G1X1578100Y623580D1*
G1X1578540Y623920D1*
G1X1579050Y624000D1*
G1X1579560Y623920D1*
G1X1580000Y623580D1*
G1X1580380Y623080D1*
G1X1580630Y622500D1*
G1X1580760Y621830D1*
G1X1580760Y621170D1*
G1X1580630Y620500D1*
G1X1580380Y619920D1*
G1X1580000Y619420D1*
G1X1579560Y619080D1*
G1X1579050Y619000D1*
G1X1582500Y619000D2*
G1X1582500Y624000D1*
G1X1584150Y619830D1*
G1X1585800Y624000D1*
G1X1585800Y619000D1*
G1X1489150Y480350D2*
G1X1489590Y480430D1*
G1X1490100Y480680D1*
G1X1490420Y481100D1*
G1X1490540Y481680D1*
G1X1490420Y482270D1*
G1X1490040Y482770D1*
G1X1489470Y483020D1*
G1X1488830Y483020D1*
G1X1488450Y483180D1*
G1X1488140Y483600D1*
G1X1488010Y484180D1*
G1X1488200Y484770D1*
G1X1488640Y485180D1*
G1X1489150Y485350D1*
G1X1489660Y485180D1*
G1X1490100Y484770D1*
G1X1490290Y484180D1*
G1X1490160Y483600D1*
G1X1489850Y483180D1*
G1X1489470Y483020D1*
G1X1488830Y483020D1*
G1X1488260Y482770D1*
G1X1487880Y482270D1*
G1X1487760Y481680D1*
G1X1487880Y481100D1*
G1X1488200Y480680D1*
G1X1488710Y480430D1*
G1X1489150Y480350D1*
G1X1493050Y482430D2*
G1X1493490Y483020D1*
G1X1493870Y483350D1*
G1X1494380Y483520D1*
G1X1494820Y483350D1*
G1X1495140Y483020D1*
G1X1495390Y482520D1*
G1X1495450Y481930D1*
G1X1495390Y481430D1*
G1X1495140Y480930D1*
G1X1494760Y480520D1*
G1X1494310Y480350D1*
G1X1493810Y480520D1*
G1X1493360Y481020D1*
G1X1493110Y481770D1*
G1X1493050Y482600D1*
G1X1493170Y483680D1*
G1X1493360Y484270D1*
G1X1493680Y484850D1*
G1X1494120Y485270D1*
G1X1494570Y485350D1*
G1X1495010Y485180D1*
G1X1495330Y484770D1*
G1X1499350Y480180D2*
G1X1499220Y480270D1*
G1X1499220Y480430D1*
G1X1499350Y480520D1*
G1X1499480Y480430D1*
G1X1499480Y480270D1*
G1X1499350Y480180D1*
G1X1504450Y485350D2*
G1X1503940Y485180D1*
G1X1503560Y484770D1*
G1X1503310Y484270D1*
G1X1503120Y483600D1*
G1X1503060Y482850D1*
G1X1503120Y482100D1*
G1X1503310Y481430D1*
G1X1503560Y480930D1*
G1X1503940Y480520D1*
G1X1504450Y480350D1*
G1X1504960Y480520D1*
G1X1505340Y480930D1*
G1X1505590Y481430D1*
G1X1505780Y482100D1*
G1X1505840Y482850D1*
G1X1505780Y483600D1*
G1X1505590Y484270D1*
G1X1505340Y484770D1*
G1X1504960Y485180D1*
G1X1504450Y485350D1*
G1X1487950Y507120D2*
G1X1488330Y507620D1*
G1X1488770Y507870D1*
G1X1489280Y507950D1*
G1X1489910Y507780D1*
G1X1490350Y507370D1*
G1X1490480Y506870D1*
G1X1490420Y506370D1*
G1X1490160Y505950D1*
G1X1488900Y505120D1*
G1X1488330Y504530D1*
G1X1487950Y503700D1*
G1X1487820Y502950D1*
G1X1490480Y502950D1*
G1X1494250Y507950D2*
G1X1493740Y507780D1*
G1X1493360Y507370D1*
G1X1493110Y506870D1*
G1X1492920Y506200D1*
G1X1492860Y505450D1*
G1X1492920Y504700D1*
G1X1493110Y504030D1*
G1X1493360Y503530D1*
G1X1493740Y503120D1*
G1X1494250Y502950D1*
G1X1494760Y503120D1*
G1X1495140Y503530D1*
G1X1495390Y504030D1*
G1X1495580Y504700D1*
G1X1495640Y505450D1*
G1X1495580Y506200D1*
G1X1495390Y506870D1*
G1X1495140Y507370D1*
G1X1494760Y507780D1*
G1X1494250Y507950D1*
G1X1499350Y502780D2*
G1X1499220Y502870D1*
G1X1499220Y503030D1*
G1X1499350Y503120D1*
G1X1499480Y503030D1*
G1X1499480Y502870D1*
G1X1499350Y502780D1*
G1X1504450Y507950D2*
G1X1503940Y507780D1*
G1X1503560Y507370D1*
G1X1503310Y506870D1*
G1X1503120Y506200D1*
G1X1503060Y505450D1*
G1X1503120Y504700D1*
G1X1503310Y504030D1*
G1X1503560Y503530D1*
G1X1503940Y503120D1*
G1X1504450Y502950D1*
G1X1504960Y503120D1*
G1X1505340Y503530D1*
G1X1505590Y504030D1*
G1X1505780Y504700D1*
G1X1505840Y505450D1*
G1X1505780Y506200D1*
G1X1505590Y506870D1*
G1X1505340Y507370D1*
G1X1504960Y507780D1*
G1X1504450Y507950D1*
G1X1486600Y491650D2*
G1X1486600Y496650D1*
G1X1485840Y495650D1*
G1X1485840Y491650D2*
G1X1487360Y491650D1*
G1X1490500Y495820D2*
G1X1490880Y496320D1*
G1X1491320Y496570D1*
G1X1491830Y496650D1*
G1X1492460Y496480D1*
G1X1492900Y496070D1*
G1X1493030Y495570D1*
G1X1492970Y495070D1*
G1X1492710Y494650D1*
G1X1491450Y493820D1*
G1X1490880Y493230D1*
G1X1490500Y492400D1*
G1X1490370Y491650D1*
G1X1493030Y491650D1*
G1X1495410Y492400D2*
G1X1495790Y491980D1*
G1X1496230Y491730D1*
G1X1496800Y491650D1*
G1X1497370Y491820D1*
G1X1497810Y492150D1*
G1X1498130Y492730D1*
G1X1498190Y493400D1*
G1X1498070Y494070D1*
G1X1497750Y494480D1*
G1X1497310Y494820D1*
G1X1496860Y494900D1*
G1X1496420Y494820D1*
G1X1495850Y494480D1*
G1X1496040Y496650D1*
G1X1497750Y496650D1*
G1X1501900Y491480D2*
G1X1501770Y491570D1*
G1X1501770Y491730D1*
G1X1501900Y491820D1*
G1X1502030Y491730D1*
G1X1502030Y491570D1*
G1X1501900Y491480D1*
G1X1507000Y496650D2*
G1X1506490Y496480D1*
G1X1506110Y496070D1*
G1X1505860Y495570D1*
G1X1505670Y494900D1*
G1X1505610Y494150D1*
G1X1505670Y493400D1*
G1X1505860Y492730D1*
G1X1506110Y492230D1*
G1X1506490Y491820D1*
G1X1507000Y491650D1*
G1X1507510Y491820D1*
G1X1507890Y492230D1*
G1X1508140Y492730D1*
G1X1508330Y493400D1*
G1X1508390Y494150D1*
G1X1508330Y494900D1*
G1X1508140Y495570D1*
G1X1507890Y496070D1*
G1X1507510Y496480D1*
G1X1507000Y496650D1*
G1X1487950Y538930D2*
G1X1488390Y539520D1*
G1X1488770Y539850D1*
G1X1489280Y540020D1*
G1X1489720Y539850D1*
G1X1490040Y539520D1*
G1X1490290Y539020D1*
G1X1490350Y538430D1*
G1X1490290Y537930D1*
G1X1490040Y537430D1*
G1X1489660Y537020D1*
G1X1489210Y536850D1*
G1X1488710Y537020D1*
G1X1488260Y537520D1*
G1X1488010Y538270D1*
G1X1487950Y539100D1*
G1X1488070Y540180D1*
G1X1488260Y540770D1*
G1X1488580Y541350D1*
G1X1489020Y541770D1*
G1X1489470Y541850D1*
G1X1489910Y541680D1*
G1X1490230Y541270D1*
G1X1494250Y541850D2*
G1X1493740Y541680D1*
G1X1493360Y541270D1*
G1X1493110Y540770D1*
G1X1492920Y540100D1*
G1X1492860Y539350D1*
G1X1492920Y538600D1*
G1X1493110Y537930D1*
G1X1493360Y537430D1*
G1X1493740Y537020D1*
G1X1494250Y536850D1*
G1X1494760Y537020D1*
G1X1495140Y537430D1*
G1X1495390Y537930D1*
G1X1495580Y538600D1*
G1X1495640Y539350D1*
G1X1495580Y540100D1*
G1X1495390Y540770D1*
G1X1495140Y541270D1*
G1X1494760Y541680D1*
G1X1494250Y541850D1*
G1X1499350Y536680D2*
G1X1499220Y536770D1*
G1X1499220Y536930D1*
G1X1499350Y537020D1*
G1X1499480Y536930D1*
G1X1499480Y536770D1*
G1X1499350Y536680D1*
G1X1504450Y541850D2*
G1X1503940Y541680D1*
G1X1503560Y541270D1*
G1X1503310Y540770D1*
G1X1503120Y540100D1*
G1X1503060Y539350D1*
G1X1503120Y538600D1*
G1X1503310Y537930D1*
G1X1503560Y537430D1*
G1X1503940Y537020D1*
G1X1504450Y536850D1*
G1X1504960Y537020D1*
G1X1505340Y537430D1*
G1X1505590Y537930D1*
G1X1505780Y538600D1*
G1X1505840Y539350D1*
G1X1505780Y540100D1*
G1X1505590Y540770D1*
G1X1505340Y541270D1*
G1X1504960Y541680D1*
G1X1504450Y541850D1*
G1X1487950Y527630D2*
G1X1488390Y528220D1*
G1X1488770Y528550D1*
G1X1489280Y528720D1*
G1X1489720Y528550D1*
G1X1490040Y528220D1*
G1X1490290Y527720D1*
G1X1490350Y527130D1*
G1X1490290Y526630D1*
G1X1490040Y526130D1*
G1X1489660Y525720D1*
G1X1489210Y525550D1*
G1X1488710Y525720D1*
G1X1488260Y526220D1*
G1X1488010Y526970D1*
G1X1487950Y527800D1*
G1X1488070Y528880D1*
G1X1488260Y529470D1*
G1X1488580Y530050D1*
G1X1489020Y530470D1*
G1X1489470Y530550D1*
G1X1489910Y530380D1*
G1X1490230Y529970D1*
G1X1494250Y530550D2*
G1X1493740Y530380D1*
G1X1493360Y529970D1*
G1X1493110Y529470D1*
G1X1492920Y528800D1*
G1X1492860Y528050D1*
G1X1492920Y527300D1*
G1X1493110Y526630D1*
G1X1493360Y526130D1*
G1X1493740Y525720D1*
G1X1494250Y525550D1*
G1X1494760Y525720D1*
G1X1495140Y526130D1*
G1X1495390Y526630D1*
G1X1495580Y527300D1*
G1X1495640Y528050D1*
G1X1495580Y528800D1*
G1X1495390Y529470D1*
G1X1495140Y529970D1*
G1X1494760Y530380D1*
G1X1494250Y530550D1*
G1X1499350Y525380D2*
G1X1499220Y525470D1*
G1X1499220Y525630D1*
G1X1499350Y525720D1*
G1X1499480Y525630D1*
G1X1499480Y525470D1*
G1X1499350Y525380D1*
G1X1504450Y530550D2*
G1X1503940Y530380D1*
G1X1503560Y529970D1*
G1X1503310Y529470D1*
G1X1503120Y528800D1*
G1X1503060Y528050D1*
G1X1503120Y527300D1*
G1X1503310Y526630D1*
G1X1503560Y526130D1*
G1X1503940Y525720D1*
G1X1504450Y525550D1*
G1X1504960Y525720D1*
G1X1505340Y526130D1*
G1X1505590Y526630D1*
G1X1505780Y527300D1*
G1X1505840Y528050D1*
G1X1505780Y528800D1*
G1X1505590Y529470D1*
G1X1505340Y529970D1*
G1X1504960Y530380D1*
G1X1504450Y530550D1*
G1X1487950Y516330D2*
G1X1488390Y516920D1*
G1X1488770Y517250D1*
G1X1489280Y517420D1*
G1X1489720Y517250D1*
G1X1490040Y516920D1*
G1X1490290Y516420D1*
G1X1490350Y515830D1*
G1X1490290Y515330D1*
G1X1490040Y514830D1*
G1X1489660Y514420D1*
G1X1489210Y514250D1*
G1X1488710Y514420D1*
G1X1488260Y514920D1*
G1X1488010Y515670D1*
G1X1487950Y516500D1*
G1X1488070Y517580D1*
G1X1488260Y518170D1*
G1X1488580Y518750D1*
G1X1489020Y519170D1*
G1X1489470Y519250D1*
G1X1489910Y519080D1*
G1X1490230Y518670D1*
G1X1494250Y519250D2*
G1X1493740Y519080D1*
G1X1493360Y518670D1*
G1X1493110Y518170D1*
G1X1492920Y517500D1*
G1X1492860Y516750D1*
G1X1492920Y516000D1*
G1X1493110Y515330D1*
G1X1493360Y514830D1*
G1X1493740Y514420D1*
G1X1494250Y514250D1*
G1X1494760Y514420D1*
G1X1495140Y514830D1*
G1X1495390Y515330D1*
G1X1495580Y516000D1*
G1X1495640Y516750D1*
G1X1495580Y517500D1*
G1X1495390Y518170D1*
G1X1495140Y518670D1*
G1X1494760Y519080D1*
G1X1494250Y519250D1*
G1X1499350Y514080D2*
G1X1499220Y514170D1*
G1X1499220Y514330D1*
G1X1499350Y514420D1*
G1X1499480Y514330D1*
G1X1499480Y514170D1*
G1X1499350Y514080D1*
G1X1504450Y519250D2*
G1X1503940Y519080D1*
G1X1503560Y518670D1*
G1X1503310Y518170D1*
G1X1503120Y517500D1*
G1X1503060Y516750D1*
G1X1503120Y516000D1*
G1X1503310Y515330D1*
G1X1503560Y514830D1*
G1X1503940Y514420D1*
G1X1504450Y514250D1*
G1X1504960Y514420D1*
G1X1505340Y514830D1*
G1X1505590Y515330D1*
G1X1505780Y516000D1*
G1X1505840Y516750D1*
G1X1505780Y517500D1*
G1X1505590Y518170D1*
G1X1505340Y518670D1*
G1X1504960Y519080D1*
G1X1504450Y519250D1*
G1X1486600Y570750D2*
G1X1486600Y575750D1*
G1X1485840Y574750D1*
G1X1485840Y570750D2*
G1X1487360Y570750D1*
G1X1490500Y574920D2*
G1X1490880Y575420D1*
G1X1491320Y575670D1*
G1X1491830Y575750D1*
G1X1492460Y575580D1*
G1X1492900Y575170D1*
G1X1493030Y574670D1*
G1X1492970Y574170D1*
G1X1492710Y573750D1*
G1X1491450Y572920D1*
G1X1490880Y572330D1*
G1X1490500Y571500D1*
G1X1490370Y570750D1*
G1X1493030Y570750D1*
G1X1495410Y571500D2*
G1X1495790Y571080D1*
G1X1496230Y570830D1*
G1X1496800Y570750D1*
G1X1497370Y570920D1*
G1X1497810Y571250D1*
G1X1498130Y571830D1*
G1X1498190Y572500D1*
G1X1498070Y573170D1*
G1X1497750Y573580D1*
G1X1497310Y573920D1*
G1X1496860Y574000D1*
G1X1496420Y573920D1*
G1X1495850Y573580D1*
G1X1496040Y575750D1*
G1X1497750Y575750D1*
G1X1501900Y570580D2*
G1X1501770Y570670D1*
G1X1501770Y570830D1*
G1X1501900Y570920D1*
G1X1502030Y570830D1*
G1X1502030Y570670D1*
G1X1501900Y570580D1*
G1X1507000Y575750D2*
G1X1506490Y575580D1*
G1X1506110Y575170D1*
G1X1505860Y574670D1*
G1X1505670Y574000D1*
G1X1505610Y573250D1*
G1X1505670Y572500D1*
G1X1505860Y571830D1*
G1X1506110Y571330D1*
G1X1506490Y570920D1*
G1X1507000Y570750D1*
G1X1507510Y570920D1*
G1X1507890Y571330D1*
G1X1508140Y571830D1*
G1X1508330Y572500D1*
G1X1508390Y573250D1*
G1X1508330Y574000D1*
G1X1508140Y574670D1*
G1X1507890Y575170D1*
G1X1507510Y575580D1*
G1X1507000Y575750D1*
G1X1489150Y559450D2*
G1X1489590Y559530D1*
G1X1490100Y559780D1*
G1X1490420Y560200D1*
G1X1490540Y560780D1*
G1X1490420Y561370D1*
G1X1490040Y561870D1*
G1X1489470Y562120D1*
G1X1488830Y562120D1*
G1X1488450Y562280D1*
G1X1488140Y562700D1*
G1X1488010Y563280D1*
G1X1488200Y563870D1*
G1X1488640Y564280D1*
G1X1489150Y564450D1*
G1X1489660Y564280D1*
G1X1490100Y563870D1*
G1X1490290Y563280D1*
G1X1490160Y562700D1*
G1X1489850Y562280D1*
G1X1489470Y562120D1*
G1X1488830Y562120D1*
G1X1488260Y561870D1*
G1X1487880Y561370D1*
G1X1487760Y560780D1*
G1X1487880Y560200D1*
G1X1488200Y559780D1*
G1X1488710Y559530D1*
G1X1489150Y559450D1*
G1X1493050Y561530D2*
G1X1493490Y562120D1*
G1X1493870Y562450D1*
G1X1494380Y562620D1*
G1X1494820Y562450D1*
G1X1495140Y562120D1*
G1X1495390Y561620D1*
G1X1495450Y561030D1*
G1X1495390Y560530D1*
G1X1495140Y560030D1*
G1X1494760Y559620D1*
G1X1494310Y559450D1*
G1X1493810Y559620D1*
G1X1493360Y560120D1*
G1X1493110Y560870D1*
G1X1493050Y561700D1*
G1X1493170Y562780D1*
G1X1493360Y563370D1*
G1X1493680Y563950D1*
G1X1494120Y564370D1*
G1X1494570Y564450D1*
G1X1495010Y564280D1*
G1X1495330Y563870D1*
G1X1499350Y559280D2*
G1X1499220Y559370D1*
G1X1499220Y559530D1*
G1X1499350Y559620D1*
G1X1499480Y559530D1*
G1X1499480Y559370D1*
G1X1499350Y559280D1*
G1X1504450Y564450D2*
G1X1503940Y564280D1*
G1X1503560Y563870D1*
G1X1503310Y563370D1*
G1X1503120Y562700D1*
G1X1503060Y561950D1*
G1X1503120Y561200D1*
G1X1503310Y560530D1*
G1X1503560Y560030D1*
G1X1503940Y559620D1*
G1X1504450Y559450D1*
G1X1504960Y559620D1*
G1X1505340Y560030D1*
G1X1505590Y560530D1*
G1X1505780Y561200D1*
G1X1505840Y561950D1*
G1X1505780Y562700D1*
G1X1505590Y563370D1*
G1X1505340Y563870D1*
G1X1504960Y564280D1*
G1X1504450Y564450D1*
G1X1489150Y548150D2*
G1X1489590Y548230D1*
G1X1490100Y548480D1*
G1X1490420Y548900D1*
G1X1490540Y549480D1*
G1X1490420Y550070D1*
G1X1490040Y550570D1*
G1X1489470Y550820D1*
G1X1488830Y550820D1*
G1X1488450Y550980D1*
G1X1488140Y551400D1*
G1X1488010Y551980D1*
G1X1488200Y552570D1*
G1X1488640Y552980D1*
G1X1489150Y553150D1*
G1X1489660Y552980D1*
G1X1490100Y552570D1*
G1X1490290Y551980D1*
G1X1490160Y551400D1*
G1X1489850Y550980D1*
G1X1489470Y550820D1*
G1X1488830Y550820D1*
G1X1488260Y550570D1*
G1X1487880Y550070D1*
G1X1487760Y549480D1*
G1X1487880Y548900D1*
G1X1488200Y548480D1*
G1X1488710Y548230D1*
G1X1489150Y548150D1*
G1X1493050Y550230D2*
G1X1493490Y550820D1*
G1X1493870Y551150D1*
G1X1494380Y551320D1*
G1X1494820Y551150D1*
G1X1495140Y550820D1*
G1X1495390Y550320D1*
G1X1495450Y549730D1*
G1X1495390Y549230D1*
G1X1495140Y548730D1*
G1X1494760Y548320D1*
G1X1494310Y548150D1*
G1X1493810Y548320D1*
G1X1493360Y548820D1*
G1X1493110Y549570D1*
G1X1493050Y550400D1*
G1X1493170Y551480D1*
G1X1493360Y552070D1*
G1X1493680Y552650D1*
G1X1494120Y553070D1*
G1X1494570Y553150D1*
G1X1495010Y552980D1*
G1X1495330Y552570D1*
G1X1499350Y547980D2*
G1X1499220Y548070D1*
G1X1499220Y548230D1*
G1X1499350Y548320D1*
G1X1499480Y548230D1*
G1X1499480Y548070D1*
G1X1499350Y547980D1*
G1X1504450Y553150D2*
G1X1503940Y552980D1*
G1X1503560Y552570D1*
G1X1503310Y552070D1*
G1X1503120Y551400D1*
G1X1503060Y550650D1*
G1X1503120Y549900D1*
G1X1503310Y549230D1*
G1X1503560Y548730D1*
G1X1503940Y548320D1*
G1X1504450Y548150D1*
G1X1504960Y548320D1*
G1X1505340Y548730D1*
G1X1505590Y549230D1*
G1X1505780Y549900D1*
G1X1505840Y550650D1*
G1X1505780Y551400D1*
G1X1505590Y552070D1*
G1X1505340Y552570D1*
G1X1504960Y552980D1*
G1X1504450Y553150D1*
G1X1487820Y583370D2*
G1X1488330Y582950D1*
G1X1488900Y582700D1*
G1X1489400Y582700D1*
G1X1489910Y582950D1*
G1X1490290Y583370D1*
G1X1490480Y583950D1*
G1X1490350Y584530D1*
G1X1490040Y585030D1*
G1X1489470Y585370D1*
G1X1488710Y585530D1*
G1X1488260Y585870D1*
G1X1488070Y586450D1*
G1X1488200Y587030D1*
G1X1488520Y587450D1*
G1X1488960Y587700D1*
G1X1489400Y587700D1*
G1X1489850Y587530D1*
G1X1490230Y587120D1*
G1X1493490Y587700D2*
G1X1495010Y587700D1*
G1X1494250Y587700D2*
G1X1494250Y582700D1*
G1X1493490Y582700D2*
G1X1495010Y582700D1*
G1X1498150Y587700D2*
G1X1500550Y587700D1*
G1X1498150Y582700D1*
G1X1500550Y582700D1*
G1X1505720Y582700D2*
G1X1503180Y582700D1*
G1X1503180Y587700D1*
G1X1505720Y587700D1*
G1X1504700Y585280D2*
G1X1503180Y585280D1*
G1X1537440Y480350D2*
G1X1537440Y485350D1*
G1X1540360Y480350D1*
G1X1540360Y485350D1*
G1X1544000Y480350D2*
G1X1543490Y480430D1*
G1X1543050Y480770D1*
G1X1542670Y481270D1*
G1X1542420Y481850D1*
G1X1542290Y482520D1*
G1X1542290Y483180D1*
G1X1542420Y483850D1*
G1X1542670Y484430D1*
G1X1543050Y484930D1*
G1X1543490Y485270D1*
G1X1544000Y485350D1*
G1X1544510Y485270D1*
G1X1544950Y484930D1*
G1X1545330Y484430D1*
G1X1545580Y483850D1*
G1X1545710Y483180D1*
G1X1545710Y482520D1*
G1X1545580Y481850D1*
G1X1545330Y481270D1*
G1X1544950Y480770D1*
G1X1544510Y480430D1*
G1X1544000Y480350D1*
G1X1547640Y480350D2*
G1X1547640Y485350D1*
G1X1550560Y480350D1*
G1X1550560Y485350D1*
G1X1553380Y482020D2*
G1X1555020Y482020D1*
G1X1558030Y480350D2*
G1X1558030Y485350D1*
G1X1559550Y485350D1*
G1X1560060Y485100D1*
G1X1560440Y484520D1*
G1X1560570Y483850D1*
G1X1560440Y483180D1*
G1X1560120Y482680D1*
G1X1559550Y482430D1*
G1X1558030Y482430D1*
G1X1563130Y485350D2*
G1X1563130Y480350D1*
G1X1565670Y480350D1*
G1X1567920Y480350D2*
G1X1569500Y485350D1*
G1X1571080Y480350D1*
G1X1570510Y482100D2*
G1X1568490Y482100D1*
G1X1574600Y485350D2*
G1X1574600Y480350D1*
G1X1573140Y485350D2*
G1X1576060Y485350D1*
G1X1580970Y480350D2*
G1X1578430Y480350D1*
G1X1578430Y485350D1*
G1X1580970Y485350D1*
G1X1579950Y482930D2*
G1X1578430Y482930D1*
G1X1583410Y480350D2*
G1X1583410Y485350D1*
G1X1584670Y485350D1*
G1X1585180Y485100D1*
G1X1585560Y484770D1*
G1X1585880Y484270D1*
G1X1586130Y483680D1*
G1X1586190Y482850D1*
G1X1586130Y482020D1*
G1X1585880Y481430D1*
G1X1585560Y480930D1*
G1X1585180Y480600D1*
G1X1584670Y480350D1*
G1X1583410Y480350D1*
G1X1547830Y502950D2*
G1X1547830Y507950D1*
G1X1549350Y507950D1*
G1X1549860Y507700D1*
G1X1550240Y507120D1*
G1X1550370Y506450D1*
G1X1550240Y505780D1*
G1X1549920Y505280D1*
G1X1549350Y505030D1*
G1X1547830Y505030D1*
G1X1552930Y507950D2*
G1X1552930Y502950D1*
G1X1555470Y502950D1*
G1X1557720Y502950D2*
G1X1559300Y507950D1*
G1X1560880Y502950D1*
G1X1560310Y504700D2*
G1X1558290Y504700D1*
G1X1564400Y507950D2*
G1X1564400Y502950D1*
G1X1562940Y507950D2*
G1X1565860Y507950D1*
G1X1570770Y502950D2*
G1X1568230Y502950D1*
G1X1568230Y507950D1*
G1X1570770Y507950D1*
G1X1569750Y505530D2*
G1X1568230Y505530D1*
G1X1573210Y502950D2*
G1X1573210Y507950D1*
G1X1574470Y507950D1*
G1X1574980Y507700D1*
G1X1575360Y507370D1*
G1X1575680Y506870D1*
G1X1575930Y506280D1*
G1X1575990Y505450D1*
G1X1575930Y504620D1*
G1X1575680Y504030D1*
G1X1575360Y503530D1*
G1X1574980Y503200D1*
G1X1574470Y502950D1*
G1X1573210Y502950D1*
G1X1537440Y491650D2*
G1X1537440Y496650D1*
G1X1540360Y491650D1*
G1X1540360Y496650D1*
G1X1544000Y491650D2*
G1X1543490Y491730D1*
G1X1543050Y492070D1*
G1X1542670Y492570D1*
G1X1542420Y493150D1*
G1X1542290Y493820D1*
G1X1542290Y494480D1*
G1X1542420Y495150D1*
G1X1542670Y495730D1*
G1X1543050Y496230D1*
G1X1543490Y496570D1*
G1X1544000Y496650D1*
G1X1544510Y496570D1*
G1X1544950Y496230D1*
G1X1545330Y495730D1*
G1X1545580Y495150D1*
G1X1545710Y494480D1*
G1X1545710Y493820D1*
G1X1545580Y493150D1*
G1X1545330Y492570D1*
G1X1544950Y492070D1*
G1X1544510Y491730D1*
G1X1544000Y491650D1*
G1X1547640Y491650D2*
G1X1547640Y496650D1*
G1X1550560Y491650D1*
G1X1550560Y496650D1*
G1X1553380Y493320D2*
G1X1555020Y493320D1*
G1X1558030Y491650D2*
G1X1558030Y496650D1*
G1X1559550Y496650D1*
G1X1560060Y496400D1*
G1X1560440Y495820D1*
G1X1560570Y495150D1*
G1X1560440Y494480D1*
G1X1560120Y493980D1*
G1X1559550Y493730D1*
G1X1558030Y493730D1*
G1X1563130Y496650D2*
G1X1563130Y491650D1*
G1X1565670Y491650D1*
G1X1567920Y491650D2*
G1X1569500Y496650D1*
G1X1571080Y491650D1*
G1X1570510Y493400D2*
G1X1568490Y493400D1*
G1X1574600Y496650D2*
G1X1574600Y491650D1*
G1X1573140Y496650D2*
G1X1576060Y496650D1*
G1X1580970Y491650D2*
G1X1578430Y491650D1*
G1X1578430Y496650D1*
G1X1580970Y496650D1*
G1X1579950Y494230D2*
G1X1578430Y494230D1*
G1X1583410Y491650D2*
G1X1583410Y496650D1*
G1X1584670Y496650D1*
G1X1585180Y496400D1*
G1X1585560Y496070D1*
G1X1585880Y495570D1*
G1X1586130Y494980D1*
G1X1586190Y494150D1*
G1X1586130Y493320D1*
G1X1585880Y492730D1*
G1X1585560Y492230D1*
G1X1585180Y491900D1*
G1X1584670Y491650D1*
G1X1583410Y491650D1*
G1X1547830Y536850D2*
G1X1547830Y541850D1*
G1X1549350Y541850D1*
G1X1549860Y541600D1*
G1X1550240Y541020D1*
G1X1550370Y540350D1*
G1X1550240Y539680D1*
G1X1549920Y539180D1*
G1X1549350Y538930D1*
G1X1547830Y538930D1*
G1X1552930Y541850D2*
G1X1552930Y536850D1*
G1X1555470Y536850D1*
G1X1557720Y536850D2*
G1X1559300Y541850D1*
G1X1560880Y536850D1*
G1X1560310Y538600D2*
G1X1558290Y538600D1*
G1X1564400Y541850D2*
G1X1564400Y536850D1*
G1X1562940Y541850D2*
G1X1565860Y541850D1*
G1X1570770Y536850D2*
G1X1568230Y536850D1*
G1X1568230Y541850D1*
G1X1570770Y541850D1*
G1X1569750Y539430D2*
G1X1568230Y539430D1*
G1X1573210Y536850D2*
G1X1573210Y541850D1*
G1X1574470Y541850D1*
G1X1574980Y541600D1*
G1X1575360Y541270D1*
G1X1575680Y540770D1*
G1X1575930Y540180D1*
G1X1575990Y539350D1*
G1X1575930Y538520D1*
G1X1575680Y537930D1*
G1X1575360Y537430D1*
G1X1574980Y537100D1*
G1X1574470Y536850D1*
G1X1573210Y536850D1*
G1X1547830Y525550D2*
G1X1547830Y530550D1*
G1X1549350Y530550D1*
G1X1549860Y530300D1*
G1X1550240Y529720D1*
G1X1550370Y529050D1*
G1X1550240Y528380D1*
G1X1549920Y527880D1*
G1X1549350Y527630D1*
G1X1547830Y527630D1*
G1X1552930Y530550D2*
G1X1552930Y525550D1*
G1X1555470Y525550D1*
G1X1557720Y525550D2*
G1X1559300Y530550D1*
G1X1560880Y525550D1*
G1X1560310Y527300D2*
G1X1558290Y527300D1*
G1X1564400Y530550D2*
G1X1564400Y525550D1*
G1X1562940Y530550D2*
G1X1565860Y530550D1*
G1X1570770Y525550D2*
G1X1568230Y525550D1*
G1X1568230Y530550D1*
G1X1570770Y530550D1*
G1X1569750Y528130D2*
G1X1568230Y528130D1*
G1X1573210Y525550D2*
G1X1573210Y530550D1*
G1X1574470Y530550D1*
G1X1574980Y530300D1*
G1X1575360Y529970D1*
G1X1575680Y529470D1*
G1X1575930Y528880D1*
G1X1575990Y528050D1*
G1X1575930Y527220D1*
G1X1575680Y526630D1*
G1X1575360Y526130D1*
G1X1574980Y525800D1*
G1X1574470Y525550D1*
G1X1573210Y525550D1*
G1X1547830Y514250D2*
G1X1547830Y519250D1*
G1X1549350Y519250D1*
G1X1549860Y519000D1*
G1X1550240Y518420D1*
G1X1550370Y517750D1*
G1X1550240Y517080D1*
G1X1549920Y516580D1*
G1X1549350Y516330D1*
G1X1547830Y516330D1*
G1X1552930Y519250D2*
G1X1552930Y514250D1*
G1X1555470Y514250D1*
G1X1557720Y514250D2*
G1X1559300Y519250D1*
G1X1560880Y514250D1*
G1X1560310Y516000D2*
G1X1558290Y516000D1*
G1X1564400Y519250D2*
G1X1564400Y514250D1*
G1X1562940Y519250D2*
G1X1565860Y519250D1*
G1X1570770Y514250D2*
G1X1568230Y514250D1*
G1X1568230Y519250D1*
G1X1570770Y519250D1*
G1X1569750Y516830D2*
G1X1568230Y516830D1*
G1X1573210Y514250D2*
G1X1573210Y519250D1*
G1X1574470Y519250D1*
G1X1574980Y519000D1*
G1X1575360Y518670D1*
G1X1575680Y518170D1*
G1X1575930Y517580D1*
G1X1575990Y516750D1*
G1X1575930Y515920D1*
G1X1575680Y515330D1*
G1X1575360Y514830D1*
G1X1574980Y514500D1*
G1X1574470Y514250D1*
G1X1573210Y514250D1*
G1X1547830Y570750D2*
G1X1547830Y575750D1*
G1X1549350Y575750D1*
G1X1549860Y575500D1*
G1X1550240Y574920D1*
G1X1550370Y574250D1*
G1X1550240Y573580D1*
G1X1549920Y573080D1*
G1X1549350Y572830D1*
G1X1547830Y572830D1*
G1X1552930Y575750D2*
G1X1552930Y570750D1*
G1X1555470Y570750D1*
G1X1557720Y570750D2*
G1X1559300Y575750D1*
G1X1560880Y570750D1*
G1X1560310Y572500D2*
G1X1558290Y572500D1*
G1X1564400Y575750D2*
G1X1564400Y570750D1*
G1X1562940Y575750D2*
G1X1565860Y575750D1*
G1X1570770Y570750D2*
G1X1568230Y570750D1*
G1X1568230Y575750D1*
G1X1570770Y575750D1*
G1X1569750Y573330D2*
G1X1568230Y573330D1*
G1X1573210Y570750D2*
G1X1573210Y575750D1*
G1X1574470Y575750D1*
G1X1574980Y575500D1*
G1X1575360Y575170D1*
G1X1575680Y574670D1*
G1X1575930Y574080D1*
G1X1575990Y573250D1*
G1X1575930Y572420D1*
G1X1575680Y571830D1*
G1X1575360Y571330D1*
G1X1574980Y571000D1*
G1X1574470Y570750D1*
G1X1573210Y570750D1*
G1X1547830Y559450D2*
G1X1547830Y564450D1*
G1X1549350Y564450D1*
G1X1549860Y564200D1*
G1X1550240Y563620D1*
G1X1550370Y562950D1*
G1X1550240Y562280D1*
G1X1549920Y561780D1*
G1X1549350Y561530D1*
G1X1547830Y561530D1*
G1X1552930Y564450D2*
G1X1552930Y559450D1*
G1X1555470Y559450D1*
G1X1557720Y559450D2*
G1X1559300Y564450D1*
G1X1560880Y559450D1*
G1X1560310Y561200D2*
G1X1558290Y561200D1*
G1X1564400Y564450D2*
G1X1564400Y559450D1*
G1X1562940Y564450D2*
G1X1565860Y564450D1*
G1X1570770Y559450D2*
G1X1568230Y559450D1*
G1X1568230Y564450D1*
G1X1570770Y564450D1*
G1X1569750Y562030D2*
G1X1568230Y562030D1*
G1X1573210Y559450D2*
G1X1573210Y564450D1*
G1X1574470Y564450D1*
G1X1574980Y564200D1*
G1X1575360Y563870D1*
G1X1575680Y563370D1*
G1X1575930Y562780D1*
G1X1575990Y561950D1*
G1X1575930Y561120D1*
G1X1575680Y560530D1*
G1X1575360Y560030D1*
G1X1574980Y559700D1*
G1X1574470Y559450D1*
G1X1573210Y559450D1*
G1X1547830Y548150D2*
G1X1547830Y553150D1*
G1X1549350Y553150D1*
G1X1549860Y552900D1*
G1X1550240Y552320D1*
G1X1550370Y551650D1*
G1X1550240Y550980D1*
G1X1549920Y550480D1*
G1X1549350Y550230D1*
G1X1547830Y550230D1*
G1X1552930Y553150D2*
G1X1552930Y548150D1*
G1X1555470Y548150D1*
G1X1557720Y548150D2*
G1X1559300Y553150D1*
G1X1560880Y548150D1*
G1X1560310Y549900D2*
G1X1558290Y549900D1*
G1X1564400Y553150D2*
G1X1564400Y548150D1*
G1X1562940Y553150D2*
G1X1565860Y553150D1*
G1X1570770Y548150D2*
G1X1568230Y548150D1*
G1X1568230Y553150D1*
G1X1570770Y553150D1*
G1X1569750Y550730D2*
G1X1568230Y550730D1*
G1X1573210Y548150D2*
G1X1573210Y553150D1*
G1X1574470Y553150D1*
G1X1574980Y552900D1*
G1X1575360Y552570D1*
G1X1575680Y552070D1*
G1X1575930Y551480D1*
G1X1575990Y550650D1*
G1X1575930Y549820D1*
G1X1575680Y549230D1*
G1X1575360Y548730D1*
G1X1574980Y548400D1*
G1X1574470Y548150D1*
G1X1573210Y548150D1*
G1X1547830Y582700D2*
G1X1547830Y587700D1*
G1X1549350Y587700D1*
G1X1549860Y587450D1*
G1X1550240Y586870D1*
G1X1550370Y586200D1*
G1X1550240Y585530D1*
G1X1549920Y585030D1*
G1X1549350Y584780D1*
G1X1547830Y584780D1*
G1X1552930Y587700D2*
G1X1552930Y582700D1*
G1X1555470Y582700D1*
G1X1557720Y582700D2*
G1X1559300Y587700D1*
G1X1560880Y582700D1*
G1X1560310Y584450D2*
G1X1558290Y584450D1*
G1X1564400Y587700D2*
G1X1564400Y582700D1*
G1X1562940Y587700D2*
G1X1565860Y587700D1*
G1X1570770Y582700D2*
G1X1568230Y582700D1*
G1X1568230Y587700D1*
G1X1570770Y587700D1*
G1X1569750Y585280D2*
G1X1568230Y585280D1*
G1X1573210Y582700D2*
G1X1573210Y587700D1*
G1X1574470Y587700D1*
G1X1574980Y587450D1*
G1X1575360Y587120D1*
G1X1575680Y586620D1*
G1X1575930Y586030D1*
G1X1575990Y585200D1*
G1X1575930Y584370D1*
G1X1575680Y583780D1*
G1X1575360Y583280D1*
G1X1574980Y582950D1*
G1X1574470Y582700D1*
G1X1573210Y582700D1*
G1X1602750Y484520D2*
G1X1603130Y485020D1*
G1X1603570Y485270D1*
G1X1604080Y485350D1*
G1X1604710Y485180D1*
G1X1605150Y484770D1*
G1X1605280Y484270D1*
G1X1605220Y483770D1*
G1X1604960Y483350D1*
G1X1603700Y482520D1*
G1X1603130Y481930D1*
G1X1602750Y481100D1*
G1X1602620Y480350D1*
G1X1605280Y480350D1*
G1X1602160Y502950D2*
G1X1602160Y507950D1*
G1X1599820Y504370D1*
G1X1602980Y504370D1*
G1X1606500Y502950D2*
G1X1606500Y507950D1*
G1X1605740Y506950D1*
G1X1605740Y502950D2*
G1X1607260Y502950D1*
G1X1604710Y491650D2*
G1X1604710Y496650D1*
G1X1602370Y493070D1*
G1X1605530Y493070D1*
G1X1603950Y536850D2*
G1X1603950Y541850D1*
G1X1603190Y540850D1*
G1X1603190Y536850D2*
G1X1604710Y536850D1*
G1X1602870Y526130D2*
G1X1603320Y525720D1*
G1X1603820Y525550D1*
G1X1604330Y525720D1*
G1X1604770Y526220D1*
G1X1605090Y526970D1*
G1X1605220Y527720D1*
G1X1605220Y528630D1*
G1X1605090Y529380D1*
G1X1604770Y530050D1*
G1X1604390Y530380D1*
G1X1603950Y530550D1*
G1X1603440Y530380D1*
G1X1603060Y530050D1*
G1X1602810Y529550D1*
G1X1602680Y528880D1*
G1X1602810Y528300D1*
G1X1603130Y527720D1*
G1X1603510Y527380D1*
G1X1603950Y527300D1*
G1X1604460Y527470D1*
G1X1604840Y527880D1*
G1X1605220Y528630D1*
G1X1603950Y514250D2*
G1X1603950Y519250D1*
G1X1603190Y518250D1*
G1X1603190Y514250D2*
G1X1604710Y514250D1*
G1X1602750Y574920D2*
G1X1603130Y575420D1*
G1X1603570Y575670D1*
G1X1604080Y575750D1*
G1X1604710Y575580D1*
G1X1605150Y575170D1*
G1X1605280Y574670D1*
G1X1605220Y574170D1*
G1X1604960Y573750D1*
G1X1603700Y572920D1*
G1X1603130Y572330D1*
G1X1602750Y571500D1*
G1X1602620Y570750D1*
G1X1605280Y570750D1*
G1X1601400Y559450D2*
G1X1601400Y564450D1*
G1X1600640Y563450D1*
G1X1600640Y559450D2*
G1X1602160Y559450D1*
G1X1606500Y564450D2*
G1X1605990Y564280D1*
G1X1605610Y563870D1*
G1X1605360Y563370D1*
G1X1605170Y562700D1*
G1X1605110Y561950D1*
G1X1605170Y561200D1*
G1X1605360Y560530D1*
G1X1605610Y560030D1*
G1X1605990Y559620D1*
G1X1606500Y559450D1*
G1X1607010Y559620D1*
G1X1607390Y560030D1*
G1X1607640Y560530D1*
G1X1607830Y561200D1*
G1X1607890Y561950D1*
G1X1607830Y562700D1*
G1X1607640Y563370D1*
G1X1607390Y563870D1*
G1X1607010Y564280D1*
G1X1606500Y564450D1*
G1X1601400Y548150D2*
G1X1601400Y553150D1*
G1X1600640Y552150D1*
G1X1600640Y548150D2*
G1X1602160Y548150D1*
G1X1606500Y553150D2*
G1X1605990Y552980D1*
G1X1605610Y552570D1*
G1X1605360Y552070D1*
G1X1605170Y551400D1*
G1X1605110Y550650D1*
G1X1605170Y549900D1*
G1X1605360Y549230D1*
G1X1605610Y548730D1*
G1X1605990Y548320D1*
G1X1606500Y548150D1*
G1X1607010Y548320D1*
G1X1607390Y548730D1*
G1X1607640Y549230D1*
G1X1607830Y549900D1*
G1X1607890Y550650D1*
G1X1607830Y551400D1*
G1X1607640Y552070D1*
G1X1607390Y552570D1*
G1X1607010Y552980D1*
G1X1606500Y553150D1*
G1X1598850Y582700D2*
G1X1598340Y582780D1*
G1X1597900Y583120D1*
G1X1597520Y583620D1*
G1X1597270Y584200D1*
G1X1597140Y584870D1*
G1X1597140Y585530D1*
G1X1597270Y586200D1*
G1X1597520Y586780D1*
G1X1597900Y587280D1*
G1X1598340Y587620D1*
G1X1598850Y587700D1*
G1X1599360Y587620D1*
G1X1599800Y587280D1*
G1X1600180Y586780D1*
G1X1600430Y586200D1*
G1X1600560Y585530D1*
G1X1600560Y584870D1*
G1X1600430Y584200D1*
G1X1600180Y583620D1*
G1X1599800Y583120D1*
G1X1599360Y582780D1*
G1X1598850Y582700D1*
G1X1599360Y584030D2*
G1X1600120Y582700D1*
G1X1603950Y587700D2*
G1X1603950Y582700D1*
G1X1602490Y587700D2*
G1X1605410Y587700D1*
G1X1609050Y582700D2*
G1X1609050Y584950D1*
G1X1607780Y587700D1*
G1X1610320Y587700D2*
G1X1609050Y584950D1*
G54D79*
G1X1439400Y482850D3*
G1X1420900Y477200D2*
G54D68*
G1X1420900Y626500D1*
G1X1619900Y626500D1*
G1X1619900Y477200D1*
G1X1420900Y477200D1*
G1X1420900Y499800D2*
G1X1619900Y499800D1*
G1X1420900Y488500D2*
G1X1619900Y488500D1*
G1X1420900Y533700D2*
G1X1619900Y533700D1*
G1X1420900Y522400D2*
G1X1619900Y522400D1*
G1X1420900Y511100D2*
G1X1619900Y511100D1*
G1X1420900Y567600D2*
G1X1619900Y567600D1*
G1X1420900Y556300D2*
G1X1619900Y556300D1*
G1X1420900Y545000D2*
G1X1619900Y545000D1*
G1X1420900Y590200D2*
G1X1619900Y590200D1*
G1X1420900Y578900D2*
G1X1619900Y578900D1*
G1X1420900Y601500D2*
G1X1619900Y601500D1*
G1X1457900Y590200D2*
G1X1457900Y477200D1*
G1X1535700Y590200D2*
G1X1535700Y477200D1*
G1X1588000Y590200D2*
G1X1588000Y477200D1*
M2*
