*
%LPD*%
%LNlinkingInterface_v1_BOTTOM*%
%FSLAX25Y25*%
%MOIN*%
%AD*%
%AD*%
%ADD10C,0.025*%
%ADD11C,0.075*%
%ADD12C,0.03*%
%ADD13C,0.1*%
%ADD14R,0.081X0.081*%
%ADD15C,0.081*%
%ADD16R,0.1X0.1*%
%ADD17C,0.13*%
%ADD18C,0.09*%
%ADD19C,0.012*%
G54D10*
%SRX1Y1I0.0J0.0*%
G1X1330800Y679800D2*
G1X1302700Y679800D1*
G1X1302500Y679600D1*
G1X1331000Y723800D2*
G1X1330300Y723800D1*
G1X1302800Y751300D1*
G1X1331000Y723800D2*
G1X1331000Y680000D1*
G1X1330800Y679800D1*
G1X1110000Y490000D3*
G1X1110000Y871000D3*
G1X1400000Y490000D3*
G1X1400000Y870000D3*
G54D11*
G1X1115500Y561000D3*
G1X1115500Y600370D3*
G1X1115500Y580690D3*
G1X1115500Y654190D3*
G1X1115500Y634500D3*
G1X1115500Y673870D3*
G1X1115500Y709000D3*
G1X1115500Y748370D3*
G1X1115500Y728690D3*
G54D12*
G1X1135000Y572000D3*
G1X1130000Y642000D3*
G1X1125000Y717500D3*
G1X1193500Y649800D3*
G1X1226500Y547000D3*
G1X1207000Y667000D3*
G1X1249600Y771400D3*
G1X1255100Y789200D3*
G1X1263500Y551000D3*
G1X1278500Y602500D3*
G1X1291600Y622100D3*
G1X1270800Y640400D3*
G1X1287800Y639800D3*
G1X1276500Y711500D3*
G1X1284700Y835600D3*
G1X1285200Y842100D3*
G1X1315500Y556000D3*
G1X1298500Y602500D3*
G1X1300200Y613500D3*
G1X1319000Y617200D3*
G1X1294400Y641600D3*
G1X1302500Y679600D3*
G1X1300600Y688600D3*
G1X1318900Y673200D3*
G1X1299500Y713500D3*
G1X1320500Y702700D3*
G1X1313600Y695840D3*
G1X1302800Y751300D3*
G1X1339200Y617300D3*
G1X1338900Y653000D3*
G1X1325500Y652900D3*
G1X1330800Y679800D3*
G1X1331000Y723800D3*
G1X1335430Y802400D3*
G1X1331720Y838100D3*
G1X1354000Y762500D3*
G1X1371100Y762500D3*
G1X1392000Y743800D3*
G1X1395600Y776100D3*
G1X1395600Y759800D3*
G1X1391600Y818000D3*
G54D13*
G1X1171740Y493530D3*
G1X1171740Y521090D3*
G1X1188300Y861700D3*
G1X1211740Y493530D3*
G1X1211740Y521090D3*
G1X1248240Y493530D3*
G1X1248240Y521090D3*
G1X1286740Y493530D3*
G1X1286740Y521090D3*
G1X1325740Y493030D3*
G1X1325740Y520590D3*
G1X1383800Y710800D3*
G1X1387000Y629100D3*
G1X1387000Y613500D3*
G1X1386700Y662100D3*
G1X1386700Y677700D3*
G54D14*
G1X1149500Y801700D3*
G54D15*
G1X1149500Y861700D3*
G54D16*
G1X1172700Y861700D3*
G1X1383800Y726400D3*
G1X1387000Y644700D3*
G1X1386700Y693300D3*
G54D17*
G1X1260850Y854640D3*
G1X1359280Y854640D3*
G54D18*
G1X1278570Y854640D3*
G1X1341560Y854640D3*
G1X1226500Y547000D2*
G54D19*
G1X1132000Y547000D1*
G1X1125100Y553900D1*
G1X1125100Y714500D1*
G1X1125000Y714600D1*
G1X1125000Y717500D1*
G1X1315500Y556000D2*
G1X1137000Y556000D1*
G1X1135000Y558000D1*
G1X1135000Y572000D1*
G1X1263500Y551000D2*
G1X1133500Y551000D1*
G1X1130060Y554440D1*
G1X1130060Y635060D1*
G1X1130000Y635120D1*
G1X1130000Y642000D1*
G1X1193500Y649800D2*
G1X1201000Y657300D1*
G1X1201000Y664400D1*
G1X1203600Y667000D1*
G1X1207000Y667000D1*
G1X1285200Y842100D2*
G1X1249900Y806800D1*
G1X1249900Y771900D1*
G1X1249600Y771600D1*
G1X1249600Y771400D1*
G1X1284700Y835600D2*
G1X1284600Y835600D1*
G1X1255000Y806000D1*
G1X1255000Y789300D1*
G1X1255100Y789200D1*
G1X1298500Y602500D2*
G1X1278500Y602500D1*
G1X1287800Y639800D2*
G1X1271400Y639800D1*
G1X1270800Y640400D1*
G1X1299500Y713500D2*
G1X1289000Y713500D1*
G1X1288940Y713560D1*
G1X1278560Y713560D1*
G1X1276500Y711500D1*
G1X1294400Y641600D2*
G1X1294400Y624900D1*
G1X1291600Y622100D1*
G1X1300200Y613500D2*
G1X1300200Y614500D1*
G1X1299100Y615600D1*
G1X1299100Y687100D1*
G1X1300600Y688600D1*
G1X1319000Y617200D2*
G1X1319000Y630300D1*
G1X1318900Y630400D1*
G1X1318900Y673200D1*
G1X1339200Y617300D2*
G1X1319100Y617300D1*
G1X1319000Y617200D1*
G1X1313600Y695840D2*
G1X1318400Y700640D1*
G1X1318440Y700640D1*
G1X1320500Y702700D1*
G1X1338900Y653000D2*
G1X1338200Y653000D1*
G1X1338100Y652900D1*
G1X1325500Y652900D1*
G1X1331720Y838100D2*
G1X1335200Y834620D1*
G1X1335200Y802630D1*
G1X1335430Y802400D1*
G1X1371100Y762500D2*
G1X1354000Y762500D1*
G1X1391600Y818000D2*
G1X1391600Y744200D1*
G1X1392000Y743800D1*
G1X1395600Y759800D2*
G1X1395600Y776100D1*
M2*
