*
%LPD*%
%LNlinkingInterface_v1_TOP*%
%FSLAX25Y25*%
%MOIN*%
%AD*%
%AD*%
%ADD10C,0.025*%
%ADD11C,0.075*%
%ADD12C,0.03*%
%ADD13C,0.1*%
%ADD14R,0.081X0.081*%
%ADD15C,0.081*%
%ADD16R,0.1X0.1*%
%ADD19C,0.012*%
%ADD20C,0.005*%
%ADD23R,0.1102X0.0866*%
%ADD24R,0.088X0.142*%
%ADD25R,0.1102X0.1102*%
%ADD26C,0.13*%
%ADD27R,0.038X0.032*%
%ADD29C,0.09*%
%ADD30R,0.05X0.05*%
%ADD32R,0.0394X0.0551*%
%ADD35R,0.088X0.048*%
%ADD37R,0.086X0.086*%
%ADD44R,0.0315X0.1457*%
%ADD45R,0.0846X0.128*%
%ADD46R,0.0217X0.0413*%
%ADD47R,0.0157X0.0492*%
%ADD48R,0.0846X0.0374*%
%ADD49R,0.0728X0.0276*%
%ADD50R,0.0394X0.0197*%
%ADD51R,0.0276X0.0728*%
%ADD52R,0.1042X0.0642*%
%ADD53C,0.1164*%
%ADD54R,0.1008X0.0536*%
%ADD55R,0.1022X0.1022*%
%ADD56R,0.1008X0.1442*%
%ADD57R,0.1162X0.1162*%
%ADD58R,0.1042X0.1582*%
%ADD59R,0.1264X0.1028*%
%ADD60R,0.032X0.0654*%
%ADD61R,0.1264X0.1264*%
%ADD62C,0.0914*%
%ADD63R,0.0556X0.036*%
%ADD64R,0.0556X0.0714*%
%ADD65R,0.0662X0.0662*%
%ADD66R,0.089X0.0438*%
%ADD67R,0.0438X0.089*%
G54D10*
%SRX1Y1I0.0J0.0*%
G36*
G1X1102900Y528900D2*
G1X1150200Y481600D1*
G1X1360500Y481600D1*
G1X1360500Y536700D1*
G1X1335200Y562000D1*
G1X1245400Y562000D1*
G1X1243900Y563500D1*
G1X1243900Y724600D1*
G1X1261700Y742400D1*
G1X1261700Y792590D1*
G1X1258890Y792590D1*
G1X1258880Y792580D1*
G1X1252040Y792580D1*
G1X1252030Y792590D1*
G1X1198510Y792590D1*
G1X1198510Y775410D1*
G1X1199310Y775410D1*
G1X1199310Y768790D1*
G1X1192690Y768790D1*
G1X1192690Y769790D1*
G1X1189560Y769790D1*
G1X1185210Y765440D1*
G1X1185210Y760160D1*
G1X1185310Y760060D1*
G1X1185310Y693710D1*
G1X1186310Y693710D1*
G1X1186310Y692710D1*
G1X1187260Y692710D1*
G1X1200750Y679220D1*
G1X1200750Y676100D1*
G75*
G2X1200040Y674430I-2320J0D1*
G1X1200040Y672830D1*
G1X1196840Y672830D1*
G1X1196840Y674430D1*
G2X1196130Y676100I1609J1670D1*
G1X1196130Y677300D1*
G1X1186310Y687120D1*
G1X1186310Y687090D1*
G1X1179690Y687090D1*
G1X1179690Y693710D1*
G1X1180690Y693710D1*
G1X1180690Y758140D1*
G1X1180590Y758240D1*
G1X1180590Y767360D1*
G1X1187640Y774410D1*
G1X1192690Y774410D1*
G1X1192690Y775410D1*
G1X1193890Y775410D1*
G1X1193890Y801790D1*
G1X1191090Y801790D1*
G1X1191090Y812010D1*
G1X1193690Y812010D1*
G1X1193690Y816390D1*
G1X1190790Y816390D1*
G1X1190790Y822810D1*
G1X1201210Y822810D1*
G1X1201210Y816390D1*
G1X1198310Y816390D1*
G1X1198310Y812010D1*
G1X1201310Y812010D1*
G1X1201310Y801790D1*
G1X1198510Y801790D1*
G1X1198510Y797210D1*
G1X1253950Y797210D1*
G1X1253960Y797200D1*
G1X1256960Y797200D1*
G1X1256970Y797210D1*
G1X1261700Y797210D1*
G1X1261700Y817700D1*
G1X1210200Y869200D1*
G1X1135600Y869200D1*
G1X1102900Y836500D1*
G1X1102900Y528900D1*
G37*
G36*
G1X1250600Y568900D2*
G1X1252100Y567400D1*
G1X1408200Y567400D1*
G1X1408300Y567500D1*
G1X1408300Y814900D1*
G1X1407600Y815600D1*
G1X1318550Y815600D1*
G3X1318270Y814920I1J-399D1*
G1X1324770Y808410D1*
G1X1388620Y808410D1*
G1X1388820Y808610D1*
G1X1395680Y808610D1*
G1X1403710Y800580D1*
G1X1403710Y798600D1*
G1X1404200Y798600D1*
G1X1404200Y792840D1*
G1X1400400Y792840D1*
G1X1400400Y798600D1*
G1X1400890Y798600D1*
G1X1400890Y799420D1*
G1X1394520Y805790D1*
G1X1393370Y805790D1*
G3X1393090Y805110I2J-399D1*
G1X1397110Y801080D1*
G1X1397110Y798600D1*
G1X1397600Y798600D1*
G1X1397600Y792840D1*
G1X1393800Y792840D1*
G1X1393800Y798600D1*
G1X1394290Y798600D1*
G1X1394290Y799920D1*
G1X1388620Y805590D1*
G1X1323610Y805590D1*
G1X1313600Y815600D1*
G1X1271100Y815600D1*
G1X1270400Y814900D1*
G1X1270400Y797220D1*
G1X1274940Y797220D1*
G1X1281130Y803410D1*
G1X1287190Y803410D1*
G1X1287190Y804410D1*
G1X1293810Y804410D1*
G1X1293810Y803210D1*
G1X1297360Y803210D1*
G1X1297360Y803580D1*
G1X1307440Y803580D1*
G1X1307440Y798220D1*
G1X1297360Y798220D1*
G1X1297360Y798590D1*
G1X1293810Y798590D1*
G1X1293810Y797790D1*
G1X1287190Y797790D1*
G1X1287190Y798790D1*
G1X1283050Y798790D1*
G1X1276860Y792600D1*
G1X1270400Y792600D1*
G1X1270400Y739800D1*
G1X1250600Y720000D1*
G1X1250600Y568900D1*
G37*
%LPC*%
G36*
G1X1154160Y860290D2*
G1X1166890Y860290D1*
G1X1166890Y855890D1*
G1X1178510Y855890D1*
G1X1178510Y867510D1*
G1X1166890Y867510D1*
G1X1166890Y863110D1*
G1X1154160Y863110D1*
G3X1144631Y861700I-4661J-1411D1*
G3X1154160Y860290I4868J0D1*
G37*
G36*
G1X1317280Y554520D2*
G1X1317340Y554590D1*
G1X1317820Y554590D1*
G1X1317830Y554580D1*
G1X1331220Y554580D1*
G1X1338890Y546910D1*
G1X1338890Y532420D1*
G1X1333980Y532420D1*
G1X1333980Y519780D1*
G1X1346620Y519780D1*
G1X1346620Y532420D1*
G1X1341710Y532420D1*
G1X1341710Y548070D1*
G1X1332380Y557400D1*
G1X1318990Y557400D1*
G1X1318980Y557410D1*
G1X1317340Y557410D1*
G3X1313182Y556051I-1842J-1408D1*
G3X1317280Y554520I2316J-49D1*
G37*
G36*
G1X1162460Y548670D2*
G1X1162460Y536030D1*
G1X1175100Y536030D1*
G1X1175100Y540940D1*
G1X1177270Y540940D1*
G1X1184890Y533320D1*
G1X1184890Y532920D1*
G1X1179980Y532920D1*
G1X1179980Y520280D1*
G1X1192620Y520280D1*
G1X1192620Y532920D1*
G1X1187710Y532920D1*
G1X1187710Y534480D1*
G1X1178430Y543760D1*
G1X1175100Y543760D1*
G1X1175100Y548670D1*
G1X1170190Y548670D1*
G1X1170190Y559800D1*
G1X1204810Y594420D1*
G1X1204810Y601190D1*
G1X1206710Y601190D1*
G1X1206710Y607810D1*
G1X1200090Y607810D1*
G1X1200090Y601190D1*
G1X1201990Y601190D1*
G1X1201990Y595580D1*
G1X1167370Y560960D1*
G1X1167370Y548670D1*
G1X1162460Y548670D1*
G37*
G36*
G1X1202460Y548670D2*
G1X1202460Y536030D1*
G1X1215100Y536030D1*
G1X1215100Y540940D1*
G1X1218070Y540940D1*
G1X1224890Y534120D1*
G1X1224890Y532920D1*
G1X1219980Y532920D1*
G1X1219980Y520280D1*
G1X1232620Y520280D1*
G1X1232620Y532920D1*
G1X1227710Y532920D1*
G1X1227710Y535280D1*
G1X1219230Y543760D1*
G1X1215100Y543760D1*
G1X1215100Y548670D1*
G1X1208610Y548670D1*
G1X1208610Y570220D1*
G1X1231110Y592720D1*
G1X1231110Y600590D1*
G1X1233010Y600590D1*
G1X1233010Y607210D1*
G1X1226390Y607210D1*
G1X1226390Y600590D1*
G1X1228290Y600590D1*
G1X1228290Y593880D1*
G1X1205790Y571380D1*
G1X1205790Y548670D1*
G1X1202460Y548670D1*
G37*
G36*
G1X1226710Y544690D2*
G1X1226810Y544700D1*
G1X1230570Y540940D1*
G1X1238960Y540940D1*
G1X1238960Y536030D1*
G1X1251600Y536030D1*
G1X1251600Y540940D1*
G1X1254570Y540940D1*
G1X1261390Y534120D1*
G1X1261390Y532920D1*
G1X1256480Y532920D1*
G1X1256480Y520280D1*
G1X1269120Y520280D1*
G1X1269120Y532920D1*
G1X1264210Y532920D1*
G1X1264210Y535280D1*
G1X1255730Y543760D1*
G1X1251600Y543760D1*
G1X1251600Y548670D1*
G1X1238960Y548670D1*
G1X1238960Y543760D1*
G1X1231730Y543760D1*
G1X1228800Y546690D1*
G1X1228810Y546790D1*
G3X1224860Y548640I-2310J210D1*
G3X1226710Y544690I1639J-1641D1*
G37*
G36*
G1X1263710Y548690D2*
G1X1263810Y548700D1*
G1X1271570Y540940D1*
G1X1277460Y540940D1*
G1X1277460Y536030D1*
G1X1290100Y536030D1*
G1X1290100Y540940D1*
G1X1292770Y540940D1*
G1X1299890Y533820D1*
G1X1299890Y532920D1*
G1X1294980Y532920D1*
G1X1294980Y520280D1*
G1X1307620Y520280D1*
G1X1307620Y532920D1*
G1X1302710Y532920D1*
G1X1302710Y534980D1*
G1X1293930Y543760D1*
G1X1290100Y543760D1*
G1X1290100Y548670D1*
G1X1277460Y548670D1*
G1X1277460Y543760D1*
G1X1272730Y543760D1*
G1X1265800Y550690D1*
G1X1265810Y550790D1*
G3X1261860Y552640I-2310J210D1*
G3X1263710Y548690I1639J-1641D1*
G37*
G36*
G1X1226390Y615610D2*
G1X1226390Y608990D1*
G1X1233010Y608990D1*
G1X1233010Y615610D1*
G1X1231110Y615610D1*
G1X1231110Y623030D1*
G1X1231990Y623030D1*
G1X1231990Y631930D1*
G1X1227610Y631930D1*
G1X1227610Y623030D1*
G1X1228290Y623030D1*
G1X1228290Y615610D1*
G1X1226390Y615610D1*
G37*
G36*
G1X1200090Y616210D2*
G1X1200090Y609590D1*
G1X1206710Y609590D1*
G1X1206710Y616210D1*
G1X1204810Y616210D1*
G1X1204810Y623130D1*
G1X1205590Y623130D1*
G1X1205590Y632030D1*
G1X1201210Y632030D1*
G1X1201210Y623130D1*
G1X1201990Y623130D1*
G1X1201990Y616210D1*
G1X1200090Y616210D1*
G37*
G36*
G1X1174790Y617310D2*
G1X1174790Y610690D1*
G1X1181410Y610690D1*
G1X1181410Y617310D1*
G1X1179510Y617310D1*
G1X1179510Y623330D1*
G1X1180290Y623330D1*
G1X1180290Y632230D1*
G1X1175910Y632230D1*
G1X1175910Y623330D1*
G1X1176690Y623330D1*
G1X1176690Y617310D1*
G1X1174790Y617310D1*
G37*
G36*
G1X1149190Y617710D2*
G1X1149190Y611090D1*
G1X1155810Y611090D1*
G1X1155810Y617710D1*
G1X1153910Y617710D1*
G1X1153910Y623530D1*
G1X1154590Y623530D1*
G1X1154590Y632430D1*
G1X1150210Y632430D1*
G1X1150210Y623530D1*
G1X1151090Y623530D1*
G1X1151090Y617710D1*
G1X1149190Y617710D1*
G37*
G36*
G1X1150210Y634550D2*
G1X1154590Y634550D1*
G1X1154590Y637390D1*
G1X1175910Y637390D1*
G1X1175910Y634350D1*
G1X1180290Y634350D1*
G1X1180290Y637390D1*
G1X1183080Y637390D1*
G1X1193190Y647500D1*
G1X1193290Y647490D1*
G3X1195140Y651440I210J2309D1*
G3X1191190Y649590I-1641J-1640D1*
G1X1191200Y649490D1*
G1X1181920Y640210D1*
G1X1180290Y640210D1*
G1X1180290Y643250D1*
G1X1175910Y643250D1*
G1X1175910Y640210D1*
G1X1154590Y640210D1*
G1X1154590Y643450D1*
G1X1154210Y643450D1*
G1X1154210Y656350D1*
G1X1154990Y656350D1*
G1X1154990Y665250D1*
G1X1150610Y665250D1*
G1X1150610Y656350D1*
G1X1151390Y656350D1*
G1X1151390Y643450D1*
G1X1150210Y643450D1*
G1X1150210Y634550D1*
G37*
G36*
G1X1149490Y687410D2*
G1X1149490Y680790D1*
G1X1151390Y680790D1*
G1X1151390Y676270D1*
G1X1150610Y676270D1*
G1X1150610Y667370D1*
G1X1154990Y667370D1*
G1X1154990Y676270D1*
G1X1154210Y676270D1*
G1X1154210Y680790D1*
G1X1156110Y680790D1*
G1X1156110Y687410D1*
G1X1149490Y687410D1*
G37*
G36*
G1X1221610Y722770D2*
G1X1221610Y713870D1*
G1X1225990Y713870D1*
G1X1225990Y718520D1*
G1X1236510Y729040D1*
G1X1236510Y756520D1*
G1X1249120Y769130D1*
G1X1249220Y769110D1*
G3X1251357Y772914I380J2288D1*
G3X1247280Y771360I-1758J-1515D1*
G1X1247280Y771280D1*
G1X1233690Y757680D1*
G1X1233690Y730200D1*
G1X1226260Y722770D1*
G1X1221610Y722770D1*
G37*
G36*
G1X1204990Y731790D2*
G1X1211610Y731790D1*
G1X1211610Y733690D1*
G1X1221110Y733690D1*
G1X1221110Y730830D1*
G1X1225490Y730830D1*
G1X1225490Y739730D1*
G1X1221110Y739730D1*
G1X1221110Y736510D1*
G1X1211610Y736510D1*
G1X1211610Y738410D1*
G1X1204990Y738410D1*
G1X1204990Y731790D1*
G37*
G36*
G1X1221110Y741850D2*
G1X1225490Y741850D1*
G1X1225490Y750750D1*
G1X1224710Y750750D1*
G1X1224710Y753320D1*
G1X1256510Y785120D1*
G1X1256510Y787360D1*
G3X1255100Y791518I-1410J1839D1*
G3X1253690Y787360I-1J-2319D1*
G1X1253690Y786280D1*
G1X1221890Y754480D1*
G1X1221890Y750750D1*
G1X1221110Y750750D1*
G1X1221110Y741850D1*
G37*
G36*
G1X1144640Y806560D2*
G1X1144640Y796840D1*
G1X1154360Y796840D1*
G1X1154360Y800290D1*
G1X1162590Y800290D1*
G1X1162590Y798290D1*
G1X1169210Y798290D1*
G1X1169210Y804910D1*
G1X1167310Y804910D1*
G1X1167310Y825520D1*
G1X1177980Y836190D1*
G1X1190790Y836190D1*
G1X1190790Y834390D1*
G1X1201210Y834390D1*
G1X1201210Y840810D1*
G1X1190790Y840810D1*
G1X1190790Y839010D1*
G1X1176820Y839010D1*
G1X1164490Y826680D1*
G1X1164490Y804910D1*
G1X1162590Y804910D1*
G1X1162590Y803110D1*
G1X1154360Y803110D1*
G1X1154360Y806560D1*
G1X1144640Y806560D1*
G37*
G36*
G1X1119500Y726480D2*
G2X1120130Y726570I349J-196D1*
G1X1123590Y723110D1*
G1X1123590Y719340D1*
G3X1125000Y715182I1409J-1840D1*
G3X1126410Y719340I0J2318D1*
G1X1126410Y724270D1*
G1X1120580Y730100D1*
G1X1119850Y730100D1*
G3X1110951Y729133I-4350J-1407D1*
G3X1119500Y726480I4549J-440D1*
G37*
G36*
G1X1119740Y707290D2*
G1X1136020Y707290D1*
G1X1149490Y693820D1*
G1X1149490Y689190D1*
G1X1156110Y689190D1*
G1X1156110Y695810D1*
G1X1151480Y695810D1*
G1X1137180Y710110D1*
G1X1119940Y710110D1*
G1X1119890Y710260D1*
G3X1110935Y709224I-4391J-1267D1*
G3X1119740Y707290I4564J-232D1*
G37*
G36*
G1X1119850Y652780D2*
G1X1127230Y652780D1*
G1X1128590Y651420D1*
G1X1128590Y643840D1*
G3X1130000Y639682I1409J-1840D1*
G3X1131410Y643840I0J2318D1*
G1X1131410Y652580D1*
G1X1128390Y655600D1*
G1X1119850Y655600D1*
G3X1110927Y654190I-4351J-1411D1*
G3X1119850Y652780I4572J0D1*
G37*
G36*
G1X1117450Y630370D2*
G1X1117580Y630430D1*
G1X1143420Y604590D1*
G1X1149190Y604590D1*
G1X1149190Y602690D1*
G1X1155810Y602690D1*
G1X1155810Y609310D1*
G1X1149190Y609310D1*
G1X1149190Y607410D1*
G1X1144580Y607410D1*
G1X1119570Y632420D1*
G1X1119630Y632550D1*
G3X1112271Y637729I-4130J1950D1*
G3X1117450Y630370I3228J-3230D1*
G37*
G36*
G1X1119850Y579280D2*
G1X1132230Y579280D1*
G1X1133590Y577920D1*
G1X1133590Y573840D1*
G3X1135000Y569682I1409J-1840D1*
G3X1136410Y573840I0J2318D1*
G1X1136410Y579080D1*
G1X1133390Y582100D1*
G1X1119850Y582100D1*
G3X1110927Y580690I-4351J-1411D1*
G3X1119850Y579280I4572J0D1*
G37*
G36*
G1X1117348Y556824D2*
G3X1118560Y564390I-1854J4177D1*
G2X1118830Y565090I267J299D1*
G1X1144680Y565090D1*
G1X1179510Y599920D1*
G1X1179510Y602290D1*
G1X1181410Y602290D1*
G1X1181410Y608910D1*
G1X1174790Y608910D1*
G1X1174790Y602290D1*
G1X1176690Y602290D1*
G1X1176690Y601080D1*
G1X1143520Y567910D1*
G1X1116120Y567910D1*
G1X1114090Y565880D1*
G1X1114090Y565350D1*
G3X1111225Y559370I1404J-4349D1*
G3X1117348Y556824I4268J1630D1*
G37*
G36*
G1X1201210Y634150D2*
G1X1205590Y634150D1*
G1X1205590Y637090D1*
G1X1227610Y637090D1*
G1X1227610Y634050D1*
G1X1231990Y634050D1*
G1X1231990Y642950D1*
G1X1231210Y642950D1*
G1X1231210Y646290D1*
G1X1233010Y646290D1*
G1X1233010Y648090D1*
G1X1236490Y648090D1*
G1X1236490Y647090D1*
G1X1241910Y647090D1*
G1X1241910Y651910D1*
G1X1236490Y651910D1*
G1X1236490Y650910D1*
G1X1233010Y650910D1*
G1X1233010Y652910D1*
G1X1226390Y652910D1*
G1X1226390Y646290D1*
G1X1228390Y646290D1*
G1X1228390Y642950D1*
G1X1227610Y642950D1*
G1X1227610Y639910D1*
G1X1205590Y639910D1*
G1X1205590Y643050D1*
G1X1204810Y643050D1*
G1X1204810Y657080D1*
G1X1204960Y657080D1*
G1X1204960Y663620D1*
G1X1201760Y663620D1*
G1X1201760Y657080D1*
G1X1201990Y657080D1*
G1X1201990Y643050D1*
G1X1201210Y643050D1*
G1X1201210Y634150D1*
G37*
G36*
G1X1175810Y664750D2*
G1X1175810Y655850D1*
G1X1180190Y655850D1*
G1X1180190Y658290D1*
G1X1196840Y658290D1*
G1X1196840Y657080D1*
G1X1200040Y657080D1*
G1X1200040Y659040D1*
G3X1200040Y661780I-1541J1370D1*
G1X1200040Y663620D1*
G1X1196840Y663620D1*
G1X1196840Y662410D1*
G1X1180260Y662410D1*
G1X1180260Y665250D1*
G1X1180390Y665250D1*
G1X1180390Y667640D1*
G1X1202950Y667640D1*
G1X1205420Y670110D1*
G1X1205420Y683890D1*
G1X1201460Y687850D1*
G1X1201460Y751750D1*
G1X1210100Y760390D1*
G1X1213810Y760390D1*
G1X1213810Y767010D1*
G1X1207190Y767010D1*
G1X1207190Y765760D1*
G1X1199310Y765760D1*
G1X1199310Y767010D1*
G1X1192690Y767010D1*
G1X1192690Y760390D1*
G1X1199310Y760390D1*
G1X1199310Y761640D1*
G1X1204560Y761640D1*
G2X1204840Y760960I-2J-399D1*
G1X1197340Y753450D1*
G1X1197340Y686150D1*
G1X1201300Y682190D1*
G1X1201300Y671810D1*
G1X1201250Y671760D1*
G1X1180390Y671760D1*
G1X1180390Y674150D1*
G1X1176010Y674150D1*
G1X1176010Y665250D1*
G1X1176140Y665250D1*
G1X1176140Y664750D1*
G1X1175810Y664750D1*
G37*
G36*
G1X1207020Y664680D2*
G2X1207300Y664000I-2J-399D1*
G1X1206930Y663620D1*
G1X1206680Y663620D1*
G1X1206680Y657080D1*
G1X1206870Y657080D1*
G1X1206870Y653440D1*
G1X1208820Y651490D1*
G1X1218480Y651490D1*
G1X1223580Y656590D1*
G1X1226390Y656590D1*
G1X1226390Y654690D1*
G1X1233010Y654690D1*
G1X1233010Y656590D1*
G1X1235720Y656590D1*
G1X1236490Y655820D1*
G1X1236490Y652690D1*
G1X1241910Y652690D1*
G1X1241910Y657510D1*
G1X1238780Y657510D1*
G1X1236880Y659410D1*
G1X1233010Y659410D1*
G1X1233010Y661310D1*
G1X1226390Y661310D1*
G1X1226390Y659410D1*
G1X1222420Y659410D1*
G1X1217320Y654310D1*
G1X1209980Y654310D1*
G1X1209690Y654600D1*
G1X1209690Y657080D1*
G1X1209880Y657080D1*
G1X1209880Y662580D1*
G1X1212480Y665190D1*
G1X1227980Y665190D1*
G1X1239810Y677020D1*
G1X1239810Y694980D1*
G1X1225990Y708800D1*
G1X1225990Y711750D1*
G1X1221610Y711750D1*
G1X1221610Y702850D1*
G1X1225990Y702850D1*
G1X1225990Y703850D1*
G2X1226670Y704130I398J-3D1*
G1X1236990Y693820D1*
G1X1236990Y678180D1*
G1X1226820Y668010D1*
G1X1211320Y668010D1*
G1X1210000Y666700D1*
G2X1209320Y666980I-282J281D1*
G3X1209050Y668090I-2321J23D1*
G1X1208980Y668220D1*
G1X1213590Y672830D1*
G1X1214800Y672830D1*
G1X1214800Y674690D1*
G1X1219780Y674690D1*
G1X1226080Y680990D1*
G1X1230710Y680990D1*
G1X1230710Y687610D1*
G1X1224090Y687610D1*
G1X1224090Y682980D1*
G1X1218620Y677510D1*
G1X1214800Y677510D1*
G1X1214800Y679370D1*
G1X1211600Y679370D1*
G1X1211600Y674830D1*
G1X1210560Y673780D1*
G2X1209880Y674070I-281J283D1*
G1X1209880Y679580D1*
G1X1221580Y691290D1*
G1X1224090Y691290D1*
G1X1224090Y689390D1*
G1X1230710Y689390D1*
G1X1230710Y696010D1*
G1X1224090Y696010D1*
G1X1224090Y694110D1*
G1X1220420Y694110D1*
G1X1210370Y684070D1*
G2X1209690Y684350I-282J282D1*
G1X1209690Y723390D1*
G1X1211610Y723390D1*
G1X1211610Y730010D1*
G1X1204990Y730010D1*
G1X1204990Y723390D1*
G1X1206870Y723390D1*
G1X1206870Y679370D1*
G1X1206680Y679370D1*
G1X1206680Y672830D1*
G1X1208640Y672830D1*
G2X1208920Y672150I-3J-399D1*
G1X1205690Y668920D1*
G1X1205680Y668900D1*
G3X1207020Y664680I1324J-1903D1*
G37*
G36*
G1X1280490Y635040D2*
G1X1283720Y631810D1*
G1X1283720Y630200D1*
G1X1289280Y630200D1*
G1X1289280Y630250D1*
G1X1289520Y630350D1*
G1X1294390Y625490D1*
G1X1294390Y610820D1*
G1X1299230Y605980D1*
G1X1303410Y605980D1*
G1X1303410Y605590D1*
G1X1308970Y605590D1*
G1X1308970Y609190D1*
G1X1303410Y609190D1*
G1X1303410Y608800D1*
G1X1300390Y608800D1*
G1X1297210Y611980D1*
G1X1297210Y626650D1*
G1X1290450Y633410D1*
G1X1289280Y633410D1*
G1X1289280Y633800D1*
G1X1285720Y633800D1*
G1X1283310Y636200D1*
G1X1283310Y642220D1*
G1X1306680Y665590D1*
G1X1322780Y665590D1*
G1X1325710Y668520D1*
G1X1325710Y691620D1*
G1X1326080Y691990D1*
G1X1340290Y691990D1*
G1X1340290Y687710D1*
G1X1338390Y687710D1*
G1X1338390Y681090D1*
G1X1345010Y681090D1*
G1X1345010Y687710D1*
G1X1343110Y687710D1*
G1X1343110Y691890D1*
G1X1380890Y691890D1*
G1X1380890Y687490D1*
G1X1392510Y687490D1*
G1X1392510Y699110D1*
G1X1380890Y699110D1*
G1X1380890Y694710D1*
G1X1342320Y694710D1*
G1X1342290Y694720D1*
G3X1341800Y694810I-496J-1321D1*
G1X1324920Y694810D1*
G1X1322890Y692780D1*
G1X1322890Y669680D1*
G1X1321620Y668410D1*
G1X1308210Y668410D1*
G1X1308210Y684200D1*
G1X1309280Y684200D1*
G1X1309280Y687800D1*
G1X1303720Y687800D1*
G1X1303720Y684200D1*
G1X1305390Y684200D1*
G1X1305390Y668280D1*
G1X1280490Y643380D1*
G1X1280490Y635040D1*
G37*
G36*
G1X1379720Y779060D2*
G1X1379720Y775460D1*
G1X1385280Y775460D1*
G1X1385280Y775510D1*
G1X1385520Y775610D1*
G1X1400990Y760150D1*
G1X1400990Y654280D1*
G1X1393490Y646790D1*
G2X1392810Y647070I-282J282D1*
G1X1392810Y650510D1*
G1X1381190Y650510D1*
G1X1381190Y638890D1*
G1X1392810Y638890D1*
G1X1392810Y643290D1*
G1X1393980Y643290D1*
G1X1403810Y653120D1*
G1X1403810Y761310D1*
G1X1386450Y778670D1*
G1X1385280Y778670D1*
G1X1385280Y779060D1*
G1X1379720Y779060D1*
G37*
G36*
G1X1300705Y686283D2*
G3X1302910Y688810I-105J2317D1*
G1X1302900Y688910D1*
G1X1303380Y689380D1*
G2X1303720Y689240I141J-141D1*
G1X1303720Y689120D1*
G1X1309280Y689120D1*
G1X1309280Y692720D1*
G1X1303720Y692720D1*
G1X1303720Y692330D1*
G1X1302340Y692330D1*
G1X1300910Y690900D1*
G1X1300810Y690910D1*
G3X1298281Y688653I-210J-2311D1*
G3X1300705Y686283I2318J-53D1*
G37*
G36*
G1X1302890Y643410D2*
G1X1302890Y636790D1*
G1X1304140Y636790D1*
G1X1304140Y635250D1*
G1X1304130Y635240D1*
G1X1304130Y633800D1*
G1X1303410Y633800D1*
G1X1303410Y630200D1*
G1X1305180Y630200D1*
G3X1306190Y629940I1002J1802D1*
G1X1315350Y629940D1*
G1X1329940Y615350D1*
G1X1329940Y594210D1*
G1X1328690Y594210D1*
G1X1328690Y587590D1*
G1X1335310Y587590D1*
G1X1335310Y594210D1*
G1X1334060Y594210D1*
G1X1334060Y617050D1*
G1X1317050Y634060D1*
G1X1308260Y634060D1*
G1X1308260Y636790D1*
G1X1309510Y636790D1*
G1X1309510Y643410D1*
G1X1309290Y643410D1*
G2X1309010Y644090I1J398D1*
G1X1309150Y644240D1*
G1X1328450Y644240D1*
G1X1333060Y648850D1*
G1X1333060Y679280D1*
G1X1333070Y679300D1*
G3X1333070Y680300I-2271J500D1*
G1X1333060Y680320D1*
G1X1333060Y680450D1*
G1X1333010Y680500D1*
G1X1333000Y680550D1*
G3X1329721Y681849I-2197J-756D1*
G3X1328940Y678410I1083J-2055D1*
G1X1328940Y663260D1*
G1X1313910Y663260D1*
G1X1313910Y664510D1*
G1X1307290Y664510D1*
G1X1307290Y657890D1*
G1X1313910Y657890D1*
G1X1313910Y659140D1*
G1X1328940Y659140D1*
G1X1328940Y650550D1*
G1X1326750Y648360D1*
G1X1307450Y648360D1*
G1X1304140Y645050D1*
G1X1304140Y643410D1*
G1X1302890Y643410D1*
G37*
G36*
G1X1257090Y621920D2*
G1X1276200Y602810D1*
G1X1276190Y602710D1*
G3X1280140Y600860I2309J-211D1*
G3X1278290Y604810I-1640J1640D1*
G1X1278190Y604800D1*
G1X1259910Y623080D1*
G1X1259910Y692920D1*
G1X1276190Y709200D1*
G1X1276290Y709190D1*
G3X1278140Y713140I210J2309D1*
G3X1274190Y711290I-1641J-1640D1*
G1X1274200Y711190D1*
G1X1257090Y694080D1*
G1X1257090Y621920D1*
G37*
G36*
G1X1300340Y601090D2*
G1X1302210Y601090D1*
G1X1302240Y601060D1*
G1X1303410Y601060D1*
G1X1303410Y600670D1*
G1X1308970Y600670D1*
G1X1308970Y604270D1*
G1X1303410Y604270D1*
G1X1303410Y603910D1*
G1X1300340Y603910D1*
G3X1296182Y602500I-1840J-1410D1*
G3X1300340Y601090I2318J-1D1*
G37*
G36*
G1X1340660Y601970D2*
G1X1346220Y601970D1*
G1X1346220Y606330D1*
G1X1347380Y607490D1*
G1X1350590Y607490D1*
G1X1350590Y605590D1*
G1X1357210Y605590D1*
G1X1357210Y612210D1*
G1X1350590Y612210D1*
G1X1350590Y610310D1*
G1X1346220Y610310D1*
G1X1345010Y609110D1*
G1X1340660Y609110D1*
G1X1340660Y601970D1*
G37*
G36*
G1X1260690Y627840D2*
G1X1282550Y605980D1*
G1X1283720Y605980D1*
G1X1283720Y605590D1*
G1X1289280Y605590D1*
G1X1289280Y609190D1*
G1X1283720Y609190D1*
G1X1283720Y609140D1*
G1X1283480Y609040D1*
G1X1263510Y629000D1*
G1X1263510Y688690D1*
G1X1283790Y708960D1*
G1X1284030Y708860D1*
G1X1284030Y708810D1*
G1X1289590Y708810D1*
G1X1289590Y712410D1*
G1X1284030Y712410D1*
G1X1284030Y712020D1*
G1X1282860Y712020D1*
G1X1260690Y689850D1*
G1X1260690Y627840D1*
G37*
G36*
G1X1264840Y630670D2*
G1X1279680Y615830D1*
G1X1283720Y615830D1*
G1X1283720Y615440D1*
G1X1289280Y615440D1*
G1X1289280Y619040D1*
G1X1283720Y619040D1*
G1X1283720Y618650D1*
G1X1280840Y618650D1*
G1X1267660Y631830D1*
G1X1267660Y686770D1*
G1X1284790Y703890D1*
G1X1289590Y703890D1*
G1X1289590Y707490D1*
G1X1284030Y707490D1*
G1X1284030Y707120D1*
G1X1264840Y687930D1*
G1X1264840Y630670D1*
G37*
G36*
G1X1275090Y633130D2*
G1X1282550Y625670D1*
G1X1283720Y625670D1*
G1X1283720Y625280D1*
G1X1289280Y625280D1*
G1X1289280Y628880D1*
G1X1283720Y628880D1*
G1X1283720Y628830D1*
G1X1283480Y628730D1*
G1X1277910Y634290D1*
G1X1277910Y683420D1*
G1X1283790Y689290D1*
G1X1284030Y689190D1*
G1X1284030Y689120D1*
G1X1289590Y689120D1*
G1X1289590Y692720D1*
G1X1284030Y692720D1*
G1X1284030Y692330D1*
G1X1282840Y692330D1*
G1X1275090Y684580D1*
G1X1275090Y633130D1*
G37*
G36*
G1X1271858Y638335D2*
G3X1272160Y642280I-1057J2064D1*
G1X1272160Y683670D1*
G1X1282920Y694430D1*
G1X1284030Y694430D1*
G1X1284030Y694040D1*
G1X1289590Y694040D1*
G1X1289590Y697640D1*
G1X1284030Y697640D1*
G1X1284030Y697250D1*
G1X1281760Y697250D1*
G1X1269340Y684830D1*
G1X1269340Y642200D1*
G3X1271858Y638335I1462J-1800D1*
G37*
G36*
G1X1295426Y639521D2*
G3X1295810Y643440I-1027J2078D1*
G1X1295810Y646120D1*
G1X1301080Y651390D1*
G1X1307290Y651390D1*
G1X1307290Y649490D1*
G1X1313910Y649490D1*
G1X1313910Y651390D1*
G1X1323740Y651390D1*
G3X1327816Y653021I1761J1507D1*
G3X1323590Y654210I-2315J-124D1*
G1X1313910Y654210D1*
G1X1313910Y656110D1*
G1X1307290Y656110D1*
G1X1307290Y654210D1*
G1X1299920Y654210D1*
G1X1292990Y647280D1*
G1X1292990Y643440D1*
G3X1295426Y639521I1410J-1841D1*
G37*
G36*
G1X1339926Y650921D2*
G3X1340310Y654840I-1027J2078D1*
G1X1340310Y669520D1*
G1X1345060Y674270D1*
G1X1354920Y674270D1*
G1X1354920Y672110D1*
G1X1360480Y672110D1*
G1X1360480Y679250D1*
G1X1354920Y679250D1*
G1X1354920Y677090D1*
G1X1343900Y677090D1*
G1X1337490Y670680D1*
G1X1337490Y654840D1*
G3X1339926Y650921I1410J-1841D1*
G37*
G36*
G1X1283490Y676110D2*
G1X1283490Y669490D1*
G1X1290110Y669490D1*
G1X1290110Y673200D1*
G1X1294650Y677740D1*
G1X1301110Y677740D1*
G3X1304549Y678521I1384J1864D1*
G3X1303250Y681800I-2055J1082D1*
G1X1303200Y681810D1*
G1X1303150Y681860D1*
G1X1303020Y681860D1*
G1X1303000Y681870D1*
G3X1302000Y681870I-500J-2271D1*
G1X1301980Y681860D1*
G1X1292950Y681860D1*
G1X1289550Y678470D1*
G2X1288870Y678750I-282J281D1*
G1X1288870Y684200D1*
G1X1289590Y684200D1*
G1X1289590Y687800D1*
G1X1287820Y687800D1*
G3X1285800Y687800I-1010J-1801D1*
G1X1284030Y687800D1*
G1X1284030Y684200D1*
G1X1284750Y684200D1*
G1X1284750Y676110D1*
G1X1283490Y676110D1*
G37*
G36*
G1X1303720Y707490D2*
G1X1303720Y703890D1*
G1X1309280Y703890D1*
G1X1309280Y704280D1*
G1X1309830Y704280D1*
G1X1317490Y696620D1*
G1X1317490Y675040D1*
G3X1318900Y670882I1409J-1840D1*
G3X1320310Y675040I0J2318D1*
G1X1320310Y697780D1*
G1X1310990Y707100D1*
G1X1309280Y707100D1*
G1X1309280Y707490D1*
G1X1303720Y707490D1*
G37*
G36*
G1X1346790Y681090D2*
G1X1353410Y681090D1*
G1X1353410Y682990D1*
G1X1357430Y682990D1*
G1X1357490Y682930D1*
G1X1358660Y682930D1*
G1X1358660Y680770D1*
G1X1364220Y680770D1*
G1X1364220Y687910D1*
G1X1358660Y687910D1*
G1X1358660Y685810D1*
G1X1353410Y685810D1*
G1X1353410Y687710D1*
G1X1346790Y687710D1*
G1X1346790Y681090D1*
G37*
G36*
G1X1303720Y694040D2*
G1X1309280Y694040D1*
G1X1309280Y694430D1*
G1X1311760Y694430D1*
G3X1315918Y695840I1839J1409D1*
G3X1311760Y697250I-2319J0D1*
G1X1309280Y697250D1*
G1X1309280Y697640D1*
G1X1303720Y697640D1*
G1X1303720Y694040D1*
G37*
G36*
G1X1284030Y702560D2*
G1X1284030Y698960D1*
G1X1289590Y698960D1*
G1X1289590Y699350D1*
G1X1290760Y699350D1*
G1X1295810Y704400D1*
G1X1295810Y715220D1*
G1X1341680Y761090D1*
G1X1352160Y761090D1*
G3X1356318Y762500I1839J1409D1*
G3X1352160Y763910I-2319J0D1*
G1X1340520Y763910D1*
G1X1292990Y716380D1*
G1X1292990Y705560D1*
G1X1289830Y702410D1*
G1X1289590Y702510D1*
G1X1289590Y702560D1*
G1X1284030Y702560D1*
G37*
G36*
G1X1298090Y711660D2*
G1X1298090Y702420D1*
G1X1301160Y699350D1*
G1X1303720Y699350D1*
G1X1303720Y698960D1*
G1X1309280Y698960D1*
G1X1309280Y702560D1*
G1X1303720Y702560D1*
G1X1303720Y702170D1*
G1X1302320Y702170D1*
G1X1300910Y703580D1*
G1X1300910Y711660D1*
G3X1299500Y715818I-1410J1839D1*
G3X1298090Y711660I-1J-2319D1*
G37*
G36*
G1X1303720Y712410D2*
G1X1303720Y708810D1*
G1X1309280Y708810D1*
G1X1309280Y709200D1*
G1X1335990Y709200D1*
G1X1338710Y711920D1*
G1X1338710Y741920D1*
G1X1344480Y747690D1*
G1X1387580Y747690D1*
G1X1389210Y749320D1*
G1X1389210Y766070D1*
G1X1386450Y768830D1*
G1X1385280Y768830D1*
G1X1385280Y769220D1*
G1X1379720Y769220D1*
G1X1379720Y765620D1*
G1X1385280Y765620D1*
G1X1385280Y765670D1*
G1X1385520Y765770D1*
G1X1386390Y764910D1*
G1X1386390Y750510D1*
G1X1343320Y750510D1*
G1X1335890Y743080D1*
G1X1335890Y713080D1*
G1X1334830Y712020D1*
G1X1309280Y712020D1*
G1X1309280Y712410D1*
G1X1303720Y712410D1*
G37*
G36*
G1X1284030Y717330D2*
G1X1284030Y713730D1*
G1X1289590Y713730D1*
G1X1289590Y715340D1*
G1X1336410Y762160D1*
G1X1336410Y800300D1*
G3X1335981Y804653I-981J2101D1*
G3X1333590Y800990I-552J-2252D1*
G1X1333590Y763320D1*
G1X1287590Y717330D1*
G1X1284030Y717330D1*
G37*
G36*
G1X1328560Y723330D2*
G1X1328790Y723100D1*
G1X1328800Y723050D1*
G3X1332199Y721817I2195J752D1*
G3X1332680Y725400I-1203J1985D1*
G1X1332680Y742970D1*
G1X1342250Y752540D1*
G1X1354780Y752540D1*
G1X1355580Y753340D1*
G1X1366690Y753340D1*
G1X1366690Y752090D1*
G1X1373310Y752090D1*
G1X1373310Y758710D1*
G1X1366690Y758710D1*
G1X1366690Y757460D1*
G1X1360670Y757460D1*
G2X1360390Y758140I1J398D1*
G1X1362680Y760440D1*
G1X1362818Y760440D1*
G3X1363820Y760700I-1J2062D1*
G1X1365590Y760700D1*
G1X1365590Y764300D1*
G1X1363820Y764300D1*
G3X1362810Y764560I-1003J-1803D1*
G1X1360980Y764560D1*
G1X1360710Y764300D1*
G1X1360030Y764300D1*
G1X1360030Y763610D1*
G1X1353080Y756660D1*
G1X1340550Y756660D1*
G1X1328560Y744670D1*
G1X1328560Y723330D1*
G37*
G36*
G1X1297360Y785470D2*
G1X1297360Y780110D1*
G1X1300540Y780110D1*
G1X1300540Y771490D1*
G1X1298150Y771490D1*
G1X1298150Y767110D1*
G1X1300740Y767110D1*
G1X1300740Y752370D1*
G3X1302800Y748979I2059J-1070D1*
G3X1304860Y752370I0J2321D1*
G1X1304860Y767110D1*
G1X1307050Y767110D1*
G1X1307050Y771490D1*
G1X1304660Y771490D1*
G1X1304660Y780110D1*
G1X1307440Y780110D1*
G1X1307440Y785470D1*
G1X1297360Y785470D1*
G37*
G36*
G1X1372940Y761090D2*
G1X1379720Y761090D1*
G1X1379720Y760700D1*
G1X1385280Y760700D1*
G1X1385280Y764300D1*
G1X1379720Y764300D1*
G1X1379720Y763910D1*
G1X1372940Y763910D1*
G3X1368782Y762500I-1840J-1410D1*
G3X1372940Y761090I2318J-1D1*
G37*
G36*
G1X1396572Y773993D2*
G3X1397110Y777860I-971J2105D1*
G1X1397110Y781820D1*
G1X1397600Y781820D1*
G1X1397600Y787580D1*
G1X1393800Y787580D1*
G1X1393800Y781820D1*
G1X1394290Y781820D1*
G1X1394290Y778010D1*
G3X1396572Y773993I1312J-1912D1*
G37*
G36*
G1X1303410Y619040D2*
G1X1303410Y615440D1*
G1X1308970Y615440D1*
G1X1308970Y615830D1*
G1X1315280Y615830D1*
G1X1315320Y615790D1*
G1X1317160Y615790D1*
G3X1320639Y615561I1839J1409D1*
G3X1320410Y619040I-1639J1639D1*
G1X1320410Y620680D1*
G1X1312600Y628490D1*
G1X1308970Y628490D1*
G1X1308970Y628880D1*
G1X1303410Y628880D1*
G1X1303410Y625280D1*
G1X1308970Y625280D1*
G1X1308970Y625670D1*
G1X1311440Y625670D1*
G1X1317590Y619520D1*
G1X1317590Y619040D1*
G1X1317520Y618980D1*
G3X1317160Y618610I1473J-1794D1*
G1X1316480Y618610D1*
G1X1316440Y618650D1*
G1X1308970Y618650D1*
G1X1308970Y619040D1*
G1X1303410Y619040D1*
G37*
G36*
G1X1301140Y611380D2*
G1X1301270Y611440D1*
G1X1301810Y610900D1*
G1X1303410Y610900D1*
G1X1303410Y610510D1*
G1X1308970Y610510D1*
G1X1308970Y614110D1*
G1X1303410Y614110D1*
G1X1303410Y613720D1*
G1X1302970Y613720D1*
G1X1302370Y614330D1*
G1X1302350Y614360D1*
G3X1298050Y614370I-2153J-863D1*
G3X1301140Y611380I2148J-872D1*
G37*
G36*
G1X1283720Y614110D2*
G1X1283720Y610510D1*
G1X1289160Y610510D1*
G1X1289520Y610660D1*
G1X1291890Y608300D1*
G1X1291890Y597620D1*
G1X1308420Y581090D1*
G1X1328690Y581090D1*
G1X1328690Y579190D1*
G1X1335310Y579190D1*
G1X1335310Y581090D1*
G1X1337680Y581090D1*
G1X1341310Y584720D1*
G1X1341310Y593310D1*
G1X1342480Y593310D1*
G1X1342480Y600450D1*
G1X1336920Y600450D1*
G1X1336920Y593310D1*
G1X1338290Y593310D1*
G1X1338290Y592140D1*
G1X1338490Y591940D1*
G1X1338490Y585880D1*
G1X1336520Y583910D1*
G1X1335310Y583910D1*
G1X1335310Y585810D1*
G1X1328690Y585810D1*
G1X1328690Y583910D1*
G1X1309580Y583910D1*
G1X1294710Y598780D1*
G1X1294710Y609460D1*
G1X1290450Y613720D1*
G1X1289280Y613720D1*
G1X1289280Y614110D1*
G1X1283720Y614110D1*
G37*
G36*
G1X1287750Y637480D2*
G1X1287830Y637480D1*
G1X1297790Y627520D1*
G1X1297790Y623520D1*
G1X1300560Y620750D1*
G1X1303410Y620750D1*
G1X1303410Y620360D1*
G1X1308970Y620360D1*
G1X1308970Y623960D1*
G1X1303410Y623960D1*
G1X1303410Y623570D1*
G1X1301720Y623570D1*
G1X1300610Y624680D1*
G1X1300610Y628680D1*
G1X1290050Y639240D1*
G1X1290080Y639350D1*
G3X1286350Y641611I-2277J450D1*
G3X1287750Y637480I1452J-1811D1*
G37*
G36*
G1X1283720Y623960D2*
G1X1283720Y620360D1*
G1X1289280Y620360D1*
G1X1289280Y620690D1*
G1X1289760Y620690D1*
G1X1289820Y620620D1*
G3X1293915Y622100I1780J1480D1*
G3X1289820Y623580I-2315J-1D1*
G1X1289760Y623510D1*
G1X1289280Y623510D1*
G1X1289280Y623960D1*
G1X1283720Y623960D1*
G37*
G36*
G1X1384962Y705094D2*
G3X1389160Y713070I-1160J5702D1*
G1X1393410Y717320D1*
G1X1393410Y741960D1*
G3X1392000Y746118I-1410J1839D1*
G3X1390590Y741960I-1J-2319D1*
G1X1390590Y718480D1*
G1X1387440Y715340D1*
G3X1378145Y712165I-3638J-4544D1*
G3X1384962Y705094I5656J-1369D1*
G37*
G36*
G1X1322340Y701290D2*
G1X1391220Y701290D1*
G1X1393190Y699320D1*
G1X1393190Y686180D1*
G1X1389700Y682690D1*
G1X1389560Y682770D1*
G3X1382584Y673584I-2860J-5070D1*
G3X1391770Y680560I4116J4116D1*
G1X1391690Y680700D1*
G1X1396010Y685020D1*
G1X1396010Y700480D1*
G1X1392380Y704110D1*
G1X1322340Y704110D1*
G3X1318182Y702700I-1840J-1410D1*
G3X1322340Y701290I2318J-1D1*
G37*
G36*
G1X1388179Y656470D2*
G3X1391770Y664960I-1479J5630D1*
G1X1391690Y665100D1*
G1X1400310Y673720D1*
G1X1400310Y757080D1*
G1X1397900Y759490D1*
G1X1397910Y759590D1*
G3X1393960Y761440I-2310J210D1*
G3X1395810Y757490I1639J-1641D1*
G1X1395910Y757500D1*
G1X1397490Y755920D1*
G1X1397490Y674880D1*
G1X1389700Y667090D1*
G1X1389560Y667170D1*
G3X1380927Y662845I-2860J-5070D1*
G3X1388179Y656470I5773J-746D1*
G37*
G36*
G1X1388479Y623470D2*
G3X1392070Y631960I-1479J5630D1*
G1X1391990Y632100D1*
G1X1407210Y647320D1*
G1X1407210Y763480D1*
G1X1403710Y766980D1*
G1X1403710Y781820D1*
G1X1404200Y781820D1*
G1X1404200Y787580D1*
G1X1400400Y787580D1*
G1X1400400Y781820D1*
G1X1400890Y781820D1*
G1X1400890Y765820D1*
G1X1404390Y762320D1*
G1X1404390Y648480D1*
G1X1390000Y634090D1*
G1X1389860Y634170D1*
G3X1381227Y629845I-2860J-5070D1*
G3X1388479Y623470I5773J-746D1*
G37*
G36*
G1X1341040Y615890D2*
G1X1350590Y615890D1*
G1X1350590Y613990D1*
G1X1357210Y613990D1*
G1X1357210Y615890D1*
G1X1381110Y615890D1*
G2X1381490Y615360I0J-402D1*
G3X1391492Y609802I5515J-1854D1*
G3X1384140Y618570I-4488J3703D1*
G1X1384000Y618490D1*
G1X1383780Y618710D1*
G1X1357210Y618710D1*
G1X1357210Y620610D1*
G1X1350590Y620610D1*
G1X1350590Y618710D1*
G1X1341040Y618710D1*
G3X1336882Y617300I-1840J-1410D1*
G3X1341040Y615890I2318J-1D1*
G37*
G74*
G54D52*
G1X1196000Y828600D3*
G54D53*
G1X1171740Y521090D3*
G1X1171740Y493530D3*
G1X1325740Y520590D3*
G1X1325740Y493030D3*
G1X1248240Y521090D3*
G1X1248240Y493530D3*
G1X1286740Y521090D3*
G1X1286740Y493530D3*
G1X1211740Y521090D3*
G1X1211740Y493530D3*
G1X1188300Y861700D3*
G54D54*
G1X1302400Y791840D3*
G54D55*
G1X1209400Y806900D3*
G54D56*
G1X1325230Y791840D3*
G54D57*
G1X1383800Y726400D3*
G54D58*
G1X1220400Y828600D3*
G54D59*
G1X1340300Y488700D3*
G1X1301300Y489200D3*
G1X1262800Y489200D3*
G1X1226300Y489200D3*
G1X1186300Y489200D3*
G54D60*
G1X1213200Y660350D3*
G54D61*
G1X1322780Y541850D3*
G54D62*
G1X1115500Y600370D3*
G1X1115500Y673870D3*
G1X1115500Y748370D3*
G54D63*
G1X1382500Y782190D3*
G1X1382500Y787110D3*
G1X1382500Y792030D3*
G1X1382500Y796950D3*
G1X1362810Y796950D3*
G1X1362810Y792030D3*
G1X1362810Y787110D3*
G1X1362810Y782190D3*
G1X1382500Y772340D3*
G1X1362810Y777260D3*
G1X1362810Y772340D3*
G1X1362810Y767420D3*
G1X1306500Y715530D3*
G1X1286500Y602470D3*
G54D64*
G1X1365180Y675680D3*
G1X1347180Y596880D3*
G54D65*
G1X1210500Y772100D3*
G1X1174600Y690400D3*
G1X1165900Y793200D3*
G1X1378400Y755400D3*
G1X1314600Y640100D3*
G1X1290500Y792700D3*
G1X1286800Y664400D3*
G54D66*
G1X1313620Y769300D3*
G54D67*
G1X1178200Y680720D3*
G1X1178000Y649280D3*
%LPD*%
G1X1198440Y660350D2*
G54D10*
G1X1178050Y660350D1*
G1X1198500Y660410D2*
G1X1198440Y660350D1*
G1X1178000Y660300D2*
G1X1178050Y660350D1*
G1X1178200Y660500D1*
G1X1178200Y669700D1*
G1X1203360Y676100D2*
G1X1203360Y683040D1*
G1X1199400Y687000D1*
G1X1199400Y752600D1*
G1X1210500Y763700D1*
G1X1203360Y676100D2*
G1X1203360Y670960D1*
G1X1202100Y669700D1*
G1X1178200Y669700D1*
G1X1196000Y763700D2*
G1X1210500Y763700D1*
G1X1302500Y679600D2*
G1X1302300Y679800D1*
G1X1293800Y679800D1*
G1X1286810Y672810D1*
G1X1286800Y672800D2*
G1X1286810Y672810D1*
G1X1286810Y686000D1*
G1X1306190Y632000D2*
G1X1316200Y632000D1*
G1X1332000Y616200D1*
G1X1332000Y590900D1*
G1X1331000Y660900D2*
G1X1331000Y649700D1*
G1X1327600Y646300D1*
G1X1308300Y646300D1*
G1X1306200Y644200D1*
G1X1306200Y640100D1*
G1X1310600Y661200D2*
G1X1330700Y661200D1*
G1X1331000Y660900D1*
G1X1306200Y640100D2*
G1X1306200Y634400D1*
G1X1306190Y634390D1*
G1X1306190Y632000D1*
G1X1302600Y769300D2*
G1X1302600Y782590D1*
G1X1302400Y782790D1*
G1X1302800Y751300D2*
G1X1302800Y769100D1*
G1X1302600Y769300D1*
G1X1331000Y660900D2*
G1X1331000Y679600D1*
G1X1330800Y679800D1*
G1X1331000Y723800D2*
G1X1330620Y724180D1*
G1X1330620Y743820D1*
G1X1341400Y754600D1*
G1X1353930Y754600D1*
G1X1354730Y755400D1*
G1X1362810Y762500D2*
G1X1361830Y762500D1*
G1X1354730Y755400D1*
G1X1370000Y755400D1*
G1X1110000Y490000D3*
G1X1110000Y871000D3*
G1X1400000Y490000D3*
G1X1400000Y870000D3*
G54D11*
G1X1115500Y561000D3*
G1X1115500Y600370D3*
G1X1115500Y580690D3*
G1X1115500Y654190D3*
G1X1115500Y634500D3*
G1X1115500Y673870D3*
G1X1115500Y709000D3*
G1X1115500Y748370D3*
G1X1115500Y728690D3*
G54D23*
G1X1186300Y489200D3*
G1X1226300Y489200D3*
G1X1262800Y489200D3*
G1X1301300Y489200D3*
G1X1340300Y488700D3*
G54D49*
G1X1313620Y769300D3*
G1X1302600Y769300D3*
G54D47*
G1X1198440Y660350D3*
G1X1198440Y676100D3*
G1X1213200Y660350D3*
G1X1208280Y660350D3*
G1X1203360Y660350D3*
G1X1203360Y676100D3*
G1X1208280Y676100D3*
G1X1213200Y676100D3*
G1X1183000Y690400D2*
G54D12*
G1X1183000Y759100D1*
G1X1182900Y759200D1*
G1X1182900Y766400D1*
G1X1188600Y772100D1*
G1X1196000Y772100D1*
G1X1183000Y690400D2*
G1X1186300Y690400D1*
G1X1198440Y678260D1*
G1X1198440Y676100D1*
G1X1196200Y794500D2*
G1X1196200Y772300D1*
G1X1196000Y772100D1*
G1X1290500Y801100D2*
G1X1282090Y801100D1*
G1X1275900Y794910D1*
G1X1269110Y794910D1*
G1X1269100Y794900D1*
G1X1257930Y794900D1*
G1X1257920Y794890D1*
G1X1253000Y794890D1*
G1X1252990Y794900D1*
G1X1196600Y794900D1*
G1X1196200Y794500D1*
G1X1196000Y819600D2*
G1X1196000Y807100D1*
G1X1196200Y806900D1*
G1X1196200Y794500D1*
G1X1302400Y800900D2*
G1X1290700Y800900D1*
G1X1290500Y801100D1*
G1X1135000Y572000D3*
G1X1130000Y642000D3*
G1X1125000Y717500D3*
G1X1193500Y649800D3*
G1X1226500Y547000D3*
G1X1207000Y667000D3*
G1X1249600Y771400D3*
G1X1255100Y789200D3*
G1X1263500Y551000D3*
G1X1278500Y602500D3*
G1X1291600Y622100D3*
G1X1270800Y640400D3*
G1X1287800Y639800D3*
G1X1276500Y711500D3*
G1X1284700Y835600D3*
G1X1285200Y842100D3*
G1X1315500Y556000D3*
G1X1298500Y602500D3*
G1X1300200Y613500D3*
G1X1319000Y617200D3*
G1X1294400Y641600D3*
G1X1302500Y679600D3*
G1X1300600Y688600D3*
G1X1318900Y673200D3*
G1X1299500Y713500D3*
G1X1320500Y702700D3*
G1X1313600Y695840D3*
G1X1302800Y751300D3*
G1X1339200Y617300D3*
G1X1338900Y653000D3*
G1X1325500Y652900D3*
G1X1330800Y679800D3*
G1X1331000Y723800D3*
G1X1335430Y802400D3*
G1X1331720Y838100D3*
G1X1354000Y762500D3*
G1X1371100Y762500D3*
G1X1392000Y743800D3*
G1X1395600Y776100D3*
G1X1395600Y759800D3*
G1X1391600Y818000D3*
G54D48*
G1X1302400Y782790D3*
G1X1302400Y791840D3*
G1X1302400Y800900D3*
G54D37*
G1X1196200Y806900D3*
G1X1209400Y806900D3*
G54D13*
G1X1171740Y493530D3*
G1X1171740Y521090D3*
G1X1188300Y861700D3*
G1X1211740Y493530D3*
G1X1211740Y521090D3*
G1X1248240Y493530D3*
G1X1248240Y521090D3*
G1X1286740Y493530D3*
G1X1286740Y521090D3*
G1X1325740Y493030D3*
G1X1325740Y520590D3*
G1X1383800Y710800D3*
G1X1387000Y629100D3*
G1X1387000Y613500D3*
G1X1386700Y662100D3*
G1X1386700Y677700D3*
G54D35*
G1X1196000Y837600D3*
G1X1196000Y828600D3*
G1X1196000Y819600D3*
G54D32*
G1X1347180Y596880D3*
G1X1339700Y596880D3*
G1X1343440Y605540D3*
G1X1365180Y675680D3*
G1X1357700Y675680D3*
G1X1361440Y684340D3*
G54D25*
G1X1168780Y542350D3*
G1X1186300Y526600D3*
G1X1208780Y542350D3*
G1X1226300Y526600D3*
G1X1245280Y542350D3*
G1X1262800Y526600D3*
G1X1283780Y542350D3*
G1X1301300Y526600D3*
G1X1322780Y541850D3*
G1X1340300Y526100D3*
G54D30*
G1X1152500Y614400D3*
G1X1152500Y606000D3*
G1X1152800Y684100D3*
G1X1152800Y692500D3*
G1X1165900Y801600D3*
G1X1165900Y793200D3*
G1X1178100Y614000D3*
G1X1178100Y605600D3*
G1X1174600Y690400D3*
G1X1183000Y690400D3*
G1X1196000Y763700D3*
G1X1196000Y772100D3*
G1X1203400Y612900D3*
G1X1203400Y604500D3*
G1X1229700Y612300D3*
G1X1229700Y603900D3*
G1X1229700Y658000D3*
G1X1229700Y649600D3*
G1X1227400Y684300D3*
G1X1227400Y692700D3*
G1X1208300Y735100D3*
G1X1208300Y726700D3*
G1X1210500Y772100D3*
G1X1210500Y763700D3*
G1X1286800Y664400D3*
G1X1286800Y672800D3*
G1X1290500Y792700D3*
G1X1290500Y801100D3*
G1X1310600Y652800D3*
G1X1310600Y661200D3*
G1X1314600Y640100D3*
G1X1306200Y640100D3*
G1X1332000Y582500D3*
G1X1332000Y590900D3*
G1X1350100Y684400D3*
G1X1341700Y684400D3*
G1X1353900Y608900D3*
G1X1353900Y617300D3*
G1X1378400Y755400D3*
G1X1370000Y755400D3*
G54D45*
G1X1325230Y791840D3*
G54D24*
G1X1220400Y828600D3*
G54D51*
G1X1152400Y627980D3*
G1X1152400Y639000D3*
G1X1152800Y660800D3*
G1X1152800Y671820D3*
G1X1178100Y627780D3*
G1X1178100Y638800D3*
G1X1178000Y649280D3*
G1X1178000Y660300D3*
G1X1178200Y680720D3*
G1X1178200Y669700D3*
G1X1203400Y627580D3*
G1X1229800Y627480D3*
G1X1203400Y638600D3*
G1X1229800Y638500D3*
G1X1223800Y718320D3*
G1X1223800Y707300D3*
G1X1223300Y735280D3*
G1X1223300Y746300D3*
G54D46*
G1X1395700Y795720D3*
G1X1395700Y784700D3*
G1X1402300Y795720D3*
G1X1402300Y784700D3*
G54D27*
G1X1239200Y655100D3*
G1X1239200Y649500D3*
G1X1046300Y558000D2*
G54D20*
G1X1046300Y550500D1*
G1X1044150Y558000D2*
G1X1048450Y558000D1*
G1X1053800Y550500D2*
G1X1053050Y550620D1*
G1X1052400Y551120D1*
G1X1051840Y551870D1*
G1X1051470Y552750D1*
G1X1051280Y553750D1*
G1X1051280Y554750D1*
G1X1051470Y555750D1*
G1X1051840Y556630D1*
G1X1052400Y557370D1*
G1X1053050Y557880D1*
G1X1053800Y558000D1*
G1X1054550Y557880D1*
G1X1055200Y557370D1*
G1X1055760Y556630D1*
G1X1056130Y555750D1*
G1X1056320Y554750D1*
G1X1056320Y553750D1*
G1X1056130Y552750D1*
G1X1055760Y551870D1*
G1X1055200Y551120D1*
G1X1054550Y550620D1*
G1X1053800Y550500D1*
G1X1059430Y550500D2*
G1X1059430Y558000D1*
G1X1061670Y558000D1*
G1X1062420Y557620D1*
G1X1062980Y556750D1*
G1X1063170Y555750D1*
G1X1062980Y554750D1*
G1X1062510Y554000D1*
G1X1061670Y553620D1*
G1X1059430Y553620D1*
G54D14*
G1X1149500Y801700D3*
G54D26*
G1X1260850Y854640D3*
G1X1359280Y854640D3*
G1X1178100Y605600D2*
G54D19*
G1X1178100Y600500D1*
G1X1144100Y566500D1*
G1X1116700Y566500D1*
G1X1115500Y565300D1*
G1X1115500Y561000D1*
G1X1115500Y580690D2*
G1X1132810Y580690D1*
G1X1135000Y578500D1*
G1X1135000Y572000D1*
G1X1115500Y595610D2*
G1X1115500Y600370D1*
G1X1115500Y605130D1*
G1X1110740Y600370D2*
G1X1115500Y600370D1*
G1X1120260Y600370D1*
G1X1152500Y606000D2*
G1X1144000Y606000D1*
G1X1115500Y634500D1*
G1X1115500Y654190D2*
G1X1127810Y654190D1*
G1X1130000Y652000D1*
G1X1130000Y642000D1*
G1X1115500Y669110D2*
G1X1115500Y673870D1*
G1X1115500Y678630D1*
G1X1110740Y673870D2*
G1X1115500Y673870D1*
G1X1120260Y673870D1*
G1X1115500Y728690D2*
G1X1120000Y728690D1*
G1X1125000Y723690D1*
G1X1125000Y717500D1*
G1X1152800Y692500D2*
G1X1136600Y708700D1*
G1X1115800Y708700D1*
G1X1115500Y709000D1*
G1X1115500Y743610D2*
G1X1115500Y748370D1*
G1X1115500Y753130D1*
G1X1110740Y748370D2*
G1X1115500Y748370D1*
G1X1120260Y748370D1*
G1X1168780Y542350D2*
G1X1177850Y542350D1*
G1X1186300Y533900D1*
G1X1186300Y526600D1*
G1X1203400Y604500D2*
G1X1203400Y595000D1*
G1X1168780Y560380D1*
G1X1168780Y542350D1*
G1X1152500Y614400D2*
G1X1152500Y627880D1*
G1X1152400Y627980D1*
G1X1152800Y660800D2*
G1X1152800Y639400D1*
G1X1152400Y639000D1*
G1X1178100Y638800D2*
G1X1152600Y638800D1*
G1X1152400Y639000D1*
G1X1152800Y684100D2*
G1X1152800Y671820D1*
G1X1165900Y789690D2*
G1X1165900Y793200D1*
G1X1165900Y796710D1*
G1X1162390Y793200D2*
G1X1165900Y793200D1*
G1X1169410Y793200D1*
G1X1165900Y801600D2*
G1X1165800Y801700D1*
G1X1149500Y801700D1*
G1X1165900Y801600D2*
G1X1165900Y826100D1*
G1X1177400Y837600D1*
G1X1196000Y837600D1*
G1X1172700Y861700D2*
G1X1149500Y861700D1*
G1X1186300Y483860D2*
G1X1186300Y489200D1*
G1X1186300Y494540D1*
G1X1179780Y489200D2*
G1X1186300Y489200D1*
G1X1192820Y489200D1*
G1X1178100Y614000D2*
G1X1178100Y627780D1*
G1X1178000Y644630D2*
G1X1178000Y649280D1*
G1X1178000Y653930D1*
G1X1175610Y649280D2*
G1X1178000Y649280D1*
G1X1180390Y649280D1*
G1X1193500Y649800D2*
G1X1182500Y638800D1*
G1X1178100Y638800D1*
G1X1178200Y676070D2*
G1X1178200Y680720D1*
G1X1178200Y685370D1*
G1X1175810Y680720D2*
G1X1178200Y680720D1*
G1X1180590Y680720D1*
G1X1174600Y686890D2*
G1X1174600Y690400D1*
G1X1174600Y693910D1*
G1X1171090Y690400D2*
G1X1174600Y690400D1*
G1X1178110Y690400D1*
G1X1196000Y825190D2*
G1X1196000Y828600D1*
G1X1196000Y832010D1*
G1X1190590Y828600D2*
G1X1196000Y828600D1*
G1X1201410Y828600D1*
G1X1188300Y855690D2*
G1X1188300Y861700D1*
G1X1188300Y867710D1*
G1X1182290Y861700D2*
G1X1188300Y861700D1*
G1X1194310Y861700D1*
G1X1226300Y483860D2*
G1X1226300Y489200D1*
G1X1226300Y494540D1*
G1X1219780Y489200D2*
G1X1226300Y489200D1*
G1X1232820Y489200D1*
G1X1226300Y526600D2*
G1X1226300Y534700D1*
G1X1218650Y542350D1*
G1X1208780Y542350D1*
G1X1207280Y542350D2*
G1X1208780Y542350D1*
G1X1229700Y603900D2*
G1X1229700Y593300D1*
G1X1207200Y570800D1*
G1X1207200Y543930D1*
G1X1208780Y542350D1*
G1X1245280Y542350D2*
G1X1231150Y542350D1*
G1X1226500Y547000D1*
G1X1229700Y612300D2*
G1X1229700Y627380D1*
G1X1229800Y627480D1*
G1X1203400Y612900D2*
G1X1203400Y627580D1*
G1X1213200Y656880D2*
G1X1213200Y660350D1*
G1X1213200Y663820D1*
G1X1211400Y660350D2*
G1X1213200Y660350D1*
G1X1215000Y660350D1*
G1X1223800Y707300D2*
G1X1225500Y707300D1*
G1X1238400Y694400D1*
G1X1238400Y677600D1*
G1X1227400Y666600D1*
G1X1211900Y666600D1*
G1X1208280Y662980D1*
G1X1208280Y660350D1*
G1X1229700Y658000D2*
G1X1223000Y658000D1*
G1X1217900Y652900D1*
G1X1209400Y652900D1*
G1X1208280Y654020D1*
G1X1208280Y660350D1*
G1X1229700Y658000D2*
G1X1236300Y658000D1*
G1X1239200Y655100D1*
G1X1229800Y638500D2*
G1X1229800Y649500D1*
G1X1203400Y638600D2*
G1X1203400Y660310D1*
G1X1203360Y660350D1*
G1X1229800Y638500D2*
G1X1203500Y638500D1*
G1X1203400Y638600D1*
G1X1229800Y649500D2*
G1X1229700Y649600D1*
G1X1239200Y649500D2*
G1X1229800Y649500D1*
G1X1208280Y679980D2*
G1X1208280Y726680D1*
G1X1208300Y726700D1*
G1X1227400Y692700D2*
G1X1221000Y692700D1*
G1X1208280Y679980D1*
G1X1208280Y676100D2*
G1X1208280Y679980D1*
G1X1207000Y667000D2*
G1X1207000Y668230D1*
G1X1213200Y674430D1*
G1X1213200Y676100D1*
G1X1219200Y676100D1*
G1X1227400Y684300D1*
G1X1249600Y771400D2*
G1X1249400Y771400D1*
G1X1235100Y757100D1*
G1X1235100Y729620D1*
G1X1223800Y718320D1*
G1X1223500Y735080D2*
G1X1223300Y735280D1*
G1X1208300Y735100D2*
G1X1223120Y735100D1*
G1X1223300Y735280D1*
G1X1223300Y746300D2*
G1X1223300Y753900D1*
G1X1255100Y785700D1*
G1X1255100Y789200D1*
G1X1210500Y768590D2*
G1X1210500Y772100D1*
G1X1210500Y775610D1*
G1X1206990Y772100D2*
G1X1210500Y772100D1*
G1X1214010Y772100D1*
G1X1209400Y801590D2*
G1X1209400Y806900D1*
G1X1209400Y812210D1*
G1X1204090Y806900D2*
G1X1209400Y806900D1*
G1X1214710Y806900D1*
G1X1220400Y820490D2*
G1X1220400Y828600D1*
G1X1220400Y836710D1*
G1X1214990Y828600D2*
G1X1220400Y828600D1*
G1X1225810Y828600D1*
G1X1224300Y853500D2*
G1X1244200Y873400D1*
G1X1287900Y873400D1*
G1X1288000Y873300D1*
G1X1256280Y489200D2*
G1X1262800Y489200D1*
G1X1262800Y526600D2*
G1X1262800Y534700D1*
G1X1255150Y542350D1*
G1X1245280Y542350D1*
G1X1278500Y602500D2*
G1X1258500Y622500D1*
G1X1258500Y693500D1*
G1X1276500Y711500D1*
G1X1262800Y483860D2*
G1X1262800Y489200D1*
G1X1262800Y494540D1*
G1X1262800Y489200D2*
G1X1269320Y489200D1*
G1X1283780Y542350D2*
G1X1272150Y542350D1*
G1X1263500Y551000D1*
G1X1301300Y526600D2*
G1X1301300Y534400D1*
G1X1293350Y542350D1*
G1X1283780Y542350D1*
G1X1286500Y600470D2*
G1X1286500Y602470D1*
G1X1286810Y705690D2*
G1X1284590Y705690D1*
G1X1266250Y687350D1*
G1X1266250Y631250D1*
G1X1280260Y617240D1*
G1X1286500Y617240D1*
G1X1286500Y607390D2*
G1X1283130Y607390D1*
G1X1262100Y628420D1*
G1X1262100Y689270D1*
G1X1283440Y710610D1*
G1X1286810Y710610D1*
G1X1291600Y622100D2*
G1X1286560Y622100D1*
G1X1286500Y622160D1*
G1X1286500Y602470D2*
G1X1286500Y604470D1*
G1X1283520Y602470D2*
G1X1286500Y602470D1*
G1X1289480Y602470D1*
G1X1286500Y627080D2*
G1X1283130Y627080D1*
G1X1276500Y633710D1*
G1X1276500Y684000D1*
G1X1283420Y690920D1*
G1X1286810Y690920D1*
G1X1286500Y612310D2*
G1X1289870Y612310D1*
G1X1293300Y608880D1*
G1X1293300Y598200D1*
G1X1309000Y582500D1*
G1X1332000Y582500D1*
G1X1287800Y639800D2*
G1X1287800Y639500D1*
G1X1299200Y628100D1*
G1X1299200Y624100D1*
G1X1301140Y622160D1*
G1X1306190Y622160D1*
G1X1270800Y640400D2*
G1X1270750Y640450D1*
G1X1270750Y684250D1*
G1X1282340Y695840D1*
G1X1286810Y695840D1*
G1X1286500Y632000D2*
G1X1289870Y632000D1*
G1X1295800Y626070D1*
G1X1295800Y611400D1*
G1X1299810Y607390D1*
G1X1306190Y607390D1*
G1X1286500Y632000D2*
G1X1285520Y632000D1*
G1X1281900Y635620D1*
G1X1281900Y642800D1*
G1X1306300Y667200D1*
G1X1306800Y667200D1*
G1X1286800Y660890D2*
G1X1286800Y664400D1*
G1X1286800Y667910D1*
G1X1283290Y664400D2*
G1X1286800Y664400D1*
G1X1290310Y664400D1*
G1X1335430Y802400D2*
G1X1335000Y801970D1*
G1X1335000Y762740D1*
G1X1287790Y715530D1*
G1X1286810Y715530D1*
G1X1354000Y762500D2*
G1X1341100Y762500D1*
G1X1294400Y715800D1*
G1X1294400Y704980D1*
G1X1290180Y700760D1*
G1X1286810Y700760D1*
G1X1290500Y789190D2*
G1X1290500Y792700D1*
G1X1290500Y796210D1*
G1X1286990Y792700D2*
G1X1290500Y792700D1*
G1X1294010Y792700D1*
G1X1284700Y835600D2*
G1X1298960Y849860D1*
G1X1298960Y857000D1*
G1X1288000Y857000D2*
G1X1288000Y873300D1*
G1X1285200Y842100D2*
G1X1293510Y850410D1*
G1X1293510Y857000D1*
G1X1288000Y873300D2*
G1X1315300Y873300D1*
G1X1315360Y873360D1*
G1X1301300Y483860D2*
G1X1301300Y489200D1*
G1X1301300Y494540D1*
G1X1294780Y489200D2*
G1X1301300Y489200D1*
G1X1307820Y489200D1*
G1X1340300Y526100D2*
G1X1340300Y547490D1*
G1X1331800Y555990D1*
G1X1318410Y555990D1*
G1X1318400Y556000D1*
G1X1315500Y556000D1*
G1X1300200Y613500D2*
G1X1301200Y613500D1*
G1X1302390Y612310D1*
G1X1306190Y612310D1*
G1X1298500Y602500D2*
G1X1302790Y602500D1*
G1X1302820Y602470D1*
G1X1306190Y602470D1*
G1X1306190Y617240D2*
G1X1315860Y617240D1*
G1X1315900Y617200D1*
G1X1319000Y617200D1*
G1X1319000Y620100D1*
G1X1312020Y627080D1*
G1X1306190Y627080D1*
G1X1294400Y641600D2*
G1X1294400Y646700D1*
G1X1300500Y652800D1*
G1X1310600Y652800D1*
G1X1325500Y652900D2*
G1X1325400Y652800D1*
G1X1310600Y652800D1*
G1X1314600Y636590D2*
G1X1314600Y640100D1*
G1X1314600Y643610D1*
G1X1311090Y640100D2*
G1X1314600Y640100D1*
G1X1318110Y640100D1*
G1X1306800Y667200D2*
G1X1306800Y685700D1*
G1X1306500Y686000D1*
G1X1306800Y667200D2*
G1X1307000Y667000D1*
G1X1322200Y667000D1*
G1X1324300Y669100D1*
G1X1324300Y692200D1*
G1X1325500Y693400D1*
G1X1341800Y693400D1*
G1X1300600Y688600D2*
G1X1302920Y690920D1*
G1X1306500Y690920D1*
G1X1318900Y673200D2*
G1X1318900Y697200D1*
G1X1310410Y705690D1*
G1X1306500Y705690D1*
G1X1306500Y700760D2*
G1X1301740Y700760D1*
G1X1299500Y703000D1*
G1X1299500Y713500D1*
G1X1306500Y713530D2*
G1X1306500Y715530D1*
G1X1306500Y717530D1*
G1X1303520Y715530D2*
G1X1306500Y715530D1*
G1X1309480Y715530D1*
G1X1320500Y702700D2*
G1X1391800Y702700D1*
G1X1394600Y699900D1*
G1X1394600Y685600D1*
G1X1386700Y677700D1*
G1X1306500Y695840D2*
G1X1313600Y695840D1*
G1X1382500Y767420D2*
G1X1385870Y767420D1*
G1X1387800Y765490D1*
G1X1387800Y749900D1*
G1X1387000Y749100D1*
G1X1343900Y749100D1*
G1X1337300Y742500D1*
G1X1337300Y712500D1*
G1X1335410Y710610D1*
G1X1306500Y710610D1*
G1X1313620Y766910D2*
G1X1313620Y769300D1*
G1X1313620Y771690D1*
G1X1308970Y769300D2*
G1X1313620Y769300D1*
G1X1318270Y769300D1*
G1X1319990Y791840D2*
G1X1325230Y791840D1*
G1X1302400Y788960D2*
G1X1302400Y791840D1*
G1X1302400Y794720D1*
G1X1297160Y791840D2*
G1X1302400Y791840D1*
G1X1307640Y791840D1*
G1X1389200Y807000D2*
G1X1324190Y807000D1*
G1X1309870Y821320D1*
G1X1309870Y857000D1*
G1X1324200Y813100D2*
G1X1320810Y816490D1*
G1X1320810Y857000D1*
G1X1315360Y857000D2*
G1X1315360Y873360D1*
G1X1320810Y867910D1*
G1X1320810Y857000D1*
G1X1340300Y483360D2*
G1X1340300Y488700D1*
G1X1340300Y494040D1*
G1X1333780Y488700D2*
G1X1340300Y488700D1*
G1X1346820Y488700D1*
G1X1347180Y593110D2*
G1X1347180Y596880D1*
G1X1347180Y600650D1*
G1X1344200Y596880D2*
G1X1347180Y596880D1*
G1X1350160Y596880D1*
G1X1339700Y596880D2*
G1X1339700Y592720D1*
G1X1339900Y592520D1*
G1X1339900Y585300D1*
G1X1337100Y582500D1*
G1X1332000Y582500D1*
G1X1353900Y608900D2*
G1X1346800Y608900D1*
G1X1343440Y605540D1*
G1X1353900Y617300D2*
G1X1339200Y617300D1*
G1X1338900Y653000D2*
G1X1338900Y670100D1*
G1X1344480Y675680D1*
G1X1357700Y675680D1*
G1X1350100Y684400D2*
G1X1358010Y684400D1*
G1X1358070Y684340D1*
G1X1361440Y684340D1*
G1X1341700Y684400D2*
G1X1341700Y693300D1*
G1X1341800Y693400D1*
G1X1386700Y693300D2*
G1X1341900Y693300D1*
G1X1341800Y693400D1*
G1X1325230Y784430D2*
G1X1325230Y791840D1*
G1X1325230Y799250D1*
G1X1325230Y791840D2*
G1X1330470Y791840D1*
G1X1331720Y838100D2*
G1X1331720Y857000D1*
G1X1391600Y818000D2*
G1X1326690Y818000D1*
G1X1326270Y818420D1*
G1X1326270Y857000D1*
G1X1353900Y617300D2*
G1X1383200Y617300D1*
G1X1387000Y613500D1*
G1X1365180Y671910D2*
G1X1365180Y675680D1*
G1X1365180Y679450D1*
G1X1362200Y675680D2*
G1X1365180Y675680D1*
G1X1368160Y675680D1*
G1X1377790Y726400D2*
G1X1383800Y726400D1*
G1X1382500Y762500D2*
G1X1371100Y762500D1*
G1X1378400Y751890D2*
G1X1378400Y755400D1*
G1X1378400Y758910D1*
G1X1374890Y755400D2*
G1X1378400Y755400D1*
G1X1381910Y755400D1*
G1X1379520Y772340D2*
G1X1382500Y772340D1*
G1X1362810Y765420D2*
G1X1362810Y767420D1*
G1X1362810Y769420D1*
G1X1359830Y767420D2*
G1X1362810Y767420D1*
G1X1365790Y767420D1*
G1X1379520Y796950D2*
G1X1382500Y796950D1*
G1X1402300Y784700D2*
G1X1402300Y766400D1*
G1X1405800Y762900D1*
G1X1405800Y647900D1*
G1X1387000Y629100D1*
G1X1387000Y644700D2*
G1X1393400Y644700D1*
G1X1402400Y653700D1*
G1X1402400Y760730D1*
G1X1385870Y777260D1*
G1X1382500Y777260D1*
G1X1395600Y759800D2*
G1X1398900Y756500D1*
G1X1398900Y674300D1*
G1X1386700Y662100D1*
G1X1392000Y743800D2*
G1X1392000Y717900D1*
G1X1384900Y710800D1*
G1X1383800Y710800D1*
G1X1383800Y720390D2*
G1X1383800Y726400D1*
G1X1383800Y732410D1*
G1X1383800Y726400D2*
G1X1389810Y726400D1*
G1X1395700Y784700D2*
G1X1395700Y776200D1*
G1X1395600Y776100D1*
G1X1382500Y770340D2*
G1X1382500Y772340D1*
G1X1382500Y774340D1*
G1X1382500Y772340D2*
G1X1385480Y772340D1*
G1X1402300Y795720D2*
G1X1402300Y800000D1*
G1X1395100Y807200D1*
G1X1389400Y807200D1*
G1X1389200Y807000D1*
G1X1395700Y800500D1*
G1X1395700Y795720D1*
G1X1382500Y794950D2*
G1X1382500Y796950D1*
G1X1382500Y798950D1*
G1X1382500Y796950D2*
G1X1385480Y796950D1*
G54D50*
G1X1286500Y602470D3*
G1X1286500Y607390D3*
G1X1286500Y612310D3*
G1X1286500Y617240D3*
G1X1286500Y622160D3*
G1X1286500Y627080D3*
G1X1286500Y632000D3*
G1X1286810Y686000D3*
G1X1286810Y690920D3*
G1X1286810Y695840D3*
G1X1286810Y700760D3*
G1X1286810Y705690D3*
G1X1286810Y710610D3*
G1X1286810Y715530D3*
G1X1306190Y627080D3*
G1X1306190Y622160D3*
G1X1306190Y617240D3*
G1X1306190Y612310D3*
G1X1306190Y607390D3*
G1X1306190Y602470D3*
G1X1306190Y632000D3*
G1X1306500Y690920D3*
G1X1306500Y686000D3*
G1X1306500Y715530D3*
G1X1306500Y710610D3*
G1X1306500Y705690D3*
G1X1306500Y700760D3*
G1X1306500Y695840D3*
G1X1362810Y762500D3*
G1X1362810Y767420D3*
G1X1362810Y772340D3*
G1X1362810Y777260D3*
G1X1382500Y777260D3*
G1X1382500Y772340D3*
G1X1382500Y767420D3*
G1X1382500Y762500D3*
G1X1362810Y782190D3*
G1X1362810Y787110D3*
G1X1362810Y792030D3*
G1X1362810Y796950D3*
G1X1382500Y796950D3*
G1X1382500Y792030D3*
G1X1382500Y787110D3*
G1X1382500Y782190D3*
G54D15*
G1X1149500Y861700D3*
G54D44*
G1X1288000Y857000D3*
G1X1320810Y857000D3*
G1X1315360Y857000D3*
G1X1309870Y857000D3*
G1X1304420Y857000D3*
G1X1298960Y857000D3*
G1X1293510Y857000D3*
G1X1331720Y857000D3*
G1X1326270Y857000D3*
G54D16*
G1X1172700Y861700D3*
G1X1383800Y726400D3*
G1X1387000Y644700D3*
G1X1386700Y693300D3*
G54D29*
G1X1278570Y854640D3*
G1X1341560Y854640D3*
M2*
