*
%LPD*%
%LNlinkingInterface_v1_SST*%
%FSLAX25Y25*%
%MOIN*%
%AD*%
%AD*%
%ADD20C,0.005*%
%ADD41C,0.008*%
%ADD42C,0.006*%
%ADD43C,0.0079*%
G54D20*
%SRX1Y1I0.0J0.0*%
G1X1115130Y720500D2*
G1X1115130Y725500D1*
G1X1116720Y725500D1*
G1X1117220Y725250D1*
G1X1117540Y724920D1*
G1X1117670Y724250D1*
G1X1117540Y723580D1*
G1X1117160Y723170D1*
G1X1116720Y722920D1*
G1X1115130Y722920D1*
G1X1116720Y722920D2*
G1X1117670Y720500D1*
G1X1120300Y722580D2*
G1X1120740Y723170D1*
G1X1121120Y723500D1*
G1X1121630Y723670D1*
G1X1122070Y723500D1*
G1X1122390Y723170D1*
G1X1122640Y722670D1*
G1X1122700Y722080D1*
G1X1122640Y721580D1*
G1X1122390Y721080D1*
G1X1122010Y720670D1*
G1X1121560Y720500D1*
G1X1121060Y720670D1*
G1X1120610Y721170D1*
G1X1120360Y721920D1*
G1X1120300Y722750D1*
G1X1120420Y723830D1*
G1X1120610Y724420D1*
G1X1120930Y725000D1*
G1X1121370Y725420D1*
G1X1121820Y725500D1*
G1X1122260Y725330D1*
G1X1122580Y724920D1*
G1X1168880Y510620D2*
G1X1169080Y510310D1*
G1X1169300Y510100D1*
G1X1169570Y510000D1*
G1X1169880Y510100D1*
G1X1170110Y510310D1*
G1X1170340Y510620D1*
G1X1170420Y511030D1*
G1X1170420Y513100D1*
G1X1172750Y510000D2*
G1X1172750Y513100D1*
G1X1172290Y512480D1*
G1X1172290Y510000D2*
G1X1173210Y510000D1*
G1X1142330Y577600D2*
G1X1142330Y582600D1*
G1X1143920Y582600D1*
G1X1144420Y582350D1*
G1X1144740Y582020D1*
G1X1144870Y581350D1*
G1X1144740Y580680D1*
G1X1144360Y580270D1*
G1X1143920Y580020D1*
G1X1142330Y580020D1*
G1X1143920Y580020D2*
G1X1144870Y577600D1*
G1X1147310Y578600D2*
G1X1147690Y578020D1*
G1X1148190Y577680D1*
G1X1148760Y577600D1*
G1X1149270Y577680D1*
G1X1149780Y578100D1*
G1X1150090Y578600D1*
G1X1150160Y579100D1*
G1X1150030Y579680D1*
G1X1149590Y580100D1*
G1X1149140Y580270D1*
G1X1148570Y580270D1*
G1X1149140Y580270D2*
G1X1149520Y580520D1*
G1X1149840Y580930D1*
G1X1149970Y581430D1*
G1X1149840Y581930D1*
G1X1149520Y582350D1*
G1X1148950Y582600D1*
G1X1148380Y582520D1*
G1X1147810Y582180D1*
G1X1168100Y609870D2*
G1X1173100Y609870D1*
G1X1173100Y608280D1*
G1X1172850Y607780D1*
G1X1172520Y607460D1*
G1X1171850Y607330D1*
G1X1171180Y607460D1*
G1X1170770Y607840D1*
G1X1170520Y608280D1*
G1X1170520Y609870D1*
G1X1170520Y608280D2*
G1X1168100Y607330D1*
G1X1172270Y604700D2*
G1X1172770Y604320D1*
G1X1173020Y603880D1*
G1X1173100Y603370D1*
G1X1172930Y602740D1*
G1X1172520Y602300D1*
G1X1172020Y602170D1*
G1X1171520Y602230D1*
G1X1171100Y602490D1*
G1X1170270Y603750D1*
G1X1169680Y604320D1*
G1X1168850Y604700D1*
G1X1168100Y604830D1*
G1X1168100Y602170D1*
G1X1160000Y616270D2*
G1X1165000Y616270D1*
G1X1165000Y614680D1*
G1X1164750Y614180D1*
G1X1164420Y613860D1*
G1X1163750Y613730D1*
G1X1163080Y613860D1*
G1X1162670Y614240D1*
G1X1162420Y614680D1*
G1X1162420Y616270D1*
G1X1162420Y614680D2*
G1X1160000Y613730D1*
G1X1160000Y610030D2*
G1X1161080Y609900D1*
G1X1162000Y609710D1*
G1X1162830Y609460D1*
G1X1163750Y609140D1*
G1X1165000Y608630D1*
G1X1165000Y611170D1*
G1X1154800Y697730D2*
G1X1149800Y697730D1*
G1X1149800Y699320D1*
G1X1150050Y699820D1*
G1X1150380Y700140D1*
G1X1151050Y700270D1*
G1X1151720Y700140D1*
G1X1152130Y699760D1*
G1X1152380Y699320D1*
G1X1152380Y697730D1*
G1X1152380Y699320D2*
G1X1154800Y700270D1*
G1X1154050Y702710D2*
G1X1154470Y703090D1*
G1X1154720Y703530D1*
G1X1154800Y704100D1*
G1X1154630Y704670D1*
G1X1154300Y705110D1*
G1X1153720Y705430D1*
G1X1153050Y705490D1*
G1X1152380Y705370D1*
G1X1151970Y705050D1*
G1X1151630Y704610D1*
G1X1151550Y704160D1*
G1X1151630Y703720D1*
G1X1151970Y703150D1*
G1X1149800Y703340D1*
G1X1149800Y705050D1*
G1X1167980Y783310D2*
G1X1168230Y783690D1*
G1X1168400Y784130D1*
G1X1168400Y784640D1*
G1X1168150Y785210D1*
G1X1167730Y785650D1*
G1X1167230Y785970D1*
G1X1166400Y786220D1*
G1X1165650Y786280D1*
G1X1164900Y786160D1*
G1X1164400Y785970D1*
G1X1163900Y785590D1*
G1X1163570Y785140D1*
G1X1163400Y784700D1*
G1X1163400Y784260D1*
G1X1163570Y783810D1*
G1X1163820Y783430D1*
G1X1164150Y783120D1*
G1X1163400Y779600D2*
G1X1168400Y779600D1*
G1X1167400Y780360D1*
G1X1163400Y780360D2*
G1X1163400Y778840D1*
G1X1167570Y775700D2*
G1X1168070Y775320D1*
G1X1168320Y774880D1*
G1X1168400Y774370D1*
G1X1168230Y773740D1*
G1X1167820Y773300D1*
G1X1167320Y773170D1*
G1X1166820Y773230D1*
G1X1166400Y773490D1*
G1X1165570Y774750D1*
G1X1164980Y775320D1*
G1X1164150Y775700D1*
G1X1163400Y775830D1*
G1X1163400Y773170D1*
G1X1164370Y842500D2*
G1X1164840Y841750D1*
G1X1165400Y841250D1*
G1X1166050Y841000D1*
G1X1166800Y841250D1*
G1X1167360Y841750D1*
G1X1167920Y842500D1*
G1X1168110Y843500D1*
G1X1168110Y848500D1*
G1X1172150Y841870D2*
G1X1172810Y841250D1*
G1X1173550Y841000D1*
G1X1174300Y841250D1*
G1X1174950Y842000D1*
G1X1175420Y843130D1*
G1X1175610Y844250D1*
G1X1175610Y845620D1*
G1X1175420Y846750D1*
G1X1174950Y847750D1*
G1X1174390Y848250D1*
G1X1173740Y848500D1*
G1X1172990Y848250D1*
G1X1172430Y847750D1*
G1X1172060Y847000D1*
G1X1171870Y846000D1*
G1X1172060Y845130D1*
G1X1172530Y844250D1*
G1X1173090Y843750D1*
G1X1173740Y843620D1*
G1X1174490Y843870D1*
G1X1175050Y844500D1*
G1X1175610Y845620D1*
G1X1192890Y692480D2*
G1X1192510Y692730D1*
G1X1192070Y692900D1*
G1X1191560Y692900D1*
G1X1190990Y692650D1*
G1X1190550Y692230D1*
G1X1190230Y691730D1*
G1X1189980Y690900D1*
G1X1189920Y690150D1*
G1X1190040Y689400D1*
G1X1190230Y688900D1*
G1X1190610Y688400D1*
G1X1191060Y688070D1*
G1X1191500Y687900D1*
G1X1191940Y687900D1*
G1X1192390Y688070D1*
G1X1192770Y688320D1*
G1X1193080Y688650D1*
G1X1196600Y687900D2*
G1X1196600Y692900D1*
G1X1195840Y691900D1*
G1X1195840Y687900D2*
G1X1197360Y687900D1*
G1X1188500Y761830D2*
G1X1183500Y761830D1*
G1X1183500Y763420D1*
G1X1183750Y763920D1*
G1X1184080Y764240D1*
G1X1184750Y764370D1*
G1X1185420Y764240D1*
G1X1185830Y763860D1*
G1X1186080Y763420D1*
G1X1186080Y761830D1*
G1X1186080Y763420D2*
G1X1188500Y764370D1*
G1X1188500Y768200D2*
G1X1183500Y768200D1*
G1X1184500Y767440D1*
G1X1188500Y767440D2*
G1X1188500Y768960D1*
G1X1183500Y773300D2*
G1X1183670Y772790D1*
G1X1184080Y772410D1*
G1X1184580Y772160D1*
G1X1185250Y771970D1*
G1X1186000Y771910D1*
G1X1186750Y771970D1*
G1X1187420Y772160D1*
G1X1187920Y772410D1*
G1X1188330Y772790D1*
G1X1188500Y773300D1*
G1X1188330Y773810D1*
G1X1187920Y774190D1*
G1X1187420Y774440D1*
G1X1186750Y774630D1*
G1X1186000Y774690D1*
G1X1185250Y774630D1*
G1X1184580Y774440D1*
G1X1184080Y774190D1*
G1X1183670Y773810D1*
G1X1183500Y773300D1*
G1X1191370Y798970D2*
G1X1190810Y799350D1*
G1X1190160Y799600D1*
G1X1189410Y799600D1*
G1X1188570Y799220D1*
G1X1187920Y798600D1*
G1X1187450Y797850D1*
G1X1187080Y796600D1*
G1X1186990Y795470D1*
G1X1187170Y794350D1*
G1X1187450Y793600D1*
G1X1188010Y792850D1*
G1X1188670Y792350D1*
G1X1189320Y792100D1*
G1X1189970Y792100D1*
G1X1190630Y792350D1*
G1X1191190Y792720D1*
G1X1191650Y793220D1*
G1X1195230Y792970D2*
G1X1195890Y792350D1*
G1X1196630Y792100D1*
G1X1197380Y792350D1*
G1X1198030Y793100D1*
G1X1198500Y794230D1*
G1X1198690Y795350D1*
G1X1198690Y796720D1*
G1X1198500Y797850D1*
G1X1198030Y798850D1*
G1X1197470Y799350D1*
G1X1196820Y799600D1*
G1X1196070Y799350D1*
G1X1195510Y798850D1*
G1X1195140Y798100D1*
G1X1194950Y797100D1*
G1X1195140Y796230D1*
G1X1195610Y795350D1*
G1X1196170Y794850D1*
G1X1196820Y794720D1*
G1X1197570Y794970D1*
G1X1198130Y795600D1*
G1X1198690Y796720D1*
G1X1189100Y841350D2*
G1X1183730Y841350D1*
G1X1182600Y840980D1*
G1X1181850Y840230D1*
G1X1181600Y839300D1*
G1X1181850Y838370D1*
G1X1182600Y837620D1*
G1X1183730Y837250D1*
G1X1189100Y837250D1*
G1X1184720Y833570D2*
G1X1185600Y832920D1*
G1X1186100Y832360D1*
G1X1186350Y831610D1*
G1X1186100Y830960D1*
G1X1185600Y830490D1*
G1X1184850Y830120D1*
G1X1183970Y830030D1*
G1X1183220Y830120D1*
G1X1182470Y830490D1*
G1X1181850Y831050D1*
G1X1181600Y831710D1*
G1X1181850Y832450D1*
G1X1182600Y833110D1*
G1X1183730Y833480D1*
G1X1184970Y833570D1*
G1X1186600Y833390D1*
G1X1187480Y833110D1*
G1X1188350Y832640D1*
G1X1188980Y831990D1*
G1X1189100Y831330D1*
G1X1188850Y830680D1*
G1X1188220Y830210D1*
G1X1207880Y511120D2*
G1X1208080Y510810D1*
G1X1208300Y510600D1*
G1X1208570Y510500D1*
G1X1208880Y510600D1*
G1X1209110Y510810D1*
G1X1209340Y511120D1*
G1X1209420Y511530D1*
G1X1209420Y513600D1*
G1X1210910Y511120D2*
G1X1211140Y510760D1*
G1X1211440Y510550D1*
G1X1211790Y510500D1*
G1X1212100Y510550D1*
G1X1212400Y510810D1*
G1X1212590Y511120D1*
G1X1212630Y511430D1*
G1X1212560Y511790D1*
G1X1212290Y512050D1*
G1X1212020Y512150D1*
G1X1211670Y512150D1*
G1X1212020Y512150D2*
G1X1212250Y512310D1*
G1X1212440Y512570D1*
G1X1212520Y512880D1*
G1X1212440Y513190D1*
G1X1212250Y513440D1*
G1X1211900Y513600D1*
G1X1211560Y513550D1*
G1X1211210Y513340D1*
G1X1210900Y614770D2*
G1X1215900Y614770D1*
G1X1215900Y613180D1*
G1X1215650Y612680D1*
G1X1215320Y612360D1*
G1X1214650Y612230D1*
G1X1213980Y612360D1*
G1X1213570Y612740D1*
G1X1213320Y613180D1*
G1X1213320Y614770D1*
G1X1213320Y613180D2*
G1X1210900Y612230D1*
G1X1210900Y608400D2*
G1X1215900Y608400D1*
G1X1214900Y609160D1*
G1X1210900Y609160D2*
G1X1210900Y607640D1*
G1X1212980Y604500D2*
G1X1213570Y604060D1*
G1X1213900Y603680D1*
G1X1214070Y603170D1*
G1X1213900Y602730D1*
G1X1213570Y602410D1*
G1X1213070Y602160D1*
G1X1212480Y602100D1*
G1X1211980Y602160D1*
G1X1211480Y602410D1*
G1X1211070Y602790D1*
G1X1210900Y603240D1*
G1X1211070Y603740D1*
G1X1211570Y604190D1*
G1X1212320Y604440D1*
G1X1213150Y604500D1*
G1X1214230Y604380D1*
G1X1214820Y604190D1*
G1X1215400Y603870D1*
G1X1215820Y603430D1*
G1X1215900Y602980D1*
G1X1215730Y602540D1*
G1X1215320Y602220D1*
G1X1226900Y679070D2*
G1X1231900Y679070D1*
G1X1231900Y677480D1*
G1X1231650Y676980D1*
G1X1231320Y676660D1*
G1X1230650Y676530D1*
G1X1229980Y676660D1*
G1X1229570Y677040D1*
G1X1229320Y677480D1*
G1X1229320Y679070D1*
G1X1229320Y677480D2*
G1X1226900Y676530D1*
G1X1226900Y672700D2*
G1X1231900Y672700D1*
G1X1230900Y673460D1*
G1X1226900Y673460D2*
G1X1226900Y671940D1*
G1X1213800Y732470D2*
G1X1218800Y732470D1*
G1X1218800Y730880D1*
G1X1218550Y730380D1*
G1X1218220Y730060D1*
G1X1217550Y729930D1*
G1X1216880Y730060D1*
G1X1216470Y730440D1*
G1X1216220Y730880D1*
G1X1216220Y732470D1*
G1X1216220Y730880D2*
G1X1213800Y729930D1*
G1X1213800Y725340D2*
G1X1218800Y725340D1*
G1X1215220Y727680D1*
G1X1215220Y724520D1*
G1X1224500Y768970D2*
G1X1229500Y768970D1*
G1X1229500Y767380D1*
G1X1229250Y766880D1*
G1X1228920Y766560D1*
G1X1228250Y766430D1*
G1X1227580Y766560D1*
G1X1227170Y766940D1*
G1X1226920Y767380D1*
G1X1226920Y768970D1*
G1X1226920Y767380D2*
G1X1224500Y766430D1*
G1X1224500Y762600D2*
G1X1229500Y762600D1*
G1X1228500Y763360D1*
G1X1224500Y763360D2*
G1X1224500Y761840D1*
G1X1225500Y758890D2*
G1X1224920Y758510D1*
G1X1224580Y758010D1*
G1X1224500Y757440D1*
G1X1224580Y756930D1*
G1X1225000Y756420D1*
G1X1225500Y756110D1*
G1X1226000Y756040D1*
G1X1226580Y756170D1*
G1X1227000Y756610D1*
G1X1227170Y757060D1*
G1X1227170Y757630D1*
G1X1227170Y757060D2*
G1X1227420Y756680D1*
G1X1227830Y756360D1*
G1X1228330Y756230D1*
G1X1228830Y756360D1*
G1X1229250Y756680D1*
G1X1229500Y757250D1*
G1X1229420Y757820D1*
G1X1229080Y758390D1*
G1X1204780Y875700D2*
G1X1204780Y872600D1*
G1X1206320Y872600D1*
G1X1208190Y875700D2*
G1X1209110Y875700D1*
G1X1208650Y875700D2*
G1X1208650Y872600D1*
G1X1208190Y872600D2*
G1X1209110Y872600D1*
G1X1210870Y872600D2*
G1X1210870Y875700D1*
G1X1212630Y872600D1*
G1X1212630Y875700D1*
G1X1214010Y872600D2*
G1X1214010Y875700D1*
G1X1215460Y875700D2*
G1X1214010Y873790D1*
G1X1215690Y872600D2*
G1X1214660Y874670D1*
G1X1217490Y875700D2*
G1X1218410Y875700D1*
G1X1217950Y875700D2*
G1X1217950Y872600D1*
G1X1217490Y872600D2*
G1X1218410Y872600D1*
G1X1220170Y872600D2*
G1X1220170Y875700D1*
G1X1221930Y872600D1*
G1X1221930Y875700D1*
G1X1224380Y874150D2*
G1X1225150Y874150D1*
G1X1225150Y873220D1*
G1X1224920Y872910D1*
G1X1224650Y872700D1*
G1X1224270Y872600D1*
G1X1223880Y872700D1*
G1X1223610Y872910D1*
G1X1223380Y873220D1*
G1X1223230Y873580D1*
G1X1223150Y873990D1*
G1X1223150Y874360D1*
G1X1223230Y874670D1*
G1X1223380Y875030D1*
G1X1223610Y875340D1*
G1X1223840Y875540D1*
G1X1224150Y875700D1*
G1X1224420Y875700D1*
G1X1224720Y875600D1*
G1X1224960Y875390D1*
G1X1246880Y511120D2*
G1X1247080Y510810D1*
G1X1247300Y510600D1*
G1X1247570Y510500D1*
G1X1247880Y510600D1*
G1X1248110Y510810D1*
G1X1248340Y511120D1*
G1X1248420Y511530D1*
G1X1248420Y513600D1*
G1X1251210Y510500D2*
G1X1251210Y513600D1*
G1X1249790Y511380D1*
G1X1251710Y511380D1*
G1X1237200Y614170D2*
G1X1242200Y614170D1*
G1X1242200Y612580D1*
G1X1241950Y612080D1*
G1X1241620Y611760D1*
G1X1240950Y611630D1*
G1X1240280Y611760D1*
G1X1239870Y612140D1*
G1X1239620Y612580D1*
G1X1239620Y614170D1*
G1X1239620Y612580D2*
G1X1237200Y611630D1*
G1X1237200Y607800D2*
G1X1242200Y607800D1*
G1X1241200Y608560D1*
G1X1237200Y608560D2*
G1X1237200Y607040D1*
G1X1237200Y602700D2*
G1X1237280Y602260D1*
G1X1237530Y601750D1*
G1X1237950Y601430D1*
G1X1238530Y601310D1*
G1X1239120Y601430D1*
G1X1239620Y601810D1*
G1X1239870Y602380D1*
G1X1239870Y603020D1*
G1X1240030Y603400D1*
G1X1240450Y603710D1*
G1X1241030Y603840D1*
G1X1241620Y603650D1*
G1X1242030Y603210D1*
G1X1242200Y602700D1*
G1X1242030Y602190D1*
G1X1241620Y601750D1*
G1X1241030Y601560D1*
G1X1240450Y601690D1*
G1X1240030Y602000D1*
G1X1239870Y602380D1*
G1X1239870Y603020D1*
G1X1239620Y603590D1*
G1X1239120Y603970D1*
G1X1238530Y604090D1*
G1X1237950Y603970D1*
G1X1237530Y603650D1*
G1X1237280Y603140D1*
G1X1237200Y602700D1*
G1X1244200Y652870D2*
G1X1249200Y652870D1*
G1X1249200Y651280D1*
G1X1248950Y650780D1*
G1X1248620Y650460D1*
G1X1247950Y650330D1*
G1X1247280Y650460D1*
G1X1246870Y650840D1*
G1X1246620Y651280D1*
G1X1246620Y652870D1*
G1X1246620Y651280D2*
G1X1244200Y650330D1*
G1X1244200Y646500D2*
G1X1249200Y646500D1*
G1X1248200Y647260D1*
G1X1244200Y647260D2*
G1X1244200Y645740D1*
G1X1244950Y642790D2*
G1X1244530Y642410D1*
G1X1244280Y641970D1*
G1X1244200Y641400D1*
G1X1244370Y640830D1*
G1X1244700Y640390D1*
G1X1245280Y640070D1*
G1X1245950Y640010D1*
G1X1246620Y640130D1*
G1X1247030Y640450D1*
G1X1247370Y640890D1*
G1X1247450Y641340D1*
G1X1247370Y641780D1*
G1X1247030Y642350D1*
G1X1249200Y642160D1*
G1X1249200Y640450D1*
G1X1284880Y511620D2*
G1X1285080Y511310D1*
G1X1285300Y511100D1*
G1X1285570Y511000D1*
G1X1285880Y511100D1*
G1X1286110Y511310D1*
G1X1286340Y511620D1*
G1X1286420Y512030D1*
G1X1286420Y514100D1*
G1X1287910Y511460D2*
G1X1288140Y511210D1*
G1X1288400Y511050D1*
G1X1288750Y511000D1*
G1X1289100Y511100D1*
G1X1289360Y511310D1*
G1X1289560Y511670D1*
G1X1289590Y512080D1*
G1X1289520Y512500D1*
G1X1289320Y512760D1*
G1X1289060Y512960D1*
G1X1288790Y513010D1*
G1X1288520Y512960D1*
G1X1288180Y512760D1*
G1X1288290Y514100D1*
G1X1289320Y514100D1*
G1X1288740Y632770D2*
G1X1288490Y632390D1*
G1X1288320Y631950D1*
G1X1288320Y631440D1*
G1X1288570Y630870D1*
G1X1288990Y630430D1*
G1X1289490Y630110D1*
G1X1290320Y629860D1*
G1X1291070Y629800D1*
G1X1291820Y629920D1*
G1X1292320Y630110D1*
G1X1292820Y630490D1*
G1X1293150Y630940D1*
G1X1293320Y631380D1*
G1X1293320Y631820D1*
G1X1293150Y632270D1*
G1X1292900Y632650D1*
G1X1292570Y632960D1*
G1X1293320Y636480D2*
G1X1293240Y636920D1*
G1X1292990Y637430D1*
G1X1292570Y637750D1*
G1X1291990Y637870D1*
G1X1291400Y637750D1*
G1X1290900Y637370D1*
G1X1290650Y636800D1*
G1X1290650Y636160D1*
G1X1290490Y635780D1*
G1X1290070Y635470D1*
G1X1289490Y635340D1*
G1X1288900Y635530D1*
G1X1288490Y635970D1*
G1X1288320Y636480D1*
G1X1288490Y636990D1*
G1X1288900Y637430D1*
G1X1289490Y637620D1*
G1X1290070Y637490D1*
G1X1290490Y637180D1*
G1X1290650Y636800D1*
G1X1290650Y636160D1*
G1X1290900Y635590D1*
G1X1291400Y635210D1*
G1X1291990Y635090D1*
G1X1292570Y635210D1*
G1X1292990Y635530D1*
G1X1293240Y636040D1*
G1X1293320Y636480D1*
G1X1288220Y682690D2*
G1X1287970Y682310D1*
G1X1287800Y681870D1*
G1X1287800Y681360D1*
G1X1288050Y680790D1*
G1X1288470Y680350D1*
G1X1288970Y680030D1*
G1X1289800Y679780D1*
G1X1290550Y679720D1*
G1X1291300Y679840D1*
G1X1291800Y680030D1*
G1X1292300Y680410D1*
G1X1292630Y680860D1*
G1X1292800Y681300D1*
G1X1292800Y681740D1*
G1X1292630Y682190D1*
G1X1292380Y682570D1*
G1X1292050Y682880D1*
G1X1292800Y686400D2*
G1X1287800Y686400D1*
G1X1288800Y685640D1*
G1X1292800Y685640D2*
G1X1292800Y687160D1*
G1X1287800Y691500D2*
G1X1287970Y690990D1*
G1X1288380Y690610D1*
G1X1288880Y690360D1*
G1X1289550Y690170D1*
G1X1290300Y690110D1*
G1X1291050Y690170D1*
G1X1291720Y690360D1*
G1X1292220Y690610D1*
G1X1292630Y690990D1*
G1X1292800Y691500D1*
G1X1292630Y692010D1*
G1X1292220Y692390D1*
G1X1291720Y692640D1*
G1X1291050Y692830D1*
G1X1290300Y692890D1*
G1X1289550Y692830D1*
G1X1288880Y692640D1*
G1X1288380Y692390D1*
G1X1287970Y692010D1*
G1X1287800Y691500D1*
G1X1288420Y810990D2*
G1X1288170Y810610D1*
G1X1288000Y810170D1*
G1X1288000Y809660D1*
G1X1288250Y809090D1*
G1X1288670Y808650D1*
G1X1289170Y808330D1*
G1X1290000Y808080D1*
G1X1290750Y808020D1*
G1X1291500Y808140D1*
G1X1292000Y808330D1*
G1X1292500Y808710D1*
G1X1292830Y809160D1*
G1X1293000Y809600D1*
G1X1293000Y810040D1*
G1X1292830Y810490D1*
G1X1292580Y810870D1*
G1X1292250Y811180D1*
G1X1293000Y814700D2*
G1X1288000Y814700D1*
G1X1289000Y813940D1*
G1X1293000Y813940D2*
G1X1293000Y815460D1*
G1X1293000Y819670D2*
G1X1291920Y819800D1*
G1X1291000Y819990D1*
G1X1290170Y820240D1*
G1X1289250Y820560D1*
G1X1288000Y821070D1*
G1X1288000Y818530D1*
G1X1267630Y834500D2*
G1X1267630Y839500D1*
G1X1269150Y839500D1*
G1X1269660Y839250D1*
G1X1270040Y838670D1*
G1X1270170Y838000D1*
G1X1270040Y837330D1*
G1X1269720Y836830D1*
G1X1269150Y836580D1*
G1X1267630Y836580D1*
G1X1274000Y834500D2*
G1X1274000Y839500D1*
G1X1273240Y838500D1*
G1X1273240Y834500D2*
G1X1274760Y834500D1*
G1X1306510Y599500D2*
G1X1306510Y595920D1*
G1X1306760Y595170D1*
G1X1307270Y594670D1*
G1X1307900Y594500D1*
G1X1308530Y594670D1*
G1X1309040Y595170D1*
G1X1309290Y595920D1*
G1X1309290Y599500D1*
G1X1311800Y598670D2*
G1X1312180Y599170D1*
G1X1312620Y599420D1*
G1X1313130Y599500D1*
G1X1313760Y599330D1*
G1X1314200Y598920D1*
G1X1314330Y598420D1*
G1X1314270Y597920D1*
G1X1314010Y597500D1*
G1X1312750Y596670D1*
G1X1312180Y596080D1*
G1X1311800Y595250D1*
G1X1311670Y594500D1*
G1X1314330Y594500D1*
G1X1305600Y655430D2*
G1X1300600Y655430D1*
G1X1300600Y657020D1*
G1X1300850Y657520D1*
G1X1301180Y657840D1*
G1X1301850Y657970D1*
G1X1302520Y657840D1*
G1X1302930Y657460D1*
G1X1303180Y657020D1*
G1X1303180Y655430D1*
G1X1303180Y657020D2*
G1X1305600Y657970D1*
G1X1305600Y661800D2*
G1X1300600Y661800D1*
G1X1301600Y661040D1*
G1X1305600Y661040D2*
G1X1305600Y662560D1*
G1X1305600Y666770D2*
G1X1304520Y666900D1*
G1X1303600Y667090D1*
G1X1302770Y667340D1*
G1X1301850Y667660D1*
G1X1300600Y668170D1*
G1X1300600Y665630D1*
G1X1313610Y685530D2*
G1X1316710Y685530D1*
G1X1316090Y685990D1*
G1X1313610Y685990D2*
G1X1313610Y685070D1*
G1X1327470Y692400D2*
G1X1327470Y687400D1*
G1X1325880Y687400D1*
G1X1325380Y687650D1*
G1X1325060Y687980D1*
G1X1324930Y688650D1*
G1X1325060Y689320D1*
G1X1325440Y689730D1*
G1X1325880Y689980D1*
G1X1327470Y689980D1*
G1X1325880Y689980D2*
G1X1324930Y692400D1*
G1X1321100Y692400D2*
G1X1321100Y687400D1*
G1X1321860Y688400D1*
G1X1321860Y692400D2*
G1X1320340Y692400D1*
G1X1317200Y688230D2*
G1X1316820Y687730D1*
G1X1316380Y687480D1*
G1X1315870Y687400D1*
G1X1315240Y687570D1*
G1X1314800Y687980D1*
G1X1314670Y688480D1*
G1X1314730Y688980D1*
G1X1314990Y689400D1*
G1X1316250Y690230D1*
G1X1316820Y690820D1*
G1X1317200Y691650D1*
G1X1317330Y692400D1*
G1X1314670Y692400D1*
G1X1311800Y750500D2*
G1X1311800Y753000D1*
G1X1311480Y752500D1*
G1X1311480Y750500D2*
G1X1312120Y750500D1*
G1X1321880Y512120D2*
G1X1322080Y511810D1*
G1X1322300Y511600D1*
G1X1322570Y511500D1*
G1X1322880Y511600D1*
G1X1323110Y511810D1*
G1X1323340Y512120D1*
G1X1323420Y512530D1*
G1X1323420Y514600D1*
G1X1325020Y514080D2*
G1X1325250Y514390D1*
G1X1325520Y514550D1*
G1X1325830Y514600D1*
G1X1326210Y514500D1*
G1X1326480Y514240D1*
G1X1326560Y513930D1*
G1X1326520Y513620D1*
G1X1326360Y513360D1*
G1X1325600Y512840D1*
G1X1325250Y512480D1*
G1X1325020Y511960D1*
G1X1324940Y511500D1*
G1X1326560Y511500D1*
G1X1326630Y572000D2*
G1X1326630Y577000D1*
G1X1328220Y577000D1*
G1X1328720Y576750D1*
G1X1329040Y576420D1*
G1X1329170Y575750D1*
G1X1329040Y575080D1*
G1X1328660Y574670D1*
G1X1328220Y574420D1*
G1X1326630Y574420D1*
G1X1328220Y574420D2*
G1X1329170Y572000D1*
G1X1333000Y572000D2*
G1X1333000Y577000D1*
G1X1332240Y576000D1*
G1X1332240Y572000D2*
G1X1333760Y572000D1*
G1X1337020Y572580D2*
G1X1337470Y572170D1*
G1X1337970Y572000D1*
G1X1338480Y572170D1*
G1X1338920Y572670D1*
G1X1339240Y573420D1*
G1X1339370Y574170D1*
G1X1339370Y575080D1*
G1X1339240Y575830D1*
G1X1338920Y576500D1*
G1X1338540Y576830D1*
G1X1338100Y577000D1*
G1X1337590Y576830D1*
G1X1337210Y576500D1*
G1X1336960Y576000D1*
G1X1336830Y575330D1*
G1X1336960Y574750D1*
G1X1337280Y574170D1*
G1X1337660Y573830D1*
G1X1338100Y573750D1*
G1X1338610Y573920D1*
G1X1338990Y574330D1*
G1X1339370Y575080D1*
G1X1327280Y762610D2*
G1X1323700Y762610D1*
G1X1322950Y762360D1*
G1X1322450Y761850D1*
G1X1322280Y761220D1*
G1X1322450Y760590D1*
G1X1322950Y760080D1*
G1X1323700Y759830D1*
G1X1327280Y759830D1*
G1X1323030Y757510D2*
G1X1322610Y757130D1*
G1X1322360Y756690D1*
G1X1322280Y756120D1*
G1X1322450Y755550D1*
G1X1322780Y755110D1*
G1X1323360Y754790D1*
G1X1324030Y754730D1*
G1X1324700Y754850D1*
G1X1325110Y755170D1*
G1X1325450Y755610D1*
G1X1325530Y756060D1*
G1X1325450Y756500D1*
G1X1325110Y757070D1*
G1X1327280Y756880D1*
G1X1327280Y755170D1*
G1X1367900Y607530D2*
G1X1362900Y607530D1*
G1X1362900Y609120D1*
G1X1363150Y609620D1*
G1X1363480Y609940D1*
G1X1364150Y610070D1*
G1X1364820Y609940D1*
G1X1365230Y609560D1*
G1X1365480Y609120D1*
G1X1365480Y607530D1*
G1X1365480Y609120D2*
G1X1367900Y610070D1*
G1X1367900Y613900D2*
G1X1362900Y613900D1*
G1X1363900Y613140D1*
G1X1367900Y613140D2*
G1X1367900Y614660D1*
G1X1367900Y619760D2*
G1X1362900Y619760D1*
G1X1366480Y617420D1*
G1X1366480Y620580D1*
G1X1364600Y734730D2*
G1X1363850Y734260D1*
G1X1363350Y733700D1*
G1X1363100Y733050D1*
G1X1363350Y732300D1*
G1X1363850Y731740D1*
G1X1364600Y731180D1*
G1X1365600Y730990D1*
G1X1370600Y730990D1*
G1X1363100Y725360D2*
G1X1363220Y724710D1*
G1X1363600Y723960D1*
G1X1364220Y723490D1*
G1X1365100Y723310D1*
G1X1365970Y723490D1*
G1X1366720Y724050D1*
G1X1367100Y724890D1*
G1X1367100Y725830D1*
G1X1367350Y726390D1*
G1X1367970Y726850D1*
G1X1368850Y727040D1*
G1X1369720Y726760D1*
G1X1370350Y726110D1*
G1X1370600Y725360D1*
G1X1370350Y724610D1*
G1X1369720Y723960D1*
G1X1368850Y723680D1*
G1X1367970Y723870D1*
G1X1367350Y724330D1*
G1X1367100Y724890D1*
G1X1367100Y725830D1*
G1X1366720Y726670D1*
G1X1365970Y727230D1*
G1X1365100Y727410D1*
G1X1364220Y727230D1*
G1X1363600Y726760D1*
G1X1363220Y726010D1*
G1X1363100Y725360D1*
G1X1360110Y753320D2*
G1X1360490Y753070D1*
G1X1360930Y752900D1*
G1X1361440Y752900D1*
G1X1362010Y753150D1*
G1X1362450Y753570D1*
G1X1362770Y754070D1*
G1X1363020Y754900D1*
G1X1363080Y755650D1*
G1X1362960Y756400D1*
G1X1362770Y756900D1*
G1X1362390Y757400D1*
G1X1361940Y757730D1*
G1X1361500Y757900D1*
G1X1361060Y757900D1*
G1X1360610Y757730D1*
G1X1360230Y757480D1*
G1X1359920Y757150D1*
G1X1356530Y757900D2*
G1X1356400Y756820D1*
G1X1356210Y755900D1*
G1X1355960Y755070D1*
G1X1355640Y754150D1*
G1X1355130Y752900D1*
G1X1357670Y752900D1*
G1X1156250Y602200D2*
G54D42*
G1X1148750Y602200D1*
G1X1156250Y618200D2*
G1X1156250Y602200D1*
G1X1148750Y618200D2*
G1X1156250Y618200D1*
G1X1148750Y602200D2*
G1X1148750Y618200D1*
G1X1149050Y680300D2*
G1X1149050Y696300D1*
G1X1156550Y680300D2*
G1X1149050Y680300D1*
G1X1156550Y696300D2*
G1X1156550Y680300D1*
G1X1149050Y696300D2*
G1X1156550Y696300D1*
G1X1169650Y789400D2*
G1X1162150Y789400D1*
G1X1169650Y805400D2*
G1X1169650Y789400D1*
G1X1162150Y805400D2*
G1X1169650Y805400D1*
G1X1162150Y789400D2*
G1X1162150Y805400D1*
G1X1207150Y600700D2*
G1X1199650Y600700D1*
G1X1199650Y616700D2*
G1X1207150Y616700D1*
G1X1199650Y600700D2*
G1X1199650Y616700D1*
G1X1181850Y601800D2*
G1X1174350Y601800D1*
G1X1181850Y617800D2*
G1X1181850Y601800D1*
G1X1174350Y617800D2*
G1X1181850Y617800D1*
G1X1174350Y601800D2*
G1X1174350Y617800D1*
G1X1186800Y694150D2*
G1X1186800Y686650D1*
G1X1170800Y686650D2*
G1X1170800Y694150D1*
G1X1186800Y686650D2*
G1X1170800Y686650D1*
G1X1170800Y694150D2*
G1X1186800Y694150D1*
G1X1192250Y775900D2*
G1X1199750Y775900D1*
G1X1192250Y759900D2*
G1X1192250Y775900D1*
G1X1199750Y759900D2*
G1X1192250Y759900D1*
G1X1199750Y775900D2*
G1X1199750Y759900D1*
G1X1190300Y800900D2*
G1X1190300Y805650D1*
G1X1215300Y800900D2*
G1X1190300Y800900D1*
G1X1190300Y808150D2*
G1X1190300Y812900D1*
G1X1189050Y806900D2*
G1X1190300Y808150D1*
G1X1190300Y805650D2*
G1X1189050Y806900D1*
G1X1190300Y812900D2*
G1X1215300Y812900D1*
G1X1233450Y600100D2*
G1X1225950Y600100D1*
G1X1225950Y616100D1*
G1X1207150Y616700D2*
G1X1207150Y600700D1*
G1X1225950Y616100D2*
G1X1233450Y616100D1*
G1X1233450Y645800D2*
G1X1225950Y645800D1*
G1X1225950Y661800D1*
G1X1231150Y680500D2*
G1X1223650Y680500D1*
G1X1223650Y696500D1*
G1X1225950Y661800D2*
G1X1233450Y661800D1*
G1X1223650Y696500D2*
G1X1231150Y696500D1*
G1X1212050Y722900D2*
G1X1204550Y722900D1*
G1X1212050Y738900D2*
G1X1212050Y722900D1*
G1X1204550Y738900D2*
G1X1212050Y738900D1*
G1X1204550Y722900D2*
G1X1204550Y738900D1*
G1X1214250Y759900D2*
G1X1206750Y759900D1*
G1X1214250Y775900D2*
G1X1214250Y759900D1*
G1X1206750Y775900D2*
G1X1214250Y775900D1*
G1X1206750Y759900D2*
G1X1206750Y775900D1*
G1X1215300Y812900D2*
G1X1215300Y800900D1*
G1X1215500Y815400D2*
G1X1200900Y815400D1*
G1X1215500Y820000D2*
G1X1215500Y815400D1*
G1X1215500Y841800D2*
G1X1215500Y837200D1*
G1X1200900Y841800D2*
G1X1215500Y841800D1*
G1X1233450Y616100D2*
G1X1233450Y600100D1*
G1X1233450Y661800D2*
G1X1233450Y645800D1*
G1X1235950Y646550D2*
G1X1235950Y658050D1*
G1X1242400Y646550D2*
G1X1235950Y646550D1*
G1X1242400Y658050D2*
G1X1242400Y646550D1*
G1X1235950Y658050D2*
G1X1242400Y658050D1*
G1X1231150Y696500D2*
G1X1231150Y680500D1*
G1X1283050Y676600D2*
G1X1290550Y676600D1*
G1X1283050Y660600D2*
G1X1283050Y676600D1*
G1X1290550Y660600D2*
G1X1283050Y660600D1*
G1X1286750Y804900D2*
G1X1294250Y804900D1*
G1X1286750Y788900D2*
G1X1286750Y804900D1*
G1X1294250Y788900D2*
G1X1286750Y788900D1*
G1X1306850Y649000D2*
G1X1306850Y665000D1*
G1X1314350Y649000D2*
G1X1306850Y649000D1*
G1X1314350Y665000D2*
G1X1314350Y649000D1*
G1X1302400Y636350D2*
G1X1302400Y643850D1*
G1X1318400Y636350D2*
G1X1302400Y636350D1*
G1X1318400Y643850D2*
G1X1318400Y636350D1*
G1X1302400Y643850D2*
G1X1318400Y643850D1*
G1X1306850Y665000D2*
G1X1314350Y665000D1*
G1X1290550Y676600D2*
G1X1290550Y660600D1*
G1X1294250Y804900D2*
G1X1294250Y788900D1*
G1X1328250Y594700D2*
G1X1335750Y594700D1*
G1X1328250Y578700D2*
G1X1328250Y594700D1*
G1X1335750Y578700D2*
G1X1328250Y578700D1*
G1X1335750Y594700D2*
G1X1335750Y578700D1*
G1X1350150Y621100D2*
G1X1357650Y621100D1*
G1X1350150Y605100D2*
G1X1350150Y621100D1*
G1X1357650Y605100D2*
G1X1350150Y605100D1*
G1X1337900Y680650D2*
G1X1337900Y688150D1*
G1X1353900Y680650D2*
G1X1337900Y680650D1*
G1X1337900Y688150D2*
G1X1353900Y688150D1*
G1X1357650Y621100D2*
G1X1357650Y605100D1*
G1X1353900Y688150D2*
G1X1353900Y680650D1*
G1X1366200Y751650D2*
G1X1366200Y759150D1*
G1X1382200Y751650D2*
G1X1366200Y751650D1*
G1X1366200Y759150D2*
G1X1382200Y759150D1*
G1X1382200Y751650D1*
G1X1196700Y849700D2*
G54D41*
G1X1196700Y879700D1*
G1X1164700Y879700D1*
G1X1164700Y849700D1*
G1X1196700Y849700D1*
G1X1164700Y872700D2*
G1X1196700Y872700D1*
G1X1371800Y702400D2*
G1X1401800Y702400D1*
G1X1401800Y734400D1*
G1X1371800Y734400D1*
G1X1371800Y702400D1*
G1X1394800Y734400D2*
G1X1394800Y702400D1*
G1X1100540Y547220D2*
G54D43*
G1X1100540Y614150D1*
G1X1137940Y614150D1*
G1X1137940Y547220D1*
G1X1100540Y547220D1*
G1X1100540Y620720D2*
G1X1100540Y687650D1*
G1X1137940Y687650D1*
G1X1137940Y620720D1*
G1X1100540Y620720D1*
G1X1100540Y695220D2*
G1X1100540Y762150D1*
G1X1137940Y762150D1*
G1X1137940Y695220D1*
G1X1100540Y695220D1*
M2*
