M48
INCH,TZ
FMAT,2
ICI,OFF
T01C.125
T02C.086
T03C.06
T04C.02
T05C.125
T06C.086
%
T01
G05
X126085Y85464
X135928Y85464
T02
X117174Y49353
X117174Y52109
X117270Y86170
X118830Y86170
X121174Y52109
X121174Y49353
X124824Y49353
X124824Y52109
X128674Y52109
X128674Y49353
X132574Y49303
X132574Y52059
X138380Y71080
X138380Y72640
X138670Y69330
X138670Y67770
X138670Y66210
X138700Y61350
X138700Y62910
X138700Y64470
T03
X111550Y56100
X111550Y58069
X111550Y60037
X111550Y63450
X111550Y65419
X111550Y67387
X111550Y70900
X111550Y72869
X111550Y74837
X114950Y80170
X114950Y86170
T04
X112500Y71750
X113000Y64200
X113500Y57200
X119350Y64980
X120700Y66700
X122650Y54700
X124960Y77140
X125510Y78920
X126350Y55100
X127080Y64040
X127650Y71150
X127850Y60250
X128470Y83560
X128520Y84210
X128780Y63980
X129160Y62210
X129440Y64160
X129950Y71350
X129850Y60250
X130020Y61350
X130060Y68860
X130280Y75130
X130250Y67960
X131360Y69584
X131890Y67320
X131550Y55600
X131900Y61720
X132050Y70270
X132550Y65290
X133080Y67980
X133100Y72380
X133172Y83810
X133543Y80240
X133890Y65300
X133920Y61730
X135400Y76250
X137110Y76250
X139160Y81800
X139200Y74380
X139560Y75980
X139560Y77610
T05
X111000Y49000
X111000Y87100
X140000Y87000
X140000Y49000
T06
X127857Y85464
X134156Y85464
M30
