M48
INCH,LZ
T01C.125
T02C.086
T03C.06
T04C.02
T05C.125
T06C.086
;LEADER: 12 
;HEADER: 
;CODE  : ASCII 
;FILE  : NCdrill-1-2.drl for board LinkingInterfaceV1.3.brd ... layers TOP and BOTTOM
;T01 Holesize 1. = 125.000000 Tolerance = +0.000000/-0.000000 PLATED MILS Quantity = 2
;T02 Holesize 2. = 86.000000 Tolerance = +0.000000/-0.000000 PLATED MILS Quantity = 20
;T03 Holesize 3. = 60.000000 Tolerance = +0.000000/-0.000000 PLATED MILS Quantity = 11
;T04 Holesize 4. = 20.000000 Tolerance = +0.000000/-0.000000 PLATED MILS Quantity = 41
;T05 Holesize 5. = 125.000000 Tolerance = +0.000000/-0.000000 NON_PLATED MILS Quantity = 4
;T06 Holesize 6. = 86.000000 Tolerance = +0.000000/-0.000000 NON_PLATED MILS Quantity = 2
%
G90
T01
X126085Y085464
X135928Y085464
T02
X117174Y052109
X117174Y049353
X11727Y08617
X11883Y08617
X132574Y052059
X132574Y049303
X128674Y052109
X128674Y049353
X121174Y052109
X121174Y049353
X124824Y052109
X124824Y049353
X1387Y06447
R02Y-00156
X13867Y06933
R02Y-00156
X13838Y07264
X13838Y07108
T03
X11155Y0561
X11155Y058069
X11155Y060037
X11155Y06345
X11155Y065419
X11155Y067387
X11155Y0709
X11155Y072869
X11155Y074837
X11495Y08617
X11495Y08017
T04
X13136Y069584
X13205Y07027
X13392Y06173
X13189Y06732
X1319Y06172
X11935Y06498
X12051Y06676
X12852Y08421
X12496Y07714
X13956Y07598
X13956Y07761
X12635Y0551
X113Y0642
X12785Y06025
X12995Y07135
X12765Y07115
X12985Y06025
X13002Y06135
X13006Y06886
X13711Y07625
X1354Y07625
X12551Y07892
X12847Y08356
X12944Y06416
X12916Y06221
X13255Y06529
X13389Y0653
X1392Y07438
X13916Y0818
X133172Y08381
X133543Y08024
X1135Y0572
X13155Y0556
X12265Y0547
X1125Y07175
X12878Y06398
X12708Y06404
X1331Y07238
X13028Y07513
X13308Y06798
X13025Y06796
T05
X111Y049
X111Y0871
X14Y087
X14Y049
T06
X134156Y085464
X127857Y085464
M30
