G04 ================== begin FILE IDENTIFICATION RECORD ==================*
G04 Layout Name:  LinkingInterfaceV1.3.brd*
G04 Film Name:    linkingInterface_v1_BOTTOM*
G04 File Format:  Gerber RS274X*
G04 File Origin:  Cadence Allegro 16.5-P002*
G04 Origin Date:  Sun Apr 19 14:49:51 2015*
G04 *
G04 Layer:  ETCH/BOTTOM*
G04 Layer:  PIN/BOTTOM*
G04 Layer:  VIA CLASS/BOTTOM*
G04 *
G04 Offset:    (0.0 0.0)*
G04 Mirror:    No*
G04 Mode:      Positive*
G04 Rotation:  0*
G04 FullContactRelief:  No*
G04 UndefLineWidth:     0.0*
G04 ================== end FILE IDENTIFICATION RECORD ====================*
%FSLAX25Y25*MOIN*%
%IR0*IPPOS*OFA0.00000B0.00000*MIA0B0*SFA1.00000B1.00000*%
%ADD13C,.1*%
%ADD17C,.13*%
%ADD16R,.1X.1*%
%ADD12C,.03*%
%ADD10C,.025*%
%ADD18C,.09*%
%ADD15C,.081*%
%ADD11C,.075*%
%ADD14R,.081X.081*%
%ADD19C,.012*%
G75*
%LPD*%
G75*
G54D10*
G01X1330800Y679800D02*
X1302700D01*
X1302500Y679600D01*
G01X1331000Y723800D02*
X1330300D01*
X1302800Y751300D01*
G01X1331000Y723800D02*
Y680000D01*
X1330800Y679800D01*
X1110000Y490000D03*
Y871000D03*
X1400000Y490000D03*
Y870000D03*
G54D11*
X1115500Y561000D03*
Y600370D03*
Y580690D03*
Y654190D03*
Y634500D03*
Y673870D03*
Y709000D03*
Y748370D03*
Y728690D03*
G54D12*
X1135000Y572000D03*
X1130000Y642000D03*
X1125000Y717500D03*
X1193500Y649800D03*
X1226500Y547000D03*
X1207000Y667000D03*
X1249600Y771400D03*
X1255100Y789200D03*
X1263500Y551000D03*
X1278500Y602500D03*
X1291600Y622100D03*
X1270800Y640400D03*
X1287800Y639800D03*
X1276500Y711500D03*
X1284700Y835600D03*
X1285200Y842100D03*
X1315500Y556000D03*
X1298500Y602500D03*
X1300200Y613500D03*
X1319000Y617200D03*
X1294400Y641600D03*
X1302500Y679600D03*
X1300600Y688600D03*
X1318900Y673200D03*
X1299500Y713500D03*
X1320500Y702700D03*
X1313600Y695840D03*
X1302800Y751300D03*
X1339200Y617300D03*
X1338900Y653000D03*
X1325500Y652900D03*
X1330800Y679800D03*
X1331000Y723800D03*
X1335430Y802400D03*
X1331720Y838100D03*
X1354000Y762500D03*
X1371100D03*
X1392000Y743800D03*
X1395600Y776100D03*
Y759800D03*
X1391600Y818000D03*
G54D13*
X1171740Y493530D03*
Y521090D03*
X1188300Y861700D03*
X1211740Y493530D03*
Y521090D03*
X1248240Y493530D03*
Y521090D03*
X1286740Y493530D03*
Y521090D03*
X1325740Y493030D03*
Y520590D03*
X1383800Y710800D03*
X1387000Y629100D03*
Y613500D03*
X1386700Y662100D03*
Y677700D03*
G54D14*
X1149500Y801700D03*
G54D15*
Y861700D03*
G54D16*
X1172700D03*
X1383800Y726400D03*
X1387000Y644700D03*
X1386700Y693300D03*
G54D17*
X1260850Y854640D03*
X1359280D03*
G54D18*
X1278570D03*
X1341560D03*
G54D19*
G01X1226500Y547000D02*
X1132000D01*
X1125100Y553900D01*
Y714500D01*
X1125000Y714600D01*
Y717500D01*
G01X1315500Y556000D02*
X1137000D01*
X1135000Y558000D01*
Y572000D01*
G01X1263500Y551000D02*
X1133500D01*
X1130060Y554440D01*
Y635060D01*
X1130000Y635120D01*
Y642000D01*
G01X1193500Y649800D02*
X1201000Y657300D01*
Y664400D01*
X1203600Y667000D01*
X1207000D01*
G01X1285200Y842100D02*
X1249900Y806800D01*
Y771900D01*
X1249600Y771600D01*
Y771400D01*
G01X1284700Y835600D02*
X1284600D01*
X1255000Y806000D01*
Y789300D01*
X1255100Y789200D01*
G01X1298500Y602500D02*
X1278500D01*
G01X1287800Y639800D02*
X1271400D01*
X1270800Y640400D01*
G01X1299500Y713500D02*
X1289000D01*
X1288940Y713560D01*
X1278560D01*
X1276500Y711500D01*
G01X1294400Y641600D02*
Y624900D01*
X1291600Y622100D01*
G01X1300200Y613500D02*
Y614500D01*
X1299100Y615600D01*
Y687100D01*
X1300600Y688600D01*
G01X1319000Y617200D02*
Y630300D01*
X1318900Y630400D01*
Y673200D01*
G01X1339200Y617300D02*
X1319100D01*
X1319000Y617200D01*
G01X1313600Y695840D02*
X1318400Y700640D01*
X1318440D01*
X1320500Y702700D01*
G01X1338900Y653000D02*
X1338200D01*
X1338100Y652900D01*
X1325500D01*
G01X1331720Y838100D02*
X1335200Y834620D01*
Y802630D01*
X1335430Y802400D01*
G01X1371100Y762500D02*
X1354000D01*
G01X1391600Y818000D02*
Y744200D01*
X1392000Y743800D01*
G01X1395600Y759800D02*
Y776100D01*
M02*
