G04 ================== begin FILE IDENTIFICATION RECORD ==================*
G04 Layout Name:  LinkingInterfaceV1.3.brd*
G04 Film Name:    linkingInterface_v1_TOP*
G04 File Format:  Gerber RS274X*
G04 File Origin:  Cadence Allegro 16.5-P002*
G04 Origin Date:  Sun Apr 19 14:49:51 2015*
G04 *
G04 Layer:  ETCH/TOP*
G04 Layer:  PIN/TOP*
G04 Layer:  VIA CLASS/TOP*
G04 *
G04 Offset:    (0.0 0.0)*
G04 Mirror:    No*
G04 Mode:      Positive*
G04 Rotation:  0*
G04 FullContactRelief:  No*
G04 UndefLineWidth:     0.0*
G04 ================== end FILE IDENTIFICATION RECORD ====================*
%FSLAX25Y25*MOIN*%
%IR0*IPPOS*OFA0.00000B0.00000*MIA0B0*SFA1.00000B1.00000*%
%ADD13C,.1*%
%ADD26C,.13*%
%ADD19R,.1X.1*%
%ADD24R,.088X.142*%
%ADD20R,.1102X.0866*%
%ADD28R,.0315X.1457*%
%ADD33R,.0846X.128*%
%ADD14R,.1102X.1102*%
%ADD12C,.03*%
%ADD10C,.025*%
%ADD25R,.038X.032*%
%ADD29C,.09*%
%ADD18C,.081*%
%ADD34R,.0217X.0413*%
%ADD15R,.05X.05*%
%ADD11C,.075*%
%ADD17R,.081X.081*%
%ADD32R,.0394X.0551*%
%ADD23R,.088X.048*%
%ADD21R,.0157X.0492*%
%ADD22R,.086X.086*%
%ADD31R,.0846X.0374*%
%ADD30R,.0728X.0276*%
%ADD27R,.0394X.0197*%
%ADD16R,.0276X.0728*%
%ADD35C,.005*%
%ADD36C,.012*%
%ADD42R,.1042X.0642*%
%ADD46C,.1164*%
%ADD51R,.1008X.0536*%
%ADD40R,.1022X.1022*%
%ADD50R,.1008X.1442*%
%ADD47R,.1162X.1162*%
%ADD39R,.1042X.1582*%
%ADD37R,.1264X.1028*%
%ADD44R,.032X.0654*%
%ADD38R,.1264X.1264*%
%ADD45C,.0914*%
%ADD48R,.0556X.036*%
%ADD49R,.0556X.0714*%
%ADD41R,.0662X.0662*%
%ADD52R,.089X.0438*%
%ADD43R,.0438X.089*%
G75*
%LPD*%
G75*
G36*
G01X1150200Y481600D02*
X1102900Y528900D01*
Y836500D01*
X1135600Y869200D01*
X1210200D01*
X1261700Y817700D01*
Y797210D01*
X1256970D01*
X1256960Y797200D01*
X1253960D01*
X1253950Y797210D01*
X1198510D01*
Y801790D01*
X1201310D01*
Y812010D01*
X1198310D01*
Y816390D01*
X1201210D01*
Y822810D01*
X1190790D01*
Y816390D01*
X1193690D01*
Y812010D01*
X1191090D01*
Y801790D01*
X1193890D01*
Y775410D01*
X1192690D01*
Y774410D01*
X1187640D01*
X1180590Y767360D01*
Y758240D01*
X1180690Y758140D01*
Y693710D01*
X1179690D01*
Y687090D01*
X1186310D01*
Y687120D01*
X1196130Y677300D01*
Y676100D01*
G03X1196840Y674430I2319J0D01*
G01Y672830D01*
X1200040D01*
Y674430D01*
G03X1200750Y676100I-1609J1670D01*
G01Y679220D01*
X1187260Y692710D01*
X1186310D01*
Y693710D01*
X1185310D01*
Y760060D01*
X1185210Y760160D01*
Y765440D01*
X1189560Y769790D01*
X1192690D01*
Y768790D01*
X1199310D01*
Y775410D01*
X1198510D01*
Y792590D01*
X1252030D01*
X1252040Y792580D01*
X1258880D01*
X1258890Y792590D01*
X1261700D01*
Y742400D01*
X1243900Y724600D01*
Y563500D01*
X1245400Y562000D01*
X1335200D01*
X1360500Y536700D01*
Y481600D01*
X1150200D01*
G37*
G36*
G01X1252100Y567400D02*
X1250600Y568900D01*
Y720000D01*
X1270400Y739800D01*
Y792600D01*
X1276860D01*
X1283050Y798790D01*
X1287190D01*
Y797790D01*
X1293810D01*
Y798590D01*
X1297360D01*
Y798220D01*
X1307440D01*
Y803580D01*
X1297360D01*
Y803210D01*
X1293810D01*
Y804410D01*
X1287190D01*
Y803410D01*
X1281130D01*
X1274940Y797220D01*
X1270400D01*
Y814900D01*
X1271100Y815600D01*
X1313600D01*
X1323610Y805590D01*
X1388620D01*
X1394290Y799920D01*
Y798600D01*
X1393800D01*
Y792840D01*
X1397600D01*
Y798600D01*
X1397110D01*
Y801080D01*
X1393090Y805110D01*
G02X1393370Y805790I282J281D01*
G01X1394520D01*
X1400890Y799420D01*
Y798600D01*
X1400400D01*
Y792840D01*
X1404200D01*
Y798600D01*
X1403710D01*
Y800580D01*
X1395680Y808610D01*
X1388820D01*
X1388620Y808410D01*
X1324770D01*
X1318270Y814920D01*
G02X1318550Y815600I282J282D01*
G01X1407600D01*
X1408300Y814900D01*
Y567500D01*
X1408200Y567400D01*
X1252100D01*
G37*
%LPC*%
G75*
G36*
G01X1178510Y867510D02*
Y855890D01*
X1166890D01*
Y860290D01*
X1154160D01*
G02Y863110I-4660J1410D01*
G01X1166890D01*
Y867510D01*
X1178510D01*
G37*
G36*
G01X1338890Y532420D02*
Y546910D01*
X1331220Y554580D01*
X1317830D01*
X1317820Y554590D01*
X1317340D01*
X1317280Y554520D01*
G02X1317340Y557410I-1781J1483D01*
G01X1318980D01*
X1318990Y557400D01*
X1332380D01*
X1341710Y548070D01*
Y532420D01*
X1346620D01*
Y519780D01*
X1333980D01*
Y532420D01*
X1338890D01*
G37*
G36*
G01X1192620Y532920D02*
Y520280D01*
X1179980D01*
Y532920D01*
X1184890D01*
Y533320D01*
X1177270Y540940D01*
X1175100D01*
Y536030D01*
X1162460D01*
Y548670D01*
X1167370D01*
Y560960D01*
X1201990Y595580D01*
Y601190D01*
X1200090D01*
Y607810D01*
X1206710D01*
Y601190D01*
X1204810D01*
Y594420D01*
X1170190Y559800D01*
Y548670D01*
X1175100D01*
Y543760D01*
X1178430D01*
X1187710Y534480D01*
Y532920D01*
X1192620D01*
G37*
G36*
G01X1232620D02*
Y520280D01*
X1219980D01*
Y532920D01*
X1224890D01*
Y534120D01*
X1218070Y540940D01*
X1215100D01*
Y536030D01*
X1202460D01*
Y548670D01*
X1205790D01*
Y571380D01*
X1228290Y593880D01*
Y600590D01*
X1226390D01*
Y607210D01*
X1233010D01*
Y600590D01*
X1231110D01*
Y592720D01*
X1208610Y570220D01*
Y548670D01*
X1215100D01*
Y543760D01*
X1219230D01*
X1227710Y535280D01*
Y532920D01*
X1232620D01*
G37*
G36*
G01X1269120D02*
Y520280D01*
X1256480D01*
Y532920D01*
X1261390D01*
Y534120D01*
X1254570Y540940D01*
X1251600D01*
Y536030D01*
X1238960D01*
Y540940D01*
X1230570D01*
X1226810Y544700D01*
X1226710Y544690D01*
G02X1228810Y546790I-210J2310D01*
G01X1228800Y546690D01*
X1231730Y543760D01*
X1238960D01*
Y548670D01*
X1251600D01*
Y543760D01*
X1255730D01*
X1264210Y535280D01*
Y532920D01*
X1269120D01*
G37*
G36*
G01X1307620D02*
Y520280D01*
X1294980D01*
Y532920D01*
X1299890D01*
Y533820D01*
X1292770Y540940D01*
X1290100D01*
Y536030D01*
X1277460D01*
Y540940D01*
X1271570D01*
X1263810Y548700D01*
X1263710Y548690D01*
G02X1265810Y550790I-210J2310D01*
G01X1265800Y550690D01*
X1272730Y543760D01*
X1277460D01*
Y548670D01*
X1290100D01*
Y543760D01*
X1293930D01*
X1302710Y534980D01*
Y532920D01*
X1307620D01*
G37*
G36*
G01X1233010Y615610D02*
Y608990D01*
X1226390D01*
Y615610D01*
X1228290D01*
Y623030D01*
X1227610D01*
Y631930D01*
X1231990D01*
Y623030D01*
X1231110D01*
Y615610D01*
X1233010D01*
G37*
G36*
G01X1206710Y616210D02*
Y609590D01*
X1200090D01*
Y616210D01*
X1201990D01*
Y623130D01*
X1201210D01*
Y632030D01*
X1205590D01*
Y623130D01*
X1204810D01*
Y616210D01*
X1206710D01*
G37*
G36*
G01X1181410Y617310D02*
Y610690D01*
X1174790D01*
Y617310D01*
X1176690D01*
Y623330D01*
X1175910D01*
Y632230D01*
X1180290D01*
Y623330D01*
X1179510D01*
Y617310D01*
X1181410D01*
G37*
G36*
G01X1155810Y617710D02*
Y611090D01*
X1149190D01*
Y617710D01*
X1151090D01*
Y623530D01*
X1150210D01*
Y632430D01*
X1154590D01*
Y623530D01*
X1153910D01*
Y617710D01*
X1155810D01*
G37*
G36*
G01X1180290Y637390D02*
Y634350D01*
X1175910D01*
Y637390D01*
X1154590D01*
Y634550D01*
X1150210D01*
Y643450D01*
X1151390D01*
Y656350D01*
X1150610D01*
Y665250D01*
X1154990D01*
Y656350D01*
X1154210D01*
Y643450D01*
X1154590D01*
Y640210D01*
X1175910D01*
Y643250D01*
X1180290D01*
Y640210D01*
X1181920D01*
X1191200Y649490D01*
X1191190Y649590D01*
G02X1193290Y647490I2310J210D01*
G01X1193190Y647500D01*
X1183080Y637390D01*
X1180290D01*
G37*
G36*
G01X1154990Y676270D02*
Y667370D01*
X1150610D01*
Y676270D01*
X1151390D01*
Y680790D01*
X1149490D01*
Y687410D01*
X1156110D01*
Y680790D01*
X1154210D01*
Y676270D01*
X1154990D01*
G37*
G36*
G01X1249220Y769110D02*
X1249120Y769130D01*
X1236510Y756520D01*
Y729040D01*
X1225990Y718520D01*
Y713870D01*
X1221610D01*
Y722770D01*
X1226260D01*
X1233690Y730200D01*
Y757680D01*
X1247280Y771280D01*
Y771360D01*
G02X1249220Y769110I2320J39D01*
G37*
G36*
G01X1225490Y739730D02*
Y730830D01*
X1221110D01*
Y733690D01*
X1211610D01*
Y731790D01*
X1204990D01*
Y738410D01*
X1211610D01*
Y736510D01*
X1221110D01*
Y739730D01*
X1225490D01*
G37*
G36*
G01X1253690Y787360D02*
G02X1256510I1410J1840D01*
G01Y785120D01*
X1224710Y753320D01*
Y750750D01*
X1225490D01*
Y741850D01*
X1221110D01*
Y750750D01*
X1221890D01*
Y754480D01*
X1253690Y786280D01*
Y787360D01*
G37*
G36*
G01X1154360Y800290D02*
Y796840D01*
X1144640D01*
Y806560D01*
X1154360D01*
Y803110D01*
X1162590D01*
Y804910D01*
X1164490D01*
Y826680D01*
X1176820Y839010D01*
X1190790D01*
Y840810D01*
X1201210D01*
Y834390D01*
X1190790D01*
Y836190D01*
X1177980D01*
X1167310Y825520D01*
Y804910D01*
X1169210D01*
Y798290D01*
X1162590D01*
Y800290D01*
X1154360D01*
G37*
G36*
G01X1120580Y730100D02*
X1126410Y724270D01*
Y719340D01*
G02X1123590I-1410J-1840D01*
G01Y723110D01*
X1120130Y726570D01*
G03X1119500Y726480I-281J-286D01*
G02X1119850Y730100I-3999J2214D01*
G01X1120580D01*
G37*
G36*
G01X1156110Y695810D02*
Y689190D01*
X1149490D01*
Y693820D01*
X1136020Y707290D01*
X1119740D01*
G02X1119890Y710260I-4241J1703D01*
G01X1119940Y710110D01*
X1137180D01*
X1151480Y695810D01*
X1156110D01*
G37*
G36*
G01X1131410Y652580D02*
Y643840D01*
G02X1128590I-1410J-1840D01*
G01Y651420D01*
X1127230Y652780D01*
X1119850D01*
G02Y655600I-4350J1410D01*
G01X1128390D01*
X1131410Y652580D01*
G37*
G36*
G01X1119630Y632550D02*
X1119570Y632420D01*
X1144580Y607410D01*
X1149190D01*
Y609310D01*
X1155810D01*
Y602690D01*
X1149190D01*
Y604590D01*
X1143420D01*
X1117580Y630430D01*
X1117450Y630370D01*
G02X1119630Y632550I-1950J4130D01*
G37*
G36*
G01X1136410Y579080D02*
Y573840D01*
G02X1133590I-1410J-1840D01*
G01Y577920D01*
X1132230Y579280D01*
X1119850D01*
G02Y582100I-4350J1410D01*
G01X1133390D01*
X1136410Y579080D01*
G37*
G36*
G01X1116120Y567910D02*
X1143520D01*
X1176690Y601080D01*
Y602290D01*
X1174790D01*
Y608910D01*
X1181410D01*
Y602290D01*
X1179510D01*
Y599920D01*
X1144680Y565090D01*
X1118830D01*
G03X1118560Y564390I-3J-401D01*
G02X1114090Y565350I-3066J-3389D01*
G01Y565880D01*
X1116120Y567910D01*
G37*
G36*
G01X1231210Y646290D02*
Y642950D01*
X1231990D01*
Y634050D01*
X1227610D01*
Y637090D01*
X1205590D01*
Y634150D01*
X1201210D01*
Y643050D01*
X1201990D01*
Y657080D01*
X1201760D01*
Y663620D01*
X1204960D01*
Y657080D01*
X1204810D01*
Y643050D01*
X1205590D01*
Y639910D01*
X1227610D01*
Y642950D01*
X1228390D01*
Y646290D01*
X1226390D01*
Y652910D01*
X1233010D01*
Y650910D01*
X1236490D01*
Y651910D01*
X1241910D01*
Y647090D01*
X1236490D01*
Y648090D01*
X1233010D01*
Y646290D01*
X1231210D01*
G37*
G36*
G01X1205420Y683890D02*
Y670110D01*
X1202950Y667640D01*
X1180390D01*
Y665250D01*
X1180260D01*
Y662410D01*
X1196840D01*
Y663620D01*
X1200040D01*
Y661780D01*
G02Y659040I-1540J-1370D01*
G01Y657080D01*
X1196840D01*
Y658290D01*
X1180190D01*
Y655850D01*
X1175810D01*
Y664750D01*
X1176140D01*
Y665250D01*
X1176010D01*
Y674150D01*
X1180390D01*
Y671760D01*
X1201250D01*
X1201300Y671810D01*
Y682190D01*
X1197340Y686150D01*
Y753450D01*
X1204840Y760960D01*
G03X1204560Y761640I-282J282D01*
G01X1199310D01*
Y760390D01*
X1192690D01*
Y767010D01*
X1199310D01*
Y765760D01*
X1207190D01*
Y767010D01*
X1213810D01*
Y760390D01*
X1210100D01*
X1201460Y751750D01*
Y687850D01*
X1205420Y683890D01*
G37*
G36*
G01X1218480Y651490D02*
X1208820D01*
X1206870Y653440D01*
Y657080D01*
X1206680D01*
Y663620D01*
X1206930D01*
X1207300Y664000D01*
G03X1207020Y664680I-282J282D01*
G02X1205680Y668900I-16J2318D01*
G01X1205690Y668920D01*
X1208920Y672150D01*
G03X1208640Y672830I-282J281D01*
G01X1206680D01*
Y679370D01*
X1206870D01*
Y723390D01*
X1204990D01*
Y730010D01*
X1211610D01*
Y723390D01*
X1209690D01*
Y684350D01*
G03X1210370Y684070I399J2D01*
G01X1220420Y694110D01*
X1224090D01*
Y696010D01*
X1230710D01*
Y689390D01*
X1224090D01*
Y691290D01*
X1221580D01*
X1209880Y679580D01*
Y674070D01*
G03X1210560Y673780I399J-6D01*
G01X1211600Y674830D01*
Y679370D01*
X1214800D01*
Y677510D01*
X1218620D01*
X1224090Y682980D01*
Y687610D01*
X1230710D01*
Y680990D01*
X1226080D01*
X1219780Y674690D01*
X1214800D01*
Y672830D01*
X1213590D01*
X1208980Y668220D01*
X1209050Y668090D01*
G02X1209320Y666980I-2050J-1087D01*
G03X1210000Y666700I398J2D01*
G01X1211320Y668010D01*
X1226820D01*
X1236990Y678180D01*
Y693820D01*
X1226670Y704130D01*
G03X1225990Y703850I-281J-282D01*
G01Y702850D01*
X1221610D01*
Y711750D01*
X1225990D01*
Y708800D01*
X1239810Y694980D01*
Y677020D01*
X1227980Y665190D01*
X1212480D01*
X1209880Y662580D01*
Y657080D01*
X1209690D01*
Y654600D01*
X1209980Y654310D01*
X1217320D01*
X1222420Y659410D01*
X1226390D01*
Y661310D01*
X1233010D01*
Y659410D01*
X1236880D01*
X1238780Y657510D01*
X1241910D01*
Y652690D01*
X1236490D01*
Y655820D01*
X1235720Y656590D01*
X1233010D01*
Y654690D01*
X1226390D01*
Y656590D01*
X1223580D01*
X1218480Y651490D01*
G37*
G36*
G01X1325710Y691620D02*
Y668520D01*
X1322780Y665590D01*
X1306680D01*
X1283310Y642220D01*
Y636200D01*
X1285720Y633800D01*
X1289280D01*
Y633410D01*
X1290450D01*
X1297210Y626650D01*
Y611980D01*
X1300390Y608800D01*
X1303410D01*
Y609190D01*
X1308970D01*
Y605590D01*
X1303410D01*
Y605980D01*
X1299230D01*
X1294390Y610820D01*
Y625490D01*
X1289520Y630350D01*
X1289280Y630250D01*
Y630200D01*
X1283720D01*
Y631810D01*
X1280490Y635040D01*
Y643380D01*
X1305390Y668280D01*
Y684200D01*
X1303720D01*
Y687800D01*
X1309280D01*
Y684200D01*
X1308210D01*
Y668410D01*
X1321620D01*
X1322890Y669680D01*
Y692780D01*
X1324920Y694810D01*
X1341800D01*
G02X1342290Y694720I-6J-1409D01*
G01X1342320Y694710D01*
X1380890D01*
Y699110D01*
X1392510D01*
Y687490D01*
X1380890D01*
Y691890D01*
X1343110D01*
Y687710D01*
X1345010D01*
Y681090D01*
X1338390D01*
Y687710D01*
X1340290D01*
Y691990D01*
X1326080D01*
X1325710Y691620D01*
G37*
G36*
G01X1392810Y643290D02*
Y638890D01*
X1381190D01*
Y650510D01*
X1392810D01*
Y647070D01*
G03X1393490Y646790I399J2D01*
G01X1400990Y654280D01*
Y760150D01*
X1385520Y775610D01*
X1385280Y775510D01*
Y775460D01*
X1379720D01*
Y779060D01*
X1385280D01*
Y778670D01*
X1386450D01*
X1403810Y761310D01*
Y653120D01*
X1393980Y643290D01*
X1392810D01*
G37*
G36*
G01X1300810Y690910D02*
X1300910Y690900D01*
X1302340Y692330D01*
X1303720D01*
Y692720D01*
X1309280D01*
Y689120D01*
X1303720D01*
Y689240D01*
G03X1303380Y689380I-199J0D01*
G01X1302900Y688910D01*
X1302910Y688810D01*
G02X1300810Y690910I-2310J-210D01*
G37*
G36*
G01X1329940Y594210D02*
Y615350D01*
X1315350Y629940D01*
X1306190D01*
G02X1305180Y630200I-8J2062D01*
G01X1303410D01*
Y633800D01*
X1304130D01*
Y635240D01*
X1304140Y635250D01*
Y636790D01*
X1302890D01*
Y643410D01*
X1304140D01*
Y645050D01*
X1307450Y648360D01*
X1326750D01*
X1328940Y650550D01*
Y659140D01*
X1313910D01*
Y657890D01*
X1307290D01*
Y664510D01*
X1313910D01*
Y663260D01*
X1328940D01*
Y678410D01*
G02X1333000Y680550I1864J1385D01*
G01X1333010Y680500D01*
X1333060Y680450D01*
Y680320D01*
X1333070Y680300D01*
G02Y679300I-2270J-500D01*
G01X1333060Y679280D01*
Y648850D01*
X1328450Y644240D01*
X1309150D01*
X1309010Y644090D01*
G03X1309290Y643410I282J-282D01*
G01X1309510D01*
Y636790D01*
X1308260D01*
Y634060D01*
X1317050D01*
X1334060Y617050D01*
Y594210D01*
X1335310D01*
Y587590D01*
X1328690D01*
Y594210D01*
X1329940D01*
G37*
G36*
G01X1259910Y623080D02*
X1278190Y604800D01*
X1278290Y604810D01*
G02X1276190Y602710I210J-2310D01*
G01X1276200Y602810D01*
X1257090Y621920D01*
Y694080D01*
X1274200Y711190D01*
X1274190Y711290D01*
G02X1276290Y709190I2310J210D01*
G01X1276190Y709200D01*
X1259910Y692920D01*
Y623080D01*
G37*
G36*
G01X1302210Y601090D02*
X1300340D01*
G02Y603910I-1840J1410D01*
G01X1303410D01*
Y604270D01*
X1308970D01*
Y600670D01*
X1303410D01*
Y601060D01*
X1302240D01*
X1302210Y601090D01*
G37*
G36*
G01X1346220Y606330D02*
Y601970D01*
X1340660D01*
Y609110D01*
X1345010D01*
X1346220Y610310D01*
X1350590D01*
Y612210D01*
X1357210D01*
Y605590D01*
X1350590D01*
Y607490D01*
X1347380D01*
X1346220Y606330D01*
G37*
G36*
G01X1289280Y609190D02*
Y605590D01*
X1283720D01*
Y605980D01*
X1282550D01*
X1260690Y627840D01*
Y689850D01*
X1282860Y712020D01*
X1284030D01*
Y712410D01*
X1289590D01*
Y708810D01*
X1284030D01*
Y708860D01*
X1283790Y708960D01*
X1263510Y688690D01*
Y629000D01*
X1283480Y609040D01*
X1283720Y609140D01*
Y609190D01*
X1289280D01*
G37*
G36*
G01Y619040D02*
Y615440D01*
X1283720D01*
Y615830D01*
X1279680D01*
X1264840Y630670D01*
Y687930D01*
X1284030Y707120D01*
Y707490D01*
X1289590D01*
Y703890D01*
X1284790D01*
X1267660Y686770D01*
Y631830D01*
X1280840Y618650D01*
X1283720D01*
Y619040D01*
X1289280D01*
G37*
G36*
G01Y628880D02*
Y625280D01*
X1283720D01*
Y625670D01*
X1282550D01*
X1275090Y633130D01*
Y684580D01*
X1282840Y692330D01*
X1284030D01*
Y692720D01*
X1289590D01*
Y689120D01*
X1284030D01*
Y689190D01*
X1283790Y689290D01*
X1277910Y683420D01*
Y634290D01*
X1283480Y628730D01*
X1283720Y628830D01*
Y628880D01*
X1289280D01*
G37*
G36*
G01X1272160Y683670D02*
Y642280D01*
G02X1269340Y642200I-1358J-1880D01*
G01Y684830D01*
X1281760Y697250D01*
X1284030D01*
Y697640D01*
X1289590D01*
Y694040D01*
X1284030D01*
Y694430D01*
X1282920D01*
X1272160Y683670D01*
G37*
G36*
G01X1295810Y646120D02*
Y643440D01*
G02X1292990I-1410J-1840D01*
G01Y647280D01*
X1299920Y654210D01*
X1307290D01*
Y656110D01*
X1313910D01*
Y654210D01*
X1323590D01*
G02X1323740Y651390I1911J-1312D01*
G01X1313910D01*
Y649490D01*
X1307290D01*
Y651390D01*
X1301080D01*
X1295810Y646120D01*
G37*
G36*
G01X1354920Y674270D02*
X1345060D01*
X1340310Y669520D01*
Y654840D01*
G02X1337490I-1410J-1840D01*
G01Y670680D01*
X1343900Y677090D01*
X1354920D01*
Y679250D01*
X1360480D01*
Y672110D01*
X1354920D01*
Y674270D01*
G37*
G36*
G01X1290110Y673200D02*
Y669490D01*
X1283490D01*
Y676110D01*
X1284750D01*
Y684200D01*
X1284030D01*
Y687800D01*
X1285800D01*
G02X1287820I1010J-1800D01*
G01X1289590D01*
Y684200D01*
X1288870D01*
Y678750D01*
G03X1289550Y678470I398J2D01*
G01X1292950Y681860D01*
X1301980D01*
X1302000Y681870D01*
G02X1303000I500J-2270D01*
G01X1303020Y681860D01*
X1303150D01*
X1303200Y681810D01*
X1303250Y681800D01*
G02X1301110Y677740I-755J-2196D01*
G01X1294650D01*
X1290110Y673200D01*
G37*
G36*
G01X1317490Y675040D02*
Y696620D01*
X1309830Y704280D01*
X1309280D01*
Y703890D01*
X1303720D01*
Y707490D01*
X1309280D01*
Y707100D01*
X1310990D01*
X1320310Y697780D01*
Y675040D01*
G02X1317490I-1410J-1840D01*
G37*
G36*
G01X1364220Y687910D02*
Y680770D01*
X1358660D01*
Y682930D01*
X1357490D01*
X1357430Y682990D01*
X1353410D01*
Y681090D01*
X1346790D01*
Y687710D01*
X1353410D01*
Y685810D01*
X1358660D01*
Y687910D01*
X1364220D01*
G37*
G36*
G01X1309280Y697250D02*
X1311760D01*
G02Y694430I1840J-1410D01*
G01X1309280D01*
Y694040D01*
X1303720D01*
Y697640D01*
X1309280D01*
Y697250D01*
G37*
G36*
G01X1292990Y705560D02*
Y716380D01*
X1340520Y763910D01*
X1352160D01*
G02Y761090I1840J-1410D01*
G01X1341680D01*
X1295810Y715220D01*
Y704400D01*
X1290760Y699350D01*
X1289590D01*
Y698960D01*
X1284030D01*
Y702560D01*
X1289590D01*
Y702510D01*
X1289830Y702410D01*
X1292990Y705560D01*
G37*
G36*
G01X1309280Y702560D02*
Y698960D01*
X1303720D01*
Y699350D01*
X1301160D01*
X1298090Y702420D01*
Y711660D01*
G02X1300910I1410J1840D01*
G01Y703580D01*
X1302320Y702170D01*
X1303720D01*
Y702560D01*
X1309280D01*
G37*
G36*
G01X1387580Y747690D02*
X1344480D01*
X1338710Y741920D01*
Y711920D01*
X1335990Y709200D01*
X1309280D01*
Y708810D01*
X1303720D01*
Y712410D01*
X1309280D01*
Y712020D01*
X1334830D01*
X1335890Y713080D01*
Y743080D01*
X1343320Y750510D01*
X1386390D01*
Y764910D01*
X1385520Y765770D01*
X1385280Y765670D01*
Y765620D01*
X1379720D01*
Y769220D01*
X1385280D01*
Y768830D01*
X1386450D01*
X1389210Y766070D01*
Y749320D01*
X1387580Y747690D01*
G37*
G36*
G01X1284030Y717330D02*
X1287590D01*
X1333590Y763320D01*
Y800990D01*
G02X1336410Y800300I1840J1411D01*
G01Y762160D01*
X1289590Y715340D01*
Y713730D01*
X1284030D01*
Y717330D01*
G37*
G36*
G01X1340550Y756660D02*
X1353080D01*
X1360030Y763610D01*
Y764300D01*
X1360710D01*
X1360980Y764560D01*
X1362810D01*
G02X1363820Y764300I8J-2062D01*
G01X1365590D01*
Y760700D01*
X1363820D01*
G02X1362810Y760440I-1002J1802D01*
G01X1362680D01*
X1360390Y758140D01*
G03X1360670Y757460I282J-282D01*
G01X1366690D01*
Y758710D01*
X1373310D01*
Y752090D01*
X1366690D01*
Y753340D01*
X1355580D01*
X1354780Y752540D01*
X1342250D01*
X1332680Y742970D01*
Y725400D01*
G02X1328800Y723050I-1684J-1598D01*
G01X1328790Y723100D01*
X1328560Y723330D01*
Y744670D01*
X1340550Y756660D01*
G37*
G36*
G01X1304860Y767110D02*
Y752370D01*
G02X1300740I-2060J-1070D01*
G01Y767110D01*
X1298150D01*
Y771490D01*
X1300540D01*
Y780110D01*
X1297360D01*
Y785470D01*
X1307440D01*
Y780110D01*
X1304660D01*
Y771490D01*
X1307050D01*
Y767110D01*
X1304860D01*
G37*
G36*
G01X1379720Y761090D02*
X1372940D01*
G02Y763910I-1840J1410D01*
G01X1379720D01*
Y764300D01*
X1385280D01*
Y760700D01*
X1379720D01*
Y761090D01*
G37*
G36*
G01X1397110Y781820D02*
Y777860D01*
G02X1394290Y778010I-1508J-1761D01*
G01Y781820D01*
X1393800D01*
Y787580D01*
X1397600D01*
Y781820D01*
X1397110D01*
G37*
G36*
G01X1320410Y620680D02*
Y619040D01*
G02X1317160Y615790I-1410J-1840D01*
G01X1315320D01*
X1315280Y615830D01*
X1308970D01*
Y615440D01*
X1303410D01*
Y619040D01*
X1308970D01*
Y618650D01*
X1316440D01*
X1316480Y618610D01*
X1317160D01*
G02X1317520Y618980I1830J-1420D01*
G01X1317590Y619040D01*
Y619520D01*
X1311440Y625670D01*
X1308970D01*
Y625280D01*
X1303410D01*
Y628880D01*
X1308970D01*
Y628490D01*
X1312600D01*
X1320410Y620680D01*
G37*
G36*
G01X1308970Y614110D02*
Y610510D01*
X1303410D01*
Y610900D01*
X1301810D01*
X1301270Y611440D01*
X1301140Y611380D01*
G02X1302350Y614360I-942J2118D01*
G01X1302370Y614330D01*
X1302970Y613720D01*
X1303410D01*
Y614110D01*
X1308970D01*
G37*
G36*
G01X1336520Y583910D02*
X1338490Y585880D01*
Y591940D01*
X1338290Y592140D01*
Y593310D01*
X1336920D01*
Y600450D01*
X1342480D01*
Y593310D01*
X1341310D01*
Y584720D01*
X1337680Y581090D01*
X1335310D01*
Y579190D01*
X1328690D01*
Y581090D01*
X1308420D01*
X1291890Y597620D01*
Y608300D01*
X1289520Y610660D01*
X1289160Y610510D01*
X1283720D01*
Y614110D01*
X1289280D01*
Y613720D01*
X1290450D01*
X1294710Y609460D01*
Y598780D01*
X1309580Y583910D01*
X1328690D01*
Y585810D01*
X1335310D01*
Y583910D01*
X1336520D01*
G37*
G36*
G01X1290080Y639350D02*
X1290050Y639240D01*
X1300610Y628680D01*
Y624680D01*
X1301720Y623570D01*
X1303410D01*
Y623960D01*
X1308970D01*
Y620360D01*
X1303410D01*
Y620750D01*
X1300560D01*
X1297790Y623520D01*
Y627520D01*
X1287830Y637480D01*
X1287750D01*
G02X1290080Y639350I53J2321D01*
G37*
G36*
G01X1289280Y623510D02*
X1289760D01*
X1289820Y623580D01*
G02Y620620I1780J-1480D01*
G01X1289760Y620690D01*
X1289280D01*
Y620360D01*
X1283720D01*
Y623960D01*
X1289280D01*
Y623510D01*
G37*
G36*
G01X1389160Y713070D02*
G02X1387440Y715340I-5358J-2273D01*
G01X1390590Y718480D01*
Y741960D01*
G02X1393410I1410J1840D01*
G01Y717320D01*
X1389160Y713070D01*
G37*
G36*
G01X1389560Y682770D02*
X1389700Y682690D01*
X1393190Y686180D01*
Y699320D01*
X1391220Y701290D01*
X1322340D01*
G02Y704110I-1840J1410D01*
G01X1392380D01*
X1396010Y700480D01*
Y685020D01*
X1391690Y680700D01*
X1391770Y680560D01*
G02X1389560Y682770I-5070J-2860D01*
G37*
G36*
G01Y667170D02*
X1389700Y667090D01*
X1397490Y674880D01*
Y755920D01*
X1395910Y757500D01*
X1395810Y757490D01*
G02X1397910Y759590I-210J2310D01*
G01X1397900Y759490D01*
X1400310Y757080D01*
Y673720D01*
X1391690Y665100D01*
X1391770Y664960D01*
G02X1389560Y667170I-5070J-2860D01*
G37*
G36*
G01X1389860Y634170D02*
X1390000Y634090D01*
X1404390Y648480D01*
Y762320D01*
X1400890Y765820D01*
Y781820D01*
X1400400D01*
Y787580D01*
X1404200D01*
Y781820D01*
X1403710D01*
Y766980D01*
X1407210Y763480D01*
Y647320D01*
X1391990Y632100D01*
X1392070Y631960D01*
G02X1389860Y634170I-5070J-2860D01*
G37*
G36*
G01X1383780Y618710D02*
X1384000Y618490D01*
X1384140Y618570D01*
G02X1381490Y615360I2865J-5064D01*
G03X1381110Y615890I-380J129D01*
G01X1357210D01*
Y613990D01*
X1350590D01*
Y615890D01*
X1341040D01*
G02Y618710I-1840J1410D01*
G01X1350590D01*
Y620610D01*
X1357210D01*
Y618710D01*
X1383780D01*
G37*
G54D42*
X1196000Y828600D03*
G54D46*
X1171740Y521090D03*
Y493530D03*
X1325740Y520590D03*
Y493030D03*
X1248240Y521090D03*
Y493530D03*
X1286740Y521090D03*
Y493530D03*
X1211740Y521090D03*
Y493530D03*
X1188300Y861700D03*
G54D51*
X1302400Y791840D03*
G54D40*
X1209400Y806900D03*
G54D50*
X1325230Y791840D03*
G54D47*
X1383800Y726400D03*
G54D39*
X1220400Y828600D03*
G54D37*
X1340300Y488700D03*
X1301300Y489200D03*
X1262800D03*
X1226300D03*
X1186300D03*
G54D44*
X1213200Y660350D03*
G54D38*
X1322780Y541850D03*
G54D45*
X1115500Y600370D03*
Y673870D03*
Y748370D03*
G54D48*
X1382500Y782190D03*
Y787110D03*
Y792030D03*
Y796950D03*
X1362810D03*
Y792030D03*
Y787110D03*
Y782190D03*
X1382500Y772340D03*
X1362810Y777260D03*
Y772340D03*
Y767420D03*
X1306500Y715530D03*
X1286500Y602470D03*
G54D49*
X1365180Y675680D03*
X1347180Y596880D03*
G54D41*
X1210500Y772100D03*
X1174600Y690400D03*
X1165900Y793200D03*
X1378400Y755400D03*
X1314600Y640100D03*
X1290500Y792700D03*
X1286800Y664400D03*
G54D52*
X1313620Y769300D03*
G54D43*
X1178200Y680720D03*
X1178000Y649280D03*
%LPD*%
G75*
G54D10*
G01X1198440Y660350D02*
X1178050D01*
G01X1198500Y660410D02*
X1198440Y660350D01*
G01X1178000Y660300D02*
X1178050Y660350D01*
G01D02*
X1178200Y660500D01*
Y669700D01*
G01X1203360Y676100D02*
Y683040D01*
X1199400Y687000D01*
Y752600D01*
X1210500Y763700D01*
G01X1203360Y676100D02*
Y670960D01*
X1202100Y669700D01*
X1178200D01*
G01X1196000Y763700D02*
X1210500D01*
G01X1302500Y679600D02*
X1302300Y679800D01*
X1293800D01*
X1286810Y672810D01*
G01X1286800Y672800D02*
X1286810Y672810D01*
G01D02*
Y686000D01*
G01X1306190Y632000D02*
X1316200D01*
X1332000Y616200D01*
Y590900D01*
G01X1331000Y660900D02*
Y649700D01*
X1327600Y646300D01*
X1308300D01*
X1306200Y644200D01*
Y640100D01*
G01X1310600Y661200D02*
X1330700D01*
X1331000Y660900D01*
G01X1306200Y640100D02*
Y634400D01*
X1306190Y634390D01*
Y632000D01*
G01X1302600Y769300D02*
Y782590D01*
X1302400Y782790D01*
G01X1302800Y751300D02*
Y769100D01*
X1302600Y769300D01*
G01X1331000Y660900D02*
Y679600D01*
X1330800Y679800D01*
G01X1331000Y723800D02*
X1330620Y724180D01*
Y743820D01*
X1341400Y754600D01*
X1353930D01*
X1354730Y755400D01*
G01X1362810Y762500D02*
X1361830D01*
X1354730Y755400D01*
G01D02*
X1370000D01*
X1110000Y490000D03*
Y871000D03*
X1400000Y490000D03*
Y870000D03*
G54D11*
X1115500Y561000D03*
Y600370D03*
Y580690D03*
Y654190D03*
Y634500D03*
Y673870D03*
Y709000D03*
Y748370D03*
Y728690D03*
G54D20*
X1186300Y489200D03*
X1226300D03*
X1262800D03*
X1301300D03*
X1340300Y488700D03*
G54D30*
X1313620Y769300D03*
X1302600D03*
G54D21*
X1198440Y660350D03*
Y676100D03*
X1213200Y660350D03*
X1208280D03*
X1203360D03*
Y676100D03*
X1208280D03*
X1213200D03*
G54D12*
G01X1183000Y690400D02*
Y759100D01*
X1182900Y759200D01*
Y766400D01*
X1188600Y772100D01*
X1196000D01*
G01X1183000Y690400D02*
X1186300D01*
X1198440Y678260D01*
Y676100D01*
G01X1196200Y794500D02*
Y772300D01*
X1196000Y772100D01*
G01X1290500Y801100D02*
X1282090D01*
X1275900Y794910D01*
X1269110D01*
X1269100Y794900D01*
X1257930D01*
X1257920Y794890D01*
X1253000D01*
X1252990Y794900D01*
X1196600D01*
X1196200Y794500D01*
G01X1196000Y819600D02*
Y807100D01*
X1196200Y806900D01*
G01D02*
Y794500D01*
G01X1302400Y800900D02*
X1290700D01*
X1290500Y801100D01*
X1135000Y572000D03*
X1130000Y642000D03*
X1125000Y717500D03*
X1193500Y649800D03*
X1226500Y547000D03*
X1207000Y667000D03*
X1249600Y771400D03*
X1255100Y789200D03*
X1263500Y551000D03*
X1278500Y602500D03*
X1291600Y622100D03*
X1270800Y640400D03*
X1287800Y639800D03*
X1276500Y711500D03*
X1284700Y835600D03*
X1285200Y842100D03*
X1315500Y556000D03*
X1298500Y602500D03*
X1300200Y613500D03*
X1319000Y617200D03*
X1294400Y641600D03*
X1302500Y679600D03*
X1300600Y688600D03*
X1318900Y673200D03*
X1299500Y713500D03*
X1320500Y702700D03*
X1313600Y695840D03*
X1302800Y751300D03*
X1339200Y617300D03*
X1338900Y653000D03*
X1325500Y652900D03*
X1330800Y679800D03*
X1331000Y723800D03*
X1335430Y802400D03*
X1331720Y838100D03*
X1354000Y762500D03*
X1371100D03*
X1392000Y743800D03*
X1395600Y776100D03*
Y759800D03*
X1391600Y818000D03*
G54D31*
X1302400Y782790D03*
Y791840D03*
Y800900D03*
G54D22*
X1196200Y806900D03*
X1209400D03*
G54D13*
X1171740Y493530D03*
Y521090D03*
X1188300Y861700D03*
X1211740Y493530D03*
Y521090D03*
X1248240Y493530D03*
Y521090D03*
X1286740Y493530D03*
Y521090D03*
X1325740Y493030D03*
Y520590D03*
X1383800Y710800D03*
X1387000Y629100D03*
Y613500D03*
X1386700Y662100D03*
Y677700D03*
G54D23*
X1196000Y837600D03*
Y828600D03*
Y819600D03*
G54D32*
X1347180Y596880D03*
X1339700D03*
X1343440Y605540D03*
X1365180Y675680D03*
X1357700D03*
X1361440Y684340D03*
G54D14*
X1168780Y542350D03*
X1186300Y526600D03*
X1208780Y542350D03*
X1226300Y526600D03*
X1245280Y542350D03*
X1262800Y526600D03*
X1283780Y542350D03*
X1301300Y526600D03*
X1322780Y541850D03*
X1340300Y526100D03*
G54D15*
X1152500Y614400D03*
Y606000D03*
X1152800Y684100D03*
Y692500D03*
X1165900Y801600D03*
Y793200D03*
X1178100Y614000D03*
Y605600D03*
X1174600Y690400D03*
X1183000D03*
X1196000Y763700D03*
Y772100D03*
X1203400Y612900D03*
Y604500D03*
X1229700Y612300D03*
Y603900D03*
Y658000D03*
Y649600D03*
X1227400Y684300D03*
Y692700D03*
X1208300Y735100D03*
Y726700D03*
X1210500Y772100D03*
Y763700D03*
X1286800Y664400D03*
Y672800D03*
X1290500Y792700D03*
Y801100D03*
X1310600Y652800D03*
Y661200D03*
X1314600Y640100D03*
X1306200D03*
X1332000Y582500D03*
Y590900D03*
X1350100Y684400D03*
X1341700D03*
X1353900Y608900D03*
Y617300D03*
X1378400Y755400D03*
X1370000D03*
G54D33*
X1325230Y791840D03*
G54D24*
X1220400Y828600D03*
G54D16*
X1152400Y627980D03*
Y639000D03*
X1152800Y660800D03*
Y671820D03*
X1178100Y627780D03*
Y638800D03*
X1178000Y649280D03*
Y660300D03*
X1178200Y680720D03*
Y669700D03*
X1203400Y627580D03*
X1229800Y627480D03*
X1203400Y638600D03*
X1229800Y638500D03*
X1223800Y718320D03*
Y707300D03*
X1223300Y735280D03*
Y746300D03*
G54D34*
X1395700Y795720D03*
Y784700D03*
X1402300Y795720D03*
Y784700D03*
G54D25*
X1239200Y655100D03*
Y649500D03*
G54D35*
G01X1046300Y558000D02*
Y550500D01*
G01X1044150Y558000D02*
X1048450D01*
G01X1053800Y550500D02*
X1053050Y550620D01*
X1052400Y551120D01*
X1051840Y551870D01*
X1051470Y552750D01*
X1051280Y553750D01*
Y554750D01*
X1051470Y555750D01*
X1051840Y556630D01*
X1052400Y557370D01*
X1053050Y557880D01*
X1053800Y558000D01*
X1054550Y557880D01*
X1055200Y557370D01*
X1055760Y556630D01*
X1056130Y555750D01*
X1056320Y554750D01*
Y553750D01*
X1056130Y552750D01*
X1055760Y551870D01*
X1055200Y551120D01*
X1054550Y550620D01*
X1053800Y550500D01*
G01X1059430D02*
Y558000D01*
X1061670D01*
X1062420Y557620D01*
X1062980Y556750D01*
X1063170Y555750D01*
X1062980Y554750D01*
X1062510Y554000D01*
X1061670Y553620D01*
X1059430D01*
G54D17*
X1149500Y801700D03*
G54D26*
X1260850Y854640D03*
X1359280D03*
G54D36*
G01X1178100Y605600D02*
Y600500D01*
X1144100Y566500D01*
X1116700D01*
X1115500Y565300D01*
Y561000D01*
G01Y580690D02*
X1132810D01*
X1135000Y578500D01*
Y572000D01*
G01X1115500Y595610D02*
Y600370D01*
G01D02*
Y605130D01*
G01X1110740Y600370D02*
X1115500D01*
G01D02*
X1120260D01*
G01X1152500Y606000D02*
X1144000D01*
X1115500Y634500D01*
G01Y654190D02*
X1127810D01*
X1130000Y652000D01*
Y642000D01*
G01X1115500Y669110D02*
Y673870D01*
G01D02*
Y678630D01*
G01X1110740Y673870D02*
X1115500D01*
G01D02*
X1120260D01*
G01X1115500Y728690D02*
X1120000D01*
X1125000Y723690D01*
Y717500D01*
G01X1152800Y692500D02*
X1136600Y708700D01*
X1115800D01*
X1115500Y709000D01*
G01Y743610D02*
Y748370D01*
G01D02*
Y753130D01*
G01X1110740Y748370D02*
X1115500D01*
G01D02*
X1120260D01*
G01X1168780Y542350D02*
X1177850D01*
X1186300Y533900D01*
Y526600D01*
G01X1203400Y604500D02*
Y595000D01*
X1168780Y560380D01*
Y542350D01*
G01X1152500Y614400D02*
Y627880D01*
X1152400Y627980D01*
G01X1152800Y660800D02*
Y639400D01*
X1152400Y639000D01*
G01X1178100Y638800D02*
X1152600D01*
X1152400Y639000D01*
G01X1152800Y684100D02*
Y671820D01*
G01X1165900Y789690D02*
Y793200D01*
G01D02*
Y796710D01*
G01X1162390Y793200D02*
X1165900D01*
G01D02*
X1169410D01*
G01X1165900Y801600D02*
X1165800Y801700D01*
X1149500D01*
G01X1165900Y801600D02*
Y826100D01*
X1177400Y837600D01*
X1196000D01*
G01X1172700Y861700D02*
X1149500D01*
G01X1186300Y483860D02*
Y489200D01*
G01D02*
Y494540D01*
G01X1179780Y489200D02*
X1186300D01*
G01D02*
X1192820D01*
G01X1178100Y614000D02*
Y627780D01*
G01X1178000Y644630D02*
Y649280D01*
G01D02*
Y653930D01*
G01X1175610Y649280D02*
X1178000D01*
G01D02*
X1180390D01*
G01X1193500Y649800D02*
X1182500Y638800D01*
X1178100D01*
G01X1178200Y676070D02*
Y680720D01*
G01D02*
Y685370D01*
G01X1175810Y680720D02*
X1178200D01*
G01D02*
X1180590D01*
G01X1174600Y686890D02*
Y690400D01*
G01D02*
Y693910D01*
G01X1171090Y690400D02*
X1174600D01*
G01D02*
X1178110D01*
G01X1196000Y825190D02*
Y828600D01*
G01D02*
Y832010D01*
G01X1190590Y828600D02*
X1196000D01*
G01D02*
X1201410D01*
G01X1188300Y855690D02*
Y861700D01*
G01D02*
Y867710D01*
G01X1182290Y861700D02*
X1188300D01*
G01D02*
X1194310D01*
G01X1226300Y483860D02*
Y489200D01*
G01D02*
Y494540D01*
G01X1219780Y489200D02*
X1226300D01*
G01D02*
X1232820D01*
G01X1226300Y526600D02*
Y534700D01*
X1218650Y542350D01*
X1208780D01*
G01X1207280D02*
X1208780D01*
G01X1229700Y603900D02*
Y593300D01*
X1207200Y570800D01*
Y543930D01*
X1208780Y542350D01*
G01X1245280D02*
X1231150D01*
X1226500Y547000D01*
G01X1229700Y612300D02*
Y627380D01*
X1229800Y627480D01*
G01X1203400Y612900D02*
Y627580D01*
G01X1213200Y656880D02*
Y660350D01*
G01D02*
Y663820D01*
G01X1211400Y660350D02*
X1213200D01*
G01D02*
X1215000D01*
G01X1223800Y707300D02*
X1225500D01*
X1238400Y694400D01*
Y677600D01*
X1227400Y666600D01*
X1211900D01*
X1208280Y662980D01*
Y660350D01*
G01X1229700Y658000D02*
X1223000D01*
X1217900Y652900D01*
X1209400D01*
X1208280Y654020D01*
Y660350D01*
G01X1229700Y658000D02*
X1236300D01*
X1239200Y655100D01*
G01X1229800Y638500D02*
Y649500D01*
G01X1203400Y638600D02*
Y660310D01*
X1203360Y660350D01*
G01X1229800Y638500D02*
X1203500D01*
X1203400Y638600D01*
G01X1229800Y649500D02*
X1229700Y649600D01*
G01X1239200Y649500D02*
X1229800D01*
G01X1208280Y679980D02*
Y726680D01*
X1208300Y726700D01*
G01X1227400Y692700D02*
X1221000D01*
X1208280Y679980D01*
G01Y676100D02*
Y679980D01*
G01X1207000Y667000D02*
Y668230D01*
X1213200Y674430D01*
Y676100D01*
G01D02*
X1219200D01*
X1227400Y684300D01*
G01X1249600Y771400D02*
X1249400D01*
X1235100Y757100D01*
Y729620D01*
X1223800Y718320D01*
G01X1223500Y735080D02*
X1223300Y735280D01*
G01X1208300Y735100D02*
X1223120D01*
X1223300Y735280D01*
G01Y746300D02*
Y753900D01*
X1255100Y785700D01*
Y789200D01*
G01X1210500Y768590D02*
Y772100D01*
G01D02*
Y775610D01*
G01X1206990Y772100D02*
X1210500D01*
G01D02*
X1214010D01*
G01X1209400Y801590D02*
Y806900D01*
G01D02*
Y812210D01*
G01X1204090Y806900D02*
X1209400D01*
G01D02*
X1214710D01*
G01X1220400Y820490D02*
Y828600D01*
G01D02*
Y836710D01*
G01X1214990Y828600D02*
X1220400D01*
G01D02*
X1225810D01*
G01X1224300Y853500D02*
X1244200Y873400D01*
X1287900D01*
X1288000Y873300D01*
G01X1256280Y489200D02*
X1262800D01*
G01Y526600D02*
Y534700D01*
X1255150Y542350D01*
X1245280D01*
G01X1278500Y602500D02*
X1258500Y622500D01*
Y693500D01*
X1276500Y711500D01*
G01X1262800Y483860D02*
Y489200D01*
G01D02*
Y494540D01*
G01Y489200D02*
X1269320D01*
G01X1283780Y542350D02*
X1272150D01*
X1263500Y551000D01*
G01X1301300Y526600D02*
Y534400D01*
X1293350Y542350D01*
X1283780D01*
G01X1286500Y600470D02*
Y602470D01*
G01X1286810Y705690D02*
X1284590D01*
X1266250Y687350D01*
Y631250D01*
X1280260Y617240D01*
X1286500D01*
G01Y607390D02*
X1283130D01*
X1262100Y628420D01*
Y689270D01*
X1283440Y710610D01*
X1286810D01*
G01X1291600Y622100D02*
X1286560D01*
X1286500Y622160D01*
G01Y602470D02*
Y604470D01*
G01X1283520Y602470D02*
X1286500D01*
G01D02*
X1289480D01*
G01X1286500Y627080D02*
X1283130D01*
X1276500Y633710D01*
Y684000D01*
X1283420Y690920D01*
X1286810D01*
G01X1286500Y612310D02*
X1289870D01*
X1293300Y608880D01*
Y598200D01*
X1309000Y582500D01*
X1332000D01*
G01X1287800Y639800D02*
Y639500D01*
X1299200Y628100D01*
Y624100D01*
X1301140Y622160D01*
X1306190D01*
G01X1270800Y640400D02*
X1270750Y640450D01*
Y684250D01*
X1282340Y695840D01*
X1286810D01*
G01X1286500Y632000D02*
X1289870D01*
X1295800Y626070D01*
Y611400D01*
X1299810Y607390D01*
X1306190D01*
G01X1286500Y632000D02*
X1285520D01*
X1281900Y635620D01*
Y642800D01*
X1306300Y667200D01*
X1306800D01*
G01X1286800Y660890D02*
Y664400D01*
G01D02*
Y667910D01*
G01X1283290Y664400D02*
X1286800D01*
G01D02*
X1290310D01*
G01X1335430Y802400D02*
X1335000Y801970D01*
Y762740D01*
X1287790Y715530D01*
X1286810D01*
G01X1354000Y762500D02*
X1341100D01*
X1294400Y715800D01*
Y704980D01*
X1290180Y700760D01*
X1286810D01*
G01X1290500Y789190D02*
Y792700D01*
G01D02*
Y796210D01*
G01X1286990Y792700D02*
X1290500D01*
G01D02*
X1294010D01*
G01X1284700Y835600D02*
X1298960Y849860D01*
Y857000D01*
G01X1288000D02*
Y873300D01*
G01X1285200Y842100D02*
X1293510Y850410D01*
Y857000D01*
G01X1288000Y873300D02*
X1315300D01*
X1315360Y873360D01*
G01X1301300Y483860D02*
Y489200D01*
G01D02*
Y494540D01*
G01X1294780Y489200D02*
X1301300D01*
G01D02*
X1307820D01*
G01X1340300Y526100D02*
Y547490D01*
X1331800Y555990D01*
X1318410D01*
X1318400Y556000D01*
X1315500D01*
G01X1300200Y613500D02*
X1301200D01*
X1302390Y612310D01*
X1306190D01*
G01X1298500Y602500D02*
X1302790D01*
X1302820Y602470D01*
X1306190D01*
G01Y617240D02*
X1315860D01*
X1315900Y617200D01*
X1319000D01*
G01D02*
Y620100D01*
X1312020Y627080D01*
X1306190D01*
G01X1294400Y641600D02*
Y646700D01*
X1300500Y652800D01*
X1310600D01*
G01X1325500Y652900D02*
X1325400Y652800D01*
X1310600D01*
G01X1314600Y636590D02*
Y640100D01*
G01D02*
Y643610D01*
G01X1311090Y640100D02*
X1314600D01*
G01D02*
X1318110D01*
G01X1306800Y667200D02*
Y685700D01*
X1306500Y686000D01*
G01X1306800Y667200D02*
X1307000Y667000D01*
X1322200D01*
X1324300Y669100D01*
Y692200D01*
X1325500Y693400D01*
X1341800D01*
G01X1300600Y688600D02*
X1302920Y690920D01*
X1306500D01*
G01X1318900Y673200D02*
Y697200D01*
X1310410Y705690D01*
X1306500D01*
G01Y700760D02*
X1301740D01*
X1299500Y703000D01*
Y713500D01*
G01X1306500Y713530D02*
Y715530D01*
G01D02*
Y717530D01*
G01X1303520Y715530D02*
X1306500D01*
G01D02*
X1309480D01*
G01X1320500Y702700D02*
X1391800D01*
X1394600Y699900D01*
Y685600D01*
X1386700Y677700D01*
G01X1306500Y695840D02*
X1313600D01*
G01X1382500Y767420D02*
X1385870D01*
X1387800Y765490D01*
Y749900D01*
X1387000Y749100D01*
X1343900D01*
X1337300Y742500D01*
Y712500D01*
X1335410Y710610D01*
X1306500D01*
G01X1313620Y766910D02*
Y769300D01*
G01D02*
Y771690D01*
G01X1308970Y769300D02*
X1313620D01*
G01D02*
X1318270D01*
G01X1319990Y791840D02*
X1325230D01*
G01X1302400Y788960D02*
Y791840D01*
G01D02*
Y794720D01*
G01X1297160Y791840D02*
X1302400D01*
G01D02*
X1307640D01*
G01X1389200Y807000D02*
X1324190D01*
X1309870Y821320D01*
Y857000D01*
G01X1324200Y813100D02*
X1320810Y816490D01*
Y857000D01*
G01X1315360D02*
Y873360D01*
G01D02*
X1320810Y867910D01*
Y857000D01*
G01X1340300Y483360D02*
Y488700D01*
G01D02*
Y494040D01*
G01X1333780Y488700D02*
X1340300D01*
G01D02*
X1346820D01*
G01X1347180Y593110D02*
Y596880D01*
G01D02*
Y600650D01*
G01X1344200Y596880D02*
X1347180D01*
G01D02*
X1350160D01*
G01X1339700D02*
Y592720D01*
X1339900Y592520D01*
Y585300D01*
X1337100Y582500D01*
X1332000D01*
G01X1353900Y608900D02*
X1346800D01*
X1343440Y605540D01*
G01X1353900Y617300D02*
X1339200D01*
G01X1338900Y653000D02*
Y670100D01*
X1344480Y675680D01*
X1357700D01*
G01X1350100Y684400D02*
X1358010D01*
X1358070Y684340D01*
X1361440D01*
G01X1341700Y684400D02*
Y693300D01*
X1341800Y693400D01*
G01X1386700Y693300D02*
X1341900D01*
X1341800Y693400D01*
G01X1325230Y784430D02*
Y791840D01*
G01D02*
Y799250D01*
G01Y791840D02*
X1330470D01*
G01X1331720Y838100D02*
Y857000D01*
G01X1391600Y818000D02*
X1326690D01*
X1326270Y818420D01*
Y857000D01*
G01X1353900Y617300D02*
X1383200D01*
X1387000Y613500D01*
G01X1365180Y671910D02*
Y675680D01*
G01D02*
Y679450D01*
G01X1362200Y675680D02*
X1365180D01*
G01D02*
X1368160D01*
G01X1377790Y726400D02*
X1383800D01*
G01X1382500Y762500D02*
X1371100D01*
G01X1378400Y751890D02*
Y755400D01*
G01D02*
Y758910D01*
G01X1374890Y755400D02*
X1378400D01*
G01D02*
X1381910D01*
G01X1379520Y772340D02*
X1382500D01*
G01X1362810Y765420D02*
Y767420D01*
G01D02*
Y769420D01*
G01X1359830Y767420D02*
X1362810D01*
G01D02*
X1365790D01*
G01X1379520Y796950D02*
X1382500D01*
G01X1402300Y784700D02*
Y766400D01*
X1405800Y762900D01*
Y647900D01*
X1387000Y629100D01*
G01Y644700D02*
X1393400D01*
X1402400Y653700D01*
Y760730D01*
X1385870Y777260D01*
X1382500D01*
G01X1395600Y759800D02*
X1398900Y756500D01*
Y674300D01*
X1386700Y662100D01*
G01X1392000Y743800D02*
Y717900D01*
X1384900Y710800D01*
X1383800D01*
G01Y720390D02*
Y726400D01*
G01D02*
Y732410D01*
G01Y726400D02*
X1389810D01*
G01X1395700Y784700D02*
Y776200D01*
X1395600Y776100D01*
G01X1382500Y770340D02*
Y772340D01*
G01D02*
Y774340D01*
G01Y772340D02*
X1385480D01*
G01X1402300Y795720D02*
Y800000D01*
X1395100Y807200D01*
X1389400D01*
X1389200Y807000D01*
G01D02*
X1395700Y800500D01*
Y795720D01*
G01X1382500Y794950D02*
Y796950D01*
G01D02*
Y798950D01*
G01Y796950D02*
X1385480D01*
G54D27*
X1286500Y602470D03*
Y607390D03*
Y612310D03*
Y617240D03*
Y622160D03*
Y627080D03*
Y632000D03*
X1286810Y686000D03*
Y690920D03*
Y695840D03*
Y700760D03*
Y705690D03*
Y710610D03*
Y715530D03*
X1306190Y627080D03*
Y622160D03*
Y617240D03*
Y612310D03*
Y607390D03*
Y602470D03*
Y632000D03*
X1306500Y690920D03*
Y686000D03*
Y715530D03*
Y710610D03*
Y705690D03*
Y700760D03*
Y695840D03*
X1362810Y762500D03*
Y767420D03*
Y772340D03*
Y777260D03*
X1382500D03*
Y772340D03*
Y767420D03*
Y762500D03*
X1362810Y782190D03*
Y787110D03*
Y792030D03*
Y796950D03*
X1382500D03*
Y792030D03*
Y787110D03*
Y782190D03*
G54D18*
X1149500Y861700D03*
G54D28*
X1288000Y857000D03*
X1320810D03*
X1315360D03*
X1309870D03*
X1304420D03*
X1298960D03*
X1293510D03*
X1331720D03*
X1326270D03*
G54D19*
X1172700Y861700D03*
X1383800Y726400D03*
X1387000Y644700D03*
X1386700Y693300D03*
G54D29*
X1278570Y854640D03*
X1341560D03*
M02*
