G04 ================== begin FILE IDENTIFICATION RECORD ==================*
G04 Layout Name:  LinkingInterfaceV2_16.brd*
G04 Film Name:    LinkingInterface_v2_15_SMB*
G04 File Format:  Gerber RS274X*
G04 File Origin:  Cadence Allegro 16.5-P002*
G04 Origin Date:  Wed Jun 10 13:00:45 2015*
G04 *
G04 Layer:  BOARD GEOMETRY/SOLDERMASK_BOTTOM*
G04 Layer:  VIA CLASS/SOLDERMASK_BOTTOM*
G04 Layer:  PIN/SOLDERMASK_BOTTOM*
G04 *
G04 Offset:    (0.0 0.0)*
G04 Mirror:    No*
G04 Mode:      Positive*
G04 Rotation:  0*
G04 FullContactRelief:  No*
G04 UndefLineWidth:     0.0*
G04 ================== end FILE IDENTIFICATION RECORD ====================*
%FSLAX25Y25*MOIN*%
%IR0*IPPOS*OFA0.00000B0.00000*MIA0B0*SFA1.00000B1.00000*%
%ADD13C,.1*%
%ADD12R,.1X.1*%
%ADD10C,.145*%
%ADD20R,.142X.088*%
%ADD24R,.0874X.1307*%
%ADD22C,.05*%
%ADD27C,.062*%
%ADD15C,.081*%
%ADD26C,.056*%
%ADD21R,.05X.05*%
%ADD16C,.058*%
%ADD11C,.067*%
%ADD28R,.062X.062*%
%ADD23R,.0874X.0402*%
%ADD17R,.081X.081*%
%ADD25R,.056X.056*%
%ADD19R,.048X.088*%
%ADD18R,.058X.058*%
%ADD14R,.067X.067*%
%ADD29C,.005*%
G75*
%LPD*%
G75*
G54D10*
X10000Y10000D03*
Y250000D03*
Y440000D03*
X340000Y10000D03*
Y250000D03*
Y440000D03*
G54D11*
X10400Y292700D03*
Y302700D03*
Y312700D03*
Y332700D03*
Y322700D03*
X20400Y302700D03*
Y312700D03*
Y322700D03*
Y332700D03*
X99900Y271800D03*
X89900Y281800D03*
X99900D03*
X129900D03*
X109900Y271800D03*
X119900D03*
X129900D03*
X109900Y281800D03*
X119900D03*
G54D20*
X111700Y354900D03*
G54D21*
X158800Y90400D03*
X170700Y349100D03*
X179100D03*
G54D12*
X11700Y401800D03*
X98800Y432500D03*
X156700Y432400D03*
X203700Y287900D03*
X230100Y436000D03*
X273100D03*
G54D22*
X153800Y97900D03*
X148800Y90400D03*
G54D13*
X11700Y386200D03*
X114400Y432500D03*
X130000D03*
X188100Y287900D03*
X172300Y432400D03*
X187900D03*
X214500Y436000D03*
X257500D03*
X306810Y284240D03*
X307110Y326540D03*
X308510Y369240D03*
Y407040D03*
X334370Y284240D03*
X334670Y326540D03*
X336070Y369240D03*
Y407040D03*
G54D14*
X20400Y292700D03*
X89900Y271800D03*
G54D23*
X179100Y251010D03*
Y241960D03*
Y232900D03*
G54D15*
X42600Y401800D03*
G54D24*
X201930Y241960D03*
G54D25*
X242300Y271300D03*
X241800Y313700D03*
G54D16*
X100800Y45000D03*
X90800D03*
X80800D03*
X100800Y55000D03*
X90800D03*
X80800D03*
X120800Y45000D03*
X110800D03*
X130800Y55000D03*
X120800D03*
X110800D03*
X160800Y45000D03*
X150800D03*
X140800D03*
X160800Y55000D03*
X150800D03*
X140800D03*
X190800Y45000D03*
X170800D03*
X190800Y55000D03*
X180800D03*
X170800D03*
X179100Y373300D03*
Y363300D03*
Y393300D03*
Y383300D03*
X220800Y45000D03*
X210800D03*
X200800D03*
X220800Y55000D03*
X210800D03*
X200800D03*
X209100Y373300D03*
Y383300D03*
Y393300D03*
X250800Y45000D03*
X240800D03*
X250800Y55000D03*
X240800D03*
X230800D03*
X270800Y45000D03*
X260800D03*
Y55000D03*
G54D17*
X102600Y401800D03*
G54D26*
X242300Y291300D03*
X241800Y333700D03*
X262300Y281300D03*
X261800Y323700D03*
G54D18*
X130800Y45000D03*
X180800D03*
X209100Y363300D03*
X230800Y45000D03*
X270800Y55000D03*
G54D27*
X312400Y77200D03*
Y67200D03*
Y57200D03*
Y107200D03*
Y97200D03*
Y87200D03*
Y137200D03*
Y127200D03*
Y167200D03*
Y157200D03*
Y147200D03*
Y197200D03*
Y187200D03*
Y177200D03*
G54D19*
X102700Y379300D03*
X111700D03*
X120700D03*
G54D28*
X312400Y117200D03*
Y207200D03*
G54D29*
G01X-58160Y36700D02*
X-57410Y36070D01*
X-56570Y35700D01*
X-55830D01*
X-55080Y36070D01*
X-54520Y36700D01*
X-54240Y37580D01*
X-54430Y38450D01*
X-54890Y39200D01*
X-55730Y39700D01*
X-56850Y39950D01*
X-57510Y40450D01*
X-57790Y41320D01*
X-57600Y42200D01*
X-57130Y42820D01*
X-56480Y43200D01*
X-55830D01*
X-55170Y42950D01*
X-54610Y42320D01*
G01X-51130Y35700D02*
Y43200D01*
X-48700Y36950D01*
X-46270Y43200D01*
Y35700D01*
G01X-40450Y39700D02*
X-40080Y40070D01*
X-39800Y40700D01*
X-39610Y41580D01*
X-39800Y42320D01*
X-40170Y42820D01*
X-40830Y43200D01*
X-43350D01*
Y35700D01*
X-40270D01*
X-39610Y36200D01*
X-39240Y36950D01*
X-39050Y37830D01*
X-39240Y38700D01*
X-39800Y39450D01*
X-40450Y39700D01*
X-43350D01*
M02*
