G04 ================== begin FILE IDENTIFICATION RECORD ==================*
G04 Layout Name:  LinkingInterfaceV2_16.1.brd*
G04 Film Name:    LinkingInterface_v2_16_1_BOTTOM*
G04 File Format:  Gerber RS274X*
G04 File Origin:  Cadence Allegro 16.5-P002*
G04 Origin Date:  Fri Jun 12 17:03:43 2015*
G04 *
G04 Layer:  ETCH/BOTTOM*
G04 Layer:  PIN/BOTTOM*
G04 Layer:  VIA CLASS/BOTTOM*
G04 *
G04 Offset:    (0.0 0.0)*
G04 Mirror:    No*
G04 Mode:      Positive*
G04 Rotation:  0*
G04 FullContactRelief:  No*
G04 UndefLineWidth:     1.0*
G04 ================== end FILE IDENTIFICATION RECORD ====================*
%FSLAX25Y25*MOIN*%
%IR0*IPPOS*OFA0.00000B0.00000*MIA0B0*SFA1.00000B1.00000*%
%ADD15C,.1*%
%ADD14R,.1X.1*%
%ADD21R,.142X.088*%
%ADD25R,.0846X.128*%
%ADD11C,.04*%
%ADD23C,.05*%
%ADD10C,.025*%
%ADD13C,.062*%
%ADD16C,.081*%
%ADD22R,.05X.05*%
%ADD17C,.058*%
%ADD26R,.052X.052*%
%ADD12R,.062X.062*%
%ADD18R,.081X.081*%
%ADD20R,.048X.088*%
%ADD19R,.058X.058*%
%ADD24R,.0846X.0374*%
%ADD27C,.03*%
%ADD28C,.012*%
%ADD29C,.035*%
%ADD37C,.1164*%
%ADD41R,.1008X.0536*%
%ADD31R,.2002X.2002*%
%ADD42R,.1008X.1442*%
%ADD30R,.1162X.1162*%
%ADD36R,.1582X.1042*%
%ADD35C,.0744*%
%ADD34C,.0564*%
%ADD39C,.0664*%
%ADD40R,.0742X.0742*%
%ADD33C,.0784*%
%ADD38R,.0662X.0662*%
%ADD32R,.0782X.0782*%
G75*
%LPD*%
G75*
G36*
G01X-500Y200D02*
Y450800D01*
X350800D01*
Y200D01*
X350010D01*
Y20010D01*
X329990D01*
Y200D01*
X20010D01*
Y20010D01*
X-10D01*
Y200D01*
X-500D01*
G37*
%LPC*%
G75*
G36*
G01X111370Y275430D02*
X111490Y275390D01*
X113550Y277440D01*
Y278950D01*
G03X112850Y279220I-400J5D01*
G02Y284380I-2950J2580D01*
G03X113550Y284650I300J265D01*
G01Y287860D01*
X113490Y287920D01*
Y293260D01*
G02X116310I1410J2440D01*
G01Y289080D01*
X116370Y289020D01*
Y284780D01*
G03X117060Y284500I400J-4D01*
G02Y279100I2840J-2700D01*
G03X116370Y278820I-290J-276D01*
G01Y276280D01*
X113490Y273390D01*
X113530Y273270D01*
G02X111370Y275430I-3630J-1470D01*
G37*
G36*
G01X22210Y399040D02*
Y395790D01*
X10590D01*
Y407410D01*
X22210D01*
Y404300D01*
G03X22230Y404160I400J-14D01*
G01X22940D01*
X23140Y404360D01*
X38460D01*
G02Y399240I4140J-2560D01*
G01X25260D01*
X25060Y399040D01*
X22210D01*
G37*
G36*
G01X162510Y426590D02*
X150890D01*
Y434590D01*
X144740Y440740D01*
X104260D01*
X102510Y438990D01*
G03X102800Y438310I286J-280D01*
G01X104610D01*
Y426690D01*
X92990D01*
Y438310D01*
X96240D01*
Y439960D01*
X102140Y445860D01*
X146860D01*
X154510Y438210D01*
X162510D01*
Y426590D01*
G37*
G36*
G01X207180Y410960D02*
X228840D01*
X251990Y434110D01*
G02X255730Y430460I5502J1897D01*
G01X255610Y430490D01*
X230960Y405840D01*
X207180D01*
G02Y410960I-1180J2560D01*
G37*
G36*
G01X131770Y426960D02*
G02X135510Y430610I-1762J5547D01*
G01X155160Y410960D01*
X182620D01*
G02Y405840I1180J-2560D01*
G01X153040D01*
X131890Y426990D01*
X131770Y426960D01*
G37*
G36*
G01X167940Y384710D02*
X175660D01*
G02Y381890I3440J-1410D01*
G01X167940D01*
G02Y384710I-2440J1410D01*
G37*
G36*
G01X105910Y384510D02*
Y374090D01*
X99490D01*
Y384510D01*
X100140D01*
Y394030D01*
X100040Y394130D01*
Y396940D01*
X97740D01*
Y406660D01*
X107460D01*
Y396940D01*
X105160D01*
Y396250D01*
X105260Y396150D01*
Y384510D01*
X105910D01*
G37*
G36*
G01X210420Y376780D02*
X210540Y376730D01*
X219920Y386110D01*
X240380D01*
G02Y383290I2440J-1410D01*
G01X221080D01*
X212530Y374740D01*
G02X210420Y376780I-3432J-1438D01*
G37*
G36*
G01X210510Y359590D02*
Y351640D01*
G02X207690I-1410J-2440D01*
G01Y359590D01*
X205390D01*
Y367010D01*
X212810D01*
Y359590D01*
X210510D01*
G37*
G36*
G01X43220Y341190D02*
X37360D01*
G02Y344010I-3660J1410D01*
G01X44380D01*
X44480Y343910D01*
X44860D01*
X44910Y344000D01*
G02X44860Y341090I2390J-1496D01*
G01X43320D01*
X43220Y341190D01*
G37*
G36*
G01X182540Y374710D02*
X186980D01*
X189010Y372680D01*
Y334180D01*
G02X186090Y334240I-1510J-2381D01*
G01Y335380D01*
X186190Y335480D01*
Y371520D01*
X185820Y371890D01*
X182540D01*
G02X175660I-3440J1410D01*
G01X170520D01*
X169020Y373390D01*
X167640D01*
G02Y376210I-2440J1410D01*
G01X170180D01*
X171680Y374710D01*
X175660D01*
G02X182540I3440J-1410D01*
G37*
G36*
G01X8040Y334010D02*
X20040D01*
G02Y331190I3660J-1410D01*
G01X8040D01*
G02Y334010I-2440J1410D01*
G37*
G36*
G01X147110Y328130D02*
G02X144290I-1410J-2440D01*
G01Y349660D01*
G02X147110I1410J2440D01*
G01Y328130D01*
G37*
G36*
G01X263210Y326140D02*
G02X260390I-1410J-2440D01*
G01Y337580D01*
X267720Y344910D01*
X280760D01*
G02Y342090I2440J-1410D01*
G01X268880D01*
X263210Y336420D01*
Y326140D01*
G37*
G36*
G01X49160Y321190D02*
X37360D01*
G02Y324010I-3660J1410D01*
G01X49160D01*
G02Y321190I2440J-1410D01*
G37*
G36*
G01X12240Y324010D02*
X20040D01*
G02Y321190I3660J-1410D01*
G01X12240D01*
G02Y324010I-2440J1410D01*
G37*
G36*
G01X226850Y324580D02*
X226830Y324470D01*
X236180Y315110D01*
X238390D01*
Y317110D01*
X245210D01*
Y310290D01*
X238390D01*
Y312290D01*
X235020D01*
X224830Y322470D01*
X224720Y322450D01*
G02X226850Y324580I-620J2750D01*
G37*
G36*
G01X53460Y311190D02*
X37360D01*
G02Y314010I-3660J1410D01*
G01X53460D01*
G02Y311190I2440J-1410D01*
G37*
G36*
G01X198310Y294840D02*
X193510Y290040D01*
G02X190240Y293310I-5410J-2140D01*
G01X193690Y296760D01*
Y416040D01*
X185590Y424140D01*
Y427060D01*
G02X193130Y434960I2312J5341D01*
G01X199140D01*
X202740Y438560D01*
X209270D01*
G02Y433440I5230J-2560D01*
G01X204860D01*
X201260Y429840D01*
X193130D01*
G02X190210Y427060I-5225J2565D01*
G01Y426060D01*
X198310Y417960D01*
Y294840D01*
G37*
G36*
G01X263710Y283740D02*
G02X260890I-1410J-2440D01*
G01Y295580D01*
X269020Y303710D01*
X279060D01*
G02Y300890I2440J-1410D01*
G01X270180D01*
X263710Y294420D01*
Y283740D01*
G37*
G36*
G01X245710Y274710D02*
Y267890D01*
X238890D01*
Y269890D01*
X237720D01*
X237620Y269990D01*
X224940D01*
G02Y272810I-2440J1410D01*
G01X238890D01*
Y274710D01*
X245710D01*
G37*
G36*
G01X93810Y275710D02*
Y267890D01*
X85990D01*
Y270390D01*
X72640D01*
G02Y273210I-2440J1410D01*
G01X85990D01*
Y275710D01*
X93810D01*
G37*
G36*
G01X54910Y263840D02*
G02X52090Y264190I-1710J-2241D01*
G01Y270860D01*
G02X54910I1410J2440D01*
G01Y263840D01*
G37*
G36*
G01X126540Y367840D02*
X121050Y373330D01*
X114560Y366840D01*
X94280D01*
G02Y371960I-1180J2560D01*
G01X112440D01*
X113890Y373410D01*
G03X113600Y374090I-286J280D01*
G01X108490D01*
Y384510D01*
X114910D01*
Y375400D01*
G03X115590Y375110I400J-4D01*
G01X117490Y377010D01*
Y384510D01*
X123910D01*
Y377710D01*
X128660Y372960D01*
X161260D01*
X168360Y365860D01*
X176400D01*
G02X181660Y360600I2700J-2560D01*
G01Y352410D01*
X182410D01*
Y345790D01*
X175790D01*
Y352410D01*
X176540D01*
Y360600D01*
G02X176400Y360740I2560J2700D01*
G01X168760D01*
X159370Y351350D01*
Y261550D01*
X171860Y249060D01*
Y236100D01*
X171660Y235900D01*
Y235460D01*
X174060D01*
Y235580D01*
X184140D01*
Y230220D01*
X174060D01*
Y230340D01*
X170280D01*
G02X166540Y234080I-1180J2560D01*
G01Y238020D01*
X166740Y238220D01*
Y246940D01*
X154250Y259430D01*
Y353470D01*
X163880Y363100D01*
X159140Y367840D01*
X126540D01*
G37*
G36*
G01X192110Y246900D02*
Y221820D01*
G02X187490I-2310J-1620D01*
G01Y244980D01*
X184140Y248330D01*
X174060D01*
Y253690D01*
X184140D01*
Y253320D01*
X185690D01*
X192110Y246900D01*
G37*
G36*
G01X140760Y195990D02*
X101440D01*
G02Y198810I-2440J1410D01*
G01X140760D01*
G02Y195990I2440J-1410D01*
G37*
G36*
G01X308480Y198610D02*
X308740D01*
X308790Y198730D01*
G02X308740Y195790I3609J-1532D01*
G01X307320D01*
X307120Y195990D01*
X225440D01*
G02Y198810I-2440J1410D01*
G01X308280D01*
X308480Y198610D01*
G37*
G36*
G01X197220Y180450D02*
X197330Y180430D01*
X200420Y183510D01*
X275060D01*
G02X279940I2440J-1410D01*
G01X281480D01*
X281490Y183500D01*
X309610D01*
G03X309870Y184210I5J401D01*
G02X308740Y185790I2524J2999D01*
G01X307320D01*
X302920Y190190D01*
X196180D01*
X167840Y161850D01*
X159180D01*
G02Y164670I-2440J1410D01*
G01X166680D01*
X195020Y193010D01*
X304080D01*
X308480Y188610D01*
X308740D01*
X308790Y188730D01*
G02X314930Y184210I3609J-1527D01*
G03X315190Y183500I255J-309D01*
G01X319510D01*
X319890Y183880D01*
Y197720D01*
X314320Y203290D01*
X308490D01*
Y211110D01*
X316310D01*
Y205280D01*
X322710Y198880D01*
Y182720D01*
X320670Y180680D01*
X315430D01*
G03X315150Y179990I-3J-401D01*
G02X309650I-2750J-2790D01*
G03X309370Y180680I-277J289D01*
G01X280330D01*
X280320Y180690D01*
X279940D01*
X279890Y180600D01*
G02X275060Y180690I-2388J1500D01*
G01X255940D01*
G03X255640Y180030I1J-399D01*
G02X251340I-2150J-1830D01*
G03X251040Y180690I-301J261D01*
G01X201580D01*
X199330Y178430D01*
X199350Y178320D01*
G02X195980Y174950I-2750J-620D01*
G01X195870Y174970D01*
X195600Y174710D01*
Y174610D01*
X181410Y160420D01*
Y150940D01*
G02X178590I-1410J-2440D01*
G01Y161580D01*
X192780Y175770D01*
Y175870D01*
X193870Y176970D01*
X193850Y177080D01*
G02X197220Y180450I2750J620D01*
G37*
G36*
G01X87940Y187410D02*
X128880D01*
X131500Y184790D01*
Y133590D01*
X131770Y133330D01*
X131880Y133350D01*
G02X129750Y131220I620J-2750D01*
G01X129770Y131330D01*
X128680Y132430D01*
Y183630D01*
X127720Y184590D01*
X87940D01*
G02Y187410I-2440J1410D01*
G37*
G36*
G01X139480Y48480D02*
G02X137370Y46440I1322J-3478D01*
G01X134290Y49520D01*
Y52280D01*
G03X133590Y52540I-400J-5D01*
G02Y57460I-2790J2460D01*
G03X134290Y57720I300J265D01*
G01Y63120D01*
X123190Y74220D01*
Y99720D01*
X123090Y99820D01*
Y135860D01*
G02X125910I1410J2440D01*
G01Y100980D01*
X126010Y100880D01*
Y75380D01*
X137110Y64280D01*
Y57480D01*
G03X137830Y57240I400J0D01*
G02Y52760I2970J-2240D01*
G03X137110Y52520I-320J-240D01*
G01Y50680D01*
X139360Y48430D01*
X139480Y48480D01*
G37*
G36*
G01X209620Y36050D02*
X209730Y36030D01*
X214390Y40680D01*
Y42390D01*
G03X213680Y42650I-401J5D01*
G02Y47350I-2880J2350D01*
G03X214390Y47610I309J255D01*
G01Y52390D01*
G03X213680Y52650I-401J5D01*
G02Y57350I-2880J2350D01*
G03X214390Y57610I309J255D01*
G01Y108860D01*
G02X217210I1410J2440D01*
G01Y57610D01*
G03X217920Y57350I401J-5D01*
G02Y52650I2880J-2350D01*
G03X217210Y52390I-309J-255D01*
G01Y47610D01*
G03X217920Y47350I401J-5D01*
G02Y42650I2880J-2350D01*
G03X217210Y42390I-309J-255D01*
G01Y39520D01*
X211730Y34030D01*
X211750Y33920D01*
G02X209620Y36050I-2750J-620D01*
G37*
G36*
G01X143080Y34710D02*
X173760D01*
G02Y31890I2440J-1410D01*
G01X141920D01*
X132520Y41290D01*
X127090D01*
Y48710D01*
X134510D01*
Y43280D01*
X143080Y34710D01*
G37*
G36*
G01X129680Y28110D02*
X179410D01*
X192000Y40700D01*
G03X191620Y41370I-285J281D01*
G02X193770Y47240I-820J3629D01*
G03X194490Y47480I320J240D01*
G01Y52520D01*
G03X193770Y52760I-400J0D01*
G02Y57240I-2970J2240D01*
G03X194490Y57480I320J240D01*
G01Y103380D01*
X211670Y120570D01*
X211650Y120680D01*
G02X213780Y118550I2750J620D01*
G01X213670Y118570D01*
X197310Y102220D01*
Y57720D01*
G03X198010Y57460I400J5D01*
G02Y52540I2790J-2460D01*
G03X197310Y52280I-300J-265D01*
G01Y47720D01*
G03X198010Y47460I400J5D01*
G02Y42540I2790J-2460D01*
G03X197310Y42280I-300J-265D01*
G01Y42030D01*
X180570Y25290D01*
X128520D01*
X112240Y41570D01*
G02X114280Y43680I-1438J3432D01*
G01X114230Y43560D01*
X129680Y28110D01*
G37*
G36*
G01X101310Y268140D02*
Y257140D01*
G02X98490I-1410J-2440D01*
G01Y268140D01*
G02X101310I1410J3660D01*
G37*
G36*
G01X145760Y270390D02*
X133560D01*
G02Y273210I-3660J1410D01*
G01X145760D01*
G02Y270390I2440J-1410D01*
G37*
G54D37*
X114400Y432500D03*
X172300Y432400D03*
X306810Y284240D03*
X307110Y326540D03*
X308510Y369240D03*
Y407040D03*
X334370Y284240D03*
X334670Y326540D03*
X336070Y369240D03*
Y407040D03*
X16400Y386000D03*
G54D41*
X179100Y241960D03*
G54D31*
X10000Y250000D03*
Y440000D03*
X340000Y250000D03*
Y440000D03*
G54D42*
X201930Y241960D03*
G54D30*
X203700Y287900D03*
X230100Y436000D03*
X273100D03*
G54D36*
X111700Y354900D03*
G54D35*
X100800Y45000D03*
X90800D03*
X80800D03*
X100800Y55000D03*
X90800D03*
X80800D03*
X120800Y45000D03*
Y55000D03*
X110800D03*
X160800Y45000D03*
X150800D03*
X160800Y55000D03*
X150800D03*
X170800Y45000D03*
X180800Y55000D03*
X170800D03*
X179100Y393300D03*
X209100Y383300D03*
Y393300D03*
X250800Y45000D03*
X240800D03*
X250800Y55000D03*
X240800D03*
X230800D03*
X270800Y45000D03*
X260800D03*
Y55000D03*
G54D34*
X59900Y362300D03*
X90100Y301800D03*
X105800Y133200D03*
X145230Y178030D03*
X152700Y241300D03*
X188200Y207200D03*
X205470Y148170D03*
X242300Y291300D03*
X241800Y333700D03*
X338700Y308600D03*
X338800Y350600D03*
X340000Y392500D03*
X331700Y425000D03*
G54D39*
X153800Y97900D03*
X148800Y90400D03*
G54D40*
X180800Y45000D03*
X230800D03*
X270800Y55000D03*
G54D33*
X23700Y302600D03*
Y312600D03*
Y342600D03*
X33700Y332600D03*
X99900Y281800D03*
X89900D03*
X119900Y271800D03*
X129900Y281800D03*
X312400Y77200D03*
Y67200D03*
Y57200D03*
Y107200D03*
Y97200D03*
Y87200D03*
Y137200D03*
Y127200D03*
Y167200D03*
Y157200D03*
Y147200D03*
G54D38*
X158800Y90400D03*
X170700Y349100D03*
G54D32*
X33700Y302600D03*
X312400Y117200D03*
%LPD*%
G75*
G54D10*
X10000Y10000D03*
Y250000D03*
Y440000D03*
X340000Y10000D03*
Y250000D03*
Y440000D03*
G54D20*
X102700Y379300D03*
X111700D03*
X120700D03*
G54D11*
X5600Y332600D03*
X9800Y322600D03*
X53200Y261600D03*
X53500Y273300D03*
X70200Y271800D03*
X55900Y312600D03*
X47300Y342500D03*
X51600Y322600D03*
X59900Y362300D03*
X99000Y197400D03*
X85500Y186000D03*
X99900Y254700D03*
X90100Y301800D03*
X93100Y369400D03*
X124500Y138300D03*
X132500Y130600D03*
X105800Y133200D03*
X114900Y295700D03*
X156740Y163260D03*
X143200Y197400D03*
X145230Y178030D03*
X152700Y241300D03*
X148200Y271800D03*
X145700Y325690D03*
Y352100D03*
X176200Y33300D03*
X180000Y148500D03*
X189800Y220200D03*
X188200Y207200D03*
X169100Y232900D03*
X187500Y331800D03*
X165200Y374800D03*
X165500Y383300D03*
X183800Y408400D03*
X209000Y33300D03*
X215800Y111300D03*
X214400Y121300D03*
X205470Y148170D03*
X223000Y197400D03*
X196600Y177700D03*
X222500Y271400D03*
X209100Y349200D03*
X206000Y408400D03*
X242300Y291300D03*
X241800Y333700D03*
X224100Y325200D03*
X242820Y384700D03*
X277500Y182100D03*
X253490Y178200D03*
X262300Y281300D03*
X281500Y302300D03*
X261800Y323700D03*
X283200Y343500D03*
X338700Y308600D03*
X338800Y350600D03*
X340000Y392500D03*
X331700Y425000D03*
G54D12*
X33700Y302600D03*
X89900Y271800D03*
X312400Y117200D03*
Y207200D03*
G54D21*
X111700Y354900D03*
G54D22*
X158800Y90400D03*
X170700Y349100D03*
X179100D03*
G54D13*
X33700Y312600D03*
X23700Y302600D03*
Y312600D03*
Y342600D03*
X33700Y322600D03*
Y332600D03*
Y342600D03*
X23700Y322600D03*
Y332600D03*
X99900Y271800D03*
X89900Y281800D03*
X99900D03*
X129900D03*
X109900Y271800D03*
X119900D03*
X129900D03*
X109900Y281800D03*
X119900D03*
X312400Y77200D03*
Y67200D03*
Y57200D03*
Y107200D03*
Y97200D03*
Y87200D03*
Y137200D03*
Y127200D03*
Y167200D03*
Y157200D03*
Y147200D03*
Y197200D03*
Y187200D03*
Y177200D03*
G54D23*
X153800Y97900D03*
X148800Y90400D03*
G54D14*
X16400Y401600D03*
X98800Y432500D03*
X156700Y432400D03*
X203700Y287900D03*
X230100Y436000D03*
X273100D03*
G54D24*
X179100Y251010D03*
Y241960D03*
Y232900D03*
G54D15*
X16400Y386000D03*
X114400Y432500D03*
X130000D03*
X188100Y287900D03*
X172300Y432400D03*
X187900D03*
X214500Y436000D03*
X257500D03*
X306810Y284240D03*
X307110Y326540D03*
X308510Y369240D03*
Y407040D03*
X334370Y284240D03*
X334670Y326540D03*
X336070Y369240D03*
Y407040D03*
G54D16*
X42600Y401800D03*
G54D25*
X201930Y241960D03*
G54D26*
X242300Y271300D03*
X241800Y313700D03*
G54D17*
X100800Y45000D03*
X90800D03*
X80800D03*
X100800Y55000D03*
X90800D03*
X80800D03*
X120800Y45000D03*
X110800D03*
X130800Y55000D03*
X120800D03*
X110800D03*
X160800Y45000D03*
X150800D03*
X140800D03*
X160800Y55000D03*
X150800D03*
X140800D03*
X190800Y45000D03*
X170800D03*
X190800Y55000D03*
X180800D03*
X170800D03*
X179100Y373300D03*
Y363300D03*
Y393300D03*
Y383300D03*
X220800Y45000D03*
X210800D03*
X200800D03*
X220800Y55000D03*
X210800D03*
X200800D03*
X209100Y373300D03*
Y383300D03*
Y393300D03*
X250800Y45000D03*
X240800D03*
X250800Y55000D03*
X240800D03*
X230800D03*
X270800Y45000D03*
X260800D03*
Y55000D03*
G54D27*
G01X189800Y220200D02*
Y245940D01*
X184730Y251010D01*
X179100D01*
G01X188100Y287900D02*
X196000Y295800D01*
Y417000D01*
X187900Y425100D01*
Y432400D01*
G54D18*
X102600Y401800D03*
G54D28*
G01X23700Y332600D02*
X5600D01*
G01X23700Y322600D02*
X9800D01*
G01X10390Y386000D02*
X16400D01*
G01X33700Y312600D02*
X55900D01*
G01X23700Y308490D02*
Y312600D01*
G01D02*
Y316710D01*
G01X19590Y312600D02*
X23700D01*
G01D02*
X27810D01*
G01X23700Y298490D02*
Y302600D01*
G01D02*
Y306710D01*
G01X19590Y302600D02*
X23700D01*
G01D02*
X27810D01*
G01X33700Y298490D02*
Y302600D01*
G01D02*
Y306710D01*
G01X29590Y302600D02*
X33700D01*
G01D02*
X37810D01*
G01X33700Y342600D02*
X43800D01*
X43900Y342500D01*
X47300D01*
G01X33700Y322600D02*
X51600D01*
G01X33700Y328490D02*
Y332600D01*
G01D02*
Y336710D01*
G01X29590Y332600D02*
X33700D01*
G01D02*
X37810D01*
G01X16400Y379990D02*
Y386000D01*
G01D02*
Y392010D01*
G01Y386000D02*
X22410D01*
G01X53500Y273300D02*
Y261900D01*
X53200Y261600D01*
G01X70200Y271800D02*
X89900D01*
G01X59900Y359290D02*
Y362300D01*
G01D02*
Y365310D01*
G01X56890Y362300D02*
X59900D01*
G01D02*
X62910D01*
G01X85500Y186000D02*
X128300D01*
X130090Y184210D01*
Y133010D01*
X132500Y130600D01*
G01X99000Y197400D02*
X143200D01*
G01X99900Y271800D02*
Y254700D01*
G01X89900Y277690D02*
Y281800D01*
G01D02*
Y285910D01*
G01X85790Y281800D02*
X89900D01*
G01D02*
X94010D01*
G01X99900Y277690D02*
Y281800D01*
G01D02*
Y285910D01*
G01X95790Y281800D02*
X99900D01*
G01D02*
X104010D01*
G01X90100Y298790D02*
Y301800D01*
G01D02*
Y304810D01*
G01X87090Y301800D02*
X90100D01*
G01D02*
X93110D01*
G01X176200Y33300D02*
X142500D01*
X130800Y45000D01*
G01X110800D02*
X129100Y26700D01*
X179990D01*
X195900Y42610D01*
Y102800D01*
X214400Y121300D01*
G01X124500Y138300D02*
Y100400D01*
X124600Y100300D01*
Y74800D01*
X135700Y63700D01*
Y50100D01*
X140800Y45000D01*
G01X105800Y130190D02*
Y133200D01*
G01D02*
Y136210D01*
G01X102790Y133200D02*
X105800D01*
G01D02*
X108810D01*
G01X129900Y271800D02*
X148200D01*
G01X114900Y295700D02*
Y288500D01*
X114960Y288440D01*
Y276860D01*
X109900Y271800D01*
G01X119900Y267690D02*
Y271800D01*
G01D02*
Y275910D01*
G01X115790Y271800D02*
X119900D01*
G01D02*
X124010D01*
G01X109900Y277690D02*
Y281800D01*
G01D02*
Y285910D01*
G01X105790Y281800D02*
X109900D01*
G01X119900Y277690D02*
Y281800D01*
G01D02*
Y285910D01*
G01Y281800D02*
X124010D01*
G01X111700Y349490D02*
Y354900D01*
G01D02*
Y360310D01*
G01X103590Y354900D02*
X111700D01*
G01D02*
X119810D01*
G01X111700Y373890D02*
Y379300D01*
G01X120700Y377300D02*
Y379300D01*
G01X111700D02*
Y384710D01*
G01X108290Y379300D02*
X111700D01*
G01D02*
X115110D01*
G01X114400Y426490D02*
Y432500D01*
G01D02*
Y438510D01*
G01X108390Y432500D02*
X114400D01*
G01D02*
X120410D01*
G01X312400Y187200D02*
X307900D01*
X303500Y191600D01*
X195600D01*
X167260Y163260D01*
X156740D01*
G01X145230Y175020D02*
Y178030D01*
G01D02*
Y181040D01*
G01X142220Y178030D02*
X145230D01*
G01D02*
X148240D01*
G01X152700Y238290D02*
Y241300D01*
G01D02*
Y244310D01*
G01X149690Y241300D02*
X152700D01*
G01D02*
X155710D01*
G01X145700Y325690D02*
Y352100D01*
G01X196600Y177700D02*
X194190Y175290D01*
Y175190D01*
X180000Y161000D01*
Y148500D01*
G01X188200Y204190D02*
Y207200D01*
G01D02*
Y210210D01*
G01X185190Y207200D02*
X188200D01*
G01D02*
X191210D01*
G01X179100Y239080D02*
Y241960D01*
G01D02*
Y244840D01*
G01X173860Y241960D02*
X179100D01*
G01D02*
X184340D01*
G01X179100Y373300D02*
X186400D01*
X187600Y372100D01*
Y334900D01*
X187500Y334800D01*
Y331800D01*
G01X170700Y345590D02*
Y349100D01*
G01X167700Y363300D02*
X167500Y363100D01*
G01X165200Y374800D02*
X169600D01*
X171100Y373300D01*
X179100D01*
G01X170700Y349100D02*
Y352610D01*
G01X167190Y349100D02*
X170700D01*
G01D02*
X174210D01*
G01X179100Y383300D02*
X165500D01*
G01X172300Y426390D02*
Y432400D01*
G01D02*
Y438410D01*
G01X166290Y432400D02*
X172300D01*
G01D02*
X178310D01*
G01X215800Y111300D02*
Y40100D01*
X209000Y33300D01*
G01X205470Y145160D02*
Y148170D01*
G01D02*
Y151180D01*
G01X202460Y148170D02*
X205470D01*
G01D02*
X208480D01*
G01X277500Y182100D02*
X201000D01*
X196600Y177700D01*
G01X201930Y234550D02*
Y241960D01*
G01D02*
Y249370D01*
G01X196690Y241960D02*
X201930D01*
G01D02*
X207170D01*
G01X203700Y281890D02*
Y287900D01*
G01D02*
Y293910D01*
G01X197690Y287900D02*
X203700D01*
G01D02*
X209710D01*
G01X209100Y363300D02*
Y363700D01*
G01Y349200D02*
Y363300D01*
G01X242820Y384700D02*
X220500D01*
X209100Y373300D01*
G01Y389390D02*
Y393300D01*
G01D02*
Y397210D01*
G01X205190Y393300D02*
X209100D01*
G01D02*
X213010D01*
G01X250480Y178200D02*
X253490D01*
G01X223000Y197400D02*
X307700D01*
X307900Y197200D01*
X312400D01*
G01X222500Y271400D02*
X238200D01*
X238300Y271300D01*
X242300D01*
G01X224100Y325200D02*
X235600Y313700D01*
X241800D01*
G01X242300Y288290D02*
Y291300D01*
G01D02*
Y294310D01*
G01X239290Y291300D02*
X242300D01*
G01D02*
X245310D01*
G01X241800Y330690D02*
Y333700D01*
G01D02*
Y336710D01*
G01X238790Y333700D02*
X241800D01*
G01D02*
X244810D01*
G01X230100Y429990D02*
Y436000D01*
G01D02*
Y442010D01*
G01X224090Y436000D02*
X230100D01*
G01D02*
X236110D01*
G01X270800Y41090D02*
Y45000D01*
G01D02*
Y48910D01*
G01X266890Y45000D02*
X270800D01*
G01D02*
X274710D01*
G01X277500Y182100D02*
X280900D01*
X280910Y182090D01*
X320090D01*
X321300Y183300D01*
Y198300D01*
X312400Y207200D01*
G01X253490Y175190D02*
Y178200D01*
G01D02*
X256500D01*
G01X281500Y302300D02*
X269600D01*
X262300Y295000D01*
Y281300D01*
G01X283200Y343500D02*
X268300D01*
X261800Y337000D01*
Y323700D01*
G01X273100Y429990D02*
Y436000D01*
G01D02*
Y442010D01*
G01X267090Y436000D02*
X273100D01*
G01D02*
X279110D01*
G01X308290Y57200D02*
X312400D01*
G01Y53090D02*
Y57200D01*
G01D02*
Y61310D01*
G01Y57200D02*
X316510D01*
G01X338700Y305590D02*
Y308600D01*
G01D02*
Y311610D01*
G01X335690Y308600D02*
X338700D01*
G01D02*
X341710D01*
G01X338800Y347590D02*
Y350600D01*
G01D02*
Y353610D01*
G01X335790Y350600D02*
X338800D01*
G01D02*
X341810D01*
G01X340000Y389490D02*
Y392500D01*
G01D02*
Y395510D01*
G01X336990Y392500D02*
X340000D01*
G01D02*
X343010D01*
G01X331700Y421990D02*
Y425000D01*
G01D02*
Y428010D01*
G01X328690Y425000D02*
X331700D01*
G01D02*
X334710D01*
G54D19*
X130800Y45000D03*
X180800D03*
X209100Y363300D03*
X230800Y45000D03*
X270800Y55000D03*
G54D29*
G01X16400Y401600D02*
X24000D01*
X24200Y401800D01*
X42600D01*
G01X93100Y369400D02*
X113500D01*
X120700Y376600D01*
Y377300D01*
G01X156700Y432400D02*
X145800Y443300D01*
X103200D01*
X98800Y438900D01*
Y432500D01*
G01X120700Y377300D02*
X127600Y370400D01*
X160200D01*
X167500Y363100D01*
G01X102600Y401800D02*
Y395190D01*
X102700Y395090D01*
Y379300D01*
G01X130000Y432500D02*
X154100Y408400D01*
X183800D01*
G01X167500Y363100D02*
X156810Y352410D01*
Y260490D01*
X169300Y248000D01*
Y237160D01*
X169100Y236960D01*
Y232900D01*
G01D02*
X179100D01*
G01Y363300D02*
Y349100D01*
G01Y363300D02*
X167700D01*
G01X187900Y432400D02*
X200200D01*
X203800Y436000D01*
X214500D01*
G01X206000Y408400D02*
X229900D01*
X257500Y436000D01*
M02*
