M48
INCH,LZ
T01C.07
T02C.065
T03C.06
T04C.042
T05C.037
T06C.035
T07C.028
T08C.02
T09C.125
;LEADER: 12 
;HEADER: 
;CODE  : ASCII 
;FILE  : NCdrill-1-2.drl for board LinkingInterfaceV2_16.1.brd ... layers TOP and BOTTOM
;T01 Holesize 1. = 70.000000 Tolerance = +0.000000/-0.000000 PLATED MILS Quantity = 8
;T02 Holesize 2. = 65.000000 Tolerance = +0.000000/-0.000000 PLATED MILS Quantity = 14
;T03 Holesize 3. = 60.000000 Tolerance = +0.000000/-0.000000 PLATED MILS Quantity = 2
;T04 Holesize 4. = 42.000000 Tolerance = +0.000000/-0.000000 PLATED MILS Quantity = 36
;T05 Holesize 5. = 37.000000 Tolerance = +0.000000/-0.000000 PLATED MILS Quantity = 40
;T06 Holesize 6. = 35.000000 Tolerance = +0.000000/-0.000000 PLATED MILS Quantity = 10
;T07 Holesize 7. = 28.000000 Tolerance = +0.000000/-0.000000 PLATED MILS Quantity = 3
;T08 Holesize 8. = 20.000000 Tolerance = +0.000000/-0.000000 PLATED MILS Quantity = 57
;T09 Holesize 9. = 125.000000 Tolerance = +0.000000/-0.000000 NON_PLATED MILS Quantity = 6
%
G90
T01
X030711Y032654
X033467Y032654
X030681Y028424
X033437Y028424
X030851Y036924
X033607Y036924
X030851Y040704
X033607Y040704
T02
X00164Y04016
X00164Y0386
X00988Y04325
R02X00156
X02037Y02879
X01881Y02879
X01567Y04324
R02X00156
X02301Y0436
X02145Y0436
X02731Y0436
X02575Y0436
T03
X00426Y04018
X01026Y04018
T04
X00237Y03426
X00337Y03026
R04Y001
X00237Y03026
R03Y001
X01299Y02818
X00899Y02718
R04X001
X00899Y02818
R03X001
X03124Y02072
R15Y-001
T05
X02708Y0055
X02708Y0045
X02608Y0055
X02608Y0045
X02508Y0055
X02508Y0045
X02408Y0055
X02408Y0045
X02308Y0055
X02308Y0045
X02208Y0055
X02208Y0045
X02108Y0055
X02108Y0045
X02008Y0055
X02008Y0045
X01908Y0055
X01908Y0045
X01808Y0055
X01808Y0045
X01708Y0055
X01708Y0045
X01608Y0055
X01608Y0045
X01508Y0055
X01508Y0045
X01408Y0055
X01408Y0045
X01308Y0055
X01308Y0045
X01208Y0055
X01208Y0045
X01108Y0055
X01108Y0045
X01008Y0055
X01008Y0045
X00908Y0055
X00908Y0045
X00808Y0055
X00808Y0045
T06
X02091Y03633
R03Y001
X01791Y03933
R03Y-001
X02418Y03137
X02423Y02713
T07
X01588Y00904
X01538Y00979
X01488Y00904
T08
X00999Y02547
X01058Y01332
X020547Y014817
X014523Y017803
X025349Y01782
X01882Y02072
X01527Y02413
X00901Y03018
X03387Y03086
X00599Y03623
X03388Y03506
X034Y03925
X03317Y0425
X01325Y01306
X00855Y0186
X01245Y01383
X01838Y04084
X0206Y04084
X01457Y03521
X01457Y032569
X024282Y03847
X015674Y016326
X02225Y02714
X01898Y02202
X01149Y02957
X02144Y01213
X018Y01485
X02775Y01821
X01966Y01777
X01875Y03318
X01652Y03748
X02091Y03492
X01691Y02329
X00931Y03694
X00559Y03126
X0223Y01974
X0099Y01974
X01432Y01974
X00702Y02718
X00516Y03226
X02158Y01113
X0209Y00333
X01762Y00333
X01482Y02718
X00098Y03226
X02241Y03252
X00056Y03326
X00473Y03425
X00535Y02733
X00532Y02616
X02832Y03435
X02815Y03023
X01655Y03833
X02618Y03237
X02418Y03337
X02623Y02813
X02423Y02913
T09
X001Y001
X001Y025
X001Y044
X034Y001
X034Y025
X034Y044
M30
